<?xml version="1.0" encoding="UTF-8"?>
<svg xmlns="http://www.w3.org/2000/svg" id="Layer_1" data-name="Layer 1" viewBox="0 0 24 24" width="512" height="512"><path d="M10.477,14.061l-1.493,1.493,1.461,1.386c.586,.585,.586,1.536,0,2.121-.293,.293-.677,.439-1.061,.439s-.768-.146-1.061-.439l-1.461-1.461c-1.149-1.149-1.149-3.019,0-4.167l1.493-1.493c.586-.586,1.535-.586,2.121,0,.586,.585,.586,1.536,0,2.121Zm3.046-2.167c-.586,.585-.586,1.536,0,2.121l1.493,1.418-1.461,1.46c-.586,.586-.586,1.536,0,2.122,.293,.293,.677,.439,1.061,.439s.768-.146,1.061-.439l1.461-1.461c1.148-1.149,1.148-3.019,0-4.167l-1.493-1.493c-.586-.586-1.535-.586-2.121,0Zm8.477-3.737v10.343c0,3.033-2.467,5.5-5.5,5.5H7.5c-3.033,0-5.5-2.467-5.5-5.5V5.5C2,2.467,4.467,0,7.5,0h6.343c1.469,0,2.85,.572,3.889,1.611l2.657,2.657c1.039,1.039,1.611,2.419,1.611,3.889Zm-3,.843h-4c-1.105,0-2-.895-2-2V3H7.5c-1.378,0-2.5,1.122-2.5,2.5v13c0,1.378,1.122,2.5,2.5,2.5h9c1.378,0,2.5-1.122,2.5-2.5V9Z"/></svg>
