<?xml version="1.0" encoding="UTF-8"?>
<svg xmlns="http://www.w3.org/2000/svg" id="Layer_1" data-name="Layer 1" viewBox="0 0 24 24" width="512" height="512"><path d="M23.561,21.439l-6.135-6.135,2.861-2.933c1.105-1.147,1.713-2.656,1.713-4.249,0-3.376-2.747-6.123-6.123-6.123h-7.754c-1.115,0-2.19,.309-3.131,.871L2.561,.439C1.975-.146,1.025-.146,.439,.439-.146,1.025-.146,1.975,.439,2.561L21.439,23.561c.293,.293,.677,.439,1.061,.439s.768-.146,1.061-.439c.586-.585,.586-1.536,0-2.121ZM8.123,5h7.754c1.722,0,3.123,1.401,3.123,3.123,0,.812-.311,1.582-.868,2.161l-2.829,2.899L7.257,5.136c.28-.081,.569-.136,.866-.136Zm7.877,16.5v1c0,.545-.296,1.048-.773,1.312-.227,.125-.477,.188-.727,.188-.276,0-.552-.076-.795-.228l-4-2.5c-.438-.274-.705-.755-.705-1.272v-2.194L3.529,12.397c-.683-.709-1.179-1.547-1.461-2.45-.247-.791,.194-1.632,.984-1.879,.79-.25,1.632,.194,1.879,.984,.144,.461,.397,.889,.733,1.238l5.89,5.822c.285,.282,.445,.666,.445,1.067v1.989l1.7,1.062c.232-.146,.506-.231,.8-.231,.829,0,1.5,.671,1.5,1.5Z"/></svg>
