<?xml version="1.0" encoding="UTF-8"?>
<svg xmlns="http://www.w3.org/2000/svg" id="Layer_1" data-name="Layer 1" viewBox="0 0 24 24" width="512" height="512"><path d="M.051,7.713a5.08,5.08,0,0,1,0-1.4,5.034,5.034,0,0,1,3.3-4.027A4.819,4.819,0,0,1,5.966,2.1,5.981,5.981,0,0,1,14.949,2c.014.017.08.091.093.107a2.386,2.386,0,0,1,.89-.11A5,5,0,0,1,20.01,4.035a3.5,3.5,0,0,1,3.928,2.8,1.5,1.5,0,0,1-2.949.557.509.509,0,0,0-.354-.371.479.479,0,0,0-.246,0,2.492,2.492,0,0,1-2.721-1.091A2.2,2.2,0,0,0,15.873,5a2.727,2.727,0,0,1-3.123-.953,2.957,2.957,0,0,0-4.607.132,2.524,2.524,0,0,1-2.671.885,1.873,1.873,0,0,0-1.127.055,2.035,2.035,0,0,0-1.326,1.6,2.067,2.067,0,0,0,0,.572,1.5,1.5,0,0,1-2.97.426ZM23.2,21.733a3.554,3.554,0,0,1-3.928,1.04,4.981,4.981,0,0,1-5.89.477,5.952,5.952,0,0,1-5.492.138.636.636,0,0,0-.574.041A5,5,0,0,1,.174,17.668a5.012,5.012,0,0,1,6.075-3.5c.084.023.231.069.426.136a.378.378,0,0,0,.3-.008,5.482,5.482,0,0,1,7.128.066,7.7,7.7,0,0,1,1.123-.3,4.965,4.965,0,0,1,4.782,1.972,3.5,3.5,0,0,1,3.928,2.8h0A3.513,3.513,0,0,1,23.2,21.733Zm-2.206-2.345a.51.51,0,0,0-.354-.37.471.471,0,0,0-.247,0,2.5,2.5,0,0,1-2.72-1.092,1.935,1.935,0,0,0-1.9-.908,4.569,4.569,0,0,0-.72.194,2.908,2.908,0,0,1-2.9-.576,2.52,2.52,0,0,0-3.235-.048,3.332,3.332,0,0,1-3.193.56c-.12-.041-.208-.071-.258-.084A1.9,1.9,0,0,0,4.15,17.2a1.949,1.949,0,0,0-1.075,1.238,2,2,0,0,0,2.837,2.341,3.6,3.6,0,0,1,3.3-.076,2.9,2.9,0,0,0,2.841-.151,2.523,2.523,0,0,1,2.809.092,2.007,2.007,0,0,0,2.524-.213,2.458,2.458,0,0,1,2.893-.48.538.538,0,0,0,.6-.128A.5.5,0,0,0,20.989,19.388ZM20.468,9.3a5.092,5.092,0,0,0-2.543-.229.609.609,0,0,1-.547-.147,5.978,5.978,0,0,0-7.847-.8.306.306,0,0,1-.236.06,5.044,5.044,0,0,0-5.813,2.678,1.5,1.5,0,0,0,2.71,1.288,2.005,2.005,0,0,1,2.3-1.077,3.3,3.3,0,0,0,2.788-.51,3,3,0,0,1,3.9.4,3.586,3.586,0,0,0,3.243,1.07,2.137,2.137,0,0,1,1.063.1,2.255,2.255,0,0,1,1.484,1.714,1.5,1.5,0,0,0,2.958-.5A5.3,5.3,0,0,0,20.468,9.3Z"/></svg>
