<?xml version="1.0" encoding="UTF-8"?>
<svg xmlns="http://www.w3.org/2000/svg" id="Layer_1" data-name="Layer 1" viewBox="0 0 24 24" width="512" height="512"><path d="M10.036,8c.243,1.694,1.704,3,3.464,3h7c1.93,0,3.5-1.57,3.5-3.5v-2c0-1.93-1.57-3.5-3.5-3.5h-1.879l-1.268-1.268c-.472-.473-1.1-.732-1.768-.732h-2.086c-1.93,0-3.5,1.57-3.5,3.5v1.5H3V1.5C2.966-.472,.033-.471,0,1.5V15.5c0,3.032,2.467,5.5,5.5,5.5h4.536c.243,1.694,1.704,3,3.464,3h7c1.93,0,3.5-1.57,3.5-3.5v-2c0-1.93-1.57-3.5-3.5-3.5h-1.879l-1.268-1.268c-.472-.473-1.1-.732-1.768-.732h-2.086c-1.93,0-3.5,1.57-3.5,3.5v1.5H5.5c-1.378,0-2.5-1.121-2.5-2.5v-7.5h7.036Zm2.964-4.5c0-.275,.224-.5,.5-.5h1.879l1.268,1.268c.472,.473,1.1,.732,1.768,.732h2.086c.276,0,.5,.225,.5,.5v2c0,.275-.224,.5-.5,.5h-7c-.276,0-.5-.225-.5-.5V3.5Zm0,13c0-.275,.224-.5,.5-.5h1.879l1.268,1.268c.472,.473,1.1,.732,1.768,.732h2.086c.276,0,.5,.225,.5,.5v2c0,.275-.224,.5-.5,.5h-7c-.276,0-.5-.225-.5-.5v-4Z"/></svg>
