<?xml version="1.0" encoding="UTF-8"?>
<svg xmlns="http://www.w3.org/2000/svg" id="Layer_1" data-name="Layer 1" viewBox="0 0 24 24" width="512" height="512"><path d="M11,16.037a2.995,2.995,0,1,1-4.5-2.584V6.5a1.5,1.5,0,0,1,3,0v6.953A2.987,2.987,0,0,1,11,16.037Zm3-5.308c4.57,4.954.738,13.406-6,13.271-6.737.135-10.571-8.318-6-13.271V6.037c.253-7.932,11.75-7.926,12,0ZM13,16a4.952,4.952,0,0,0-1.541-3.59A1.5,1.5,0,0,1,11,11.33V6.037a3,3,0,0,0-6,0V11.33a1.5,1.5,0,0,1-.459,1.08A4.994,4.994,0,1,0,13,16Zm8-5.5V5.163h1.663a1.006,1.006,0,0,0,.707-1.707L20.207.293a1,1,0,0,0-1.414,0L15.63,3.456a1.006,1.006,0,0,0,.707,1.707H18V10.5A1.5,1.5,0,0,0,21,10.5Z"/></svg>
