<?xml version="1.0" encoding="UTF-8"?>
<svg xmlns="http://www.w3.org/2000/svg" id="Layer_1" data-name="Layer 1" viewBox="0 0 24 24" width="512" height="512"><path d="M15.938,8.288c.298,1.696-.509,3.391-2.008,4.217,0,0-.415,.218-.466,.245-.157,.677-.757,1.251-1.463,1.251-.811-.023-1.5-.688-1.5-1.5,0-1.585,1.13-2.176,1.737-2.493l.243-.129c.291-.16,.596-.537,.502-1.071-.067-.383-.406-.722-.789-.789-.613-.11-1.129,.316-1.224,.781-.165,.811-.957,1.33-1.769,1.171-.812-.165-1.336-.957-1.171-1.769,.429-2.11,2.531-3.518,4.683-3.139,1.615,.283,2.941,1.61,3.225,3.225Zm-3.938,7.712c-.828,0-1.5,.672-1.5,1.5s.672,1.5,1.5,1.5,1.5-.672,1.5-1.5-.672-1.5-1.5-1.5ZM24,5.5v13c0,3.032-2.467,5.5-5.5,5.5H5.5c-3.033,0-5.5-2.468-5.5-5.5V5.5C0,2.467,2.467,0,5.5,0h13c3.033,0,5.5,2.467,5.5,5.5Zm-3,0c0-1.378-1.122-2.5-2.5-2.5H5.5c-1.378,0-2.5,1.122-2.5,2.5v13c0,1.379,1.122,2.5,2.5,2.5h13c1.378,0,2.5-1.121,2.5-2.5V5.5Z"/></svg>
