<?xml version="1.0" encoding="UTF-8"?>
<svg xmlns="http://www.w3.org/2000/svg" id="Layer_1" data-name="Layer 1" viewBox="0 0 24 24" width="512" height="512"><path d="M6.058,16.5c0,.828-.672,1.5-1.5,1.5s-1.5-.672-1.5-1.5,.672-1.5,1.5-1.5,1.5,.672,1.5,1.5Zm8.442,3.5h-5c-.829,0-1.5,.672-1.5,1.5s.671,1.5,1.5,1.5h5c.828,0,1.5-.672,1.5-1.5s-.672-1.5-1.5-1.5Zm-9.942,0c-.828,0-1.5,.672-1.5,1.5s.672,1.5,1.5,1.5,1.5-.672,1.5-1.5-.672-1.5-1.5-1.5Zm5-2c.828,0,1.5-.672,1.5-1.5s-.672-1.5-1.5-1.5-1.5,.672-1.5,1.5,.672,1.5,1.5,1.5Zm14.442-9.698l-.081,1.632c.002,1.656-1.408,3.066-3.141,3.066-.065,0-2.452-.309-2.452-.309-1.621-.058-2.934-1.348-3.025-2.96l-.027-.13c-1.11-.394-2.211-.596-3.281-.602-1.076,.03-2.182,.192-3.263,.589l-.031,.144c-.092,1.611-1.404,2.901-3.024,2.959,0,0-2.387,.309-2.453,.309C1.489,13,.079,11.59,.079,9.857L.002,8.376c-.003-1.539,.581-2.932,1.644-3.995C3.744,2.283,7.612,1.02,11.993,1c4.385,.007,8.191,1.212,10.36,3.381,1.063,1.062,1.647,2.455,1.646,3.921Zm-2.998-.077c0-.589-.274-1.227-.77-1.723-1.547-1.546-4.659-2.502-8.139-2.502-3.501,.016-6.822,.998-8.327,2.502-.495,.496-.768,1.134-.767,1.798l.077,1.482c.001,.124,.044,.19,.102,.211l2.188-.287c.142-.02,.338-.011,.337-.155,0-.104,.254-1.361,.254-1.361,.1-.469,.417-.862,.855-1.059,1.677-.751,3.464-1.131,5.194-1.131,1.701,.009,3.435,.386,5.156,1.12,.45,.192,.778,.592,.879,1.07,0,0,.254,1.256,.254,1.36,0,.145,.194,.136,.339,.155l2.188,.287c.058-.019,.099-.072,.099-.136l.081-1.633Zm-1.444,6.775c-.828,0-1.5,.672-1.5,1.5s.672,1.5,1.5,1.5,1.5-.672,1.5-1.5-.672-1.5-1.5-1.5Zm-5,0c-.828,0-1.5,.672-1.5,1.5s.672,1.5,1.5,1.5,1.5-.672,1.5-1.5-.672-1.5-1.5-1.5Zm5,5c-.828,0-1.5,.672-1.5,1.5s.672,1.5,1.5,1.5,1.5-.672,1.5-1.5-.672-1.5-1.5-1.5Z"/></svg>
