<?xml version="1.0" encoding="UTF-8"?>
<svg xmlns="http://www.w3.org/2000/svg" id="Layer_1" data-name="Layer 1" viewBox="0 0 24 24" width="512" height="512"><path d="M16.5,0c-4.276,0-7.5,1.935-7.5,4.5,0,.2,.02,.397,.058,.589-.5-.059-1.021-.089-1.558-.089C3.224,5,0,6.935,0,9.5v10c0,2.565,3.224,4.5,7.5,4.5s7.5-1.935,7.5-4.5v-.585c.491,.056,.994,.085,1.5,.085,4.276,0,7.5-1.935,7.5-4.5V4.5c0-2.565-3.224-4.5-7.5-4.5Zm4.5,9.5c0,.374-1.596,1.5-4.5,1.5-.513,0-1.018-.037-1.5-.109v-1.391c0-.2-.02-.397-.058-.589,.5,.059,1.021,.089,1.558,.089,1.716,0,3.263-.312,4.5-.851v1.351ZM3,13.149c1.237,.539,2.784,.851,4.5,.851s3.263-.312,4.5-.851v1.351c0,.374-1.596,1.5-4.5,1.5s-4.5-1.126-4.5-1.5v-1.351ZM16.5,3c2.904,0,4.5,1.126,4.5,1.5s-1.596,1.5-4.5,1.5-4.5-1.126-4.5-1.5,1.596-1.5,4.5-1.5ZM7.5,8c2.904,0,4.5,1.126,4.5,1.5s-1.596,1.5-4.5,1.5-4.5-1.126-4.5-1.5,1.596-1.5,4.5-1.5Zm0,13c-2.904,0-4.5-1.126-4.5-1.5v-1.351c1.237,.539,2.784,.851,4.5,.851s3.263-.312,4.5-.851v1.351c0,.374-1.596,1.5-4.5,1.5Zm9-5c-.513,0-1.018-.037-1.5-.109v-1.976c.491,.056,.994,.085,1.5,.085,1.716,0,3.263-.312,4.5-.851v1.351c0,.374-1.596,1.5-4.5,1.5Z"/></svg>
