<?xml version="1.0" encoding="UTF-8"?>
<svg xmlns="http://www.w3.org/2000/svg" id="Layer_1" data-name="Layer 1" viewBox="0 0 24 24" width="512" height="512"><path d="M22.5,16c-.829,0-1.5,.672-1.5,1.5v1.001c0,.275-.224,.499-.499,.499-.18,0-.298-.092-.353-.146s-.146-.173-.146-.354l.013-9.991c.002-1.738-.673-3.373-1.901-4.603s-2.861-1.906-4.599-1.906H6.5C2.917,2,0,4.916,0,8.5v10.5c-.001,.802,.31,1.555,.876,2.121,.566,.567,1.319,.879,2.128,.879,1.645,0,2.986-1.342,2.99-2.992l.002-1.008h3.009l-.002,.994c-.002,.803,.309,1.558,.875,2.125,.567,.568,1.32,.881,2.123,.881,1.653,0,2.999-1.345,2.999-2.998v-1.002h2s.001,.575,.004,.613c.028,.892,.388,1.727,1.021,2.36,.661,.662,1.54,1.026,2.475,1.026,1.929,0,3.499-1.569,3.499-3.499v-1.001c0-.828-.671-1.5-1.5-1.5ZM6.5,5h7.015c.936,0,1.815,.364,2.476,1.026,.662,.662,1.025,1.543,1.024,2.479l-.007,5.495H3v-5.5c0-1.93,1.571-3.5,3.501-3.5Zm-.5,4.5c0-.828,.672-1.5,1.5-1.5s1.5,.672,1.5,1.5-.672,1.5-1.5,1.5-1.5-.672-1.5-1.5Zm5,0c0-.828,.672-1.5,1.5-1.5s1.5,.672,1.5,1.5-.672,1.5-1.5,1.5-1.5-.672-1.5-1.5Z"/></svg>
