<?xml version="1.0" encoding="UTF-8"?>
<svg xmlns="http://www.w3.org/2000/svg" id="Layer_1" data-name="Layer 1" viewBox="0 0 24 24" width="512" height="512"><path d="M15,11.5c.22,6.231,9.399,5.774,8.943-.408l-2.526-8.939c-.45-1.502-1.948-2.403-3.514-2.089l-4.482,.981c-.48-1.6-2.941-1.235-2.922,.455v.185l-4.527,.991c-1.635,.327-2.949,1.522-3.428,3.119L.063,14.069c-.396,2.599,1.85,4.953,4.436,4.931,2.589,.024,4.853-2.35,4.43-4.952L6.294,5.7c.093-.038,.191-.068,.294-.088l3.912-.858V21H5.5c-1.972,.033-1.971,2.967,0,3h13c1.972-.033,1.971-2.967,0-3h-5V4.097l3.922-.86-2.358,7.831c-.042,.14-.063,.286-.063,.433Zm-10.541-1.646l1.31,4.146H3.216l1.243-4.146Zm15.09-3.279l1.25,4.425h-2.583l1.333-4.425Z"/></svg>
