<?xml version="1.0" encoding="UTF-8"?>
<svg xmlns="http://www.w3.org/2000/svg" id="Layer_1" data-name="Layer 1" viewBox="0 0 24 24" width="512" height="512"><path d="M2,5.75A3.256,3.256,0,0,1,4.86,2.523,4,4,0,0,1,9.175,1.18a4.008,4.008,0,0,1,5.65,0A4,4,0,0,1,19.14,2.523,3.253,3.253,0,0,1,18.75,9H14.5a1.5,1.5,0,0,1,0-3h4.25a.25.25,0,0,0,0-.5,1.564,1.564,0,0,1-1.825-.874,1,1,0,0,0-1.585-.364,1.5,1.5,0,0,1-2.408-.6.994.994,0,0,0-1.864,0,1.51,1.51,0,0,1-2.408.6,1,1,0,0,0-1.585.364,1.5,1.5,0,0,1-1.765.888A.246.246,0,1,0,5.25,6H9.5a1.5,1.5,0,0,1,0,3H5.25A3.254,3.254,0,0,1,2,5.75ZM23.691,21.958A3.487,3.487,0,0,1,20.473,24H3.527A3.487,3.487,0,0,1,.309,21.958,3.355,3.355,0,0,1,.84,18.329c.028-.032,7.116-6.906,7.116-6.906A1.5,1.5,0,0,1,9,11h6a1.5,1.5,0,0,1,1.044.423s7.088,6.874,7.116,6.906A3.355,3.355,0,0,1,23.691,21.958Zm-7.708-6.416c0,.01,0,.01,0,0Zm-7.969,0c0,.007,0,.007,0,0Zm12.911,4.788L16,15.559V18.5a1.5,1.5,0,0,1-3,0V15.9c-.005-1.178-1.995-1.177-2,0v.6a1.5,1.5,0,0,1-3,0v-.941L3.075,20.333a.351.351,0,0,0-.037.379A.5.5,0,0,0,3.527,21H20.473a.5.5,0,0,0,.489-.288A.351.351,0,0,0,20.925,20.333Z"/></svg>
