<?xml version="1.0" encoding="UTF-8"?>
<svg xmlns="http://www.w3.org/2000/svg" id="Layer_1" data-name="Layer 1" viewBox="0 0 24 24" width="512" height="512"><path d="M23.561,21.439l-1.205-1.205c.42-.772,.645-1.642,.645-2.534v-5.406c0-3.425-1.499-6.634-4.111-8.805C16.379,1.404,13.21,.587,9.963,1.194c-1.675,.312-3.242,1.013-4.599,2.048L2.561,.439C1.975-.146,1.025-.146,.439,.439S-.146,1.975,.439,2.561L21.439,23.561c.293,.293,.677,.439,1.061,.439s.768-.146,1.061-.439c.586-.586,.586-1.535,0-2.121ZM10.513,4.144c2.354-.438,4.647,.147,6.46,1.653,1.896,1.575,3.028,4.004,3.028,6.497v5.406c0,.058-.003,.115-.007,.172L7.511,5.39c.906-.621,1.924-1.046,3.001-1.247Zm5.487,17.355c0,.828-.67,1.5-1.499,1.501h-1.564c-3.755,0-7.188-1.503-9.421-4.126C1.474,16.476,.633,13.401,1.148,10.217c.061-.377,.142-.749,.241-1.112,.218-.8,1.043-1.271,1.842-1.052,.799,.219,1.27,1.044,1.051,1.843-.071,.262-.129,.528-.173,.799-.373,2.304,.228,4.518,1.69,6.235,1.662,1.952,4.263,3.071,7.136,3.071h1.564c.828,0,1.5,.67,1.5,1.498Z"/></svg>
