<?xml version="1.0" encoding="UTF-8"?>
<svg xmlns="http://www.w3.org/2000/svg" id="Layer_1" data-name="Layer 1" viewBox="0 0 24 24" width="512" height="512"><path d="M22.749,9.077a4.172,4.172,0,0,0-1.813-1.065A4.343,4.343,0,0,0,21,7.271a4.269,4.269,0,0,0-5.075-4.193,4.285,4.285,0,0,0-1.086-1.827A4.242,4.242,0,0,0,11.819,0,4.572,4.572,0,0,0,8.7,1.356C4.287,6.708,2.986,12.465,2.037,16.669l-.1.445-.911.911a3.5,3.5,0,0,0,4.95,4.95l1.19-1.19.392-.088c4.2-.945,9.942-2.238,15.087-6.484A4.395,4.395,0,0,0,22.749,9.077ZM10.964,3.331a1.3,1.3,0,0,1,1.754.042,1.332,1.332,0,0,1,.386.939,1.267,1.267,0,0,1-.359.912l.02.02c-1.472,1.6-3.449,3.946-4.813,5.587l-.86-.86A25.042,25.042,0,0,1,10.964,3.331ZM7.3,18.679,5.146,16.525c.242-1.056.516-2.2.864-3.394l4.71,4.71C9.534,18.169,8.385,18.435,7.3,18.679Zm2.782-5.717c1.644-1.981,4.344-5.186,5.748-6.59a1.271,1.271,0,0,1,1.8,0,1.258,1.258,0,0,1,.372.9,2.739,2.739,0,0,1-.464,1c-.164.2-4.651,4.231-6.465,5.681Zm10.586-.009A24.037,24.037,0,0,1,13.923,16.8l-.718-.718c1.721-1.38,4.168-3.4,5.7-4.9a1.292,1.292,0,0,1,.855-.341h.015a1.2,1.2,0,0,1,.855.355A1.273,1.273,0,0,1,20.669,12.953Z"/></svg>
