<?xml version="1.0" encoding="UTF-8"?>
<svg xmlns="http://www.w3.org/2000/svg" id="Layer_1" data-name="Layer 1" viewBox="0 0 24 24" width="512" height="512"><path d="M12.835,.029C9.366-.219,5.961,1.066,3.508,3.521,1.056,5.977-.211,9.378,.029,12.853c.441,6.355,6.032,11.147,13.005,11.147h5.647c2.933,0,5.318-2.386,5.318-5.318v-6.357C24,5.854,19.096,.453,12.835,.029Zm5.76,12.612c-.752-.277-1.43-.58-1.43-.58-.6-.382-.864-.969-.777-1.579,.094-.649,.568-1.178,1.239-1.38,.236-.071,.464-.101,.68-.101,.993-.003,1.729,.614,1.766,.645,.142,.115,.239,.283,.239,.48,0,.345-.28,.625-.625,.625-.157,0-.296-.063-.405-.158-.021-.017-.437-.332-.946-.34-.112-.002-.23,.012-.349,.047-.293,.088-.351,.282-.362,.361-.008,.059-.013,.206,.13,.302,.016,0,.614,.263,1.272,.506,1.223,.451,1.529,1.336,1.408,2.014-.16,.899-1.019,1.552-2.04,1.552-.814,0-1.597-.354-2.124-.92-.1-.111-.164-.254-.164-.414,0-.345,.28-.625,.625-.625,.183,0,.343,.081,.458,.206,.286,.315,.738,.503,1.206,.503,.448,0,.764-.265,.81-.521,.062-.345-.451-.562-.61-.621ZM12.015,3.001c.205,0,.411,.007,.617,.021,2.805,.19,5.246,1.727,6.757,3.979H4.518c.323-.485,.695-.941,1.114-1.359,1.694-1.696,3.992-2.64,6.383-2.64Zm2.985,11.374c0,.345-.28,.625-.625,.625s-.625-.28-.625-.625h-.003v-3.267l-1.281,1.388c-.251,.272-.681,.272-.932,0l-1.282-1.389-.002,3.269c0,.345-.28,.625-.625,.625s-.625-.28-.625-.625v-4.75c0-.345,.28-.625,.625-.625,.445,0,.772,.165,1.023,.452l1.352,1.548,1.333-1.526c.263-.301,.643-.473,1.042-.474,.345,0,.625,.28,.625,.625l-.003,4.734,.003,.016Zm-11.286-.261c-.1-.111-.164-.254-.164-.414,0-.345,.28-.625,.625-.625,.183,0,.343,.081,.458,.206,.286,.315,.738,.503,1.206,.503,.448,0,.764-.265,.81-.521,.062-.345-.451-.562-.61-.621-.752-.277-1.43-.58-1.43-.58-.6-.382-.864-.969-.777-1.579,.094-.649,.568-1.178,1.239-1.38,.236-.071,.464-.101,.68-.101,.993-.003,1.729,.614,1.766,.645,.142,.115,.239,.283,.239,.48,0,.345-.28,.625-.625,.625-.157,0-.296-.063-.405-.158-.021-.017-.437-.332-.946-.34-.112-.002-.23,.012-.349,.047-.293,.088-.351,.282-.362,.361-.008,.059-.013,.206,.13,.302,.016,0,.614,.263,1.272,.506,1.223,.451,1.529,1.336,1.408,2.014-.16,.899-1.019,1.552-2.04,1.552-.814,0-1.597-.354-2.124-.92Zm14.967,6.886h-5.647c-3.625,0-6.698-1.546-8.454-4H21v1.682c0,1.278-1.04,2.318-2.318,2.318Z"/></svg>
