<?xml version="1.0" encoding="UTF-8"?>
<svg xmlns="http://www.w3.org/2000/svg" id="Layer_1" data-name="Layer 1" viewBox="0 0 24 24" width="512" height="512"><defs><style>
      .cls-1 {
        fill: #1d1d1b;
      }
    </style></defs><path class="cls-1" d="M10.604,9.561l-1.49,1.49,1.425,1.367c.598,.574,.617,1.523,.044,2.121-.295,.307-.688,.461-1.083,.461-.374,0-.748-.139-1.039-.417l-1.638-1.572c-1.088-1.088-1.088-2.824-.022-3.89l1.681-1.681c.586-.586,1.535-.586,2.121,0,.586,.585,.586,1.536,0,2.121Zm4.914-2.121c-.586-.586-1.535-.586-2.121,0-.586,.585-.586,1.536,0,2.121l1.49,1.49-1.425,1.367c-.598,.574-.617,1.523-.044,2.121,.295,.307,.688,.461,1.083,.461,.374,0,.748-.139,1.039-.417l1.66-1.594c1.066-1.066,1.066-2.802,0-3.868l-1.681-1.681Zm8.482,10.561v1.154c0,1.02-.827,1.846-1.846,1.846H1.846c-1.02,0-1.846-.827-1.846-1.846v-1.154c0-1.105,.895-2,2-2v-7.5c0-3.033,2.467-5.5,5.5-5.5h9c3.033,0,5.5,2.467,5.5,5.5v7.5c1.105,0,2,.895,2,2Zm-8.308-2h3.308v-7.5c0-1.378-1.122-2.5-2.5-2.5H7.5c-1.378,0-2.5,1.122-2.5,2.5v7.5h3.308l.923,1h5.538l.923-1Z"/></svg>
