<?xml version="1.0" encoding="UTF-8"?>
<svg xmlns="http://www.w3.org/2000/svg" id="Layer_1" data-name="Layer 1" viewBox="0 0 24 24" width="512" height="512"><path d="M15.5,18h-7a1.5,1.5,0,0,1,0-3h7A1.5,1.5,0,0,1,15.5,18ZM24,12A12.013,12.013,0,0,0,12,0C-3.9.6-3.893,23.4,12,24A12.013,12.013,0,0,0,24,12Zm-3,0a9.01,9.01,0,0,1-9,9C.076,20.548.081,3.45,12,3A9.01,9.01,0,0,1,21,12ZM16.5,6c-4.612.129-4.611,7.872,0,8C21.112,13.871,21.111,6.128,16.5,6Zm0,6c-1.114.045-1.833-1.743-1.352-2.85a1.514,1.514,0,0,0,2.7,0C18.333,10.257,17.614,12.045,16.5,12ZM11,10c-.128-5.278-6.872-5.277-7,0C4.128,15.278,10.872,15.277,11,10ZM6,10a2.479,2.479,0,0,1,.148-.85,1.514,1.514,0,0,0,2.7,0C9.772,11.956,6.265,13.4,6,10Z"/></svg>
