<?xml version="1.0" encoding="UTF-8"?>
<svg xmlns="http://www.w3.org/2000/svg" id="Layer_1" data-name="Layer 1" viewBox="0 0 24 24" width="512" height="512"><path d="M8.755,23.857c-.292,0-.586-.051-.871-.154-.835-.305-1.439-1.007-1.614-1.878l-.433-2.146-2.188-.053c-1.838,.011-3.089-2.156-2.159-3.74l1.048-1.922-1.643-1.448c-.667-.588-.972-1.462-.818-2.336,.154-.875,.74-1.592,1.567-1.916l2.039-.799-.327-2.165c-.133-.878,.193-1.743,.874-2.314,.681-.572,1.591-.743,2.432-.461l2.077,.698,1.141-1.868c.904-1.598,3.412-1.597,4.317,0l1.141,1.869,2.075-.698c.843-.283,1.753-.111,2.434,.461,.68,.571,1.007,1.437,.874,2.314l-.327,2.165,2.039,.799c1.731,.614,2.164,3.083,.75,4.252l-1.643,1.448,1.048,1.923c.425,.78,.414,1.705-.03,2.474-.444,.77-1.239,1.242-2.127,1.266l-2.19,.053-.433,2.146c-.176,.871-.78,1.573-1.615,1.877-.834,.303-1.748,.154-2.442-.4l-1.711-1.366-1.711,1.366c-.458,.365-1.01,.555-1.572,.555Zm3.283-5.34c.331,0,.662,.109,.936,.328l2.044,1.632,.517-2.565c.138-.687,.733-1.186,1.434-1.203l2.614-.062-1.252-2.297c-.335-.614-.201-1.38,.325-1.843l1.962-1.73-2.435-.954c-.652-.255-1.041-.928-.936-1.621l.391-2.586-2.479,.834c-.663,.223-1.394-.042-1.759-.641l-1.363-2.232-1.363,2.232c-.365,.599-1.096,.863-1.759,.641l-2.479-.834,.391,2.586c.105,.693-.284,1.366-.936,1.621l-2.436,.954,1.962,1.73c.525,.463,.66,1.229,.325,1.843l-1.252,2.297,2.615,.062c.701,.018,1.296,.517,1.434,1.203l.517,2.565,2.044-1.632c.274-.219,.605-.328,.936-.328Z"/></svg>
