<?xml version="1.0" encoding="UTF-8"?>
<svg xmlns="http://www.w3.org/2000/svg" id="Layer_1" data-name="Layer 1" viewBox="0 0 24 24" width="512" height="512"><path d="M23.561,23.561c-.293,.293-.677,.439-1.061,.439s-.768-.146-1.061-.439L10.941,13.062l-.004-.004L.439,2.561C-.146,1.975-.146,1.025,.439,.439,1.025-.146,1.975-.146,2.561,.439l2.103,2.103c.729-.343,1.524-.542,2.337-.542h9.5c3.033,0,5.5,2.467,5.5,5.5v2c0,.829-.671,1.5-1.5,1.5s-1.5-.671-1.5-1.5v-2c0-1.378-1.122-2.5-2.5-2.5h-3v6.379l10.061,10.061c.586,.585,.586,1.536,0,2.121ZM7.121,5l3.379,3.379v-3.379h-3.379Zm4.879,12c-.829,0-1.5,.671-1.5,1.5v2c0,.829,.671,1.5,1.5,1.5s1.5-.671,1.5-1.5v-2c0-.829-.671-1.5-1.5-1.5ZM2,9.5c0,.828,.672,1.5,1.5,1.5s1.5-.672,1.5-1.5-.672-1.5-1.5-1.5-1.5,.672-1.5,1.5Z"/></svg>
