<?xml version="1.0" encoding="UTF-8"?>
<svg xmlns="http://www.w3.org/2000/svg" id="Layer_1" data-name="Layer 1" viewBox="0 0 24 24" width="512" height="512"><path d="M21.557,7.153L15.318,.964C14.547,.232,13.5-.105,12.447,.03L5.821,.905c-.821,.109-1.399,.862-1.291,1.684,.108,.822,.867,1.402,1.684,1.291l6.626-.875c.15-.02,.301,.028,.388,.112l6.201,6.152c.757,.773,.756,2.03,.007,2.793l-.512,.512c-.113-.145-.236-.285-.367-.419l-6.238-6.189c-.771-.732-1.819-1.07-2.871-.935l-6.626,.875c-.701,.093-1.242,.663-1.299,1.368l-.511,6.396c-.086,1.059,.307,2.086,1.054,2.795l6.086,6.035c.947,.967,2.214,1.5,3.567,1.501h.005c1.352,0,2.617-.53,3.564-1.494l3.278-3.333c.927-.944,1.401-2.178,1.421-3.421l1.579-1.579c1.896-1.929,1.898-5.072-.01-7.02Zm-5.13,9.917l-3.277,3.333c-.379,.386-.887,.598-1.428,.598-.542,0-1.049-.214-1.442-.616l-6.124-6.072c-.109-.104-.166-.25-.153-.402l.414-5.189,5.424-.716c.148-.024,.301,.028,.388,.112l6.201,6.152c.757,.773,.756,2.03-.002,2.802Zm-7.427-5.57c-.034,1.972-2.967,1.971-3,0,.034-1.972,2.967-1.971,3,0Z"/></svg>
