<?xml version="1.0" encoding="UTF-8"?>
<svg xmlns="http://www.w3.org/2000/svg" id="Layer_1" data-name="Layer 1" viewBox="0 0 24 24" width="512" height="512"><path d="M8,21a3,3,0,0,1-6,0A3,3,0,0,1,8,21Zm11-3a3,3,0,0,0,0,6A3,3,0,0,0,19,18Zm-6.5,1h-1a1.5,1.5,0,0,0,0,3h1A1.5,1.5,0,0,0,12.5,19ZM23.918,4.454,22,13.654V15.5a1.5,1.5,0,0,1-3,0V15H5v.5a1.5,1.5,0,0,1-3,0V13.654L.075,4.424A3.132,3.132,0,0,1,3.693.66C3.834.687,5.146.991,5.331,1c1,0,1.874-1,3.169-1S10.974,1,12,1s2.185-1,3.605-1,2.528,1,3.077,1A8.111,8.111,0,0,0,20.307.66a3.132,3.132,0,0,1,3.611,3.794ZM3,3.78,4.719,12H19.281l1.708-8.189a.162.162,0,0,0-.032-.167.1.1,0,0,0-.1-.035c-.109.021-.268.058-.447.1A4.785,4.785,0,0,1,17,3.648V8.5a1.5,1.5,0,0,1-3,0V3.65a6.107,6.107,0,0,1-4,0V8.5a1.5,1.5,0,0,1-3,0V3.648a4.78,4.78,0,0,1-3.412.061c-.179-.042-.338-.079-.447-.1a.094.094,0,0,0-.1.035A.142.142,0,0,0,3,3.78Z"/></svg>
