<?xml version="1.0" encoding="UTF-8"?>
<svg xmlns="http://www.w3.org/2000/svg" id="Layer_1" data-name="Layer 1" viewBox="0 0 24 24" width="512" height="512"><path d="M21.967,4.158A3.969,3.969,0,0,0,23,1.5a1.5,1.5,0,0,0-3,0,1,1,0,0,1-2,0,1.5,1.5,0,0,0-3,0,3.954,3.954,0,0,0,.8,2.371A5.143,5.143,0,0,0,13.425,8.16,5.913,5.913,0,0,1,11.5,11.519a6.155,6.155,0,0,1-3.323,1.918A5.255,5.255,0,0,0,4.533,15a5.361,5.361,0,0,0-.655.8A3.964,3.964,0,0,0,1.5,15a1.5,1.5,0,0,0,0,3,1,1,0,0,1,0,2,1.5,1.5,0,0,0,0,3,3.966,3.966,0,0,0,2.655-1.031A5.273,5.273,0,0,0,8.3,24c.95,0,5.93-.267,10.682-5.007C23.758,14.225,24,9.263,24,8.317A5.3,5.3,0,0,0,21.967,4.158ZM16.858,16.869C12.938,20.781,9.026,21,8.289,21A2.291,2.291,0,0,1,6,18.729a2.284,2.284,0,0,1,2.279-2.293,9.016,9.016,0,0,0,5.341-2.793,8.6,8.6,0,0,0,2.8-5.4A2.245,2.245,0,0,1,18.712,6,2.305,2.305,0,0,1,21,8.317C21,9.055,20.8,12.938,16.858,16.869Z"/></svg>
