<?xml version="1.0" encoding="UTF-8"?>
<svg xmlns="http://www.w3.org/2000/svg" id="Layer_1" data-name="Layer 1" viewBox="0 0 24 24" width="512" height="512"><path d="M24,4c0,.613-.374,1.165-.943,1.393l-1.188,.476-.476,1.188c-.228,.569-.779,.943-1.393,.943s-1.165-.374-1.393-.943l-.481-1.204-1.208-.508c-.565-.238-.929-.797-.918-1.41,.012-.613,.396-1.158,.969-1.376l1.169-.442,.47-1.173c.228-.569,.779-.943,1.393-.943s1.165,.374,1.393,.943l.476,1.188,1.188,.476c.569,.228,.943,.779,.943,1.393Zm-2.436,6.002c-.829-.035-1.532,.592-1.575,1.421-.22,4.249-3.729,7.577-7.989,7.577-4.411,0-8-3.589-8-8S7.589,3,12,3c.426,0,.852,.033,1.263,.1,.82,.129,1.588-.427,1.719-1.244,.131-.818-.427-1.588-1.244-1.719-.568-.091-1.153-.137-1.737-.137C5.935,0,1,4.935,1,11c0,3.247,1.415,6.17,3.659,8.185l-.858,.715c-.892,.743-1.508,1.749-1.774,2.857-.152,.632,.326,1.244,.976,1.244H20.996c.65,0,1.128-.611,.976-1.244-.266-1.108-.882-2.113-1.774-2.857l-.851-.709c2.105-1.888,3.481-4.58,3.638-7.613,.043-.827-.593-1.532-1.421-1.575Zm-7.063-2.246c-.288-1.007-1.715-1.007-2.003,0l-.387,1.356-1.356,.387c-1.007,.288-1.007,1.715,0,2.003l1.356,.387,.387,1.356c.288,1.007,1.715,1.007,2.003,0l.387-1.356,1.356-.387c1.007-.288,1.007-1.715,0-2.003l-1.356-.387-.387-1.356Z"/></svg>
