<?xml version="1.0" encoding="UTF-8"?>
<svg xmlns="http://www.w3.org/2000/svg" id="Layer_1" data-name="Layer 1" viewBox="0 0 24 24" width="512" height="512"><path d="M10.5,14.5V4.364c0-.629-.286-1.364-1.091-1.364-.725,0-1.409,.729-1.409,1.5,0,.829-.672,1.5-1.5,1.5-.726,0-1.502,.509-1.502,1.268,0,.082,.014,.16,.027,.237,.112,.628-.185,1.259-.741,1.572-.805,.452-1.284,1.188-1.284,1.968,0,.655,.286,1.146,.526,1.444,.444,.55,.444,1.335,0,1.885-.24,.298-.526,.789-.526,1.444,0,.845,.474,1.622,1.235,2.03,.381,.204,.656,.562,.754,.984,.295,1.276,1.411,2.167,2.715,2.167,.408,0,.802-.086,1.167-.255,.754-.349,1.643-.019,1.991,.733,.347,.753,.019,1.644-.733,1.991-.764,.352-1.579,.53-2.425,.53-2.486,0-4.645-1.557-5.454-3.858-1.402-.99-2.25-2.593-2.25-4.323,0-.839,.197-1.647,.577-2.387-.38-.739-.577-1.548-.577-2.386,0-1.544,.75-3.022,2.006-4.037,.115-1.812,1.428-3.322,3.195-3.828,.567-1.82,2.266-3.181,4.208-3.181,1.022,0,1.934,.361,2.636,.975,.731-.612,1.672-.975,2.71-.975,1.92,0,3.547,1.338,4.083,3.174,1.743,.508,3.036,2.001,3.152,3.79,1.085,.863,1.81,2.053,1.993,3.321,.119,.82-.449,1.581-1.27,1.699-.073,.011-.146,.016-.217,.016-.733,0-1.374-.538-1.482-1.285-.092-.636-.591-1.278-1.301-1.678-.557-.312-.854-.943-.742-1.572,.014-.078,.027-.156,.027-.238,0-.766-.766-1.24-1.475-1.24-.828,0-1.5-.671-1.5-1.5,0-.718-.51-1.487-1.27-1.487-.716,0-1.256,.586-1.256,1.364V14.5c0,.828-.672,1.5-1.5,1.5s-1.5-.672-1.5-1.5Zm10.208-.87c-.63-.63-1.707-.184-1.707,.707v1.663h-1.501c-2.481,0-4.5,2.019-4.5,4.5v2c0,.828,.672,1.5,1.5,1.5s1.5-.672,1.5-1.5v-2c0-.827,.673-1.5,1.5-1.5h1.501v1.663c0,.891,1.077,1.337,1.707,.707l2.999-3.163c.391-.391,.391-1.024,0-1.414l-2.999-3.163Z"/></svg>
