<?xml version="1.0" encoding="UTF-8"?>
<svg xmlns="http://www.w3.org/2000/svg" id="Layer_1" data-name="Layer 1" viewBox="0 0 24 24" width="512" height="512"><path d="M14,9.196v3.969c0,.742-.897,1.114-1.422,.589l-1.106-1.106-2.912,2.912c-.293,.293-.677,.439-1.061,.439s-.768-.146-1.061-.439c-.586-.585-.586-1.536,0-2.121l2.912-2.912-1.106-1.106c-.525-.525-.153-1.422,.589-1.422h3.969c.661,0,1.196,.535,1.196,1.196Zm10-1.762v8.984c0,.728-.337,1.452-.967,1.816-.308,.178-.644,.265-.98,.265-.412,0-.819-.132-1.165-.391l-1.947-1.846c-.374,2.672-2.668,4.736-5.441,4.736H5.5c-3.033,0-5.5-2.467-5.5-5.5v-7C0,5.467,2.467,3,5.5,3H13.5c2.781,0,5.081,2.077,5.444,4.76l1.944-1.882c.594-.445,1.374-.515,2.037-.183,.663,.331,1.075,.998,1.075,1.739Zm-8,1.066c0-1.378-1.122-2.5-2.5-2.5H5.5c-1.378,0-2.5,1.122-2.5,2.5v7c0,1.378,1.122,2.5,2.5,2.5H13.5c1.378,0,2.5-1.122,2.5-2.5v-7Z"/></svg>
