<?xml version="1.0" encoding="UTF-8"?>
<svg xmlns="http://www.w3.org/2000/svg" id="Layer_1" data-name="Layer 1" viewBox="0 0 24 24" width="512" height="512"><path d="M21.171,10.322,17.012,4.354A5.506,5.506,0,0,0,12.5,2H9.164A5.531,5.531,0,0,0,4.021,5.55L2.063,10.719A4.5,4.5,0,0,0,0,14.5v2A2.5,2.5,0,0,0,2.5,19H3v.5a2.5,2.5,0,0,0,5,0V19h8v.5a2.5,2.5,0,0,0,5,0V19h.5A2.5,2.5,0,0,0,24,16.5v-2A4.506,4.506,0,0,0,21.171,10.322ZM14.551,6.07,17.29,10H12V5h.5A2.5,2.5,0,0,1,14.551,6.07ZM9,5.006V10H5.543L6.826,6.614A2.514,2.514,0,0,1,9,5.006ZM21,16H3V14.5A1.5,1.5,0,0,1,4.5,13h15A1.5,1.5,0,0,1,21,14.5Z"/></svg>
