<?xml version="1.0" encoding="UTF-8"?>
<svg xmlns="http://www.w3.org/2000/svg" id="Layer_1" data-name="Layer 1" viewBox="0 0 24 24" width="512" height="512"><path d="M13.338,6.237l-.07.5.495-.07a1.5,1.5,0,1,1,.424,2.969l-2.475.354a1.5,1.5,0,0,1-1.7-1.7l.354-2.475a1.5,1.5,0,1,1,2.969.424ZM6.627,18.224c-5.944,7.635,6.92,7.662.974,0A.639.639,0,0,0,6.627,18.224ZM5.641,5.633A8.966,8.966,0,0,1,16.714,4.324a1.5,1.5,0,1,0,1.572-2.555A12.007,12.007,0,0,0,1.777,18.288a1.5,1.5,0,0,0,2.554-1.575A8.962,8.962,0,0,1,5.641,5.633ZM18.228,7.6c7.672,5.944,7.632-6.918,0-.974A.638.638,0,0,0,18.228,7.6ZM22.56,11a1.5,1.5,0,0,0-1.57,1.426,9.054,9.054,0,0,1-8.561,8.558,1.5,1.5,0,0,0,.07,3,12.156,12.156,0,0,0,7.986-3.507,11.966,11.966,0,0,0,3.5-7.906A1.5,1.5,0,0,0,22.56,11ZM12.5,23.985c-.024,0,.024,0,0,0ZM9.561,10.439a1.493,1.493,0,0,0-1.273-.424l-2.475.354a1.5,1.5,0,1,0,.424,2.969l.5-.07-.07.495a1.5,1.5,0,0,0,2.969.424l.354-2.475A1.5,1.5,0,0,0,9.561,10.439ZM17.1,17.092a6.828,6.828,0,0,0,1.685-6.576,1,1,0,0,0-1.817-.329,15.416,15.416,0,0,1-2.7,4.079,15.391,15.391,0,0,1-4.079,2.7,1,1,0,0,0,.329,1.817A6.841,6.841,0,0,0,17.1,17.092Z"/></svg>
