<?xml version="1.0" encoding="UTF-8"?>
<svg xmlns="http://www.w3.org/2000/svg" id="Layer_1" data-name="Layer 1" viewBox="0 0 24 24" width="512" height="512"><path d="M23.867,19.964c-.537,1.514-3.066,2.561-4.292,2.988a.875.875,0,0,1-1.045-.4c-.666-1.151-1.938-3.651-1.4-5.166.966-2.545,4.229-1.217,3.369,1.289C21.465,16.129,24.727,17.459,23.867,19.964Zm-9.011,3.694a1.5,1.5,0,1,0-.712-2.914,9,9,0,1,1,6.765-7.457,1.5,1.5,0,1,0,2.969.426A12.038,12.038,0,0,0,12,0C-3.9.6-3.894,23.4,12,24A12.032,12.032,0,0,0,14.856,23.658ZM13,9.667C13,11,14.119,11,15.5,11S18,11,18,9.667A2.587,2.587,0,0,0,15.5,7,2.587,2.587,0,0,0,13,9.667ZM11,9.5A1.5,1.5,0,0,0,9.5,8h-2a1.5,1.5,0,0,0,0,3h2A1.5,1.5,0,0,0,11,9.5Zm4,5A2.5,2.5,0,0,0,12.5,12H10.769a1,1,0,0,0,0,2H12.5a.5.5,0,0,1,0,1H12a1,1,0,0,0,0,2h.5a.5.5,0,0,1,0,1H10.769a1,1,0,0,0,0,2H12.5a2.507,2.507,0,0,0,1.987-4A2.471,2.471,0,0,0,15,14.5Z"/></svg>
