<?xml version="1.0" encoding="UTF-8"?>
<svg xmlns="http://www.w3.org/2000/svg" id="Layer_1" data-name="Layer 1" viewBox="0 0 24 24" width="512" height="512"><path d="M15,14.5c.219,6.249,9.441,5.76,8.937-.431l-2.482-8.273c-.479-1.598-1.792-2.793-3.401-3.114l-4.554-.996v-.185c.018-1.69-2.443-2.053-2.922-.455L6.07,.059c-1.533-.304-3.037,.592-3.494,2.118L.057,11.092c-.367,2.595,1.861,4.928,4.443,4.908,2.587,.022,4.834-2.334,4.437-4.933L6.58,3.241l3.92,.858V21H5.5c-1.972,.033-1.971,2.967,0,3h13c1.972-.033,1.971-2.967,0-3h-5V4.755l3.939,.862c.093,.019,.182,.045,.268,.08l-2.637,8.351c-.046,.146-.07,.298-.07,.452ZM4.448,6.567l1.335,4.433H3.199l1.249-4.433Zm16.336,7.433h-2.553l1.309-4.146,1.244,4.146Z"/></svg>
