<?xml version="1.0" encoding="UTF-8"?>
<svg xmlns="http://www.w3.org/2000/svg" id="Layer_1" data-name="Layer 1" viewBox="0 0 24 24" width="512" height="512"><path d="M3.914,11.545c.527,.639,.437,1.584-.202,2.111-.638,.528-1.584,.438-2.112-.201-1.032-1.25-1.601-2.832-1.601-4.455C0,5.141,3.14,2,7,2h4c3.86,0,7,3.141,7,7,0,3.118-2.094,5.888-5.091,6.736-.137,.039-.274,.057-.41,.057-.654,0-1.255-.431-1.442-1.092-.226-.797,.238-1.626,1.035-1.852,1.713-.484,2.909-2.067,2.909-3.85,0-2.206-1.794-4-4-4H7c-2.206,0-4,1.794-4,4,0,.941,.316,1.821,.914,2.545Zm18.485-1c-.528-.639-1.473-.729-2.112-.201-.639,.527-.729,1.473-.202,2.111,.598,.724,.914,1.604,.914,2.545,0,2.206-1.794,4-4,4h-4c-2.206,0-4-1.794-4-4,0-1.782,1.196-3.365,2.909-3.85,.797-.226,1.26-1.055,1.035-1.852-.226-.798-1.054-1.261-1.852-1.035-2.998,.849-5.091,3.618-5.091,6.736,0,3.859,3.14,7,7,7h4c3.86,0,7-3.141,7-7,0-1.623-.568-3.205-1.601-4.455Z"/></svg>
