<?xml version="1.0" encoding="UTF-8"?>
<svg xmlns="http://www.w3.org/2000/svg" id="Layer_1" data-name="Layer 1" viewBox="0 0 24 24" width="512" height="512"><path d="M22.632,1.724c-.861-.663-1.957-.884-3.008-.607-.369,.098-.764,.238-1.174,.388-2.179,.977-3.885,.257-6.259-.438-1.704-.524-3.465-1.066-5.191-1.066C4.855,0,2.966,.834,1.758,1.533c-1.084,.629-1.758,1.793-1.758,3.037V22.5c.034,1.972,2.967,1.971,3,0v-6.211c.793-.494,2.332-1.289,4-1.289,1.274,0,2.749,.453,4.309,.934,3.406,1.299,7.675,1.525,10.754-.279,1.194-.678,1.937-1.948,1.937-3.315V4.504c0-1.098-.499-2.111-1.368-2.78Zm-6.132,3.276c1.106,0,2.141-.375,2.972-.676,.322-.117,.631-.231,.92-.308,.185-.048,.325,.019,.41,.084,.074,.058,.198,.186,.198,.403v2.3c-.973,.467-2.768,1.196-4.5,1.196-1.274,0-2.749-.453-4.309-.934-.394-.121-.792-.244-1.191-.36V3.839c.103,.031,.206,.063,.309,.095,1.704,.524,3.465,1.066,5.191,1.066Zm4.083,8.045c-2.067,1.293-5.683,1.108-8.393,.021-2.904-1.062-6.483-1.571-9.191-.162v-2.616c.793-.493,2.331-1.288,4-1.288,1.274,0,2.749,.453,4.309,.934,3.067,1.173,6.803,1.467,9.691,.135v2.27c0,.294-.156,.558-.417,.706Z"/></svg>
