<?xml version="1.0" encoding="UTF-8"?>
<svg xmlns="http://www.w3.org/2000/svg" id="Layer_1" data-name="Layer 1" viewBox="0 0 24 24" width="512" height="512"><path d="M4.609,6.886a3,3,0,0,1-.256,3.482L3.9,10.91a1.508,1.508,0,0,1-1.4,2.038h-1A1.5,1.5,0,0,1,.348,10.487l1.7-2.039-1.7-2.04A1.5,1.5,0,0,1,1.5,3.948H4v-2.5A1.5,1.5,0,0,1,6.46.3L8.5,2,10.54.3A1.5,1.5,0,0,1,13,1.448v1a1.508,1.508,0,0,1-2.038,1.4L10.42,4.3a3,3,0,0,1-3.482.257A3.01,3.01,0,0,1,4.609,6.886ZM24,12.1v2.84a9.566,9.566,0,0,1-.894,3.983l-.48,1.164A3.791,3.791,0,0,1,20.474,22.2a3.856,3.856,0,0,1-1.205.254l-.181.392a2,2,0,1,1-3.629-1.683l0,0-5.342-2.5A2,2,0,0,1,6.5,16.939l.2-.429a3.822,3.822,0,0,1-.421-3.694L6.87,11.4A9.609,9.609,0,0,1,9.362,8.1l2.166-1.84a5.519,5.519,0,0,1,5.875-.8l3.426,1.656A5.514,5.514,0,0,1,24,12.1ZM13.471,8.543l-.852.723L21,13.318V12.1a2.514,2.514,0,0,0-1.455-2.275L16.119,8.17A2.5,2.5,0,0,0,13.471,8.543Zm7.314,8-1.325-.64-.254.615a1.5,1.5,0,1,1-2.771-1.148l.32-.775-2.539-1.228-.318.766a1.5,1.5,0,1,1-2.771-1.148l.384-.926-1.224-.592A6.542,6.542,0,0,0,9.616,12.6l-.562,1.361a.828.828,0,0,0,.414,1.068l9.269,4.344a.828.828,0,0,0,1.117-.433l.506-1.222A7.148,7.148,0,0,0,20.785,16.547Z"/></svg>
