<?xml version="1.0" encoding="UTF-8"?>
<svg xmlns="http://www.w3.org/2000/svg" id="Layer_1" data-name="Layer 1" viewBox="0 0 24 24" width="512" height="512"><path d="M6.456,14.664,4.9,16.218A1.5,1.5,0,0,1,2.782,14.1l1.553-1.554A5.912,5.912,0,0,1,3.71,11H1.5a1.5,1.5,0,0,1,0-3H3.706a5.882,5.882,0,0,1,.636-1.537L2.782,4.9A1.5,1.5,0,0,1,4.9,2.782l1.561,1.56A5.9,5.9,0,0,1,8,3.706V1.5a1.5,1.5,0,0,1,3,0V3.709a5.975,5.975,0,0,1,1.547.621L14.1,2.781A1.5,1.5,0,1,1,16.217,4.9L14.662,6.457a2.993,2.993,0,0,1-3.641.456,3,3,0,0,0-4.107,4.11A3,3,0,0,1,6.456,14.664ZM12.5,18A1.5,1.5,0,0,0,11,19.5v3a1.5,1.5,0,0,0,3,0v-3A1.5,1.5,0,0,0,12.5,18Zm5,0A1.5,1.5,0,0,0,16,19.5v3a1.5,1.5,0,0,0,3,0v-3A1.5,1.5,0,0,0,17.5,18Zm2.613-5.156a2.078,2.078,0,0,1-.342-.1,6.219,6.219,0,0,0-6.628-3.679A6.112,6.112,0,0,0,8,14.973a5.838,5.838,0,0,0,.059.945,4.1,4.1,0,0,0-1.291,1.124,3.64,3.64,0,0,0-.111,4.313,3.832,3.832,0,0,0,1.156,1.087A1.5,1.5,0,1,0,9.37,19.878a1.547,1.547,0,0,1-.345-.436.674.674,0,0,1,.139-.595,1.061,1.061,0,0,1,.76-.424,1.5,1.5,0,0,0,1.343-2.114A2.954,2.954,0,0,1,11,15.026a3.079,3.079,0,0,1,.092-.685,3.015,3.015,0,0,1,2.474-2.3,3.22,3.22,0,0,1,3.445,1.882,3.052,3.052,0,0,0,2.335,1.826,2.162,2.162,0,0,1,1.591,2.617,2.05,2.05,0,0,1-.5.921,1.5,1.5,0,0,0,2.2,2.043,5.043,5.043,0,0,0,1.224-2.279A5.166,5.166,0,0,0,20.113,12.844Z"/></svg>
