<?xml version="1.0" encoding="UTF-8"?>
<svg xmlns="http://www.w3.org/2000/svg" id="Layer_1" data-name="Layer 1" viewBox="0 0 24 24" width="512" height="512"><path d="M12.5,11H6.5c-.828,0-1.5,.671-1.5,1.5v5c0,.829,.672,1.5,1.5,1.5h6c.828,0,1.5-.671,1.5-1.5v-5c0-.829-.672-1.5-1.5-1.5Zm-1.5,5h-3v-2h3v2Zm11.602-7.231c-.862-.432-1.876-.34-2.648,.238l-1.193,.894c-.668-2.195-2.676-3.807-5.066-3.892l-3.536-3.984c-.661-.661-1.54-1.025-2.475-1.025H1.5C.672,1,0,1.671,0,2.5s.672,1.5,1.5,1.5H7.685c.132,0,.26,.053,.292,.081l1.702,1.919H5.5C2.468,6,0,8.467,0,11.5v7C0,21.533,2.468,24,5.5,24H13.5c2.476,0,4.575-1.646,5.261-3.902l1.193,.895c.449,.336,.979,.508,1.515,.508,.386,0,.772-.089,1.134-.27,.862-.431,1.397-1.297,1.397-2.261v-7.939c0-.964-.535-1.831-1.397-2.261Zm-6.602,9.731c0,1.378-1.121,2.5-2.5,2.5H5.5c-1.379,0-2.5-1.122-2.5-2.5v-7c0-1.378,1.121-2.5,2.5-2.5H13.5c1.379,0,2.5,1.122,2.5,2.5v7Z"/></svg>
