<?xml version="1.0" encoding="UTF-8"?>
<svg xmlns="http://www.w3.org/2000/svg" id="Layer_1" data-name="Layer 1" viewBox="0 0 24 24" width="512" height="512"><path d="M22.952,23.949a1.5,1.5,0,0,1-1.835-1.064,2.68,2.68,0,0,0-5.1,0,1.5,1.5,0,1,1-2.9-.771c1.4-5.424,9.5-5.421,10.9,0A1.5,1.5,0,0,1,22.952,23.949ZM8.463,18.321a2,2,0,0,1-3.738,1.421l-.2-.507A4.064,4.064,0,0,1,1.448,16.8L.671,14.93a9.584,9.584,0,0,1-.656-4.05L.177,8.043a5.518,5.518,0,0,1,3.475-4.8L11.25.375a5.506,5.506,0,0,1,5.8,1.149L19.1,3.49a9.569,9.569,0,0,1,2.272,3.383l.72,1.732a4.058,4.058,0,0,1-.572,4.075l.2.5A2,2,0,0,1,18,14.643l0-.008ZM3.172,8.214l-.11,1.925L16.439,5.1l-1.466-1.4a2.508,2.508,0,0,0-2.644-.519l-7.6,2.865A2.5,2.5,0,0,0,3.172,8.214Zm1.047,7.438a1.052,1.052,0,0,0,1.342.575h0l13.172-5.1a1.044,1.044,0,0,0,.588-1.375L18.592,8q-.087-.222-.191-.437l-2.079.784.309.746a1.5,1.5,0,1,1-2.77,1.151L13.513,9.4,8.019,11.476l.33.8a1.5,1.5,0,0,1-2.77,1.15l-.368-.886-1.943.733q.08.273.184.537Z"/></svg>
