<?xml version="1.0" encoding="UTF-8"?>
<svg xmlns="http://www.w3.org/2000/svg" id="Layer_1" data-name="Layer 1" viewBox="0 0 24 24" width="512" height="512"><path d="M19.562,2.756C16.854,.482,13.424-.429,9.908,.188,4.614,1.12,.562,5.518,.056,10.884c-.312,3.311,.734,6.474,2.947,8.905,2.435,2.676,6.091,4.21,10.031,4.21h5.466c3.032,0,5.5-2.467,5.5-5.5v-6.175c0-3.713-1.617-7.201-4.438-9.569Zm1.438,15.744c0,1.378-1.121,2.5-2.5,2.5h-5.466c-3.098,0-5.945-1.177-7.812-3.229-1.638-1.799-2.411-4.145-2.18-6.604,.374-3.962,3.48-7.336,7.386-8.023,.539-.095,1.074-.142,1.603-.142,2.052,0,3.998,.705,5.603,2.052,2.14,1.796,3.367,4.446,3.367,7.271v6.175Zm-5-4.087c0,1.614-1.071,2.982-2.54,3.431-.156,.663-.75,1.156-1.46,1.156-.677,0-1.249-.449-1.436-1.065-.982-.192-1.852-.801-2.363-1.683-.414-.717-.169-1.635,.548-2.049,.716-.415,1.634-.169,2.05,.547,.091,.157,.253,.25,.434,.25h1.181c.323,0,.587-.263,.587-.587,0-.242-.145-.456-.369-.545l-2.376-.95c-1.37-.548-2.255-1.855-2.255-3.331,0-1.614,1.071-2.982,2.54-3.431,.156-.663,.75-1.156,1.46-1.156,.677,0,1.249,.449,1.436,1.065,.982,.192,1.853,.801,2.363,1.684,.414,.717,.169,1.635-.548,2.049-.716,.415-1.635,.169-2.05-.547-.091-.157-.253-.251-.434-.251h-1.181c-.323,0-.587,.263-.587,.587,0,.242,.145,.456,.369,.545l2.376,.95c1.37,.548,2.255,1.855,2.255,3.331Z"/></svg>
