<?xml version="1.0" encoding="UTF-8"?>
<svg xmlns="http://www.w3.org/2000/svg" id="Layer_1" data-name="Layer 1" viewBox="0 0 24 24" width="512" height="512"><path d="M10.516,24h-4a1.5,1.5,0,0,1,0-3,6.4,6.4,0,0,0,2.426-.493,10.824,10.824,0,0,1-5.5-4.6,9.865,9.865,0,0,1-.886-8.214A11.394,11.394,0,0,1,13.485,0h4a1.5,1.5,0,0,1,0,3,6.4,6.4,0,0,0-2.426.493,10.816,10.816,0,0,1,5.5,4.6,9.863,9.863,0,0,1,.886,8.213A11.393,11.393,0,0,1,10.516,24Zm.518-20.661A8.231,8.231,0,0,0,5.4,8.633a6.9,6.9,0,0,0,.622,5.748,7.706,7.706,0,0,0,5.121,3.637,2.3,2.3,0,0,1,1.826,2.644A8.234,8.234,0,0,0,18.6,15.367a6.906,6.906,0,0,0-.622-5.748A7.709,7.709,0,0,0,12.86,5.982h0A2.3,2.3,0,0,1,11.034,3.339ZM12,15a3,3,0,0,0,0-6A3,3,0,0,0,12,15Z"/></svg>
