<?xml version="1.0" encoding="UTF-8"?>
<svg xmlns="http://www.w3.org/2000/svg" id="Layer_1" data-name="Layer 1" viewBox="0 0 24 24" width="512" height="512"><path d="M23.946,11.339h0A4.106,4.106,0,0,0,19.866,8H17.8L14.262,1.824C12.4-1.654,6.939.322,8.177,4.23L9.519,8H4.543l-.674-.925C2.648,5.106-.654,6.072.117,8.512L2,12,.125,15.492A1.865,1.865,0,0,0,1.877,18h.007A2.4,2.4,0,0,0,3.89,16.917L4.553,16H9.519l-1.35,3.793c-1.215,3.882,4.221,5.844,6.078,2.41L17.8,16H20a4,4,0,0,0,3.946-4.661Zm-3.183,1.308A1,1,0,0,1,20,13H16.928a1.5,1.5,0,0,0-1.3.755l-4,6.984c-.112.189-.4.378-.593.182A.171.171,0,0,1,11,20.775L13.058,15a1.511,1.511,0,0,0-1.413-2H6V11h5.645a1.511,1.511,0,0,0,1.413-2L11.011,3.248a.177.177,0,0,1,.025-.169c.207-.2.477-.009.608.209l3.982,6.957a1.5,1.5,0,0,0,1.3.755h2.938a1.1,1.1,0,0,1,1.119.821A1,1,0,0,1,20.763,12.647Z"/></svg>
