<?xml version="1.0" encoding="UTF-8"?>
<svg xmlns="http://www.w3.org/2000/svg" id="Layer_1" data-name="Layer 1" viewBox="0 0 24 24" width="512" height="512"><path d="M9.138,24.012a9.068,9.068,0,0,1-6.46-2.68,9.162,9.162,0,0,1,0-12.93,66.784,66.784,0,0,1,9.19-6.975,2.682,2.682,0,0,1,4.023,1.506L20.179.393a2.461,2.461,0,0,1,3.075.351A2.485,2.485,0,0,1,23.6,3.877L21.075,8.11a2.687,2.687,0,0,1,1.5,4.023,66.776,66.776,0,0,1-6.978,9.2A9.067,9.067,0,0,1,9.138,24.012ZM13,4.268a61.948,61.948,0,0,0-8.2,6.253,6.139,6.139,0,0,0,8.673,8.692A61.986,61.986,0,0,0,19.735,11H18.5a1.5,1.5,0,0,1-1.288-2.269l2.854-4.786-4.8,2.846A1.5,1.5,0,0,1,13,5.5ZM9,12a3,3,0,0,0,0,6A3,3,0,0,0,9,12Z"/></svg>
