<?xml version="1.0" encoding="UTF-8"?>
<svg xmlns="http://www.w3.org/2000/svg" id="Layer_1" data-name="Layer 1" viewBox="0 0 24 24" width="512" height="512"><path d="M24,13c0-5.737-4.6-8.627-8.017-9.667A3.5,3.5,0,0,0,12.5,0h-1A3.5,3.5,0,0,0,8.017,3.328C4.719,4.335,0,7.23,0,13c0,4.805,3.448,8.029,9.172,8.811A1.5,1.5,0,0,0,11.7,23.4L12,23l.3.4a1.5,1.5,0,0,0,2.528-1.589C20.552,21.029,24,17.805,24,13ZM11,3.5a.5.5,0,0,1,.5-.5h1a.5.5,0,0,1,.5.5v1a2.268,2.268,0,0,0,.108.543,3.139,3.139,0,0,0,.249.43A12.8,12.8,0,0,1,16,13a6.27,6.27,0,0,1-2.5,5.468V9.5a1.5,1.5,0,0,0-3,0v8.968A6.27,6.27,0,0,1,8,13a12.8,12.8,0,0,1,2.639-7.523,2.985,2.985,0,0,0,.255-.435A3.619,3.619,0,0,0,11,4.5ZM3,13A6.37,6.37,0,0,1,6.075,7.534,14.853,14.853,0,0,0,5,13a10.424,10.424,0,0,0,1.123,4.854A5.11,5.11,0,0,1,3,13Zm14.877,4.854A10.424,10.424,0,0,0,19,13a14.841,14.841,0,0,0-1.068-5.448A6.366,6.366,0,0,1,21,13,5.11,5.11,0,0,1,17.877,17.854Z"/></svg>
