<?xml version="1.0" encoding="UTF-8"?>
<svg xmlns="http://www.w3.org/2000/svg" id="Layer_1" data-name="Layer 1" viewBox="0 0 24 24" width="512" height="512"><path d="M18,5a3,3,0,1,1,3,3A3,3,0,0,1,18,5ZM3.5,4H9.111a2.5,2.5,0,0,1,2.016,1.03L3.64,10.271a1.5,1.5,0,0,0,1.72,2.458l7.493-5.245,3.418,4.877a1.5,1.5,0,0,0,2.458-1.722l-5.114-7.3A5.507,5.507,0,0,0,9.111,1H3.5a1.5,1.5,0,0,0,0,3ZM.747,18.4A4.76,4.76,0,0,0,5.8,18.1a.332.332,0,0,1,.406,0,4.91,4.91,0,0,0,5.594,0,.332.332,0,0,1,.406,0,4.91,4.91,0,0,0,5.594,0,.332.332,0,0,1,.406,0A4.88,4.88,0,0,0,21,19a4.491,4.491,0,0,0,2.253-.605A1.5,1.5,0,0,0,21.747,15.8a1.7,1.7,0,0,1-1.8-.149,3.35,3.35,0,0,0-3.882,0,1.85,1.85,0,0,1-2.118,0,3.35,3.35,0,0,0-3.882,0,1.85,1.85,0,0,1-2.118,0,3.35,3.35,0,0,0-3.882,0,1.7,1.7,0,0,1-1.807.15A1.5,1.5,0,0,0,.747,18.4Zm21,2.405a1.7,1.7,0,0,1-1.8-.149,3.35,3.35,0,0,0-3.882,0,1.85,1.85,0,0,1-2.118,0,3.35,3.35,0,0,0-3.882,0,1.85,1.85,0,0,1-2.118,0,3.35,3.35,0,0,0-3.882,0,1.7,1.7,0,0,1-1.807.15A1.5,1.5,0,0,0,.747,23.4,4.762,4.762,0,0,0,5.8,23.1a.332.332,0,0,1,.406,0,4.91,4.91,0,0,0,5.594,0,.332.332,0,0,1,.406,0,4.91,4.91,0,0,0,5.594,0,.332.332,0,0,1,.406,0A4.88,4.88,0,0,0,21,24a4.491,4.491,0,0,0,2.253-.605A1.5,1.5,0,0,0,21.747,20.8Z"/></svg>
