<?xml version="1.0" encoding="UTF-8"?>
<svg xmlns="http://www.w3.org/2000/svg" id="Layer_1" data-name="Layer 1" viewBox="0 0 24 24" width="512" height="512"><path d="M19.5,7h-.5v-2c0-2.757-2.243-5-5-5h-4c-2.757,0-5,2.243-5,5v2h-.5C2.019,7,0,9.019,0,11.5v6c0,.828,.671,1.5,1.5,1.5H10.5v2h-3c-.829,0-1.5,.672-1.5,1.5s.671,1.5,1.5,1.5h9c.829,0,1.5-.672,1.5-1.5s-.671-1.5-1.5-1.5h-3v-2h9c.829,0,1.5-.672,1.5-1.5v-6c0-2.481-2.019-4.5-4.5-4.5Zm0,3c.827,0,1.5,.673,1.5,1.5v2.768c-.294-.17-.636-.268-1-.268h-1v-4h.5ZM8,5c0-1.103,.897-2,2-2h4c1.103,0,2,.897,2,2V14H8V5Zm-3.5,5h.5v4h-1c-.364,0-.706,.098-1,.268v-2.768c0-.827,.673-1.5,1.5-1.5Z"/></svg>
