<?xml version="1.0" encoding="UTF-8"?>
<svg xmlns="http://www.w3.org/2000/svg" id="Layer_1" data-name="Layer 1" viewBox="0 0 24 24" width="512" height="512"><path d="M24,6.5v2c-.034,1.972-2.967,1.971-3,0v-2c0-1.378-1.121-2.5-2.5-2.5H5.5c-1.379,0-2.5,1.122-2.5,2.5v11c0,1.378,1.121,2.5,2.5,2.5h3c1.972,.034,1.971,2.967,0,3h-3c-3.032,0-5.5-2.467-5.5-5.5V6.5C0,3.467,2.468,1,5.5,1h13c3.032,0,5.5,2.467,5.5,5.5Zm-6.5,3.5c1.972-.034,1.971-2.967,0-3h-1c-1.972,.034-1.971,2.967,0,3h1Zm-9,8h1.268c1.246,0,2.407-.67,3.031-1.749,.414-.717,.169-1.635-.548-2.049-.716-.414-1.635-.169-2.05,.547-.091,.157-.253,.25-.434,.25h-1.268c-.275,0-.5-.224-.5-.5v-1h.5c1.972-.034,1.971-2.967,0-3h-.5v-1c0-.276,.225-.5,.5-.5h1.268c.181,0,.343,.094,.434,.25,.415,.717,1.334,.961,2.05,.547,.717-.415,.962-1.333,.548-2.049-.624-1.079-1.785-1.749-3.031-1.749h-1.268c-1.93,0-3.5,1.57-3.5,3.5v1.086c-1.304,.395-1.304,2.433,0,2.829v1.086c0,1.93,1.57,3.5,3.5,3.5Zm4.795,1.481c-.813,.813-1.269,1.915-1.269,3.064,.044,.422-.21,1.464,.5,1.455,1.446,.094,2.986-.171,4.019-1.269l6.715-6.715c2.194-2.202-.9-5.469-3.157-3.343l-6.808,6.808Z"/></svg>
