<?xml version="1.0" encoding="UTF-8"?>
<svg xmlns="http://www.w3.org/2000/svg" id="Layer_1" data-name="Layer 1" viewBox="0 0 24 24" width="512" height="512"><path d="M1.3,9.078C.45,8.229-.018,7.099-.018,5.896S.45,3.564,1.3,2.715l1.414-1.414C3.564,.45,4.694-.018,5.896-.018s2.332,.468,3.182,1.318l1.501,1.501c.586,.585,.586,1.535,0,2.121-.586,.586-1.536,.586-2.122,0l-1.501-1.501c-.568-.566-1.555-.566-2.122,0l-1.414,1.414c-.283,.283-.439,.66-.439,1.061s.156,.777,.439,1.061l1.482,1.482c.586,.586,.586,1.535,0,2.121-.293,.293-.677,.439-1.061,.439s-.768-.146-1.061-.439l-1.482-1.482Zm19.88,4.361c-.586-.586-1.535-.586-2.121,0s-.586,1.535,0,2.121l1.501,1.501c.585,.585,.585,1.537,0,2.122l-1.414,1.414c-.584,.584-1.537,.584-2.121,0l-1.482-1.482c-.586-.586-1.536-.586-2.122,0-.586,.585-.586,1.535,0,2.121l1.483,1.483c.877,.876,2.029,1.314,3.182,1.314s2.305-.438,3.182-1.315l1.414-1.414c1.755-1.755,1.755-4.609,0-6.364l-1.501-1.501Zm1.633-6.524L7.565,22.163c-1.185,1.185-2.76,1.837-4.435,1.837H1.5c-.829,0-1.5-.672-1.5-1.5v-1.63c0-1.652,.67-3.269,1.837-4.436L17.085,1.187c1.579-1.58,4.149-1.58,5.728,0,1.58,1.579,1.58,4.149,0,5.729Zm-6.12,1.877l-1.486-1.486L3.958,18.556c-.609,.609-.958,1.452-.958,2.314v.13h.13c.874,0,1.696-.341,2.314-.958l11.25-11.25Zm4.306-4.742c0-.28-.109-.545-.308-.743-.397-.396-1.088-.397-1.486,0l-1.878,1.878,1.486,1.486,1.877-1.877c.198-.198,.308-.463,.308-.743Z"/></svg>
