<?xml version="1.0" encoding="UTF-8"?>
<svg xmlns="http://www.w3.org/2000/svg" id="Layer_1" data-name="Layer 1" viewBox="0 0 24 24" width="512" height="512"><path d="M20.359,14.5l-.235-.054a5.788,5.788,0,0,0-6.153-3.383,5.689,5.689,0,0,0-4.792,5.5,4.087,4.087,0,0,0,.038.607,3.535,3.535,0,0,0,.456,6.71,3.911,3.911,0,0,0,.889.121h8.617a5.116,5.116,0,0,0,1.033-.125,4.818,4.818,0,0,0,.147-9.377Zm.584,5.117a1.843,1.843,0,0,1-1.384,1.332,2.1,2.1,0,0,1-.408.053H10.605a.81.81,0,0,1-.187-.026.58.58,0,0,1-.4-.381c-.088-.326.251-.634.518-.723A2.594,2.594,0,0,0,12.224,17a2.114,2.114,0,0,1-.045-.378,2.677,2.677,0,0,1,.079-.6,2.605,2.605,0,0,1,2.136-1.994,2.8,2.8,0,0,1,2.986,1.626v0A2.9,2.9,0,0,0,19.6,17.4,1.834,1.834,0,0,1,20.943,19.615ZM7.378,13.742,4.9,16.217A1.5,1.5,0,0,1,2.782,14.1l1.547-1.548A5.93,5.93,0,0,1,3.693,11H1.5a1.5,1.5,0,0,1,0-3H3.7a5.986,5.986,0,0,1,.64-1.542L2.782,4.9A1.5,1.5,0,0,1,4.9,2.783L6.458,4.337A5.986,5.986,0,0,1,8,3.7V1.5a1.5,1.5,0,0,1,3,0V3.7a5.935,5.935,0,0,1,1.546.636L14.1,2.783A1.5,1.5,0,0,1,16.218,4.9L14.659,6.462c.072.124.153.241.217.371a1.5,1.5,0,0,1-2.688,1.334c-2.25-4.032-7.909.035-4.809,3.455A1.5,1.5,0,0,1,7.378,13.742Z"/></svg>
