<?xml version="1.0" encoding="UTF-8"?>
<svg xmlns="http://www.w3.org/2000/svg" id="Layer_1" data-name="Layer 1" viewBox="0 0 24 24" width="512" height="512"><path d="M23.29,7.3a3.413,3.413,0,0,0-2.7-1.3H3.41a3.419,3.419,0,0,0-2.7,1.3,3.258,3.258,0,0,0-.615,2.795A11.468,11.468,0,0,0,5.306,17.1L3.135,21.879a1.5,1.5,0,1,0,2.73,1.242l2.163-4.757A12.783,12.783,0,0,0,10.5,18.9v3.6a1.5,1.5,0,0,0,3,0V18.9a12.8,12.8,0,0,0,2.472-.537l2.163,4.757a1.5,1.5,0,0,0,2.73-1.242L18.694,17.1a11.464,11.464,0,0,0,5.213-7.007A3.26,3.26,0,0,0,23.29,7.3Zm-2.3,2.1A9.118,9.118,0,0,1,12,16,9.12,9.12,0,0,1,3.007,9.392a.259.259,0,0,1,.057-.237A.423.423,0,0,1,3.41,9H20.588a.426.426,0,0,1,.347.155A.272.272,0,0,1,20.991,9.393ZM10.5,2.5v-1a1.5,1.5,0,0,1,3,0v1a1.5,1.5,0,0,1-3,0Zm5.5,0v-1a1.5,1.5,0,0,1,3,0v1a1.5,1.5,0,0,1-3,0ZM5,2.5v-1a1.5,1.5,0,0,1,3,0v1a1.5,1.5,0,0,1-3,0Z"/></svg>
