<?xml version="1.0" encoding="UTF-8"?>
<svg xmlns="http://www.w3.org/2000/svg" id="Layer_1" data-name="Layer 1" viewBox="0 0 24 24" width="512" height="512"><path d="M16,13a5.518,5.518,0,0,1-2.391-.546,6.5,6.5,0,0,1-5.481-.137A5.586,5.586,0,0,1,1.505,11.28a5.452,5.452,0,0,1-1.5-4.087A5.606,5.606,0,0,1,2.967,2.677a5.1,5.1,0,0,1,3.3-.618,6.523,6.523,0,0,1,9.356-.131,6.075,6.075,0,0,1,4.618,2.078,4.051,4.051,0,0,1,1.175.255h0a4,4,0,0,1-2.149,7.668A5.45,5.45,0,0,1,16,13ZM13.614,9.41a2.609,2.609,0,0,1,1.219.3,2.531,2.531,0,0,0,2.738-.267c.037-.036.087-.1.141-.166a1.5,1.5,0,0,1,1.843-.395.959.959,0,0,0,1.222-.254.993.993,0,0,0-.422-1.562h0a.975.975,0,0,0-.562-.046,1.5,1.5,0,0,1-1.615-.736A2.5,2.5,0,0,0,16,5a3.388,3.388,0,0,1-2.513-.963,3.509,3.509,0,0,0-5.149.2,2.472,2.472,0,0,1-2.39.81,2.087,2.087,0,0,0-1.535.257A2.591,2.591,0,0,0,3,7.356,2.489,2.489,0,0,0,6.8,9.618a2.44,2.44,0,0,1,2.51-.069,3.455,3.455,0,0,0,3.2.11A2.548,2.548,0,0,1,13.614,9.41ZM14,22.5A1.5,1.5,0,0,0,12.5,21H1.5a1.5,1.5,0,0,0,0,3h11A1.5,1.5,0,0,0,14,22.5Zm7,0A1.5,1.5,0,0,0,19.5,21h-2a1.5,1.5,0,0,0,0,3h2A1.5,1.5,0,0,0,21,22.5Zm3-5A1.5,1.5,0,0,0,22.5,16h-11a1.5,1.5,0,0,0,0,3h11A1.5,1.5,0,0,0,24,17.5Zm-16,0A1.5,1.5,0,0,0,6.5,16h-2a1.5,1.5,0,0,0,0,3h2A1.5,1.5,0,0,0,8,17.5Z"/></svg>
