<?xml version="1.0" encoding="UTF-8"?>
<svg xmlns="http://www.w3.org/2000/svg" id="Layer_1" data-name="Layer 1" viewBox="0 0 24 24" width="512" height="512"><path d="M7.5,12a1.5,1.5,0,0,1-.9-2.7L7,9l-.4-.3A1.5,1.5,0,0,1,8.4,6.3l2,1.5a1.51,1.51,0,0,1,0,2.4l-2,1.5A1.5,1.5,0,0,1,7.5,12Zm10.2-.6a1.5,1.5,0,0,0-.3-2.1L17,9l.4-.3a1.5,1.5,0,1,0-1.8-2.4l-2,1.5a1.51,1.51,0,0,0,0,2.4l2,1.5a1.5,1.5,0,0,0,2.1-.3ZM24,12A12.013,12.013,0,0,0,12,0C-3.9.6-3.893,23.4,12,24A12.013,12.013,0,0,0,24,12Zm-3,0a9.01,9.01,0,0,1-9,9C.076,20.548.081,3.45,12,3A9.01,9.01,0,0,1,21,12Zm-4.211,2.024A15.4,15.4,0,0,1,12,15,15.4,15.4,0,0,1,7.2,14.024a1,1,0,0,0-1.052,1.518A6.836,6.836,0,0,0,12,19a6.827,6.827,0,0,0,5.842-3.458A1,1,0,0,0,16.789,14.024Z"/></svg>
