<?xml version="1.0" encoding="UTF-8"?>
<svg xmlns="http://www.w3.org/2000/svg" id="Layer_1" data-name="Layer 1" viewBox="0 0 24 24" width="512" height="512"><path d="M15.5,7A2.587,2.587,0,0,1,18,9.667C18,11,16.881,11,15.5,11S13,11,13,9.667A2.587,2.587,0,0,1,15.5,7ZM24,12A12.013,12.013,0,0,0,12,0C-3.9.6-3.893,23.4,12,24A12.013,12.013,0,0,0,24,12Zm-3,0a9.01,9.01,0,0,1-9,9C.076,20.548.081,3.451,12,3A9.01,9.01,0,0,1,21,12ZM11,9.5A1.5,1.5,0,0,0,9.5,8h-2a1.5,1.5,0,0,0,0,3h2A1.5,1.5,0,0,0,11,9.5ZM15.463,14h-7A1.469,1.469,0,0,0,7.2,16.2,5.865,5.865,0,0,0,11.964,19a5.863,5.863,0,0,0,4.767-2.8A1.468,1.468,0,0,0,15.463,14Z"/></svg>
