<?xml version="1.0" encoding="UTF-8"?>
<svg xmlns="http://www.w3.org/2000/svg" id="Layer_1" data-name="Layer 1" viewBox="0 0 24 24" width="512" height="512"><path d="M24,19a7.737,7.737,0,0,0-.462-2.641l-1.22-3.385A4.51,4.51,0,0,0,18.085,10h-2.17a4.51,4.51,0,0,0-4.233,2.974l-1.22,3.383C9.7,18.265,9.718,21.087,12,21.828V22a2,2,0,0,0,4,0h2a2,2,0,0,0,4,0v-.172A3,3,0,0,0,24,19Zm-8.085-6h2.17a1.5,1.5,0,0,1,1.411.991L20.22,16H13.78l.724-2.009A1.5,1.5,0,0,1,15.915,13ZM5.5,3A2.5,2.5,0,0,0,3,5.5v17a1.5,1.5,0,0,1-3,0V5.5A5.506,5.506,0,0,1,5.5,0h7A5.506,5.506,0,0,1,18,5.5v1a1.5,1.5,0,0,1-3,0v-1A2.5,2.5,0,0,0,12.5,3ZM8,6V7A1,1,0,0,1,7,8H6A1,1,0,0,1,5,7V6A1,1,0,0,1,6,5H7A1,1,0,0,1,8,6Zm0,5v1a1,1,0,0,1-1,1H6a1,1,0,0,1-1-1V11a1,1,0,0,1,1-1H7A1,1,0,0,1,8,11Zm0,5v1a1,1,0,0,1-1,1H6a1,1,0,0,1-1-1V16a1,1,0,0,1,1-1H7A1,1,0,0,1,8,16Zm0,5v1a1,1,0,0,1-1,1H6a1,1,0,0,1-1-1V21a1,1,0,0,1,1-1H7A1,1,0,0,1,8,21ZM12,5a1,1,0,0,1,1,1V7a1,1,0,0,1-1,1H11a1,1,0,0,1-1-1V6a1,1,0,0,1,1-1Z"/></svg>
