<?xml version="1.0" encoding="UTF-8"?>
<svg xmlns="http://www.w3.org/2000/svg" id="Layer_1" data-name="Layer 1" viewBox="0 0 24 24" width="512" height="512"><path d="M9,8.5c0,.828-.672,1.5-1.5,1.5s-1.5-.672-1.5-1.5,.672-1.5,1.5-1.5,1.5,.672,1.5,1.5Zm15,10v-6.175c0-3.713-1.618-7.201-4.438-9.569C16.853,.482,13.425-.427,9.908,.188,4.614,1.12,.562,5.518,.056,10.884c-.313,3.311,.733,6.474,2.946,8.905,2.435,2.676,6.091,4.21,10.032,4.21h5.466c3.033,0,5.5-2.467,5.5-5.5Zm-6.367-13.446c2.14,1.796,3.367,4.446,3.367,7.271v6.175c0,1.378-1.122,2.5-2.5,2.5h-5.466c-3.098,0-5.945-1.177-7.813-3.229-1.637-1.799-2.411-4.145-2.179-6.604,.375-3.962,3.48-7.336,7.385-8.023,.539-.095,1.074-.142,1.603-.142,2.051,0,3.998,.705,5.602,2.052Zm-.865,10.3l1.793-1.793c.586-.585,.586-1.536,0-2.121-.586-.586-1.535-.586-2.121,0l-1.439,1.439-2.232-2.232c-.975-.975-2.561-.975-3.535,0l-2.793,2.793c-.586,.585-.586,1.536,0,2.121,.586,.586,1.535,.586,2.121,0l2.439-2.439,2.232,2.232c.487,.487,1.127,.731,1.768,.731s1.28-.244,1.768-.731Z"/></svg>
