<?xml version="1.0" encoding="UTF-8"?>
<svg xmlns="http://www.w3.org/2000/svg" id="Layer_1" data-name="Layer 1" viewBox="0 0 24 24" width="512" height="512"><path d="M20.5,18.63a1.5,1.5,0,0,1-1.064-2.556c2.809-2.6,1.562-7.521-2.214-8.21a3.417,3.417,0,0,1-2.447-1.9A5.184,5.184,0,0,0,4.983,7.285,5.347,5.347,0,0,0,5,9.174a3.412,3.412,0,0,1-1.089,3.143,2.748,2.748,0,0,0-.254,3.821,1.5,1.5,0,0,1-2.322,1.9A5.767,5.767,0,0,1,1.9,10.1a.427.427,0,0,0,.163-.354,8.325,8.325,0,0,1-.035-2.95A8.131,8.131,0,0,1,8.558.14a8.243,8.243,0,0,1,8.929,4.54.437.437,0,0,0,.322.242c6.1,1.134,8.255,9.008,3.755,13.265A1.5,1.5,0,0,1,20.5,18.63Zm-5.889,4.593a1.5,1.5,0,0,0,.428-2.078L14.284,20H15.5a1.5,1.5,0,0,0,0-3H14.284l.755-1.145a1.5,1.5,0,1,0-2.506-1.65L11.5,15.773l-1.033-1.568a1.5,1.5,0,1,0-2.506,1.65L8.716,17H7.5a1.5,1.5,0,0,0,0,3H8.716l-.755,1.145a1.5,1.5,0,0,0,2.506,1.65L11.5,21.227,12.533,22.8a1.5,1.5,0,0,0,2.078.428Z"/></svg>
