<?xml version="1.0" encoding="UTF-8"?>
<svg xmlns="http://www.w3.org/2000/svg" id="Layer_1" data-name="Layer 1" viewBox="0 0 24 24" width="512" height="512"><path d="M24,7.5v11c0,3.033-2.467,5.5-5.5,5.5h-1c-.829,0-1.5-.671-1.5-1.5s.671-1.5,1.5-1.5h1c1.378,0,2.5-1.122,2.5-2.5V9H3v9.5c0,1.378,1.122,2.5,2.5,2.5h1c.829,0,1.5,.671,1.5,1.5s-.671,1.5-1.5,1.5h-1c-3.033,0-5.5-2.467-5.5-5.5V7.5C0,4.467,2.467,2,5.5,2h.5v-.5c0-.829,.671-1.5,1.5-1.5s1.5,.671,1.5,1.5v.5h6v-.5c0-.829,.671-1.5,1.5-1.5s1.5,.671,1.5,1.5v.5h.5c3.033,0,5.5,2.467,5.5,5.5Zm-12,3.5c-.829,0-1.5,.671-1.5,1.5v6c0,.829,.671,1.5,1.5,1.5s1.5-.671,1.5-1.5v-6c0-.829-.671-1.5-1.5-1.5Zm0,10c-.828,0-1.5,.672-1.5,1.5s.672,1.5,1.5,1.5,1.5-.672,1.5-1.5-.672-1.5-1.5-1.5Z"/></svg>
