<?xml version="1.0" encoding="UTF-8"?>
<svg xmlns="http://www.w3.org/2000/svg" id="Layer_1" data-name="Layer 1" viewBox="0 0 24 24" width="512" height="512"><path d="M15.5,24c-.828,0-1.5-.672-1.5-1.5v-1.662c0-1.563,.814-3.026,2.126-3.816,2.426-1.464,3.874-4.025,3.874-6.853,0-2.445-1.136-4.738-3-6.239v3.872c0,2.771-2.079,5.052-4.732,5.191-1.393,.079-2.705-.413-3.709-1.366-.99-.94-1.559-2.262-1.559-3.627V3.93c-1.864,1.501-3,3.794-3,6.239,0,2.827,1.448,5.389,3.875,6.853,1.311,.79,2.125,2.253,2.125,3.816v1.662c0,.828-.672,1.5-1.5,1.5s-1.5-.672-1.5-1.5v-1.662c0-.519-.259-.997-.675-1.248C2.99,17.578,1,14.056,1,10.169,1,5.933,3.479,2.026,7.315,.219c.586-.275,1.259-.232,1.804,.114,.552,.351,.881,.948,.881,1.6v6.067c0,.554,.222,1.069,.624,1.451,.401,.382,.923,.58,1.486,.546,1.042-.055,1.89-1.04,1.89-2.195V1.933c0-.651,.329-1.249,.881-1.6,.545-.347,1.219-.389,1.804-.115,3.837,1.809,6.315,5.715,6.315,9.951,0,3.887-1.99,7.409-5.324,9.421-.417,.251-.676,.729-.676,1.248v1.662c0,.828-.672,1.5-1.5,1.5Z"/></svg>
