<?xml version="1.0" encoding="UTF-8"?>
<svg xmlns="http://www.w3.org/2000/svg" id="Layer_1" data-name="Layer 1" viewBox="0 0 24 24" width="512" height="512"><path d="M18.5,3h-.627c-.445-1.723-2.013-3-3.873-3h-4c-1.861,0-3.428,1.277-3.873,3h-.627C2.468,3,0,5.467,0,8.5v10c0,3.033,2.468,5.5,5.5,5.5h13c3.032,0,5.5-2.467,5.5-5.5V8.5c0-3.033-2.468-5.5-5.5-5.5ZM5.5,6h13c1.379,0,2.5,1.122,2.5,2.5v1.5h-3v-.5c0-.829-.672-1.5-1.5-1.5s-1.5,.671-1.5,1.5v.5h-6v-.5c0-.829-.672-1.5-1.5-1.5s-1.5,.671-1.5,1.5v.5H3v-1.5c0-1.378,1.121-2.5,2.5-2.5Zm13,15H5.5c-1.379,0-2.5-1.122-2.5-2.5v-5.5h3v.5c0,.829,.672,1.5,1.5,1.5s1.5-.671,1.5-1.5v-.5h6v.5c0,.829,.672,1.5,1.5,1.5s1.5-.671,1.5-1.5v-.5h3v5.5c0,1.378-1.121,2.5-2.5,2.5Z"/></svg>
