<?xml version="1.0" encoding="UTF-8"?>
<svg xmlns="http://www.w3.org/2000/svg" id="Layer_1" data-name="Layer 1" viewBox="0 0 24 24" width="512" height="512"><path d="M18.314,7.548l-2.346-1.4.022-3.24A1.5,1.5,0,0,0,15.5,0h-7A1.5,1.5,0,0,0,8,2.908v3.22L5.653,7.549A5.531,5.531,0,0,0,3,12.255V18.5A5.506,5.506,0,0,0,8.5,24h7A5.506,5.506,0,0,0,21,18.5V12.274A5.526,5.526,0,0,0,18.314,7.548ZM18,18.5A2.5,2.5,0,0,1,15.5,21h-7A2.5,2.5,0,0,1,6,18.5V12.255a2.513,2.513,0,0,1,1.206-2.139l3.071-1.859A1.5,1.5,0,0,0,11,6.974V3h1.99l-.028,3.99a1.5,1.5,0,0,0,.732,1.3l3.085,1.836A2.513,2.513,0,0,1,18,12.274Zm-2-3v1A1.5,1.5,0,0,1,14.5,18h-5A1.5,1.5,0,0,1,8,16.5v-1A1.5,1.5,0,0,1,9.5,14h5A1.5,1.5,0,0,1,16,15.5Z"/></svg>
