<?xml version="1.0" encoding="UTF-8"?>
<svg xmlns="http://www.w3.org/2000/svg" id="Layer_1" data-name="Layer 1" viewBox="0 0 24 24" width="512" height="512"><path d="M24,6.5v6c0,3.032-2.468,5.5-5.5,5.5h-5v2h2c.828,0,1.5,.672,1.5,1.5s-.672,1.5-1.5,1.5h-7c-.829,0-1.5-.672-1.5-1.5s.671-1.5,1.5-1.5h2v-2H5.5c-3.033,0-5.5-2.468-5.5-5.5V6.5C0,3.467,2.467,1,5.5,1h2c.829,0,1.5,.671,1.5,1.5s-.671,1.5-1.5,1.5h-2c-1.378,0-2.5,1.122-2.5,2.5v6c0,1.379,1.122,2.5,2.5,2.5h13c1.379,0,2.5-1.121,2.5-2.5V6.5c0-1.142-.771-2.137-1.874-2.421-.803-.207-1.285-1.024-1.078-1.827,.206-.802,1.029-1.285,1.826-1.079,2.43,.625,4.126,2.816,4.126,5.327Zm-16,2.5c0,1.657,1.343,3,3,3s3-1.343,3-3V4h.5c.828,0,1.5-.671,1.5-1.5s-.672-1.5-1.5-1.5h-1c-1.378,0-2.5,1.122-2.5,2.5v2.5c-1.657,0-3,1.343-3,3Z"/></svg>
