<?xml version="1.0" encoding="UTF-8"?>
<svg xmlns="http://www.w3.org/2000/svg" id="Layer_1" data-name="Layer 1" viewBox="0 0 24 24" width="512" height="512"><path d="M24,5.5v3c0,.829-.672,1.5-1.5,1.5s-1.5-.671-1.5-1.5v-3c0-1.378-1.121-2.5-2.5-2.5H5.5c-1.379,0-2.5,1.122-2.5,2.5v13c0,1.378,1.121,2.5,2.5,2.5h3c.828,0,1.5,.671,1.5,1.5s-.672,1.5-1.5,1.5h-3c-3.032,0-5.5-2.467-5.5-5.5V5.5C0,2.467,2.468,0,5.5,0h13c3.032,0,5.5,2.467,5.5,5.5ZM5,6.5c0,.828,.672,1.5,1.5,1.5s1.5-.672,1.5-1.5-.672-1.5-1.5-1.5-1.5,.672-1.5,1.5Zm8,0c0-.828-.672-1.5-1.5-1.5s-1.5,.672-1.5,1.5,.672,1.5,1.5,1.5,1.5-.672,1.5-1.5Zm11,11.001c0,3.46-2.704,6.289-6.115,6.489-2.85,.167-5.328-1.694-6.425-4.33-1.025-2.463,.088-4.985,1.246-6.416,.302-.373,.892-.305,1.086,.133,.274,.62,.183,1.624,.764,1.624,1.227,0,.913-3.316,2.282-5.632,.243-.411,.807-.491,1.163-.174,2.211,1.973,6,4.889,6,8.305Zm-4.841,.124l-1.103-1.103c-.307-.307-.805-.307-1.112,0l-1.103,1.103c-.942,.942-1.11,2.487-.243,3.499,1.003,1.17,2.802,1.17,3.805,0,.867-1.011,.699-2.557-.243-3.499Z"/></svg>
