<?xml version="1.0" encoding="UTF-8"?>
<svg xmlns="http://www.w3.org/2000/svg" id="Layer_1" data-name="Layer 1" viewBox="0 0 24 24" width="512" height="512"><path d="M19.738,5.106,16,1.64a5.738,5.738,0,0,0-7.976-.03L4.22,5.147A11.022,11.022,0,1,0,19.781,20.762,11.1,11.1,0,0,0,19.738,5.106Zm-2.084,13.54h0A8.023,8.023,0,0,1,6.3,7.3l3.8-3.525a2.719,2.719,0,0,1,3.833.03l3.722,3.454A8.084,8.084,0,0,1,17.654,18.646Zm-1.933-8.274-5,7a1.5,1.5,0,0,1-2.442-1.744l5-7a1.5,1.5,0,1,1,2.442,1.744ZM10,9.5a1.5,1.5,0,0,0-3,0A1.5,1.5,0,0,0,10,9.5ZM15.5,15a1.5,1.5,0,0,0,0,3A1.5,1.5,0,0,0,15.5,15Z"/></svg>
