<?xml version="1.0" encoding="UTF-8"?>
<svg xmlns="http://www.w3.org/2000/svg" id="Layer_1" data-name="Layer 1" viewBox="0 0 24 24" width="512" height="512"><path d="M21.713,10.868C20.794,9.6,20,8.513,20,7V5.908a1.492,1.492,0,0,0-.126-2.855,3.984,3.984,0,0,0-7.748,0A1.492,1.492,0,0,0,12,5.908V7c0,1.513-.794,2.6-1.713,3.868A9.182,9.182,0,0,0,8,16.5a11.324,11.324,0,0,0,.9,4.072A5.5,5.5,0,0,0,14,24H18A5.5,5.5,0,0,0,23.1,20.573,11.333,11.333,0,0,0,24,16.5,9.182,9.182,0,0,0,21.713,10.868ZM15,6h2V7a7.171,7.171,0,0,0,.658,3H14.342A7.171,7.171,0,0,0,15,7Zm5.307,13.473A2.476,2.476,0,0,1,18,21H14a2.475,2.475,0,0,1-2.3-1.527A8.584,8.584,0,0,1,11,16.5,5.883,5.883,0,0,1,12.447,13h7.106A5.883,5.883,0,0,1,21,16.5,8.542,8.542,0,0,1,20.307,19.473ZM8,22.5A1.5,1.5,0,0,1,6.5,24H6A5.5,5.5,0,0,1,.9,20.572,11.324,11.324,0,0,1,0,16.5a9.182,9.182,0,0,1,2.287-5.632C3.206,9.6,4,8.513,4,7V5.915A1.5,1.5,0,0,1,4.114,3.05,4,4,0,0,1,9.555.313a1.5,1.5,0,0,1,.3,2.6A2.066,2.066,0,0,0,9,4.6,1.5,1.5,0,0,1,7.5,6H7V7a7.171,7.171,0,0,1-.658,3H6.5a1.5,1.5,0,0,1,0,3H4.447A5.883,5.883,0,0,0,3,16.5a8.584,8.584,0,0,0,.693,2.973A2.475,2.475,0,0,0,6,21h.5A1.5,1.5,0,0,1,8,22.5Zm8-4A1.5,1.5,0,1,1,14.5,17,1.5,1.5,0,0,1,16,18.5Zm3-3A1.5,1.5,0,1,1,17.5,14,1.5,1.5,0,0,1,19,15.5Z"/></svg>
