<?xml version="1.0" encoding="UTF-8"?>
<svg xmlns="http://www.w3.org/2000/svg" id="Layer_1" data-name="Layer 1" viewBox="0 0 24 24" width="512" height="512"><path d="M9,22c-.373,0-.746-.138-1.037-.416L1.342,15.256c-1.779-1.778-1.779-4.633-.024-6.388L7.955,2.424c.594-.576,1.544-.563,2.121,.031,.577,.594,.563,1.544-.031,2.121L3.424,11.005c-.268,.268-.424,.645-.424,1.045s.156,.777,.439,1.061l6.597,6.305c.599,.572,.62,1.521,.048,2.12-.295,.309-.689,.464-1.084,.464Zm7.046-.426l6.618-6.445c1.754-1.755,1.754-4.609-.023-6.387l-6.604-6.325c-.599-.575-1.548-.554-2.121,.045-.573,.598-.553,1.548,.045,2.121l6.58,6.303c.585,.585,.585,1.537,.015,2.108l-6.604,6.432c-.594,.578-.606,1.527-.028,2.121,.294,.302,.684,.453,1.075,.453,.377,0,.755-.142,1.046-.426Z"/></svg>
