<?xml version="1.0" encoding="UTF-8"?>
<svg xmlns="http://www.w3.org/2000/svg" id="Layer_1" data-name="Layer 1" viewBox="0 0 24 24" width="512" height="512"><path d="M9,8.5a19.105,19.105,0,0,1,.548-2.382A9.61,9.61,0,0,0,10,4,3.827,3.827,0,0,0,6,0,3.827,3.827,0,0,0,2,4a9.61,9.61,0,0,0,.452,2.119A19.136,19.136,0,0,1,3,8.5a6.542,6.542,0,0,1-1.175,2.92A10.433,10.433,0,0,0,0,16.773a11.6,11.6,0,0,0,.93,4.684A4.19,4.19,0,0,0,4.749,24h2.5a4.19,4.19,0,0,0,3.819-2.542A11.607,11.607,0,0,0,12,16.773a10.433,10.433,0,0,0-1.825-5.353A6.555,6.555,0,0,1,9,8.5ZM6,3c.71,0,1,.29,1,.922-.023.195-.213.9-.352,1.417C6.48,5.975,6.335,6.525,6.225,7h-.45c-.11-.475-.255-1.025-.426-1.661C5.21,4.824,5.02,4.117,5,4,5,3.29,5.29,3,6,3ZM8.322,20.255A1.18,1.18,0,0,1,7.251,21h-2.5a1.179,1.179,0,0,1-1.071-.746A8.623,8.623,0,0,1,3,16.773a7.864,7.864,0,0,1,1.423-3.854A12.694,12.694,0,0,0,5.791,10h.418a12.694,12.694,0,0,0,1.368,2.919A7.864,7.864,0,0,1,9,16.773,8.631,8.631,0,0,1,8.322,20.255ZM22.175,11.42A6.555,6.555,0,0,1,21,8.5a19.105,19.105,0,0,1,.548-2.382A9.61,9.61,0,0,0,22,4a3.827,3.827,0,0,0-4-4,3.827,3.827,0,0,0-4,4,9.61,9.61,0,0,0,.452,2.119A19.136,19.136,0,0,1,15,8.5a6.542,6.542,0,0,1-1.175,2.92A10.433,10.433,0,0,0,12,16.773a11.6,11.6,0,0,0,.93,4.684A4.19,4.19,0,0,0,16.749,24h2.5a4.19,4.19,0,0,0,3.819-2.542A11.607,11.607,0,0,0,24,16.773,10.433,10.433,0,0,0,22.175,11.42ZM18,3c.71,0,1,.29,1,.922-.023.195-.213.9-.352,1.417-.171.636-.316,1.186-.426,1.661h-.45c-.11-.475-.255-1.025-.426-1.661C17.21,4.824,17.02,4.117,17,4,17,3.29,17.29,3,18,3Zm2.322,17.255A1.18,1.18,0,0,1,19.251,21h-2.5a1.179,1.179,0,0,1-1.071-.746A8.623,8.623,0,0,1,15,16.773a7.864,7.864,0,0,1,1.423-3.854A12.694,12.694,0,0,0,17.791,10h.418a12.694,12.694,0,0,0,1.368,2.919A7.864,7.864,0,0,1,21,16.773,8.631,8.631,0,0,1,20.322,20.255Z"/></svg>
