<?xml version="1.0" encoding="UTF-8"?>
<svg xmlns="http://www.w3.org/2000/svg" id="Layer_1" data-name="Layer 1" viewBox="0 0 24 24" width="512" height="512"><path d="M18,12.5c0,.829-.672,1.5-1.5,1.5H7.5c-.828,0-1.5-.671-1.5-1.5s.672-1.5,1.5-1.5h9c.828,0,1.5,.671,1.5,1.5Zm-6.5,3.5H7.5c-.828,0-1.5,.671-1.5,1.5s.672,1.5,1.5,1.5h4c.828,0,1.5-.671,1.5-1.5s-.672-1.5-1.5-1.5ZM24,7.5v11c0,3.033-2.468,5.5-5.5,5.5H5.5c-3.032,0-5.5-2.467-5.5-5.5V7.5C0,4.467,2.468,2,5.5,2h.5v-.5c0-.829,.672-1.5,1.5-1.5s1.5,.671,1.5,1.5v.5h6v-.5c0-.829,.672-1.5,1.5-1.5s1.5,.671,1.5,1.5v.5h.5c3.032,0,5.5,2.467,5.5,5.5Zm-3,11V9H3v9.5c0,1.378,1.121,2.5,2.5,2.5h13c1.379,0,2.5-1.122,2.5-2.5Z"/></svg>
