<?xml version="1.0" encoding="UTF-8"?>
<svg xmlns="http://www.w3.org/2000/svg" id="Layer_1" data-name="Layer 1" viewBox="0 0 24 24" width="512" height="512"><path d="M14.5,20h-5.5v-4.5c0-.829-.672-1.5-1.5-1.5h-3.5v-4.5c0-.829-.672-1.5-1.5-1.5s-1.5,.671-1.5,1.5v8c0,3.033,2.468,5.5,5.5,5.5H14.5c.828,0,1.5-.671,1.5-1.5s-.672-1.5-1.5-1.5Zm-10.5-2.5v-.5h2v2.949c-1.14-.232-2-1.242-2-2.449Zm19.556,3.934l-1.262-1.262c.453-.813,.707-1.727,.707-2.672V6.5c0-3.033-2.468-5.5-5.5-5.5H6.5c-.944,0-1.859,.254-2.671,.707L2.556,.434C1.97-.152,1.021-.152,.435,.434-.151,1.02-.151,1.97,.435,2.555L21.435,23.555c.293,.293,.677,.439,1.061,.439s.768-.146,1.061-.439c.586-.585,.586-1.536,0-2.121ZM9,4h6v6h-2.878l-3.122-3.122v-2.878Zm11,10h-2v-4h2v4Zm0-7.5v.5h-2v-2.949c1.14,.232,2,1.242,2,2.449Z"/></svg>
