<?xml version="1.0" encoding="UTF-8"?>
<svg xmlns="http://www.w3.org/2000/svg" id="Layer_1" data-name="Layer 1" viewBox="0 0 24 24" width="512" height="512"><path d="M23.561,21.439l-5.512-5.512c1.226-1.66,1.952-3.71,1.952-5.927C20,4.486,15.514,0,10,0S0,4.486,0,10s4.486,10,10,10c2.217,0,4.267-.726,5.927-1.952l5.512,5.512c.293,.293,.677,.439,1.061,.439s.768-.146,1.061-.439c.586-.586,.586-1.535,0-2.121Zm-12.098-5.614c-.149,.671-.746,1.175-1.462,1.175-.679,0-1.245-.453-1.43-1.071-.983-.191-1.857-.794-2.368-1.678-.415-.717-.17-1.635,.547-2.05,.716-.415,1.635-.17,2.049,.548,.091,.157,.253,.251,.434,.251h1.181c.324,0,.587-.264,.587-.587,0-.241-.145-.455-.368-.544l-2.377-.952c-1.369-.547-2.254-1.854-2.254-3.33,0-1.61,1.074-2.96,2.538-3.412,.149-.672,.746-1.175,1.462-1.175,.679,0,1.245,.453,1.43,1.071,.983,.191,1.857,.794,2.369,1.678,.414,.717,.169,1.635-.548,2.05-.717,.414-1.635,.169-2.049-.548-.091-.157-.253-.251-.434-.251h-1.181c-.324,0-.587,.264-.587,.587,0,.241,.145,.455,.368,.544l2.377,.952c1.369,.547,2.254,1.854,2.254,3.33,0,1.61-1.074,2.96-2.538,3.412Z"/></svg>
