<?xml version="1.0" encoding="UTF-8"?>
<svg xmlns="http://www.w3.org/2000/svg" id="Layer_1" data-name="Layer 1" viewBox="0 0 24 24" width="512" height="512"><path d="M19,10.707a3.835,3.835,0,0,0,1-2.57,3.879,3.879,0,0,0-2.507-3.616L16,3.96V2.908A1.5,1.5,0,0,0,15.5,0h-7A1.5,1.5,0,0,0,8,2.908V3.96l-1.493.561A3.879,3.879,0,0,0,4,8.137a3.835,3.835,0,0,0,1,2.57A4.416,4.416,0,0,0,5.17,16.5,4.481,4.481,0,0,0,8.5,24h7a4.481,4.481,0,0,0,3.33-7.5A4.416,4.416,0,0,0,19,10.707ZM15.5,15h-7a1.5,1.5,0,0,1,0-3h7a1.5,1.5,0,0,1,0,3ZM7.56,7.33,10.026,6.4A1.5,1.5,0,0,0,11,5V3h2V5a1.5,1.5,0,0,0,.974,1.4l2.466.926a.862.862,0,0,1-.3,1.67H7.862a.862.862,0,0,1-.3-1.67ZM15.5,21h-7a1.5,1.5,0,0,1,0-3h7a1.5,1.5,0,0,1,0,3Z"/></svg>
