<?xml version="1.0" encoding="UTF-8"?>
<svg xmlns="http://www.w3.org/2000/svg" id="Layer_1" data-name="Layer 1" viewBox="0 0 24 24" width="512" height="512"><path d="M12,0C5.383,0,0,4.956,0,11.048a4.148,4.148,0,0,0,1.056,3.078A3.208,3.208,0,0,0,3.435,15a11.75,11.75,0,0,0,3.434-.85c.247-.086.5-.173.759-.26A35.256,35.256,0,0,0,7,19a4.89,4.89,0,0,0,5,5,4.89,4.89,0,0,0,5-5,35.256,35.256,0,0,0-.628-5.11c.257.087.512.174.759.26a11.75,11.75,0,0,0,3.434.85h.075a3.173,3.173,0,0,0,2.3-.874A4.148,4.148,0,0,0,24,11.048C24,4.956,18.617,0,12,0Zm2,19a1.9,1.9,0,0,1-2,2,1.9,1.9,0,0,1-2-2,37.248,37.248,0,0,1,.855-5.92A9.1,9.1,0,0,1,12,13a9.1,9.1,0,0,1,1.145.08A37.248,37.248,0,0,1,14,19Zm6.858-7.026a.664.664,0,0,1-.242.026,10.558,10.558,0,0,1-2.5-.685A18.528,18.528,0,0,0,12,10a18.528,18.528,0,0,0-6.114,1.315,10.558,10.558,0,0,1-2.5.685.751.751,0,0,1-.224-.016h0A1.768,1.768,0,0,1,3,11.048C3,6.61,7.038,3,12,3s9,3.61,9,8.048A2.006,2.006,0,0,1,20.858,11.974Z"/></svg>
