<?xml version="1.0" encoding="UTF-8"?>
<svg xmlns="http://www.w3.org/2000/svg" id="Layer_1" data-name="Layer 1" viewBox="0 0 24 24" width="512" height="512"><path d="M24,11.5a4.506,4.506,0,0,0-4-4.472V6a1.5,1.5,0,0,0-3,0V7H15.706L12.947,2.585A5.469,5.469,0,0,0,8.283,0H6.5A3.5,3.5,0,0,0,3,3.5V7.036A3.5,3.5,0,0,0,0,10.5a1.5,1.5,0,0,0,3,0,.5.5,0,0,1,.5-.5h16a1.509,1.509,0,0,1,1.2,2.4l-1.92,2.56c-.012.016-.022.031-.033.047-6.093-.153-6.338,8.812-.247,8.993a4.522,4.522,0,0,0,3.082-7.776L23.1,14.2A4.535,4.535,0,0,0,24,11.5ZM6.5,3H8.283A2.486,2.486,0,0,1,10.4,4.175L12.169,7H6V3.5A.5.5,0,0,1,6.5,3Zm12,18a1.5,1.5,0,0,1,0-3A1.5,1.5,0,0,1,18.5,21Zm-7.364-6.1a1.5,1.5,0,0,0-1.811-.629,5,5,0,0,0-1.851-1.048,1.505,1.505,0,0,0-2.948,0A5,5,0,0,0,2.674,14.27a1.5,1.5,0,0,0-1.526,2.522,5.037,5.037,0,0,0,0,2.416A1.5,1.5,0,0,0,2.674,21.73a5,5,0,0,0,1.852,1.048,1.505,1.505,0,0,0,2.948,0A4.989,4.989,0,0,0,9.325,21.73a1.5,1.5,0,0,0,1.527-2.522,5.037,5.037,0,0,0,0-2.416A1.5,1.5,0,0,0,11.136,14.9ZM6,20a2,2,0,0,1,0-4A2,2,0,0,1,6,20Z"/></svg>
