<?xml version="1.0" encoding="UTF-8"?>
<svg xmlns="http://www.w3.org/2000/svg" id="Layer_1" data-name="Layer 1" viewBox="0 0 24 24" width="512" height="512"><path d="M17,16.5v1c0,.828-.672,1.5-1.5,1.5h-7c-.828,0-1.5-.672-1.5-1.5v-1c0-.828,.672-1.5,1.5-1.5h7c.828,0,1.5,.672,1.5,1.5Zm-8.5-3.5h2c.829,0,1.5-.671,1.5-1.5s-.671-1.5-1.5-1.5h-2c-.829,0-1.5,.671-1.5,1.5s.671,1.5,1.5,1.5Zm0-5h2c.829,0,1.5-.671,1.5-1.5s-.671-1.5-1.5-1.5h-2c-.829,0-1.5,.671-1.5,1.5s.671,1.5,1.5,1.5Zm13.5,.157v10.343c0,3.033-2.467,5.5-5.5,5.5H7.5c-3.033,0-5.5-2.467-5.5-5.5V5.5C2,2.467,4.467,0,7.5,0h6.343c1.469,0,2.85,.572,3.889,1.611l2.657,2.657c1.039,1.039,1.611,2.419,1.611,3.889Zm-3,10.343V9h-4c-1.105,0-2-.895-2-2V3H7.5c-1.378,0-2.5,1.122-2.5,2.5v13c0,1.378,1.122,2.5,2.5,2.5h9c1.378,0,2.5-1.122,2.5-2.5Z"/></svg>
