<?xml version="1.0" encoding="UTF-8"?>
<svg xmlns="http://www.w3.org/2000/svg" id="Layer_1" data-name="Layer 1" viewBox="0 0 24 24" width="512" height="512"><path d="M22.892,6.535,17.23.878a3.017,3.017,0,0,0-3.106-.72,2.867,2.867,0,0,0-1.95,2.351,1.441,1.441,0,0,1-.417.846,1.463,1.463,0,0,1-.85.419A3.429,3.429,0,0,0,7.975,6.7a1.445,1.445,0,0,1-.417.848,1.463,1.463,0,0,1-.85.419A3.43,3.43,0,0,0,3.776,10.9a1.446,1.446,0,0,1-.418.849,1.491,1.491,0,0,1-.9.423A2.854,2.854,0,0,0,.157,14.112a3.012,3.012,0,0,0,.721,3.1l5.7,5.7A3.693,3.693,0,0,0,9.185,24a3.393,3.393,0,0,0,2.051-.676,2.45,2.45,0,0,1,.384-.164,4.782,4.782,0,0,0,2.042-1.118,4.419,4.419,0,0,0,1.274-2.588.432.432,0,0,1,.335-.335,4.467,4.467,0,0,0,3.864-3.86.419.419,0,0,1,.335-.334,4.418,4.418,0,0,0,2.589-1.271,5.617,5.617,0,0,0,1.279-2.437A3.624,3.624,0,0,0,22.892,6.535ZM4.971,17.039,3.056,15.113a4.469,4.469,0,0,0,3.7-3.836.421.421,0,0,1,.336-.334,4.467,4.467,0,0,0,3.863-3.86.42.42,0,0,1,.336-.334,4.468,4.468,0,0,0,3.844-3.727l1.935,1.933a3.336,3.336,0,0,0-.746,1.691,1.471,1.471,0,0,1-1.268,1.268,3.43,3.43,0,0,0-2.932,2.929,1.47,1.47,0,0,1-1.268,1.265,3.43,3.43,0,0,0-2.931,2.928A1.467,1.467,0,0,1,6.654,16.3,3.356,3.356,0,0,0,4.971,17.039ZM20.927,9.431a3.481,3.481,0,0,0-.544,1.092,2.621,2.621,0,0,1-.444,1.007,1.455,1.455,0,0,1-.849.418,3.428,3.428,0,0,0-2.931,2.927,1.472,1.472,0,0,1-1.268,1.267,3.43,3.43,0,0,0-2.932,2.929,1.447,1.447,0,0,1-.417.847,2.435,2.435,0,0,1-.863.392l-.287.1a3.486,3.486,0,0,0-.961.521.6.6,0,0,1-.73-.138L7.17,19.249A4.446,4.446,0,0,0,10.9,15.417a.421.421,0,0,1,.335-.334A4.468,4.468,0,0,0,15.1,11.224a.422.422,0,0,1,.337-.335,4.448,4.448,0,0,0,3.836-3.734l1.5,1.5A.646.646,0,0,1,20.927,9.431Z"/></svg>
