<?xml version="1.0" encoding="UTF-8"?>
<svg xmlns="http://www.w3.org/2000/svg" id="Layer_1" data-name="Layer 1" viewBox="0 0 24 24" width="512" height="512"><path d="M20.1,20.182a1.5,1.5,0,0,1-1.156-2.455,9.05,9.05,0,0,0,0-11.454,1.5,1.5,0,0,1,2.313-1.91,12.065,12.065,0,0,1,0,15.274A1.5,1.5,0,0,1,20.1,20.182ZM4.855,19.838a1.5,1.5,0,0,0,.2-2.111,9.049,9.049,0,0,1,0-11.454,1.5,1.5,0,0,0-2.313-1.91,12.065,12.065,0,0,0,0,15.274,1.5,1.5,0,0,0,2.111.2ZM19,12c-.3,9.251-13.707,9.249-14,0C5.294,2.749,18.707,2.751,19,12Zm-5.5,3.5a1.5,1.5,0,0,0-3,0A1.5,1.5,0,0,0,13.5,15.5Zm0-7a1.5,1.5,0,0,0-3,0v3a1.5,1.5,0,0,0,3,0Z"/></svg>
