<?xml version="1.0" encoding="UTF-8"?>
<svg xmlns="http://www.w3.org/2000/svg" id="Layer_1" data-name="Layer 1" viewBox="0 0 24 24" width="512" height="512"><path d="M9.5,9H5.5c-3.032,0-5.5,2.467-5.5,5.5v4c0,3.033,2.468,5.5,5.5,5.5h4c3.032,0,5.5-2.467,5.5-5.5v-4c0-3.033-2.468-5.5-5.5-5.5Zm2.5,9.5c0,1.378-1.121,2.5-2.5,2.5H5.5c-1.379,0-2.5-1.122-2.5-2.5v-4c0-1.378,1.121-2.5,2.5-2.5h4c1.379,0,2.5,1.122,2.5,2.5v4Zm-4-3c0,.828-.672,1.5-1.5,1.5s-1.5-.672-1.5-1.5,.672-1.5,1.5-1.5,1.5,.672,1.5,1.5Zm16-6c0,.829-.672,1.5-1.5,1.5s-1.5-.671-1.5-1.5c0-3.584-2.916-6.5-6.5-6.5-.828,0-1.5-.671-1.5-1.5s.672-1.5,1.5-1.5c5.238,0,9.5,4.262,9.5,9.5Zm-5,0c0,.829-.672,1.5-1.5,1.5s-1.5-.671-1.5-1.5-.673-1.5-1.5-1.5-1.5-.671-1.5-1.5,.672-1.5,1.5-1.5c2.481,0,4.5,2.019,4.5,4.5Z"/></svg>
