<?xml version="1.0" encoding="UTF-8"?>
<svg xmlns="http://www.w3.org/2000/svg" id="Layer_1" data-name="Layer 1" viewBox="0 0 24 24" width="512" height="512"><path d="M7,8.5A2.392,2.392,0,0,1,9.5,6a1.5,1.5,0,0,1,.412,2.943A1.521,1.521,0,0,1,8.5,9.964H8.466A1.469,1.469,0,0,1,7,8.5Zm7.057,1.412A1.5,1.5,0,0,0,17,9.5,2.392,2.392,0,0,0,14.5,7a1.469,1.469,0,0,0-1.463,1.466A1.517,1.517,0,0,0,14.057,9.912Zm8.419,3.8c-.006.039-1.345,5.943-1.345,5.943A5.517,5.517,0,0,1,15.754,24H8.246a5.524,5.524,0,0,1-5.382-4.367L1.545,13.867a4.458,4.458,0,0,1,.484-7.113A4.257,4.257,0,0,1,5.684,3.038,3.742,3.742,0,0,1,8.7,1.5h.375A5.2,5.2,0,0,1,12.75,0a5.26,5.26,0,0,1,4.736,3.006,4.716,4.716,0,0,1,4.247,3.2,4.725,4.725,0,0,1,.743,7.511ZM3,10.5A1.5,1.5,0,0,0,4.5,12H6a4.465,4.465,0,0,1,3,1.17,4.429,4.429,0,0,1,6,0A4.467,4.467,0,0,1,18,12h1.25a1.747,1.747,0,0,0,.644-3.372,1.5,1.5,0,0,1-.927-1.156A1.736,1.736,0,0,0,17.25,6h-.835a1.5,1.5,0,0,1-1.47-1.2,2.242,2.242,0,0,0-3.994-.9,1.5,1.5,0,0,1-1.2.6H8.7A.749.749,0,0,0,8,5,1.5,1.5,0,0,1,6.59,6H6.25A1.252,1.252,0,0,0,5,7.25v.436A1.5,1.5,0,0,1,4,9.1,1.5,1.5,0,0,0,3,10.5ZM7.817,20.962S7.5,16.536,7.5,16.5A1.5,1.5,0,0,0,6,15H4.882l.912,3.99A2.524,2.524,0,0,0,7.817,20.962Zm5.2.038.476-4.539a1.5,1.5,0,0,0-2.994.017L10.828,21Zm6.1-6H18a1.5,1.5,0,0,0-1.5,1.5c0,.052-.462,4.484-.462,4.484A2.514,2.514,0,0,0,18.2,19.015Z"/></svg>
