<?xml version="1.0" encoding="UTF-8"?>
<svg xmlns="http://www.w3.org/2000/svg" id="Layer_1" data-name="Layer 1" viewBox="0 0 24 24" width="512" height="512"><path d="M24,21a3,3,0,1,1-3-3A3,3,0,0,1,24,21ZM21,5.121,17.164,8.958h0a2.18,2.18,0,0,0-.664,1.521,2.043,2.043,0,0,0,.179.815A3.547,3.547,0,0,1,16,15.274L8.335,22.937a3.485,3.485,0,0,1-1.993.993A6.971,6.971,0,0,1,5.355,24a5.311,5.311,0,0,1-3.842-1.514A5.541,5.541,0,0,1,.069,17.659a3.5,3.5,0,0,1,1-1.995L8.728,8A3.535,3.535,0,0,1,12.7,7.319a2.41,2.41,0,0,0,.841.181,2.189,2.189,0,0,0,1.5-.664L18.879,3l-.44-.439A1.5,1.5,0,0,1,20.561.439l3,3a1.5,1.5,0,0,1-2.122,2.122ZM13.028,14c-.6,0-1.243,0-1.6,0C11,14,10,14,10,12.671v-1.7L3.185,17.786a.518.518,0,0,0-.146.3,2.649,2.649,0,0,0,.595,2.283,2.644,2.644,0,0,0,2.285.594.513.513,0,0,0,.294-.144Z"/></svg>
