<?xml version="1.0" encoding="UTF-8"?>
<svg xmlns="http://www.w3.org/2000/svg" id="Layer_1" data-name="Layer 1" viewBox="0 0 24 24" width="512" height="512"><path d="M2,17.839a1.5,1.5,0,0,1-1.325-.794A5.751,5.751,0,0,1,1.9,10.1a.428.428,0,0,0,.162-.353,8.289,8.289,0,0,1-.034-2.952A8.125,8.125,0,0,1,8.558.141a8.234,8.234,0,0,1,8.929,4.54.44.44,0,0,0,.325.242,7.757,7.757,0,0,1,4.857,11.893,1.5,1.5,0,1,1-2.516-1.632,4.741,4.741,0,0,0-2.93-7.32,3.42,3.42,0,0,1-2.448-1.9,5.183,5.183,0,0,0-9.791,1.32A5.317,5.317,0,0,0,5,9.173a3.416,3.416,0,0,1-1.088,3.144,2.728,2.728,0,0,0-.592,3.316A1.5,1.5,0,0,1,2,17.839ZM13,22.5v-4a1.5,1.5,0,0,0-3,0v4a1.5,1.5,0,0,0,3,0Zm-5-2v-4a1.5,1.5,0,0,0-3,0v4a1.5,1.5,0,0,0,3,0Zm10,0v-4a1.5,1.5,0,0,0-3,0v4a1.5,1.5,0,0,0,3,0Z"/></svg>
