<?xml version="1.0" encoding="UTF-8"?>
<svg xmlns="http://www.w3.org/2000/svg" id="Layer_1" data-name="Layer 1" viewBox="0 0 24 24" width="512" height="512"><path d="M22.663,15h-1.663v5.5c-.034,1.972-2.966,1.971-3,0v-5.5h-1.663c-.891,0-1.337-1.077-.707-1.707l3.163-3.163c.391-.391,1.024-.391,1.414,0l3.163,3.163c.63,.63,.184,1.707-.707,1.707Zm-6.663,7.5c0,.829-.672,1.5-1.5,1.5H5.5c-2.378,0-4.341-1.859-4.5-4.197V5.5C1,2.462,3.462,0,6.5,0h11c3.032,0,5.5,2.467,5.5,5.5v1c-.034,1.972-2.967,1.971-3,0v-1c0-1.378-1.121-2.5-2.5-2.5h-7.5V15h2.5c1.972,.034,1.971,2.967,0,3H5.5c-1.972,.035-1.97,2.965,0,3H14.5c.828,0,1.5,.671,1.5,1.5ZM4,15.276c.471-.168,.971-.276,1.5-.276h1.5V3h-.5c-1.381,0-2.5,1.119-2.5,2.5V15.276Z"/></svg>
