<?xml version="1.0" encoding="UTF-8"?>
<svg xmlns="http://www.w3.org/2000/svg" id="Layer_1" data-name="Layer 1" viewBox="0 0 24 24" width="512" height="512"><path d="M24,13.5C24,9.505,18.393,6,12,6S0,9.505,0,13.568a3.643,3.643,0,0,0,2.04,3.13l.492,2.765A5.494,5.494,0,0,0,7.949,24h8.1a5.491,5.491,0,0,0,5.414-4.537l.492-2.766A3.687,3.687,0,0,0,24,13.5ZM12,9c5.136,0,9,2.73,9,4.406-.05.594-.345.594-.5.594a1.488,1.488,0,0,0-1.118.509,1.71,1.71,0,0,0-.408.584,1.311,1.311,0,0,1-2.494,0,1.743,1.743,0,0,0-3.234,0,1.31,1.31,0,0,1-2.493,0,1.743,1.743,0,0,0-3.234,0A1.369,1.369,0,0,1,6.272,16a1.37,1.37,0,0,1-1.244-.9,1.711,1.711,0,0,0-.4-.584A1.492,1.492,0,0,0,3.5,14c-.158,0-.453,0-.5-.5C3,11.73,6.864,9,12,9Zm4.052,12h-8.1a2.5,2.5,0,0,1-2.462-2.062l0-.021A4.2,4.2,0,0,0,6.272,19a4.272,4.272,0,0,0,2.865-1.107,4.257,4.257,0,0,0,5.727,0A4.263,4.263,0,0,0,17.728,19a4.2,4.2,0,0,0,.788-.083l0,.021A2.5,2.5,0,0,1,16.052,21ZM10.5,2.5v-1a1.5,1.5,0,0,1,3,0v1a1.5,1.5,0,0,1-3,0Zm5.5,0v-1a1.5,1.5,0,0,1,3,0v1a1.5,1.5,0,0,1-3,0ZM5,2.5v-1a1.5,1.5,0,0,1,3,0v1a1.5,1.5,0,0,1-3,0ZM8.383,12.617a1.308,1.308,0,0,1,0-1.85,5.4,5.4,0,0,1,1.967-.752.526.526,0,0,1,.635.635,5.4,5.4,0,0,1-.752,1.967A1.308,1.308,0,0,1,8.383,12.617Zm5.384,0a5.4,5.4,0,0,1-.752-1.967.526.526,0,0,1,.635-.635,5.4,5.4,0,0,1,1.967.752,1.308,1.308,0,0,1-1.85,1.85Z"/></svg>
