<?xml version="1.0" encoding="UTF-8"?>
<svg xmlns="http://www.w3.org/2000/svg" id="Layer_1" data-name="Layer 1" viewBox="0 0 24 24" width="512" height="512"><path d="M8.235,7.098c.244-.064,.499-.098,.763-.098h5.993c.274,0,.538,.031,.79,.099l-3.138,3.138c-.341,.339-.93,.337-1.269,0l-3.139-3.139Zm6.529,5.26c-.854,.855-2.036,1.264-3.263,1.11-.899-.113-1.718-.579-2.358-1.22l-3.037-3.037c-.068,.251-.105,.515-.105,.788v3.499c0,1.381,1.12,2.501,2.501,2.5l6.993-.004c1.38,0,2.499-1.12,2.499-2.5v-3.501c0-.265-.035-.521-.099-.766l-3.13,3.13Zm9.236-.358C24,5.383,18.617,0,12,0S0,5.383,0,12s5.383,12,12,12,12-5.383,12-12Zm-3,0c0,4.962-4.037,9-9,9S3,16.962,3,12,7.037,3,12,3s9,4.038,9,9Z"/></svg>
