<?xml version="1.0" encoding="UTF-8"?>
<svg xmlns="http://www.w3.org/2000/svg" id="arrow-circle-down" viewBox="0 0 24 24" width="512" height="512"><g><path d="M.44,10.982a1.5,1.5,0,0,1,2.121,0l7.671,7.672h0a2.5,2.5,0,0,0,3.536,0l7.671-7.672A1.5,1.5,0,1,1,23.561,13.1l-7.672,7.672a5.5,5.5,0,0,1-7.778,0L.439,13.1a1.5,1.5,0,0,1,0-2.118Z"/><path d="M.44,1.439a1.5,1.5,0,0,1,2.121,0l9.085,9.086h0a.5.5,0,0,0,.707,0L21.439,1.44a1.5,1.5,0,0,1,2.122,2.119L14.475,12.64a3.505,3.505,0,0,1-4.95,0L.439,3.559a1.5,1.5,0,0,1,0-2.12Z"/></g></svg>
