<?xml version="1.0" encoding="UTF-8"?>
<svg xmlns="http://www.w3.org/2000/svg" id="Layer_1" data-name="Layer 1" viewBox="0 0 24 24" width="512" height="512"><g><path d="M22.486,21H19.211a7.384,7.384,0,0,0-.979-2.124l2.24-2.24a1.5,1.5,0,0,0-2.121-2.121L16.1,16.768a7.52,7.52,0,0,0-2.611-1.1V12.5a1.5,1.5,0,0,0-3,0v3.171a7.488,7.488,0,0,0-2.61,1.1L5.622,14.515A1.5,1.5,0,0,0,3.5,16.636l2.24,2.24A7.386,7.386,0,0,0,4.761,21H1.486a1.5,1.5,0,0,0,0,3H5.159a2.5,2.5,0,0,0,2.435-1.961,4.508,4.508,0,0,1,8.785,0A2.5,2.5,0,0,0,18.814,24h3.672A1.5,1.5,0,0,0,22.486,21Z"/><path d="M13.5,7.5V5.163h1.663a1.006,1.006,0,0,0,.707-1.707L12.707.293a1,1,0,0,0-1.414,0L8.13,3.456a1.006,1.006,0,0,0,.707,1.707H10.5V7.5A1.5,1.5,0,0,0,13.5,7.5Z"/></g></svg>
