<?xml version="1.0" encoding="UTF-8"?>
<svg xmlns="http://www.w3.org/2000/svg" id="Layer_1" data-name="Layer 1" viewBox="0 0 24 24" width="512" height="512"><path d="M20.389,4.268l-2.656-2.657c-1.039-1.039-2.42-1.611-3.89-1.611H7.5C4.468,0,2,2.467,2,5.5v13c0,3.033,2.468,5.5,5.5,5.5h9c3.032,0,5.5-2.467,5.5-5.5V8.157c0-1.469-.572-2.85-1.611-3.889Zm-3.889,16.732H7.5c-1.379,0-2.5-1.122-2.5-2.5V5.5c0-1.378,1.121-2.5,2.5-2.5h5.5V7c0,1.105,.895,2,2,2h4v9.5c0,1.378-1.121,2.5-2.5,2.5Zm.114-8.923c1.403,3.18-1.117,7-4.614,6.923-2.703,0-5.001-2.297-5-5,0-2.761,2.239-5,5-5v3.5c0,.714,.726,1.198,1.385,.923l3.23-1.346Z"/></svg>
