<?xml version="1.0" encoding="UTF-8"?>
<svg xmlns="http://www.w3.org/2000/svg" id="Layer_1" data-name="Layer 1" viewBox="0 0 24 24" width="512" height="512"><path d="M18.5,2h-.5v-.5c0-.829-.672-1.5-1.5-1.5s-1.5,.671-1.5,1.5v.5h-6v-.5c0-.829-.672-1.5-1.5-1.5s-1.5,.671-1.5,1.5v.5h-.5C2.468,2,0,4.467,0,7.5v11c0,3.033,2.468,5.5,5.5,5.5h13c3.032,0,5.5-2.467,5.5-5.5V7.5c0-3.033-2.468-5.5-5.5-5.5Zm0,19H5.5c-1.379,0-2.5-1.122-2.5-2.5V9H21v9.5c0,1.378-1.121,2.5-2.5,2.5Zm-.655-9.026c.566,.604,.535,1.554-.069,2.12l-4.176,3.914c-.626,.627-1.505,.992-2.439,.992s-1.814-.364-2.476-1.026l-2.478-2.396c-.596-.576-.611-1.525-.035-2.121,.576-.594,1.526-.61,2.121-.035l2.496,2.414c.146,.145,.294,.164,.371,.164s.226-.019,.354-.146l4.211-3.948c.604-.567,1.552-.536,2.12,.068Z"/></svg>
