<?xml version="1.0" encoding="UTF-8"?>
<svg xmlns="http://www.w3.org/2000/svg" id="Layer_1" data-name="Layer 1" viewBox="0 0 24 24" width="512" height="512"><path d="M22.436,12.349a1.5,1.5,0,0,1-1.49-1.338C19.6.408,4.393.414,3.054,11.011a1.5,1.5,0,1,1-2.983-.325c1.849-14.164,22.014-14.155,23.858,0A1.5,1.5,0,0,1,22.6,12.34,1.516,1.516,0,0,1,22.436,12.349Zm-2.392,8.556a1.5,1.5,0,1,0-2.012-2.225,9.048,9.048,0,0,1-12.064,0,1.5,1.5,0,0,0-2.011,2.225,12,12,0,0,0,16.087,0Zm-3.255-6.881A15.4,15.4,0,0,1,12,15,15.4,15.4,0,0,1,7.2,14.024a1,1,0,0,0-1.052,1.518A6.836,6.836,0,0,0,12,19a6.827,6.827,0,0,0,5.842-3.458A1,1,0,0,0,16.789,14.024Zm3.6,3.356a2.117,2.117,0,0,0,2.993-2.993c-.619-.694-4.449-2.27-4.372-.694A7.082,7.082,0,0,0,20.387,17.38ZM4.992,13.693c.078-1.576-3.751,0-4.372.694A2.117,2.117,0,0,0,3.613,17.38,7.082,7.082,0,0,0,4.992,13.693Zm4.815-1.725a1.5,1.5,0,0,0,1.161-1.775c-.888-4.217-5.051-4.212-5.936,0a1.5,1.5,0,1,0,2.936.614c.01-.046.02-.091.032-.134.012.043.022.088.032.134a1.5,1.5,0,0,0,1.775,1.161Zm8,0a1.5,1.5,0,0,0,1.16-1.775c-.888-4.217-5.05-4.212-5.936,0a1.5,1.5,0,1,0,2.936.614c.01-.046.02-.09.032-.134.012.044.022.088.032.134a1.5,1.5,0,0,0,1.776,1.161Z"/></svg>
