<?xml version="1.0" encoding="UTF-8"?>
<svg xmlns="http://www.w3.org/2000/svg" id="Layer_1" data-name="Layer 1" viewBox="0 0 24 24" width="512" height="512"><path d="M22.5,8H5v-1.5c0-1.379,1.121-2.5,2.5-2.5,0,0,.659-.006,.736-.019,.455,.618,1.188,1.019,2.014,1.019h4.25c1.381,0,2.5-1.119,2.5-2.5s-1.119-2.5-2.5-2.5h-4.25c-.826,0-1.559,.401-2.014,1.019-.077-.012-.736-.019-.736-.019C4.468,1,2,3.468,2,6.5v1.5h-.5c-.828,0-1.5,.672-1.5,1.5s.672,1.5,1.5,1.5h.563l1.401,8.403c.443,2.664,2.725,4.597,5.425,4.597h6.223c2.7,0,4.981-1.933,5.425-4.596l1.401-8.404h.563c.828,0,1.5-.672,1.5-1.5s-.672-1.5-1.5-1.5Zm-4.923,10.911c-.202,1.21-1.238,2.089-2.466,2.089h-6.223c-1.228,0-2.264-.879-2.466-2.09l-1.319-7.91h13.792l-1.319,7.911Zm-9.534-4.035c.113-.345,.407-.558,.77-.558h1.853l.563-1.756c.111-.347,.407-.562,.771-.562s.66,.215,.771,.562l.563,1.756h1.853c.362,0,.657,.214,.77,.558,.112,.344,0,.691-.292,.905l-1.507,1.101,.573,1.771c.111,.346-.002,.693-.297,.906-.295,.212-.66,.211-.953-.005l-1.481-1.089-1.481,1.089c-.286,.211-.666,.212-.953,.005-.295-.213-.409-.56-.297-.906l.572-1.771-1.506-1.101c-.293-.214-.404-.561-.292-.905Z"/></svg>
