<?xml version="1.0" encoding="UTF-8"?>
<svg xmlns="http://www.w3.org/2000/svg" id="Layer_1" data-name="Layer 1" viewBox="0 0 24 24" width="512" height="512"><path d="M23,22.5c0,.828-.672,1.5-1.5,1.5h-4.112c-.867,0-1.666-.471-2.087-1.229-.42-.759-.396-1.686,.062-2.421,.046-.073,3.859-4.351,3.859-4.351h-2.723c-.828,0-1.5-.672-1.5-1.5s.672-1.5,1.5-1.5h4.112c.867,0,1.666,.471,2.087,1.229,.42,.759,.396,1.686-.062,2.421-.046,.073-3.859,4.351-3.859,4.351h2.723c.828,0,1.5,.672,1.5,1.5Zm0-18.5v5.5c0,.828-.672,1.5-1.5,1.5s-1.5-.672-1.5-1.5v-1.5h-2v1.5c0,.828-.672,1.5-1.5,1.5s-1.5-.672-1.5-1.5V4c0-2.206,1.794-4,4-4s4,1.794,4,4Zm-2.5,1.5v-1.5c0-.828-.672-1.5-1.5-1.5s-1.5,.672-1.5,1.5v1.5h3Zm-10.555,11.934l-1.945,1.923V1.5c0-.828-.672-1.5-1.5-1.5s-1.5,.672-1.5,1.5V19.357l-1.945-1.923c-.588-.583-1.539-.578-2.121,.012-.583,.589-.577,1.539,.012,2.121l3.787,3.744c.488,.488,1.129,.731,1.77,.731s1.276-.242,1.76-.726l3.793-3.75c.589-.582,.595-1.532,.012-2.121-.582-.59-1.532-.595-2.121-.012Z"/></svg>
