<?xml version="1.0" encoding="UTF-8"?>
<svg xmlns="http://www.w3.org/2000/svg" id="Layer_1" data-name="Layer 1" viewBox="0 0 24 24" width="512" height="512"><path d="M21.171,10.322,17.012,4.354A5.506,5.506,0,0,0,12.5,2h-1A3.5,3.5,0,0,0,8,5.5V10H4.5A4.505,4.505,0,0,0,0,14.5v2A2.5,2.5,0,0,0,2.5,19H3v.5a2.5,2.5,0,0,0,5,0V19h8v.5a2.5,2.5,0,0,0,5,0V19h.5A2.5,2.5,0,0,0,24,16.5v-2A4.506,4.506,0,0,0,21.171,10.322ZM11,5.5a.5.5,0,0,1,.5-.5h1a2.5,2.5,0,0,1,2.051,1.07L17.29,10H11ZM21,16H3V14.5A1.5,1.5,0,0,1,4.5,13h15A1.5,1.5,0,0,1,21,14.5Z"/></svg>
