<?xml version="1.0" encoding="UTF-8"?>
<svg xmlns="http://www.w3.org/2000/svg" id="Layer_1" data-name="Layer 1" viewBox="0 0 24 24" width="512" height="512"><path d="M23.149,19.53a1.5,1.5,0,0,0-2,.7,1.343,1.343,0,0,1-.769.69,1.376,1.376,0,0,1-1.07-.074L17,19.82V15.863a3.513,3.513,0,0,0-1.1-2.547l-2.731-2.575,1.155-1.575,5.341,3.58a1.5,1.5,0,0,0,1.67-2.492L13.288,4.86A5.485,5.485,0,0,0,10.335,4H9.157a2.484,2.484,0,0,1-1.768-.732L5.561,1.439A1.5,1.5,0,0,0,3.439,3.561L5.268,5.389A5.462,5.462,0,0,0,9.157,7h.757L8.725,8.547A3.515,3.515,0,0,0,8,10.68v1.966a.5.5,0,0,1-.313.464L4.666,14.318l-.882-.393a1.35,1.35,0,0,1-.658-1.794A1.5,1.5,0,0,0,.4,10.869a4.354,4.354,0,0,0,2.139,5.787l15.507,6.916a4.351,4.351,0,0,0,5.805-2.041A1.5,1.5,0,0,0,23.149,19.53ZM8.8,15.9A3.483,3.483,0,0,0,11,12.815L13.843,15.5a.506.506,0,0,1,.157.364v2.619l-5.515-2.46ZM14,2.5A2.5,2.5,0,1,1,16.5,5,2.5,2.5,0,0,1,14,2.5Z"/></svg>
