<?xml version="1.0" encoding="UTF-8"?>
<svg xmlns="http://www.w3.org/2000/svg" id="Layer_1" data-name="Layer 1" viewBox="0 0 24 24" width="512" height="512"><path d="M10.749,10.108a2.1,2.1,0,0,1-.1,2.159L8.775,15.29a1.5,1.5,0,1,1-2.55-1.58L7.285,12h-.17A2.115,2.115,0,0,1,5.091,9.271c.038-.123,2.132-3.557,2.132-3.557A1.5,1.5,0,1,1,9.777,7.286L8.723,9H8.9A2.1,2.1,0,0,1,10.749,10.108ZM24,3.5V6a3,3,0,0,1-2,2.828V16.5A4.505,4.505,0,0,1,17.5,21H15.4a5.507,5.507,0,0,1-4.9,3h-5A5.506,5.506,0,0,1,0,18.5V5.5A5.506,5.506,0,0,1,5.5,0h5A5.506,5.506,0,0,1,16,5.5V18h1.5A1.5,1.5,0,0,0,19,16.5V8.828A3,3,0,0,1,17,6V3.5a1.5,1.5,0,0,1,3,0V4h1V3.5A1.5,1.5,0,0,1,24,3.5Zm-11,2A2.5,2.5,0,0,0,10.5,3h-5A2.5,2.5,0,0,0,3,5.5v13A2.5,2.5,0,0,0,5.5,21h5A2.5,2.5,0,0,0,13,18.5Z"/></svg>
