<?xml version="1.0" encoding="UTF-8"?>
<svg xmlns="http://www.w3.org/2000/svg" id="Layer_1" data-name="Layer 1" viewBox="0 0 24 24" width="512" height="512"><path d="M4.5,14A4.5,4.5,0,1,0,9,18.5,4.505,4.505,0,0,0,4.5,14Zm0,6A1.5,1.5,0,1,1,6,18.5,1.5,1.5,0,0,1,4.5,20Zm15-6A4.5,4.5,0,1,0,24,18.5,4.505,4.505,0,0,0,19.5,14Zm0,6A1.5,1.5,0,1,1,21,18.5,1.5,1.5,0,0,1,19.5,20ZM14,3.5A2.5,2.5,0,1,1,16.5,6,2.5,2.5,0,0,1,14,3.5ZM13.5,15v4.5a1.5,1.5,0,0,1-3,0V15.771s-2.246-1.61-2.28-1.639A3.449,3.449,0,0,1,7.4,9.9,1.994,1.994,0,0,1,6,8C6,6,8.818,5,9.923,5a6.4,6.4,0,0,1,3.922,1.372c.068.049,4.64,4,4.64,4a1.5,1.5,0,0,1-1.97,2.262l-3.792-3.3-2.606,1.826a.5.5,0,0,0-.117.329.487.487,0,0,0,.142.341l2.731,1.955A1.5,1.5,0,0,1,13.5,15Z"/></svg>
