<?xml version="1.0" encoding="UTF-8"?>
<svg xmlns="http://www.w3.org/2000/svg" id="Layer_1" data-name="Layer 1" viewBox="0 0 24 24" width="512" height="512"><path d="M13.5,20a1.532,1.532,0,0,1-.365-.045,1.5,1.5,0,0,1-1.091-1.819l1-4a1.5,1.5,0,1,1,2.91.728l-1,4A1.5,1.5,0,0,1,13.5,20Zm5.576-.115C26.03,16.9,25.44,6.489,17.812,4.923a.441.441,0,0,1-.325-.242A8.238,8.238,0,0,0,8.558.141,8.125,8.125,0,0,0,2.025,6.793a8.289,8.289,0,0,0,.034,2.952A.428.428,0,0,1,1.9,10.1a5.824,5.824,0,0,0,.769,9.148,1.5,1.5,0,1,0,1.668-2.492,2.805,2.805,0,0,1-.418-4.437A3.416,3.416,0,0,0,5,9.173a5.317,5.317,0,0,1-.02-1.888,5.183,5.183,0,0,1,9.792-1.318,3.424,3.424,0,0,0,2.447,1.9c4.731.95,4.94,7.451.7,9.251a1.5,1.5,0,0,0,1.154,2.77ZM12.5,21a1.5,1.5,0,0,0,0,3A1.5,1.5,0,0,0,12.5,21ZM8.955,22.864l1-4a1.5,1.5,0,0,0-2.91-.728l-1,4a1.5,1.5,0,0,0,1.091,1.819A1.532,1.532,0,0,0,7.5,24,1.5,1.5,0,0,0,8.955,22.864ZM9.5,16a1.5,1.5,0,0,0,0-3A1.5,1.5,0,0,0,9.5,16Z"/></svg>
