<?xml version="1.0" encoding="UTF-8"?>
<svg xmlns="http://www.w3.org/2000/svg" id="Layer_1" data-name="Layer 1" viewBox="0 0 24 24" width="512" height="512"><path d="M10.5,17.696c-.173,0-.349-.03-.52-.093-.887-.328-1.676-.834-2.347-1.505-.585-.586-.585-1.536,0-2.121,.586-.586,1.536-.586,2.122,0,.361,.362,.786,.635,1.263,.811,.777,.287,1.175,1.15,.888,1.927-.224,.605-.797,.98-1.407,.98ZM1.907,12.885c-2.539,2.539-2.539,6.669,0,9.208,1.27,1.27,2.937,1.904,4.604,1.904s3.335-.635,4.604-1.904c.031-.031,.062-.064,.09-.098l.445-.532c.531-.635,.447-1.581-.188-2.113-.637-.532-1.582-.448-2.113,.188l-.398,.477c-1.373,1.325-3.566,1.313-4.923-.042-1.369-1.369-1.369-3.597,0-4.966l1.988-1.989c.586-.586,.586-1.536,0-2.121-.586-.586-1.535-.586-2.121,0l-1.988,1.989ZM.439,2.561L21.439,23.561c.293,.293,.677,.439,1.061,.439s.768-.146,1.061-.439c.586-.585,.586-1.536,0-2.121l-5.896-5.896,4.428-4.428c2.539-2.539,2.539-6.669,0-9.208-2.537-2.539-6.667-2.541-9.208,0-.586,.585-.586,1.536,0,2.121,.586,.586,1.535,.586,2.121,0,1.37-1.369,3.598-1.368,4.966,0s1.369,3.597,0,4.966l-4.428,4.428-4.417-4.417c1.024-.111,2.077,.233,2.857,1.012,.293,.293,.677,.439,1.061,.439s.768-.146,1.061-.439c.586-.585,.586-1.536,0-2.121-1.984-1.985-4.929-2.451-7.377-1.289L2.561,.439c-.586-.586-1.535-.586-2.121,0-.586,.585-.586,1.536,0,2.121Z"/></svg>
