<?xml version="1.0" encoding="UTF-8"?>
<svg xmlns="http://www.w3.org/2000/svg" id="Layer_1" data-name="Layer 1" viewBox="0 0 24 24" width="512" height="512"><path d="M15,1.5c0-.828,.671-1.5,1.5-1.5h4.112c.868,0,1.667,.472,2.087,1.23,.42,.758,.396,1.686-.064,2.421-.045,.072-3.858,4.349-3.858,4.349h2.723c.829,0,1.5,.672,1.5,1.5s-.671,1.5-1.5,1.5h-4.112c-.868,0-1.667-.472-2.087-1.23-.42-.758-.396-1.686,.064-2.421,.045-.072,3.858-4.349,3.858-4.349h-2.723c-.829,0-1.5-.672-1.5-1.5Zm8,15.5v5.5c0,.828-.671,1.5-1.5,1.5s-1.5-.672-1.5-1.5v-1.5h-2v1.5c0,.828-.671,1.5-1.5,1.5s-1.5-.672-1.5-1.5v-5.5c0-2.206,1.794-4,4-4s4,1.794,4,4Zm-2.5,1.5v-1.5c0-.828-.673-1.5-1.5-1.5s-1.5,.672-1.5,1.5v1.5h3ZM8.268,.689c-.974-.975-2.56-.975-3.529-.006L.945,4.434c-.589,.582-.594,1.532-.012,2.121,.583,.589,1.532,.595,2.122,.012l1.945-1.923V22.5c0,.828,.671,1.5,1.5,1.5s1.5-.672,1.5-1.5V4.643l1.945,1.923c.292,.289,.674,.434,1.055,.434,.387,0,.773-.148,1.067-.445,.582-.589,.577-1.539-.012-2.121L8.268,.689Z"/></svg>
