<?xml version="1.0" encoding="UTF-8"?>
<svg xmlns="http://www.w3.org/2000/svg" id="Layer_1" data-name="Layer 1" viewBox="0 0 24 24" width="512" height="512"><path d="M23.968,2.937A2.531,2.531,0,0,0,23.249.748,2.521,2.521,0,0,0,21.057.027c-2.673.4-4.594,1.169-5.707,2.282a3.016,3.016,0,0,0-.24.277c-.206-.268-.413-.52-.615-.735a2.865,2.865,0,0,0-3.989,0A9.812,9.812,0,0,0,8.162,6.123a2.833,2.833,0,0,0-2.657.726A8.921,8.921,0,0,0,3,12.409a10.7,10.7,0,0,0,1.595,4.872L.437,21.437a1.5,1.5,0,0,0,2.122,2.12L6.714,19.4A10.721,10.721,0,0,0,11.591,21a8.927,8.927,0,0,0,5.561-2.5,2.712,2.712,0,0,0,.758-2.663,9.835,9.835,0,0,0,4.243-2.336,2.767,2.767,0,0,0,0-3.987,9.471,9.471,0,0,0-.75-.627,3.562,3.562,0,0,0,.283-.238C22.8,7.527,23.569,5.607,23.968,2.937Zm-6.5,1.492A7.165,7.165,0,0,1,20.9,3.093,7.149,7.149,0,0,1,19.564,6.52,4.251,4.251,0,0,1,17,6.994,4.339,4.339,0,0,1,17.473,4.429ZM12.5,4.119A5.865,5.865,0,0,1,14,7.411c0,.186-.007.347-.02.485l-2.168,2.168A6.773,6.773,0,0,1,11,7.411,5.872,5.872,0,0,1,12.5,4.119ZM6,12.409A5.875,5.875,0,0,1,7.5,9.117,5.868,5.868,0,0,1,9,12.409c0,.188-.007.349-.021.488L6.811,15.063A6.772,6.772,0,0,1,6,12.409ZM11.591,18a6.8,6.8,0,0,1-2.659-.813L11.1,15.022a4.7,4.7,0,0,1,.5-.023,5.871,5.871,0,0,1,3.293,1.5A5.876,5.876,0,0,1,11.591,18Zm5-5a6.8,6.8,0,0,1-2.66-.814l2.162-2.163c.141-.014.3-.022.5-.022a5.876,5.876,0,0,1,3.293,1.5A5.878,5.878,0,0,1,16.592,13Z"/></svg>
