<?xml version="1.0" encoding="UTF-8"?>
<svg xmlns="http://www.w3.org/2000/svg" id="Layer_1" data-name="Layer 1" viewBox="0 0 24 24" width="512" height="512"><path d="M12,24A12.013,12.013,0,0,1,0,12C.6-3.9,23.4-3.894,24,12A12.013,12.013,0,0,1,12,24ZM12,3a9.01,9.01,0,0,0-9,9c.452,11.923,17.55,11.92,18,0A9.01,9.01,0,0,0,12,3Zm5.557,13.564a1.5,1.5,0,0,0-2.109-2.133,4.648,4.648,0,0,1-6.891.005,1.5,1.5,0,0,0-2.114,2.128A8.813,8.813,0,0,0,12,19,8.813,8.813,0,0,0,17.557,16.564Zm-7.749-4.6a1.5,1.5,0,0,0,1.16-1.776c-.889-4.216-5.049-4.21-5.936,0a1.5,1.5,0,0,0,2.936.616c.01-.046.02-.091.032-.134.012.043.022.088.032.134a1.5,1.5,0,0,0,1.776,1.16Zm8,0a1.5,1.5,0,0,0,1.16-1.776c-.889-4.216-5.049-4.21-5.936,0a1.5,1.5,0,1,0,2.936.616c.01-.046.02-.091.032-.134.012.043.022.088.032.134a1.5,1.5,0,0,0,1.776,1.16Z"/></svg>
