<?xml version="1.0" encoding="UTF-8"?>
<svg xmlns="http://www.w3.org/2000/svg" id="Layer_1" data-name="Layer 1" viewBox="0 0 24 24" width="512" height="512"><path d="M10.586,4.414a2,2,0,0,1,0-2.828l.8-.9a.818.818,0,0,1,1.223,0l.8.9a2,2,0,0,1-2.829,2.828Zm7.4.586A2.013,2.013,0,0,0,19.4,1.586l-.8-.9a.818.818,0,0,0-1.223,0l-.8.9A2,2,0,0,0,17.986,5Zm-12,0A2.013,2.013,0,0,0,7.4,1.586l-.8-.9a.818.818,0,0,0-1.223,0l-.8.9A2,2,0,0,0,5.986,5ZM22,16.758v1.2a4.039,4.039,0,0,1-2,3.484V22a2,2,0,0,1-4,0H8a2,2,0,0,1-4,0v-.565a4.064,4.064,0,0,1-.807-.633,4.017,4.017,0,0,1-1.167-2.881,11.248,11.248,0,0,1,.848-5.144L4.065,10.2A5.519,5.519,0,0,1,9.06,7h5.881a5.519,5.519,0,0,1,4.995,3.2l1.19,2.582A9.424,9.424,0,0,1,22,16.758ZM6.064,19h11.9A1.039,1.039,0,0,0,19,17.962v-1.2A6.564,6.564,0,0,0,18.956,16H17v.5a1.5,1.5,0,0,1-3,0V16H10v.5a1.5,1.5,0,0,1-3,0V16H5.1a16.977,16.977,0,0,0-.069,1.92A1.041,1.041,0,0,0,6.064,19Zm.726-7.547L6.076,13H17.925l-.714-1.548A2.507,2.507,0,0,0,14.941,10H9.06A2.506,2.506,0,0,0,6.79,11.453Z"/></svg>
