<?xml version="1.0" encoding="UTF-8"?>
<svg xmlns="http://www.w3.org/2000/svg" id="Layer_1" data-name="Layer 1" viewBox="0 0 24 24" width="512" height="512"><path d="M24,8.5c0-.524-.274-1.012-.724-1.283L13.864,1.521c-1.15-.695-2.578-.697-3.728,0L.724,7.217c-.449,.271-.724,.759-.724,1.283s.274,1.012,.724,1.283l9.412,5.696c.575,.348,1.22,.522,1.864,.522s1.289-.174,1.863-.522l9.413-5.696c.449-.271,.724-.759,.724-1.283Zm-11.69,4.413c-.19,.114-.428,.114-.62,0l-7.292-4.413,7.292-4.413h0c.189-.115,.427-.116,.62,0l7.292,4.413-7.293,4.413Zm11.69,6.587c0,.828-.671,1.5-1.5,1.5h-1.5v1.5c0,.828-.671,1.5-1.5,1.5s-1.5-.672-1.5-1.5v-1.5h-1.5c-.829,0-1.5-.672-1.5-1.5s.671-1.5,1.5-1.5h1.5v-1.5c0-.828,.671-1.5,1.5-1.5s1.5,.672,1.5,1.5v1.5h1.5c.829,0,1.5,.672,1.5,1.5Zm-11.214,1.771c-.281,.469-.778,.729-1.288,.729-.263,0-.529-.068-.771-.214L.822,15.843c-.71-.426-.94-1.348-.514-2.058,.426-.711,1.348-.942,2.058-.515l9.906,5.943c.71,.426,.94,1.348,.514,2.058Z"/></svg>
