<?xml version="1.0" encoding="UTF-8"?>
<svg xmlns="http://www.w3.org/2000/svg" id="Layer_1" data-name="Layer 1" viewBox="0 0 24 24" width="512" height="512"><path d="M22,10V5.936A5.381,5.381,0,0,0,18.087.792a23.809,23.809,0,0,0-12.174,0A5.381,5.381,0,0,0,2,5.936V10a2,2,0,0,0-2,2v1a2,2,0,0,0,2,2v1.5a5.493,5.493,0,0,0,2,4.24V22a2,2,0,0,0,4,0h8a2,2,0,0,0,4,0V20.74a5.493,5.493,0,0,0,2-4.24V15a2,2,0,0,0,2-2V12A2,2,0,0,0,22,10Zm-8.5,2V6H19v6ZM5,12V6h5.5v6Zm2.5,7A2.5,2.5,0,0,1,5,16.5V15H7v.5a1.5,1.5,0,0,0,3,0V15h4v.5a1.5,1.5,0,0,0,3,0V15h2v1.5A2.5,2.5,0,0,1,16.5,19Z"/></svg>
