<?xml version="1.0" encoding="UTF-8"?>
<svg xmlns="http://www.w3.org/2000/svg" id="Layer_1" data-name="Layer 1" viewBox="0 0 24 24" width="512" height="512"><path d="M22,11.5a5.491,5.491,0,0,0-8.487-4.611C13.649,3.12,15.975,3,16,3c.7,0,1,.38,1,.5a1.5,1.5,0,0,0,3,0A3.779,3.779,0,0,0,16,0a5.371,5.371,0,0,0-3.8,1.879A5.383,5.383,0,0,0,10.171.158,1.5,1.5,0,0,0,8.829,2.842c.961.48,1.608,1.381,1.661,4.048A5.5,5.5,0,1,0,6.729,16.939a5.5,5.5,0,1,0,10.542,0A5.5,5.5,0,0,0,22,11.5Zm-17,0A2.5,2.5,0,1,1,7.5,14,2.5,2.5,0,0,1,5,11.5ZM12,21a2.5,2.5,0,1,1,2.5-2.5A2.5,2.5,0,0,1,12,21Zm4.5-7A2.5,2.5,0,1,1,19,11.5,2.5,2.5,0,0,1,16.5,14Z"/></svg>
