<?xml version="1.0" encoding="UTF-8"?>
<svg xmlns="http://www.w3.org/2000/svg" id="Layer_1" data-name="Layer 1" viewBox="0 0 24 24" width="512" height="512"><path d="M20.5,17a3.432,3.432,0,0,0-.5.036V5.5A2.5,2.5,0,0,1,22.5,3a1.5,1.5,0,0,0,0-3A5.506,5.506,0,0,0,17,5.5V16.377L4,20.2l-.728-2.616,9.951-2.945a2.494,2.494,0,0,0,1.723-3.046l-1.1-4.328a4.5,4.5,0,0,0-5.572-3.09L4.256,5.332a4.5,4.5,0,0,0-3.093,5.521L1.69,12.9A4.481,4.481,0,0,0,.169,17.627l.952,3.421-.044.013a1.5,1.5,0,0,0,.846,2.878l15.235-4.481A3.5,3.5,0,1,0,20.5,17ZM5.086,8.215,9.1,7.059a1.489,1.489,0,0,1,1.142.129,1.47,1.47,0,0,1,.7.858l.979,3.849L5.051,13.93l-.992-3.862A1.5,1.5,0,0,1,5.086,8.215Z"/></svg>
