<?xml version="1.0" encoding="UTF-8"?>
<svg xmlns="http://www.w3.org/2000/svg" id="Layer_1" data-name="Layer 1" viewBox="0 0 24 24" width="512" height="512"><path d="M11,13v1a2,2,0,0,1-2,2H8a3,3,0,0,1-3-3V9.5a1.5,1.5,0,0,1,3,0,1.065,1.065,0,0,0,.207.507A3,3,0,0,1,11,13Zm5-3.5a1.065,1.065,0,0,1-.207.507A3,3,0,0,0,13,13v1a2,2,0,0,0,2,2h1a3,3,0,0,0,3-3V9.5a1.5,1.5,0,0,0-3,0ZM24,12v6.682A5.324,5.324,0,0,1,18.682,24h-.87a4.485,4.485,0,0,1-3.991-2.422l-.36-.692a1.648,1.648,0,0,0-2.922,0l-.36.692A4.486,4.486,0,0,1,6.187,24H5.318A5.324,5.324,0,0,1,0,18.682V12.348A12.241,12.241,0,0,1,11.776,0,12,12,0,0,1,24,12Zm-3,0a8.932,8.932,0,0,0-2.695-6.422A9.034,9.034,0,0,0,11.831,3,9.226,9.226,0,0,0,3,12.348v6.334A2.321,2.321,0,0,0,5.318,21h.869a1.5,1.5,0,0,0,1.332-.808l.36-.692a4.647,4.647,0,0,1,8.242,0l.36.692A1.5,1.5,0,0,0,17.812,21h.87A2.321,2.321,0,0,0,21,18.682Z"/></svg>
