<?xml version="1.0" encoding="UTF-8"?>
<svg xmlns="http://www.w3.org/2000/svg" id="Layer_1" data-name="Layer 1" viewBox="0 0 24 24" width="512" height="512"><path d="M20.536,21.429a3.506,3.506,0,0,1-4.752.257l-1.24-1.026a1.5,1.5,0,0,1,1.912-2.312L17.7,19.374a.521.521,0,0,0,.706-.055,9,9,0,1,0-12.792.014.524.524,0,0,0,.7.059l1.283-1.04a1.5,1.5,0,1,1,1.889,2.33L8.2,21.722a3.511,3.511,0,0,1-4.718-.276,12,12,0,0,1,9.9-20.365,11.993,11.993,0,0,1,7.155,20.348ZM12,11a2,2,0,0,0-1.7.944L6.569,13.063a1.5,1.5,0,1,0,.862,2.874l3.733-1.12A1.994,1.994,0,1,0,12,11Z"/></svg>
