<?xml version="1.0" encoding="UTF-8"?>
<svg xmlns="http://www.w3.org/2000/svg" id="Layer_1" data-name="Layer 1" viewBox="0 0 24 24" width="512" height="512"><path d="M24,8.154v9c0,3.032-2.467,5.5-5.5,5.5h-1c-1.972-.034-1.971-2.967,0-3h1c1.378,0,2.5-1.121,2.5-2.5V8.154c0-.171-.018-.339-.051-.5H3v9.5c0,1.379,1.122,2.5,2.5,2.5h1c1.972,.034,1.971,2.967,0,3h-1C2.468,22.654,0,20.186,0,17.154V6.154C0,3.122,2.468,.654,5.5,.654h2.528c.541,0,1.082,.128,1.565,.369l3.155,1.577c.071,.036,.147,.054,.224,.054h5.528c3.033,0,5.5,2.468,5.5,5.5Zm-8.129,5.792l-3.163-3.163c-.391-.391-1.024-.391-1.414,0l-3.163,3.163c-.63,.63-.184,1.707,.707,1.707h1.663v5.501c.034,1.972,2.967,1.971,3,0v-5.501h1.664c.891,0,1.337-1.077,.707-1.707Z"/></svg>
