<?xml version="1.0" encoding="UTF-8"?>
<svg xmlns="http://www.w3.org/2000/svg" id="Layer_1" data-name="Layer 1" viewBox="0 0 24 24" width="512" height="512"><path d="M19.5,13H11V4.5C11,2.019,8.981,0,6.5,0h-2C2.019,0,0,2.019,0,4.5v14c0,3.032,2.467,5.5,5.5,5.5h14c2.481,0,4.5-2.019,4.5-4.5v-2c0-2.481-2.019-4.5-4.5-4.5Zm1.5,6.5c0,.827-.673,1.5-1.5,1.5H5.5c-1.378,0-2.5-1.121-2.5-2.5V4.5c0-.827,.673-1.5,1.5-1.5h2c.827,0,1.5,.673,1.5,1.5v.5h-1.5c-.829,0-1.5,.672-1.5,1.5s.671,1.5,1.5,1.5h1.5v2h-1.5c-.829,0-1.5,.672-1.5,1.5s.671,1.5,1.5,1.5h1.5v1.5c0,.828,.671,1.5,1.5,1.5h1.5v1.5c0,.828,.671,1.5,1.5,1.5s1.5-.672,1.5-1.5v-1.5h2v1.5c0,.828,.672,1.5,1.5,1.5s1.5-.672,1.5-1.5v-1.5h.5c.827,0,1.5,.673,1.5,1.5v2Z"/></svg>
