<?xml version="1.0" encoding="UTF-8"?>
<svg xmlns="http://www.w3.org/2000/svg" id="Layer_1" data-name="Layer 1" viewBox="0 0 24 24" width="512" height="512"><path d="M17.558,5.311A4.247,4.247,0,0,0,18,3.5a1.5,1.5,0,0,0-3,0,2.248,2.248,0,0,1-1.5,1.714V1.5a1.5,1.5,0,0,0-3,0V5.214A2.248,2.248,0,0,1,9,3.5a1.5,1.5,0,0,0-3,0,4.243,4.243,0,0,0,.427,1.815A8.981,8.981,0,0,0,0,14.029,10.433,10.433,0,0,0,10.091,24h3.818A9.71,9.71,0,0,0,24,14.029,8.981,8.981,0,0,0,17.558,5.311ZM13.909,21H10.091A7.411,7.411,0,0,1,3,14.029,5.86,5.86,0,0,1,8.659,8a5.292,5.292,0,0,1,1.325.216,4.542,4.542,0,0,1-1.848.829A1.5,1.5,0,0,0,8.5,12a1.532,1.532,0,0,0,.365-.045A7.363,7.363,0,0,0,12,10.425a7.356,7.356,0,0,0,3.134,1.53A1.538,1.538,0,0,0,15.5,12a1.5,1.5,0,0,0,.363-2.955A4.553,4.553,0,0,1,14,8.2,5.306,5.306,0,0,1,15.341,8,5.86,5.86,0,0,1,21,14.029,6.735,6.735,0,0,1,13.909,21Z"/></svg>
