<?xml version="1.0" encoding="UTF-8"?>
<svg xmlns="http://www.w3.org/2000/svg" id="Layer_1" data-name="Layer 1" viewBox="0 0 24 24" width="512" height="512"><path d="M21.72,8.543,15.258,1.476A4.347,4.347,0,0,0,12,0h0A4.347,4.347,0,0,0,8.752,1.463L2.237,8.585a5.336,5.336,0,0,0,.047,6.88l6.475,7.066A4.342,4.342,0,0,0,12.018,24h.007a4.335,4.335,0,0,0,3.242-1.461l6.5-7.135A5.335,5.335,0,0,0,21.72,8.543Zm-2.259,1.974a2.3,2.3,0,0,1,.315.491L13.5,12.962V4ZM10.5,4v8.966L4.211,11A2.145,2.145,0,0,1,4.5,10.56ZM5.517,14.553,10.5,16.1V19.99ZM13.5,20.029V16.1l4.994-1.554Z"/></svg>
