<?xml version="1.0" encoding="UTF-8"?>
<svg xmlns="http://www.w3.org/2000/svg" id="Layer_1" data-name="Layer 1" viewBox="0 0 24 24" width="512" height="512"><path d="M6.457,14.664,4.9,16.218A1.5,1.5,0,0,1,2.782,14.1l1.553-1.554A5.912,5.912,0,0,1,3.71,11H1.5a1.5,1.5,0,0,1,0-3H3.706a5.868,5.868,0,0,1,.636-1.537L2.783,4.9A1.5,1.5,0,0,1,4.9,2.782l1.56,1.56A5.861,5.861,0,0,1,8,3.706V1.5a1.5,1.5,0,0,1,3,0V3.708a5.978,5.978,0,0,1,1.547.622L14.1,2.781A1.5,1.5,0,1,1,16.217,4.9L14.662,6.457a3,3,0,0,1-3.64.457,3,3,0,0,0-4.108,4.108A3,3,0,0,1,6.457,14.664ZM15.9,18H15.8l.445-.667a1.5,1.5,0,0,0-2.494-1.666l-1.474,2.207a1.521,1.521,0,0,0-.189.4A2.116,2.116,0,0,0,14.115,21h.09l-.446.658a1.5,1.5,0,0,0,2.482,1.684l1.408-2.076A2.1,2.1,0,0,0,15.9,18Zm4.214-5.156a1.956,1.956,0,0,1-.341-.1,6.226,6.226,0,0,0-6.63-3.678A6.109,6.109,0,0,0,8,14.971a5.934,5.934,0,0,0,.058.95,3.837,3.837,0,0,0-1.929,4.3A4,4,0,0,0,9.1,22.945a1.5,1.5,0,0,0,.8-2.89c-.743-.206-.866-.574-.878-.614-.123-.458.3-.825.6-.95a2.447,2.447,0,0,0,1.443-2.783,2.983,2.983,0,0,1-.067-.68,3.067,3.067,0,0,1,.093-.686,3.016,3.016,0,0,1,2.473-2.306,3.219,3.219,0,0,1,3.446,1.882,3.052,3.052,0,0,0,2.335,1.826,2.162,2.162,0,0,1,1.592,2.615,2.042,2.042,0,0,1-1.013,1.257,1.5,1.5,0,0,0,1.156,2.768,5.027,5.027,0,0,0,2.776-3.338A5.166,5.166,0,0,0,20.11,12.844Z"/></svg>
