<?xml version="1.0" encoding="UTF-8"?>
<svg xmlns="http://www.w3.org/2000/svg" id="Layer_1" data-name="Layer 1" viewBox="0 0 24 24" width="512" height="512"><path d="M23.561.439a1.5,1.5,0,0,0-2.122,0l-6.8,6.8-.7-.7A5.266,5.266,0,0,0,6.5,6.534L1.542,11.42A5.231,5.231,0,0,0,0,15.143v3.592A5.27,5.27,0,0,0,5.265,24H8.857a5.237,5.237,0,0,0,3.731-1.55l4.87-4.946a5.268,5.268,0,0,0,0-7.444l-.7-.7,6.8-6.8A1.5,1.5,0,0,0,23.561.439ZM3,18.735V16.163A6.424,6.424,0,0,0,6,17q.553,0,1.048-.048Q7,17.447,7,18a6.531,6.531,0,0,0,.819,3H5.265A2.267,2.267,0,0,1,3,18.735Zm12.329-3.344-4.583,4.654A3.986,3.986,0,0,1,10,18a3.462,3.462,0,0,1,1.061-2.939l.5-.5A1.5,1.5,0,0,0,9.44,12.438l-.5.5A3.462,3.462,0,0,1,6,14a3.827,3.827,0,0,1-2.031-.761L8.617,8.663a2.267,2.267,0,0,1,3.2,0l3.518,3.518A2.269,2.269,0,0,1,15.329,15.391Z"/></svg>
