<?xml version="1.0" encoding="UTF-8"?>
<svg xmlns="http://www.w3.org/2000/svg" id="Layer_1" data-name="Layer 1" viewBox="0 0 24 24" width="512" height="512"><path d="M18.5,10H16.792l.142-1.077A3.2,3.2,0,0,0,16.3,6.275,3.377,3.377,0,0,0,13.633,5H11.992l.236-1.574A.5.5,0,0,1,12.722,3H15.5a1.5,1.5,0,0,0,0-3H12.722A3.479,3.479,0,0,0,9.261,2.98L8.958,5H3.367A3.378,3.378,0,0,0,.7,6.272,3.2,3.2,0,0,0,.066,8.918l1.4,10.664A5.184,5.184,0,0,0,6.661,24H18.5A5.506,5.506,0,0,0,24,18.5v-3A5.506,5.506,0,0,0,18.5,10Zm2.449,5h-9.4A2.5,2.5,0,0,1,14,13h4.5A2.5,2.5,0,0,1,20.949,15ZM13.633,8a.387.387,0,0,1,.314.139c.07.087.027.281.02.33L13.766,10H11.242l.3-2Zm-10.58.139A.389.389,0,0,1,3.367,8H8.508l-.3,2H3.234l-.2-1.534C3.026,8.417,2.983,8.226,3.053,8.139ZM4.444,19.191,3.629,13H9.107A5.463,5.463,0,0,0,8.5,15.5v3A5.463,5.463,0,0,0,9.107,21H6.661A2.18,2.18,0,0,1,4.444,19.191ZM18.5,21H14a2.5,2.5,0,0,1-2.5-2.5V18h2.046l2.622,1.748a1.5,1.5,0,0,0,1.664,0L20.454,18H21v.5A2.5,2.5,0,0,1,18.5,21Z"/></svg>
