<?xml version="1.0" encoding="UTF-8"?>
<svg xmlns="http://www.w3.org/2000/svg" id="Layer_1" data-name="Layer 1" viewBox="0 0 24 24" width="512" height="512"><path d="M9,16c0-2.545,1-5,3-5s3,2.455,3,5a2.908,2.908,0,0,1-3,3A2.908,2.908,0,0,1,9,16Zm13.091-1.31a8.474,8.474,0,0,0-1.985-5.779,13.742,13.742,0,0,1-2.249-4.366A6.027,6.027,0,0,0,12,0C8.51,0,2,4.98,2,14.5A9.771,9.771,0,0,0,12,24C17.564,24,22.091,19.824,22.091,14.69ZM14.984,5.408a16.765,16.765,0,0,0,2.734,5.319,5.554,5.554,0,0,1,1.373,3.963C19.091,18.169,15.91,21,12,21a6.772,6.772,0,0,1-7-6.5C5,7.03,9.968,3,12,3A3.051,3.051,0,0,1,14.984,5.408Z"/></svg>
