<?xml version="1.0" encoding="UTF-8"?>
<svg xmlns="http://www.w3.org/2000/svg" id="Layer_1" data-name="Layer 1" viewBox="0 0 24 24" width="512" height="512"><path d="M20.017,4.059A12.015,12.015,0,0,0,.1,11.4,11.865,11.865,0,0,0,3.614,21.488,5.317,5.317,0,0,0,7.342,23h9.322a5.175,5.175,0,0,0,3.574-1.371A11.969,11.969,0,0,0,20.017,4.059ZM18.183,19.444A2.225,2.225,0,0,1,16.664,20H7.342a2.333,2.333,0,0,1-1.636-.662,8.894,8.894,0,0,1-2.631-7.564A9.008,9.008,0,0,1,10.952,4.06C19.411,3,24.471,13.614,18.183,19.444ZM19,12.786a6.97,6.97,0,0,1-1.844,4.729,1.5,1.5,0,0,1-2.209-2.03,3.844,3.844,0,0,0-2.57-6.469,1.5,1.5,0,0,1,.246-2.991A6.818,6.818,0,0,1,19,12.786Zm-9.947,2.7a1.5,1.5,0,0,1-2.209,2.032c-1.147-1.26-3.126-4.863-.491-5.5a1.5,1.5,0,0,1,1.68,1.294A3.951,3.951,0,0,0,9.053,15.484ZM14,13a2,2,0,0,1-4,.125L7.439,10.561A1.5,1.5,0,0,1,9.561,8.439L12.125,11A2,2,0,0,1,14,13Z"/></svg>
