<?xml version="1.0" encoding="UTF-8"?>
<svg xmlns="http://www.w3.org/2000/svg" id="Layer_1" data-name="Layer 1" viewBox="0 0 24 24" width="512" height="512"><path d="M14.5,11c.829,0,1.5,.671,1.5,1.5s-.671,1.5-1.5,1.5H7.5c-.829,0-1.5-.671-1.5-1.5s.671-1.5,1.5-1.5h7Zm-5,5h-2c-.829,0-1.5,.671-1.5,1.5s.671,1.5,1.5,1.5h2c.829,0,1.5-.671,1.5-1.5s-.671-1.5-1.5-1.5Zm-1,5h-3c-1.378,0-2.5-1.122-2.5-2.5V9H22.5c.829,0,1.5-.671,1.5-1.5,0-3.033-2.467-5.5-5.5-5.5h-.5v-.5c0-.829-.671-1.5-1.5-1.5s-1.5,.671-1.5,1.5v.5h-6v-.5c0-.829-.671-1.5-1.5-1.5s-1.5,.671-1.5,1.5v.5h-.5C2.467,2,0,4.467,0,7.5v11c0,3.033,2.467,5.5,5.5,5.5h3c.829,0,1.5-.671,1.5-1.5s-.671-1.5-1.5-1.5Zm4.769-1.519c-.813,.813-1.269,1.915-1.269,3.064v.955c0,.276,.224,.5,.5,.5h.955c1.149,0,2.252-.457,3.064-1.269l6.715-6.715c.85-.85,1.013-2.236,.252-3.167-.875-1.07-2.456-1.129-3.409-.176l-6.808,6.808Z"/></svg>
