<?xml version="1.0" encoding="UTF-8"?>
<svg xmlns="http://www.w3.org/2000/svg" id="Layer_1" data-name="Layer 1" viewBox="0 0 24 24" width="512" height="512"><path d="M14,16.5v1c0,.828-.672,1.5-1.5,1.5H6.5c-.828,0-1.5-.672-1.5-1.5v-1c0-.828,.672-1.5,1.5-1.5h6c.828,0,1.5,.672,1.5,1.5Zm-5.5-6.5h-2c-.829,0-1.5,.671-1.5,1.5s.671,1.5,1.5,1.5h2c.829,0,1.5-.671,1.5-1.5s-.671-1.5-1.5-1.5Zm0-5h-2c-.829,0-1.5,.671-1.5,1.5s.671,1.5,1.5,1.5h2c.829,0,1.5-.671,1.5-1.5s-.671-1.5-1.5-1.5Zm4,16H5.5c-1.378,0-2.5-1.122-2.5-2.5V5.5c0-1.378,1.122-2.5,2.5-2.5h5.5V7c0,1.105,.895,2,2,2,0,0,5.627,.011,5.691,0,.816-.135,1.369-.929,1.233-1.746-.188-1.139-.72-2.171-1.536-2.986l-2.656-2.657c-1.023-1.024-2.441-1.611-3.889-1.611H5.5C2.467,0,0,2.467,0,5.5v13c0,3.033,2.467,5.5,5.5,5.5h7c.828,0,1.5-.671,1.5-1.5s-.672-1.5-1.5-1.5Zm11.5-1.587c0-1.476-.885-2.783-2.255-3.331l-2.376-.95c-.225-.09-.369-.304-.369-.545,0-.324,.264-.587,.587-.587h1.181c.181,0,.343,.094,.434,.251,.415,.717,1.333,.961,2.05,.547,.717-.415,.962-1.333,.548-2.049-.511-.883-1.381-1.492-2.363-1.684-.187-.616-.759-1.065-1.436-1.065-.71,0-1.304,.493-1.46,1.156-1.469,.449-2.54,1.817-2.54,3.431,0,1.476,.885,2.783,2.255,3.331l2.376,.95c.225,.09,.369,.304,.369,.545,0,.324-.264,.587-.587,.587h-1.181c-.181,0-.343-.094-.434-.25-.416-.717-1.334-.962-2.05-.547-.717,.415-.962,1.333-.548,2.049,.511,.883,1.381,1.491,2.363,1.683,.186,.616,.759,1.065,1.436,1.065,.71,0,1.304-.493,1.46-1.156,1.469-.449,2.54-1.817,2.54-3.431Z"/></svg>
