<?xml version="1.0" encoding="UTF-8"?>
<svg xmlns="http://www.w3.org/2000/svg" id="Layer_1" data-name="Layer 1" viewBox="0 0 24 24" width="512" height="512"><path d="M20.5,14.772a1.5,1.5,0,0,1-.751-2.8,6.431,6.431,0,0,0,.539-.351,7.542,7.542,0,0,1-4.43-3.394,7.471,7.471,0,0,1-.8-4.819,5.261,5.261,0,0,0-.8.521,4.807,4.807,0,0,0-1.389,1.794,1.5,1.5,0,1,1-2.736-1.233,7.832,7.832,0,0,1,2.259-2.91A8.488,8.488,0,0,1,15.32.084a2.374,2.374,0,0,1,2.329.645,2.349,2.349,0,0,1,.557,2.336,4.692,4.692,0,0,0,.267,3.689,4.768,4.768,0,0,0,3.508,2.182,2.367,2.367,0,0,1,1.44,3.892,8.925,8.925,0,0,1-2.171,1.743A1.486,1.486,0,0,1,20.5,14.772ZM1.573,19.331a1.5,1.5,0,0,1-1.447-1.11,3.838,3.838,0,0,1,1.93-4.3A5.93,5.93,0,0,1,2,12.971,6.112,6.112,0,0,1,7.14,7.065a6.524,6.524,0,0,1,1.5-.039,1.5,1.5,0,0,1-.276,2.989,3.448,3.448,0,0,0-.8.02,3.016,3.016,0,0,0-2.475,2.306A3.079,3.079,0,0,0,5,13.026a2.913,2.913,0,0,0,.067.684,2.447,2.447,0,0,1-1.446,2.782c-.3.123-.719.491-.6.949a1.5,1.5,0,0,1-1.449,1.89ZM14.8,24H7.772a4.161,4.161,0,0,1-.944-.129,3.729,3.729,0,0,1-.784-6.944,5.341,5.341,0,0,1,.06-1.735,5.19,5.19,0,0,1,3.828-4.029,5.245,5.245,0,0,1,6.046,2.806h0a.365.365,0,0,0,.207.2,5.036,5.036,0,0,1,3.729,5.76A5.117,5.117,0,0,1,14.8,24ZM11.247,14a2.477,2.477,0,0,0-.6.074,2.209,2.209,0,0,0-1.6,1.7,2.322,2.322,0,0,0,.02,1.028A2.265,2.265,0,0,1,7.66,19.478c-.339.126-.757.509-.635.964a.793.793,0,0,0,.551.525A1.158,1.158,0,0,0,7.812,21H14.8a2,2,0,0,0,.638-3.928,3.327,3.327,0,0,1-2.164-1.8h0A2.272,2.272,0,0,0,11.247,14Z"/></svg>
