<?xml version="1.0" encoding="UTF-8"?>
<svg xmlns="http://www.w3.org/2000/svg" id="Layer_1" data-name="Layer 1" viewBox="0 0 24 24" width="512" height="512"><path d="M20,20h-.756A59.282,59.282,0,0,1,16.581,9,1.5,1.5,0,0,0,16.5,6h-.454l1.848-3.188a1.131,1.131,0,0,0-1.71-1.37L14.4,2.4,12.859.362a1.2,1.2,0,0,0-1.718,0L9.6,2.4,7.816,1.442a1.131,1.131,0,0,0-1.71,1.37L7.954,6H7.5a1.5,1.5,0,0,0-.081,3A59.282,59.282,0,0,1,4.756,20H4a2,2,0,0,0,0,4H20a2,2,0,0,0,0-4ZM10.43,9h3.14a56.837,56.837,0,0,0,2.515,11H7.915A56.837,56.837,0,0,0,10.43,9Z"/></svg>
