<?xml version="1.0" encoding="UTF-8"?>
<svg xmlns="http://www.w3.org/2000/svg" id="Layer_1" data-name="Layer 1" viewBox="0 0 24 24" width="512" height="512"><path d="M23,12.5A1.5,1.5,0,0,1,21.5,14H18.63a3.516,3.516,0,0,1-3-1.7l-1.225-2.034-1.79,4.363,2.614,1.487A3.507,3.507,0,0,1,17,19.163V22.5a1.5,1.5,0,0,1-3,0V19.163a.5.5,0,0,0-.252-.434L9.666,16.406a3.511,3.511,0,0,1-1.427-4.322L9.5,9H7.736a.5.5,0,0,0-.447.277L5.842,12.171a1.5,1.5,0,0,1-2.684-1.342L4.605,7.935A3.483,3.483,0,0,1,7.736,6H13.36a3.516,3.516,0,0,1,3,1.7L18.2,10.758A.5.5,0,0,0,18.63,11H21.5A1.5,1.5,0,0,1,23,12.5ZM8.057,16.85a1.5,1.5,0,0,0-1.95.836A.5.5,0,0,1,5.643,18H3.5a1.5,1.5,0,0,0,0,3H5.643a3.484,3.484,0,0,0,3.25-2.2A1.5,1.5,0,0,0,8.057,16.85ZM14.5,5A2.5,2.5,0,1,0,12,2.5,2.5,2.5,0,0,0,14.5,5Z"/></svg>
