<?xml version="1.0" encoding="UTF-8"?>
<svg xmlns="http://www.w3.org/2000/svg" id="Layer_1" data-name="Layer 1" viewBox="0 0 24 24" width="512" height="512"><path d="M16.5,20c-.318,0-.636-.102-.9-.3l-5-3.75c-.377-.284-.6-.728-.6-1.2v-2.851L5.222,7.121c-.788-.788-1.222-1.835-1.222-2.949C4,1.871,5.871,0,8.171,0h11.658c2.3,0,4.171,1.871,4.171,4.171,0,1.114-.434,2.162-1.222,2.949l-4.778,4.778v6.601c0,.568-.321,1.087-.829,1.342-.212,.106-.442,.158-.671,.158Zm-3.5-6l2,1.5v-4.222c0-.398,.158-.779,.439-1.061l5.218-5.218c.221-.221,.343-.515,.343-.828,0-.646-.525-1.171-1.171-1.171H8.171c-.646,0-1.171,.525-1.171,1.171,0,.313,.122,.607,.343,.828l5.218,5.218c.281,.281,.439,.663,.439,1.061v2.722Zm.7,9.4c.497-.663,.362-1.603-.3-2.1l-4.4-3.3v-2.722c0-.398-.158-.779-.439-1.061L3.343,9c-.221-.221-.343-.515-.343-.828,0-.829-.672-1.5-1.5-1.5s-1.5,.671-1.5,1.5c0,1.114,.434,2.162,1.222,2.949l4.778,4.778v2.851c0,.472,.223,.917,.6,1.2l5,3.75c.271,.202,.586,.3,.899,.3,.456,0,.906-.207,1.201-.6Z"/></svg>
