<?xml version="1.0" encoding="UTF-8"?>
<svg xmlns="http://www.w3.org/2000/svg" id="Layer_1" data-name="Layer 1" viewBox="0 0 24 24" width="512" height="512"><path d="M23.853,21.446a4.388,4.388,0,0,1-5.908,2.111L.884,15.868a1.5,1.5,0,0,1,1.232-2.736l17.094,7.7a1.4,1.4,0,0,0,1.937-.688,1.5,1.5,0,0,1,2.706,1.3ZM18.5,5A2.5,2.5,0,1,0,16,2.5,2.5,2.5,0,0,0,18.5,5ZM5.5,7h5.312L8.833,9.238A3.5,3.5,0,0,0,11.5,15h3.878a.5.5,0,0,1,.489.395l.3,1.418A1.5,1.5,0,0,0,17.639,18a1.54,1.54,0,0,0,.315-.033,1.5,1.5,0,0,0,1.153-1.78l-.3-1.418A3.519,3.519,0,0,0,15.382,12H14.3l1.833-2.063a3.6,3.6,0,0,0-.173-4.885,1.623,1.623,0,0,0-.216-.171A5.428,5.428,0,0,0,12.779,4H5.5a1.5,1.5,0,0,0,0,3Z"/></svg>
