<?xml version="1.0" encoding="UTF-8"?>
<svg xmlns="http://www.w3.org/2000/svg" id="Layer_1" data-name="Layer 1" viewBox="0 0 24 24" width="512" height="512"><path d="M3.769,24a4.21,4.21,0,0,1-.941-.127,3.814,3.814,0,0,1-2.7-2.652,3.837,3.837,0,0,1,1.93-4.3A5.8,5.8,0,0,1,2,15.971a6.109,6.109,0,0,1,5.142-5.906,6.232,6.232,0,0,1,6.629,3.676h0a1.777,1.777,0,0,0,.34.1,5.149,5.149,0,0,1-.156,10.023A5.589,5.589,0,0,1,12.845,24ZM8.041,13a3.375,3.375,0,0,0-.479.034,3.018,3.018,0,0,0-2.473,2.306,2.957,2.957,0,0,0-.025,1.368A2.448,2.448,0,0,1,3.62,19.491c-.3.125-.721.492-.6.95a.788.788,0,0,0,.551.525A1.036,1.036,0,0,0,3.812,21h9.005a2.577,2.577,0,0,0,.483-.062,2.149,2.149,0,0,0,.043-4.194,3.049,3.049,0,0,1-2.335-1.827v0A3.2,3.2,0,0,0,8.041,13ZM11.624,7.91A14.516,14.516,0,0,1,22.5,3a1.5,1.5,0,0,0,0-3A17.514,17.514,0,0,0,9.375,5.924,1.5,1.5,0,0,0,11.624,7.91Zm4.356,2.681A9.457,9.457,0,0,1,22.5,8a1.5,1.5,0,0,0,0-3,12.453,12.453,0,0,0-8.58,3.409,1.5,1.5,0,0,0,2.06,2.182Zm3.52,3.555A4.491,4.491,0,0,1,22.5,13,1.5,1.5,0,0,0,24,11.5c-.347-3.014-5.192-.874-6.5.41a1.5,1.5,0,1,0,2,2.236Z"/></svg>
