<?xml version="1.0" encoding="UTF-8"?>
<svg xmlns="http://www.w3.org/2000/svg" id="Layer_1" data-name="Layer 1" viewBox="0 0 24 24" width="512" height="512"><path d="M10,22.5c0,.829-.672,1.5-1.5,1.5h-3c-3.032,0-5.5-2.467-5.5-5.5V7.5C0,4.467,2.468,2,5.5,2h.5v-.5c0-.829,.672-1.5,1.5-1.5s1.5,.671,1.5,1.5v.5h6v-.5c0-.829,.672-1.5,1.5-1.5s1.5,.671,1.5,1.5v.5h.5c3.032,0,5.5,2.467,5.5,5.5,0,.829-.672,1.5-1.5,1.5H3v9.5c0,1.378,1.121,2.5,2.5,2.5h3c.828,0,1.5,.671,1.5,1.5Zm3.269-3.019c-.813,.813-1.269,1.915-1.269,3.064v.955c0,.276,.224,.5,.5,.5h.955c1.149,0,2.252-.457,3.064-1.269l6.715-6.715c.85-.85,1.013-2.236,.252-3.167-.875-1.07-2.456-1.129-3.409-.176l-6.808,6.808Z"/></svg>
