<?xml version="1.0" encoding="UTF-8"?>
<svg xmlns="http://www.w3.org/2000/svg" id="Layer_1" data-name="Layer 1" viewBox="0 0 24 24" width="512" height="512"><path d="M13.5,0h-3c-2.206,0-4,1.794-4,4V20c0,2.206,1.794,4,4,4h3c2.206,0,4-1.794,4-4V4c0-2.206-1.794-4-4-4Zm0,21h-3c-.552,0-1-.448-1-1V4c0-.552,.448-1,1-1h3c.552,0,1,.448,1,1v1h-1.5c-.828,0-1.5,.672-1.5,1.5s.672,1.5,1.5,1.5h1.5v2.5h-1.5c-.828,0-1.5,.672-1.5,1.5s.672,1.5,1.5,1.5h1.5v2.488l-1.513,.012c-.828,.007-1.494,.684-1.487,1.513,.007,.824,.677,1.487,1.5,1.487h.013l1.487-.012v1.012c0,.552-.448,1-1,1Z"/></svg>
