<?xml version="1.0" encoding="UTF-8"?>
<svg xmlns="http://www.w3.org/2000/svg" id="Layer_1" data-name="Layer 1" viewBox="0 0 24 24" width="512" height="512"><path d="M17.5,2H6.5C2.916,2,0,4.916,0,8.5v10c0,1.93,1.57,3.5,3.5,3.5H20.5c1.93,0,3.5-1.57,3.5-3.5V8.5c0-3.584-2.916-6.5-6.5-6.5ZM3,18.5V8.5c.122-4.616,6.879-4.613,7,0v10c0,.275-.224,.5-.5,.5H3.5c-.276,0-.5-.225-.5-.5Zm18,0c0,.275-.225,.5-.5,.5h-7.536c.023-.163,.036-.33,.036-.5v-6.5h3v.5c.034,1.972,2.966,1.971,3,0v-2c0-.829-.672-1.5-1.5-1.5h-4.5v-.5c0-1.288-.376-2.489-1.025-3.5h5.525c1.93,0,3.5,1.57,3.5,3.5v10ZM7.56,9.44c.581,.554,.581,1.565,0,2.12-1.394,1.38-3.501-.731-2.12-2.12,.56-.56,1.56-.56,2.12,0Z"/></svg>
