<?xml version="1.0" encoding="UTF-8"?>
<svg xmlns="http://www.w3.org/2000/svg" id="Layer_1" data-name="Layer 1" viewBox="0 0 24 24" width="512" height="512"><path d="M14.5,19.5c0,.829-.672,1.5-1.5,1.5H5.5c-3.033,0-5.5-2.467-5.5-5.5v-7c0-.829,.671-1.5,1.5-1.5s1.5,.671,1.5,1.5v7c0,1.378,1.122,2.5,2.5,2.5h7.5c.828,0,1.5,.671,1.5,1.5Zm4.5-4c0,.417-.06,.825-.152,1.227l4.713,4.713c.586,.585,.586,1.536,0,2.121-.293,.293-.677,.439-1.061,.439s-.768-.146-1.061-.439L.439,2.561C-.146,1.975-.146,1.025,.439,.439,1.025-.146,1.975-.146,2.561,.439l2.583,2.583c.119-.008,.236-.022,.357-.022H13.5c3.032,0,5.5,2.467,5.5,5.5v.718l1.888-1.828c.594-.445,1.374-.515,2.037-.183,.663,.331,1.075,.998,1.075,1.739v5.971c0,.728-.337,1.452-.967,1.816-.308,.178-.644,.265-.98,.265-.412,0-.819-.132-1.165-.391l-1.888-1.789v.68Zm-3-1.621v-5.379c0-1.378-1.121-2.5-2.5-2.5h-5.379l7.879,7.879Z"/></svg>
