<?xml version="1.0" encoding="UTF-8"?>
<svg xmlns="http://www.w3.org/2000/svg" id="Layer_1" data-name="Layer 1" viewBox="0 0 24 24" width="512" height="512"><path d="M24,11.045c0-1.544-.75-3.022-2.006-4.037-.115-1.812-1.428-3.322-3.196-3.828-.248-.796-.719-1.523-1.371-2.093C16.478,.257,15.238-.127,14.034,.038h0c-.769,.104-1.466,.433-2.033,.92-.568-.487-1.264-.816-2.033-.92h0c-1.209-.164-2.443,.22-3.393,1.05-.652,.57-1.123,1.297-1.371,2.093-1.769,.506-3.081,2.016-3.196,3.828-1.256,1.014-2.006,2.492-2.006,4.037,0,.838,.197,1.647,.577,2.386-.38,.739-.577,1.548-.577,2.387,0,1.729,.848,3.333,2.25,4.323,.81,2.301,2.968,3.858,5.454,3.858,1.702,0,3.235-.737,4.296-1.909,1.061,1.172,2.594,1.909,4.296,1.909,2.486,0,4.645-1.557,5.454-3.858,1.402-.991,2.25-2.594,2.25-4.323,0-.838-.197-1.648-.577-2.387,.38-.739,.577-1.548,.577-2.386ZM7.704,21c-1.304,0-2.42-.891-2.715-2.167-.098-.421-.372-.78-.754-.984-.762-.408-1.235-1.186-1.235-2.03,0-.655,.286-1.147,.526-1.444,.444-.55,.444-1.335,0-1.885-.24-.297-.526-.789-.526-1.444,0-.781,.479-1.517,1.284-1.968,.557-.313,.854-.944,.741-1.572-.014-.077-.027-.156-.027-.237,0-.758,.776-1.268,1.502-1.268,.828,0,1.5-.671,1.5-1.5,0-.423,.205-.854,.547-1.153,.156-.136,.462-.347,.863-.347,.59,0,1.09,.645,1.09,1.269v3.731h-3c-.828,0-1.5,.671-1.5,1.5s.672,1.5,1.5,1.5h3v3h-3c-.828,0-1.5,.671-1.5,1.5s.672,1.5,1.5,1.5h3v1.205c0,1.542-1.254,2.795-2.796,2.795Zm12.77-6.626c.24,.297,.526,.789,.526,1.444,0,.844-.474,1.622-1.235,2.03-.382,.204-.656,.563-.754,.984-.295,1.276-1.411,2.167-2.715,2.167-1.542,0-2.796-1.254-2.796-2.795v-3.205h1c1.93,0,3.5-1.57,3.5-3.5v-2c0-.829-.672-1.5-1.5-1.5s-1.5,.671-1.5,1.5v2c0,.276-.225,.5-.5,.5h-1V4.269c0-.624,.419-1.188,.935-1.258,.486-.065,.843,.183,1.019,.336,.342,.299,.547,.73,.547,1.153,0,.829,.672,1.5,1.5,1.5,.726,0,1.502,.509,1.502,1.268,0,.082-.014,.16-.027,.237-.112,.628,.185,1.259,.741,1.572,.805,.452,1.284,1.188,1.284,1.968,0,.655-.286,1.146-.526,1.444-.444,.55-.444,1.335,0,1.885Z"/></svg>
