<?xml version="1.0" encoding="UTF-8"?>
<svg xmlns="http://www.w3.org/2000/svg" id="Layer_1" data-name="Layer 1" viewBox="0 0 24 24" width="512" height="512"><path d="M23.314,9.782a2.5,2.5,0,0,0-2.2-.742,11.142,11.142,0,0,0-7.253-4.884,2.5,2.5,0,1,0-3.719,0A11.142,11.142,0,0,0,2.891,9.04a2.507,2.507,0,0,0-2.2.742,2.467,2.467,0,0,0-.619,2.3l2.059,8.97A1.5,1.5,0,0,0,2.5,24h19a1.5,1.5,0,0,0,.371-2.948l2.051-8.939A2.482,2.482,0,0,0,23.314,9.782ZM5.2,21,3.177,12.2A3.8,3.8,0,0,1,6,15.5a1.5,1.5,0,0,0,3,0c0-.113-.01-.223-.016-.335A1.487,1.487,0,0,0,9,15a3,3,0,0,1,6,0v.5a1.5,1.5,0,1,0,3,0,3.805,3.805,0,0,1,2.825-3.3L18.809,21ZM12,7a7.819,7.819,0,0,1,6.207,3.154,7.407,7.407,0,0,0-1.474,1.161,5.986,5.986,0,0,0-9.463.008,7.337,7.337,0,0,0-1.465-1.182A7.812,7.812,0,0,1,12,7Z"/></svg>
