<?xml version="1.0" encoding="UTF-8"?>
<svg xmlns="http://www.w3.org/2000/svg" id="Layer_1" data-name="Layer 1" viewBox="0 0 24 24" width="512" height="512"><path d="M21,17a4.875,4.875,0,0,1-2.8-.9.333.333,0,0,0-.406,0,4.91,4.91,0,0,1-5.594,0,.333.333,0,0,0-.406,0,4.91,4.91,0,0,1-5.594,0,.333.333,0,0,0-.406,0,4.759,4.759,0,0,1-5.051.3A1.5,1.5,0,1,1,2.254,13.8a1.707,1.707,0,0,0,1.805-.149,3.354,3.354,0,0,1,3.882,0,1.854,1.854,0,0,0,2.118,0,3.354,3.354,0,0,1,3.882,0,1.854,1.854,0,0,0,2.118,0,3.354,3.354,0,0,1,3.882,0,1.706,1.706,0,0,0,1.8.149,1.5,1.5,0,1,1,1.508,2.594A4.485,4.485,0,0,1,21,17Zm2.254,5.394A1.5,1.5,0,0,0,21.746,19.8a1.7,1.7,0,0,1-1.8-.149,3.352,3.352,0,0,0-3.882,0,1.854,1.854,0,0,1-2.118,0,3.352,3.352,0,0,0-3.882,0,1.854,1.854,0,0,1-2.118,0,3.352,3.352,0,0,0-3.882,0,1.7,1.7,0,0,1-1.805.149A1.5,1.5,0,0,0,.746,22.394,4.759,4.759,0,0,0,5.8,22.1a.333.333,0,0,1,.406,0,4.91,4.91,0,0,0,5.594,0,.333.333,0,0,1,.406,0,4.91,4.91,0,0,0,5.594,0,.333.333,0,0,1,.406,0A4.875,4.875,0,0,0,21,23,4.485,4.485,0,0,0,23.254,22.394Zm0-18A1.5,1.5,0,0,0,21.746,1.8a1.706,1.706,0,0,1-1.8-.149,3.352,3.352,0,0,0-3.882,0,1.854,1.854,0,0,1-2.118,0,3.352,3.352,0,0,0-3.882,0,1.854,1.854,0,0,1-2.118,0,3.352,3.352,0,0,0-3.882,0A1.707,1.707,0,0,1,2.254,1.8,1.5,1.5,0,1,0,.746,4.394,4.759,4.759,0,0,0,5.8,4.1a.333.333,0,0,1,.406,0,4.91,4.91,0,0,0,5.594,0,.333.333,0,0,1,.406,0,4.91,4.91,0,0,0,5.594,0,.333.333,0,0,1,.406,0A4.875,4.875,0,0,0,21,5,4.485,4.485,0,0,0,23.254,4.394Zm0,6A1.5,1.5,0,0,0,21.746,7.8a1.708,1.708,0,0,1-1.8-.149,3.352,3.352,0,0,0-3.882,0,1.854,1.854,0,0,1-2.118,0,3.352,3.352,0,0,0-3.882,0,1.854,1.854,0,0,1-2.118,0,3.352,3.352,0,0,0-3.882,0A1.709,1.709,0,0,1,2.254,7.8,1.5,1.5,0,0,0,.746,10.394,4.757,4.757,0,0,0,5.8,10.1a.333.333,0,0,1,.406,0,4.91,4.91,0,0,0,5.594,0,.333.333,0,0,1,.406,0,4.91,4.91,0,0,0,5.594,0,.333.333,0,0,1,.406,0A4.875,4.875,0,0,0,21,11,4.485,4.485,0,0,0,23.254,10.394Z"/></svg>
