<?xml version="1.0" encoding="UTF-8"?>
<svg xmlns="http://www.w3.org/2000/svg" id="Layer_1" data-name="Layer 1" viewBox="0 0 24 24" width="512" height="512"><path d="M20.5,24H3.5a2.505,2.505,0,0,1-1.057-4.759C-3.568,11.543,2.232-.124,12,0c9.762-.117,15.56,11.51,9.564,19.228A2.513,2.513,0,0,1,20.5,24ZM5.58,21H18.424a2.17,2.17,0,0,1-.362-.758,2.687,2.687,0,0,1,.83-2.469A9.025,9.025,0,0,0,12,3C4.5,2.906.207,12.014,5.067,17.724a2.71,2.71,0,0,1,.871,2.517A2.194,2.194,0,0,1,5.58,21Zm5.62-5.164-1.95,2.6a7.038,7.038,0,0,0,5.5,0l-1.95-2.6A1,1,0,0,0,11.2,15.836ZM8.842,13.978a1,1,0,0,0-.428-1.528L5.063,11.109a6.958,6.958,0,0,0,1.75,5.575Zm1.658-5.4V5.166A7.016,7.016,0,0,0,6.078,8.284L9.129,9.505A1,1,0,0,0,10.5,8.576Zm4.371.928,3.051-1.219A7.014,7.014,0,0,0,13.5,5.166v3.41A1,1,0,0,0,14.871,9.5Zm.287,4.474,2.029,2.706a6.958,6.958,0,0,0,1.75-5.575L15.586,12.45A1,1,0,0,0,15.158,13.978Z"/></svg>
