<?xml version="1.0" encoding="UTF-8"?>
<svg xmlns="http://www.w3.org/2000/svg" id="Layer_1" data-name="Layer 1" viewBox="0 0 24 24" width="512" height="512"><path d="M21.186,7.708,4.213,4.313A2.512,2.512,0,0,0,2.5,0,2.505,2.505,0,0,0,1,4.489V22.5a1.5,1.5,0,0,0,3,0V19.729l17.186-3.437A3.509,3.509,0,0,0,24,12.86V11.14A3.509,3.509,0,0,0,21.186,7.708ZM14,9.329l2,.4v4.542l-2,.4Zm-3,5.942-2,.4V8.329l2,.4ZM4,7.329l2,.4v8.542l-2,.4ZM21,12.86a.5.5,0,0,1-.4.491l-1.6.32V10.329l1.6.32a.5.5,0,0,1,.4.491Z"/></svg>
