<?xml version="1.0" encoding="UTF-8"?>
<svg xmlns="http://www.w3.org/2000/svg" id="Layer_1" data-name="Layer 1" viewBox="0 0 24 24" width="512" height="512"><path d="M11.227,15.32C19.023,11.819,16.661,.098,8,0h-2.5C2.467,0,0,2.468,0,5.5V22.5c.034,1.972,2.967,1.971,3,0v-6.5h5c.057,0,.115,0,.172-.002l4.017,7.231c.404,.731,1.329,.981,2.04,.583,.724-.402,.985-1.315,.583-2.04l-3.585-6.452ZM3,5.5c0-1.379,1.122-2.5,2.5-2.5h2.5c6.609,.211,6.605,9.791,0,10H3V5.5Zm21,14.913c0,1.978-1.609,3.587-3.587,3.587h-1.181c-1.245,0-2.407-.67-3.031-1.749-.414-.717-.169-1.635,.548-2.05,.716-.414,1.634-.169,2.05,.548,.091,.157,.253,.251,.434,.251h1.181c.629,.018,.808-.915,.219-1.132l-2.378-.951c-3.628-1.432-2.565-6.926,1.333-6.917h1.181c1.245,0,2.407,.67,3.031,1.749,.414,.717,.169,1.635-.548,2.05-.717,.414-1.635,.169-2.05-.548-.091-.157-.253-.251-.434-.251h-1.181c-.629-.018-.808,.915-.219,1.132l2.378,.951c1.369,.547,2.254,1.854,2.254,3.33Z"/></svg>
