<?xml version="1.0" encoding="UTF-8"?>
<svg xmlns="http://www.w3.org/2000/svg" id="Layer_1" data-name="Layer 1" viewBox="0 0 24 24" width="512" height="512"><path d="M19,7.023v-2.523c0-2.481-2.019-4.5-4.5-4.5h-5c-2.481,0-4.5,2.019-4.5,4.5v2.523c-2.799,.254-5,2.613-5,5.477v6c0,3.033,2.467,5.5,5.5,5.5h13c3.032,0,5.5-2.467,5.5-5.5v-6c0-2.864-2.201-5.224-5-5.477Zm-11-2.523c0-.827,.673-1.5,1.5-1.5h5c.827,0,1.5,.673,1.5,1.5v6.5H8V4.5Zm-3,5.55v2.45c0,.829,.671,1.5,1.5,1.5h11c.828,0,1.5-.671,1.5-1.5v-2.45c1.14,.232,2,1.242,2,2.45v3.5H3v-3.5c0-1.207,.86-2.217,2-2.45Zm13.5,10.95H5.5c-1.207,0-2.217-.86-2.45-2H20.95c-.232,1.14-1.242,2-2.45,2Z"/></svg>
