<?xml version="1.0" encoding="UTF-8"?>
<svg xmlns="http://www.w3.org/2000/svg" id="Layer_1" data-name="Layer 1" viewBox="0 0 24 24" width="512" height="512"><path d="M18.5,2H8.24C7.432,.795,6.057,0,4.5,0,2.019,0,0,2.019,0,4.5v14c0,3.032,2.468,5.5,5.5,5.5h13c3.032,0,5.5-2.468,5.5-5.5V7.5c0-3.032-2.468-5.5-5.5-5.5ZM3,4.5c0-.827,.673-1.5,1.5-1.5s1.5,.673,1.5,1.5V14.5c0,.827-.673,1.5-1.5,1.5s-1.5-.673-1.5-1.5V4.5Zm15.5,16.5H5.5c-1.296,0-2.363-.99-2.488-2.253,.466,.164,.966,.253,1.488,.253,2.481,0,4.5-2.019,4.5-4.5V5h5v1c0,1.105,.895,2,2,2h5v10.5c0,1.379-1.121,2.5-2.5,2.5Zm-4.5-8.5c0,.828-.672,1.5-1.5,1.5s-1.5-.672-1.5-1.5,.672-1.5,1.5-1.5,1.5,.672,1.5,1.5Zm5,0c0,.828-.672,1.5-1.5,1.5s-1.5-.672-1.5-1.5,.672-1.5,1.5-1.5,1.5,.672,1.5,1.5Zm-5,5c0,.828-.672,1.5-1.5,1.5s-1.5-.672-1.5-1.5,.672-1.5,1.5-1.5,1.5,.672,1.5,1.5Zm5,0c0,.828-.672,1.5-1.5,1.5s-1.5-.672-1.5-1.5,.672-1.5,1.5-1.5,1.5,.672,1.5,1.5Z"/></svg>
