<?xml version="1.0" encoding="UTF-8"?>
<svg xmlns="http://www.w3.org/2000/svg" id="Layer_1" data-name="Layer 1" viewBox="0 0 24 24" width="512" height="512"><path d="M21.964,10.488a2.46,2.46,0,0,0-2.373-.316c-.246.1-.465.218-.7.327C18.32,4.715,15.349,0,12,0S5.68,4.715,5.107,10.5c-.232-.108-.452-.229-.7-.326a2.458,2.458,0,0,0-2.374.316A2.54,2.54,0,0,0,1,12.737C1.778,22.9,8.952,24,12,24s10.222-1.1,11-11.263A2.543,2.543,0,0,0,21.964,10.488ZM4.074,13.305c3.518,1.757,5.2,5.3,5.935,7.5C7.329,20.256,4.694,18.371,4.074,13.305Zm3.931-.956A16.421,16.421,0,0,1,8.612,8H9.5a1.5,1.5,0,0,0,.348-2.956C10.627,3.729,11.473,3,12,3s1.373.729,2.152,2.045A1.5,1.5,0,0,0,14.5,8h.888A16.38,16.38,0,0,1,16,12.349,15.877,15.877,0,0,0,12,17.715,15.877,15.877,0,0,0,8.005,12.349Zm5.986,8.458c.737-2.206,2.417-5.745,5.935-7.5C19.306,18.371,16.672,20.256,13.991,20.807ZM14,11.5A1.5,1.5,0,0,1,12.5,13h-1a1.5,1.5,0,0,1,0-3h1A1.5,1.5,0,0,1,14,11.5Z"/></svg>
