<?xml version="1.0" encoding="UTF-8"?>
<svg xmlns="http://www.w3.org/2000/svg" id="Layer_1" data-name="Layer 1" viewBox="0 0 24 24" width="512" height="512"><path d="M14.831,17c-.384,0-.768-.146-1.061-.439-.586-.586-.586-1.535,0-2.121l2.083-2.083c.127-.127,.146-.276,.146-.354,0-.077-.019-.226-.146-.353l-2.088-2.089c-.586-.586-.586-1.536,0-2.121,.586-.586,1.535-.586,2.121,0l2.088,2.088c.661,.661,1.025,1.54,1.025,2.475s-.364,1.814-1.025,2.475l-2.083,2.083c-.293,.293-.677,.439-1.061,.439Zm-4.597-.439c.586-.586,.586-1.535,0-2.121l-2.088-2.088c-.127-.127-.146-.276-.146-.354,0-.077,.019-.226,.146-.354l2.083-2.083c.586-.585,.586-1.536,0-2.121-.586-.586-1.535-.586-2.121,0l-2.083,2.083c-.661,.661-1.025,1.54-1.025,2.475s.364,1.814,1.025,2.475l2.088,2.088c.293,.293,.677,.439,1.061,.439s.768-.146,1.061-.439Zm13.766,1.939V5.5c0-3.033-2.468-5.5-5.5-5.5H5.5C2.467,0,0,2.467,0,5.5v13c0,3.032,2.467,5.5,5.5,5.5h13c3.032,0,5.5-2.468,5.5-5.5ZM18.5,3c1.379,0,2.5,1.122,2.5,2.5v13c0,1.379-1.121,2.5-2.5,2.5H5.5c-1.378,0-2.5-1.121-2.5-2.5V5.5c0-1.378,1.122-2.5,2.5-2.5h13Z"/></svg>
