<?xml version="1.0" encoding="UTF-8"?>
<svg xmlns="http://www.w3.org/2000/svg" id="Layer_1" data-name="Layer 1" viewBox="0 0 24 24" width="512" height="512"><path d="M19.5,24a1.5,1.5,0,0,1-1.393-.943L17.482,21.5l-1.564-.66a1.5,1.5,0,0,1,.051-2.785l1.526-.577.612-1.531a1.51,1.51,0,0,1,2.786,0l.619,1.546,1.545.618a1.51,1.51,0,0,1,0,2.786l-1.545.618-.619,1.546A1.5,1.5,0,0,1,19.5,24ZM10,21a2.465,2.465,0,0,1-2.357-1.721L6.2,14.781,1.689,13.27a2.475,2.475,0,0,1,.064-4.714l4.47-1.365,1.507-4.5A2.438,2.438,0,0,1,10.11,1a2.467,2.467,0,0,1,2.334,1.753L13.806,7.21l4.473,1.433a2.488,2.488,0,0,1,0,4.714h0l-4.486,1.436-1.436,4.486A2.465,2.465,0,0,1,10,21ZM4.2,10.946l3.678,1.231a1.5,1.5,0,0,1,.953.966L10,16.8l1.171-3.659a1.5,1.5,0,0,1,.972-.972L15.8,11l-3.66-1.171a1.5,1.5,0,0,1-.978-.991L10.054,5.2,8.823,8.876a1.5,1.5,0,0,1-.985.958ZM17.756,4.5l1.355.387L19.5,6.244a1.042,1.042,0,0,0,2,0l.387-1.355L23.244,4.5a1.042,1.042,0,0,0,0-2l-1.355-.387L21.5.756a1.042,1.042,0,0,0-2,0l-.387,1.355L17.756,2.5A1.042,1.042,0,0,0,17.756,4.5Z"/></svg>
