<?xml version="1.0" encoding="UTF-8"?>
<svg xmlns="http://www.w3.org/2000/svg" id="Layer_1" data-name="Layer 1" viewBox="0 0 24 24" width="512" height="512"><path d="M2.5,16c-.828,0-1.5-.672-1.5-1.5s.672-1.5,1.5-1.5h3c.828,0,1.5,.672,1.5,1.5s-.672,1.5-1.5,1.5H2.5Zm8-3c-.828,0-1.5,.672-1.5,1.5s.672,1.5,1.5,1.5h3c.828,0,1.5-.672,1.5-1.5s-.672-1.5-1.5-1.5h-3Zm11,0h-3c-.828,0-1.5,.672-1.5,1.5s.672,1.5,1.5,1.5h3c.828,0,1.5-.672,1.5-1.5s-.672-1.5-1.5-1.5ZM3.5,11c.828,0,1.5-.672,1.5-1.5V5.5c0-1.379,1.121-2.5,2.5-2.5h5.5V7c0,1.105,.895,2,2,2h4v.5c0,.828,.672,1.5,1.5,1.5s1.5-.672,1.5-1.5v-1.343c0-1.47-.572-2.851-1.611-3.89l-2.656-2.656c-1.039-1.039-2.42-1.611-3.89-1.611H7.5C4.468,0,2,2.468,2,5.5v4c0,.828,.672,1.5,1.5,1.5Zm17.374,7.048c-.8-.213-1.62,.275-1.826,1.078-.284,1.104-1.28,1.874-2.422,1.874H7.374c-1.142,0-2.138-.771-2.422-1.874-.206-.803-1.03-1.292-1.826-1.078-.803,.206-1.285,1.024-1.078,1.826,.625,2.43,2.815,4.126,5.326,4.126h9.252c2.511,0,4.701-1.696,5.326-4.126,.207-.802-.275-1.62-1.078-1.826Z"/></svg>
