<?xml version="1.0" encoding="UTF-8"?>
<svg xmlns="http://www.w3.org/2000/svg" id="Layer_1" data-name="Layer 1" viewBox="0 0 24 24" width="512" height="512"><path d="M24,8.154v9c0,3.032-2.468,5.5-5.5,5.5-1.971-.034-1.972-2.966,0-3,1.379,0,2.5-1.121,2.5-2.5V8.154c0-.171-.018-.339-.051-.5H3v9.5c0,1.379,1.122,2.5,2.5,2.5,1.971,.033,1.972,2.967,0,3C2.468,22.654,0,20.186,0,17.154V6.154C0,3.122,2.468,.654,5.5,.654h2.528c.541,0,1.082,.128,1.565,.369l3.156,1.577c.071,.036,.146,.054,.224,.054h5.527c3.032,0,5.5,2.468,5.5,5.5Zm-8.836,9.5h-1.664v-5.501c-.034-1.972-2.967-1.971-3,0v5.501h-1.663c-.891,0-1.337,1.077-.707,1.707l3.163,3.163c.391,.391,1.024,.391,1.414,0l3.163-3.163c.63-.63,.184-1.707-.707-1.707Z"/></svg>
