<?xml version="1.0" encoding="UTF-8"?>
<svg xmlns="http://www.w3.org/2000/svg" id="Layer_1" data-name="Layer 1" viewBox="0 0 24 24" width="512" height="512"><path d="M15.55,6.416A3.784,3.784,0,0,1,17.3,3.772a1.5,1.5,0,0,0-1.59-2.544,6.817,6.817,0,0,0-2.2,2.237V1.5a1.5,1.5,0,0,0-3,0V3.465A6.817,6.817,0,0,0,8.3,1.228a1.5,1.5,0,0,0-1.59,2.544A3.784,3.784,0,0,1,8.45,6.416C3.71,7.662,3,11.538,3,15c0,4.19,1.023,9,9,9s9-4.81,9-9C21,11.538,20.29,7.662,15.55,6.416ZM14.241,20.827l-1.534-1.534a1,1,0,0,0-1.414,0L9.759,20.827a3.847,3.847,0,0,1-3.607-3.564l1.555-1.556a1,1,0,0,0,0-1.414L6.152,12.737A3.847,3.847,0,0,1,9.759,9.173l1.534,1.534a1,1,0,0,0,1.414,0l1.534-1.534a3.847,3.847,0,0,1,3.607,3.564l-1.555,1.556a1,1,0,0,0,0,1.414l1.555,1.556A3.847,3.847,0,0,1,14.241,20.827Zm.455-6.534a1,1,0,0,1,0,1.414L12.707,17.7a1,1,0,0,1-1.414,0L9.3,15.707a1,1,0,0,1,0-1.414L11.293,12.3a1,1,0,0,1,1.414,0Z"/></svg>
