<?xml version="1.0" encoding="UTF-8"?>
<svg xmlns="http://www.w3.org/2000/svg" id="Layer_1" data-name="Layer 1" viewBox="0 0 24 24" width="512" height="512"><path d="M.106,11.021A1.5,1.5,0,1,1,2.919,9.979L4.63,14.57a2.918,2.918,0,0,0,.644.8,1.5,1.5,0,1,1-1.984,2.25,5.949,5.949,0,0,1-1.352-1.732ZM23.61,9.89a1.5,1.5,0,1,0-2.74,1.22,1.513,1.513,0,0,1-.73,1.967L17,14.389l-1.137-2.426a2.5,2.5,0,0,0-3.226-1.227l-.79.315-1.116-3.2a2.976,2.976,0,0,0-5.506-.015,2.889,2.889,0,0,0-.031,2.2s1.042,3.01,1.075,3.075a3.479,3.479,0,0,0,4.49,1.6l2.594-1.036.877,1.87L.921,21.116a1.5,1.5,0,1,0,1.158,2.768l19.249-8.053A4.5,4.5,0,0,0,23.61,9.89ZM14.5,9A1.5,1.5,0,0,0,16,7.5v-6a1.5,1.5,0,0,0-3,0v6A1.5,1.5,0,0,0,14.5,9Zm-8-4a2.5,2.5,0,0,0,0-5A2.5,2.5,0,0,0,6.5,5Z"/></svg>
