<?xml version="1.0" encoding="UTF-8"?>
<svg xmlns="http://www.w3.org/2000/svg" id="Layer_1" data-name="Layer 1" viewBox="0 0 24 24" width="512" height="512"><path d="M7.212,2.715c1.149-3.574,6.428-3.572,7.577,0,.215,.633-.294,1.285-.962,1.285h-5.653c-.668,0-1.177-.652-.962-1.285ZM24,12.5v3c0,.828-.671,1.5-1.5,1.5h-.084c-.673,1.657-1.885,3.039-3.418,3.927,.08,3.391-4.722,4.23-5.826,1.073h-2.344c-1.106,3.158-5.906,2.317-5.826-1.073C1.467,19.035-.11,14.002,1.866,10.382-1.477,8.332,.021,2.968,4,3c1.971,.034,1.972,2.966,0,3-1.16-.01-1.361,1.696-.25,1.969,1.406-1.225,3.243-1.969,5.25-1.969h6c.096,0,.191,.002,.287,.006,.658-1.963,2.336-2.702,3.501-2.979,.621-.148,1.212,.34,1.212,.978v3.756c1.059,.85,1.897,1.963,2.416,3.24h.084c.829,0,1.5,.672,1.5,1.5Zm-20,1.5c0,2.757,2.243,5,5,5h6c6.609-.211,6.605-9.791,0-10h-6c-2.757,0-5,2.243-5,5Zm12.5,0c1.972-.034,1.971-2.967,0-3-1.972,.034-1.971,2.967,0,3Z"/></svg>
