<?xml version="1.0" encoding="UTF-8"?>
<svg xmlns="http://www.w3.org/2000/svg" id="Layer_1" data-name="Layer 1" viewBox="0 0 24 24" width="512" height="512"><path d="M19.17,5.116C18.721.4,15.53,0,14.5,0a1.5,1.5,0,0,0,0,3c1.12,0,1.542,1.1,1.673,2.29A6.054,6.054,0,0,0,12,10.987,2.866,2.866,0,0,1,9,14c-1.158,0-2.414-.31-2.942-2.606a3.062,3.062,0,0,0-6.048.547C0,12.1,0,12.252,0,12.409A11.778,11.778,0,0,0,11.967,24a11.759,11.759,0,0,0,8.306-3.482A12.574,12.574,0,0,0,24,11.651V11A6.009,6.009,0,0,0,19.17,5.116ZM21,11.651a9.552,9.552,0,0,1-2.838,6.735A8.787,8.787,0,0,1,11.884,21,8.608,8.608,0,0,1,3,12.409c0-.112,0-.224.008-.335l.126-.009C3.866,15.248,5.949,17,9,17a5.9,5.9,0,0,0,6-5.988,2.941,2.941,0,0,1,.168-.914,4.9,4.9,0,0,0,5.676-.009A2.986,2.986,0,0,1,21,11Z"/></svg>
