<?xml version="1.0" encoding="UTF-8"?>
<svg xmlns="http://www.w3.org/2000/svg" id="Layer_1" data-name="Layer 1" viewBox="0 0 24 24" width="512" height="512"><path d="M24,7.435a6.454,6.454,0,0,0-1.9-4.46L19.561.439a1.5,1.5,0,0,0-2.122,2.122L19,4.121V6.5a2.5,2.5,0,0,0,2,2.45V18.5a.5.5,0,0,1-1,0v-1A3.5,3.5,0,0,0,16.5,14H16V5.5A5.506,5.506,0,0,0,10.5,0h-5A5.506,5.506,0,0,0,0,5.5v13A5.506,5.506,0,0,0,5.5,24h5A5.506,5.506,0,0,0,16,18.5V17h.5a.5.5,0,0,1,.5.5v1a3.5,3.5,0,0,0,7,0S24,7.457,24,7.435ZM5.5,3h5A2.5,2.5,0,0,1,13,5.5V9H3V5.5A2.5,2.5,0,0,1,5.5,3ZM13,18.5A2.5,2.5,0,0,1,10.5,21h-5A2.5,2.5,0,0,1,3,18.5V12H13Z"/></svg>
