<?xml version="1.0" encoding="UTF-8"?>
<svg xmlns="http://www.w3.org/2000/svg" id="Layer_1" data-name="Layer 1" viewBox="0 0 24 24" width="512" height="512"><path d="M21,10.003c-.209-8.623-12.438-9.493-13.911-1.062l-3.086,1.122C3.959,4.53,8.469,0,14,.003c13.287,.506,13.223,19.582-.061,19.997l1.122-3.086c3.357-.514,5.939-3.413,5.939-6.911Zm-6.69-.309c1.183,1.183,1.735,2.776,1.585,4.378,1.535-.716,2.606-2.263,2.606-4.069,.019-4.795-6.642-6.192-8.577-1.88,1.615-.205,3.227,.42,4.386,1.572ZM.442,21.439l2.645-2.645-1.666-1.666c-.642-.642-.907-1.553-.711-2.439,.197-.886,.823-1.6,1.676-1.91l6.838-2.486c1.294-.47,2.699-.156,3.672,.815,.972,.972,1.284,2.379,.814,3.671l-2.486,6.838c-.31,.853-1.024,1.479-1.91,1.676-.873,.196-1.798-.066-2.439-.711l-1.666-1.666-2.645,2.645c-1.393,1.381-3.502-.729-2.121-2.121Zm8.154-1.377l2.293-6.309c.095-.261-.031-.44-.116-.524-.083-.085-.262-.215-.524-.116l-6.309,2.293,4.656,4.656Z"/></svg>
