<?xml version="1.0" encoding="UTF-8"?>
<svg xmlns="http://www.w3.org/2000/svg" id="Layer_1" data-name="Layer 1" viewBox="0 0 24 24" width="512" height="512"><path d="M16.771,22c-1.637,0-3.111-.409-4.537-.805-1.289-.357-2.506-.695-3.733-.695-1.364,0-2.142,.146-2.954,.38-1.316,.38-2.703,.124-3.801-.703-1.109-.834-1.745-2.108-1.745-3.495V7.749C0,5.556,1.381,3.555,3.437,2.771c1.343-.512,2.618-.771,3.791-.771,1.636,0,3.11,.409,4.537,.805,1.29,.357,2.508,.695,3.735,.695,1.362,0,2.14-.145,2.951-.379,1.315-.382,2.702-.124,3.802,.703,1.109,.834,1.745,2.108,1.745,3.495v8.933h0c0,2.193-1.382,4.194-3.438,4.978-1.344,.512-2.619,.771-3.791,.771Zm-8.271-4.5c1.636,0,3.11,.409,4.535,.805,1.29,.357,2.507,.695,3.735,.695,.805,0,1.721-.193,2.723-.575,.915-.349,1.506-1.202,1.506-2.174V7.318c0-.435-.201-.835-.549-1.097-.339-.255-.768-.335-1.167-.218-1.224,.353-2.319,.497-3.783,.497-1.636,0-3.11-.409-4.537-.805-1.29-.357-2.508-.695-3.735-.695-.806,0-1.722,.193-2.723,.575-.915,.349-1.506,1.202-1.506,2.174v8.933c0,.436,.201,.835,.549,1.098,.338,.254,.764,.335,1.166,.217,1.225-.353,2.321-.497,3.786-.497Zm5.5-3v-5c0-.607-.365-1.154-.926-1.386-.561-.233-1.205-.104-1.635,.325l-2,2c-.586,.585-.586,1.536,0,2.121,.422,.421,1.032,.541,1.561,.354v1.585c0,.829,.672,1.5,1.5,1.5s1.5-.671,1.5-1.5ZM5.5,7c-.828,0-1.5,.672-1.5,1.5s.672,1.5,1.5,1.5,1.5-.672,1.5-1.5-.672-1.5-1.5-1.5Zm11.5,2.5c0,.828,.672,1.5,1.5,1.5s1.5-.672,1.5-1.5-.672-1.5-1.5-1.5-1.5,.672-1.5,1.5Zm-11.5,3.5c-.828,0-1.5,.672-1.5,1.5s.672,1.5,1.5,1.5,1.5-.672,1.5-1.5-.672-1.5-1.5-1.5Zm11.5,2.5c0,.828,.672,1.5,1.5,1.5s1.5-.672,1.5-1.5-.672-1.5-1.5-1.5-1.5,.672-1.5,1.5Z"/></svg>
