<?xml version="1.0" encoding="UTF-8"?>
<svg xmlns="http://www.w3.org/2000/svg" id="Layer_1" data-name="Layer 1" viewBox="0 0 24 24" width="512" height="512"><path d="M9,11c-.552,0-1-.447-1-1,0-1.308,1.038-1.879,1.481-2.123,.29-.159,.595-.535,.502-1.066-.069-.392-.402-.725-.793-.793-.306-.056-.602,.022-.832,.216-.228,.19-.358,.47-.358,.767,0,.553-.448,1-1,1s-1-.447-1-1c0-.889,.391-1.727,1.072-2.299,.681-.572,1.577-.814,2.463-.653,1.209,.211,2.204,1.205,2.417,2.417,.223,1.272-.382,2.543-1.506,3.164-.447,.246-.447,.318-.447,.371,0,.553-.448,1-1,1Zm8.977-1.351c.185-2.611-.768-5.168-2.612-7.013C13.521,.79,10.968-.171,8.35,.022,3.824,.343,0,4.581,0,9.277v4.723c0,2.205,1.792,3.999,3.994,3.999h4.197c5.157,0,9.455-3.668,9.785-8.35Zm-4.733-4.892c1.229,1.229,1.864,2.936,1.741,4.681-.216,3.066-3.264,5.561-6.793,5.561H3.994c-.548,0-.994-.448-.994-.999v-4.723c0-3.127,2.599-6.053,5.561-6.263,.143-.01,.286-.015,.428-.015,1.594,0,3.125,.628,4.254,1.758Zm-4.243,7.242c-.552,0-1,.448-1,1s.448,1,1,1,1-.448,1-1-.448-1-1-1Zm11.983-2.216c-.317-.26-.653-.483-.996-.687-.006,1.151-.193,2.27-.552,3.335,.985,.982,1.565,2.356,1.565,3.769v4.3c0,.275-.224,.5-.5,.5h-3.86c-1.69,0-3.219-.608-4.269-1.671-1.039,.351-2.142,.559-3.28,.63,.212,.353,.444,.698,.716,1.021,1.618,1.919,4.108,3.021,6.833,3.021h3.86c1.93,0,3.5-1.57,3.5-3.5v-4.3c0-2.502-1.1-4.84-3.017-6.416Z"/></svg>
