<?xml version="1.0" encoding="UTF-8"?>
<svg xmlns="http://www.w3.org/2000/svg" id="Layer_1" data-name="Layer 1" viewBox="0 0 24 24" width="512" height="512"><path d="M16.439,4.561c-.586-.586-.586-1.535,0-2.121L18.439,.439c.43-.43,1.075-.558,1.635-.325,.561,.232,.926,.779,.926,1.386V9.5c0,.828-.672,1.5-1.5,1.5s-1.5-.672-1.5-1.5V4.915c-.527,.184-1.139,.067-1.561-.354Zm6.561,12.939c0,3.948-2.159,6.5-5.5,6.5-.828,0-1.5-.672-1.5-1.5s.672-1.5,1.5-1.5c.969,0,1.557-.445,1.927-1.043-.142,.015-.281,.043-.427,.043-2.206,0-4-1.794-4-4s1.794-4,4-4c2.102,0,3.842,1.635,4,3.697,.02,.098,0,1.803,0,1.803Zm-4,0c.828,0,1.5-.672,1.5-1.5s-.672-1.5-1.5-1.5-1.5,.672-1.5,1.5,.672,1.5,1.5,1.5Zm-9.055-.066l-1.945,1.923V1.5c0-.828-.672-1.5-1.5-1.5s-1.5,.672-1.5,1.5V19.357l-1.945-1.923c-.589-.583-1.539-.578-2.121,.012-.583,.589-.577,1.539,.012,2.121l3.787,3.744c.488,.488,1.129,.731,1.77,.731s1.276-.242,1.76-.726l3.793-3.75c.589-.582,.595-1.532,.012-2.121-.582-.59-1.533-.595-2.121-.012Z"/></svg>
