<?xml version="1.0" encoding="UTF-8"?>
<svg xmlns="http://www.w3.org/2000/svg" id="Layer_1" data-name="Layer 1" viewBox="0 0 24 24" width="512" height="512"><path d="M16.5,13.5c0,.828-.672,1.5-1.5,1.5h-6c-1.972-.034-1.971-2.966,0-3h6c.828,0,1.5,.672,1.5,1.5Zm7.5-5v9c0,3.032-2.468,5.5-5.5,5.5H5.5c-3.032,0-5.5-2.468-5.5-5.5V6.5C0,3.468,2.468,1,5.5,1h2.528c.54,0,1.081,.128,1.564,.369l3.156,1.578c.068,.034,.146,.053,.223,.053h5.528c3.032,0,5.5,2.468,5.5,5.5Zm-3,0c0-.171-.017-.338-.05-.5H3v9.5c0,1.379,1.121,2.5,2.5,2.5h13c1.379,0,2.5-1.121,2.5-2.5V8.5Z"/></svg>
