<?xml version="1.0" encoding="UTF-8"?>
<svg xmlns="http://www.w3.org/2000/svg" id="Layer_1" data-name="Layer 1" viewBox="0 0 24 24" width="512" height="512"><path d="M10.5,10.5v-8a1.5,1.5,0,0,1,3,0v8A1.5,1.5,0,0,1,10.5,10.5ZM12,16a1.5,1.5,0,0,0,0-3A1.5,1.5,0,0,0,12,16Zm12-3.591A12.051,12.051,0,0,0,21.363,4.8,5.586,5.586,0,0,1,20,1.5a1.5,1.5,0,0,0-3,0,8.378,8.378,0,0,0,2.02,5.174A8.189,8.189,0,0,1,17.091,19H6.909A8.188,8.188,0,0,1,4.98,6.674,8.378,8.378,0,0,0,7,1.5a1.5,1.5,0,0,0-3,0A5.586,5.586,0,0,1,2.637,4.8,11.176,11.176,0,0,0,5,21.331V22.5a1.5,1.5,0,0,0,3,0V22h2.5v.5a1.5,1.5,0,0,0,3,0V22H16v.5a1.5,1.5,0,0,0,3,0V21.331A10.97,10.97,0,0,0,24,12.409Z"/></svg>
