<?xml version="1.0" encoding="UTF-8"?>
<svg xmlns="http://www.w3.org/2000/svg" id="Layer_1" data-name="Layer 1" viewBox="0 0 24 24" width="512" height="512"><path d="M22,8.5A4.505,4.505,0,0,0,17.5,4a4.459,4.459,0,0,0-1.5.267V3.5A3.5,3.5,0,0,0,12.5,0h-5a1.5,1.5,0,0,0,0,3H8V7.5c0,.429-1.368,1.578-2.1,2.2C4.161,11.155,2,12.971,2,15.5c0,2.793,1.567,4.921,3.1,6.635A5.561,5.561,0,0,0,9.232,24h5.536a5.559,5.559,0,0,0,4.13-1.866C20.433,20.421,22,18.293,22,15.5a5.512,5.512,0,0,0-1.564-3.608A4.493,4.493,0,0,0,22,8.5ZM17.5,7a1.488,1.488,0,0,1,.721,2.8L18.1,9.7A13.858,13.858,0,0,1,16.166,7.85,1.493,1.493,0,0,1,17.5,7ZM7.827,11.992C9.459,10.621,11,9.326,11,7.5V3h1.5a.5.5,0,0,1,.5.5v4c0,1.826,1.541,3.121,3.173,4.492.387.326.785.664,1.161,1.008H6.666C7.042,12.656,7.44,12.318,7.827,11.992Zm8.837,8.141a2.559,2.559,0,0,1-1.9.867H9.232a2.562,2.562,0,0,1-1.9-.866C5.87,18.5,5.173,17.257,5.03,16H18.97C18.827,17.257,18.13,18.5,16.664,20.133Z"/></svg>
