<?xml version="1.0" encoding="UTF-8"?>
<svg xmlns="http://www.w3.org/2000/svg" id="Layer_1" data-name="Layer 1" viewBox="0 0 24 24" width="512" height="512"><path d="M5.3,18.7a2.4,2.4,0,0,1,0,3.394,12.8,12.8,0,0,1-4.212,1.88A.887.887,0,0,1,.023,22.915,12.8,12.8,0,0,1,1.9,18.7,2.4,2.4,0,0,1,5.3,18.7Zm10.745-1.087ZM6.257,8.139h0C6.29,8.093,6.273,8.116,6.257,8.139ZM18,8.5a2.5,2.5,0,0,0-5,0A2.5,2.5,0,0,0,18,8.5Zm-1.976,9.129.008-.006a12.106,12.106,0,0,1-.823,2.111,8.713,8.713,0,0,1-3.848,4.07A2.427,2.427,0,0,1,8,21.554V19a3.015,3.015,0,0,0-3-3H2.392a2.373,2.373,0,0,1-2.2-3.287A8.518,8.518,0,0,1,4.172,8.95a11.881,11.881,0,0,1,2.085-.811c-.016.022-.031.044,0,0C10.088,2.8,14.469.171,20.458,0A3.513,3.513,0,0,1,24,3.5c-.171,6.031-2.625,10.293-7.967,14.123ZM21,3.458A.493.493,0,0,0,20.5,3c-5.036.144-8.3,2-11.612,6.614a28.038,28.038,0,0,0-2.153,3.64,6.018,6.018,0,0,1,3.984,3.922L12.882,16.1c.506-.3,1.018-.634,1.505-.983C19,11.8,20.856,8.536,21,3.458ZM16.032,17.623l.01-.007-.009.007Z"/></svg>
