<?xml version="1.0" encoding="UTF-8"?>
<svg xmlns="http://www.w3.org/2000/svg" id="Layer_1" data-name="Layer 1" viewBox="0 0 24 24" width="512" height="512"><path d="M23.788,21.73l-3.651-6.112c.461-.293,.913-.603,1.345-.95,.646-.519,.749-1.463,.229-2.108-.52-.647-1.466-.748-2.108-.23-.323,.26-.66,.494-1.003,.716l-3.089-5.17c.302-.562,.489-1.195,.489-1.876,0-1.675-1.036-3.107-2.5-3.703v-.797c0-.829-.672-1.5-1.5-1.5s-1.5,.671-1.5,1.5v.797c-1.464,.595-2.5,2.028-2.5,3.703,0,.682,.187,1.314,.489,1.876l-3.09,5.172c-.33-.213-.653-.439-.965-.687-.645-.516-1.591-.409-2.107,.238-.517,.648-.41,1.591,.238,2.108,.417,.333,.853,.631,1.297,.913L.212,21.73c-.425,.711-.192,1.633,.519,2.058,.241,.144,.507,.212,.769,.212,.51,0,1.008-.261,1.289-.73l3.766-6.303c1.747,.666,3.594,1.011,5.445,1.011s3.699-.345,5.447-1.011l3.766,6.303c.281,.47,.779,.73,1.289,.73,.262,0,.527-.068,.769-.212,.711-.425,.943-1.347,.519-2.058ZM10.5,6c0-.827,.672-1.5,1.5-1.5s1.5,.673,1.5,1.5-.672,1.5-1.5,1.5-1.5-.673-1.5-1.5Zm-2.385,8.353l2.717-4.547c.372,.115,.759,.194,1.168,.194s.796-.08,1.168-.194l2.716,4.546c-2.513,.838-5.255,.839-7.768,.002Z"/></svg>
