<?xml version="1.0" encoding="UTF-8"?>
<svg xmlns="http://www.w3.org/2000/svg" id="Layer_1" data-name="Layer 1" viewBox="0 0 24 24" width="512" height="512"><path d="M17.107,12.488c.559,.612,.516,1.561-.096,2.119l-3.74,3.414c-.611,.614-1.49,.979-2.425,.979s-1.814-.364-2.475-1.025l-1.425-1.407c-.59-.582-.596-1.532-.014-2.121,.582-.592,1.531-.598,2.121-.014l1.432,1.414c.134,.135,.283,.153,.36,.153s.226-.019,.353-.146l3.789-3.461c.612-.558,1.56-.516,2.119,.096Zm6.893-5.988c0,.951-.382,1.815-1,2.447v9.553c0,3.032-2.468,5.5-5.5,5.5H6.5c-3.033,0-5.5-2.468-5.5-5.5V8.947c-.618-.632-1-1.495-1-2.447v-1C0,2.468,2.467,0,5.5,0h13c3.032,0,5.5,2.468,5.5,5.5v1ZM3,6.5c0,.275,.224,.5,.5,.5H20.5c.275,0,.5-.225,.5-.5v-1c0-1.379-1.121-2.5-2.5-2.5H5.5c-1.378,0-2.5,1.121-2.5,2.5v1Zm17,12V10H4v8.5c0,1.379,1.122,2.5,2.5,2.5h11c1.379,0,2.5-1.121,2.5-2.5Z"/></svg>
