<?xml version="1.0" encoding="UTF-8"?>
<svg xmlns="http://www.w3.org/2000/svg" id="Layer_1" data-name="Layer 1" viewBox="0 0 24 24" width="512" height="512"><path d="M7.896,16.104c-.586-.585-.586-1.536,0-2.121,.586-.586,1.535-.586,2.121,0,1.326,1.326,3.64,1.327,4.966,0l4.989-4.989c1.369-1.369,1.369-3.597,0-4.966s-3.597-1.369-4.966,0c-.586,.586-1.535,.586-2.121,0-.586-.585-.586-1.536,0-2.121,2.538-2.539,6.67-2.539,9.208,0,2.539,2.539,2.539,6.669,0,9.208l-4.989,4.989c-1.27,1.27-2.937,1.904-4.604,1.904s-3.335-.635-4.604-1.904Zm-1.384,7.893c1.667,0,3.334-.635,4.604-1.904,.586-.585,.586-1.536,0-2.121-.586-.586-1.535-.586-2.121,0-1.37,1.37-3.598,1.369-4.966,0-1.369-1.369-1.369-3.597,0-4.966l4.961-4.961c1.37-1.37,3.598-1.37,4.966,0,.586,.586,1.535,.586,2.121,0,.586-.585,.586-1.536,0-2.121-2.539-2.539-6.669-2.539-9.208,0L1.907,12.885c-2.539,2.539-2.539,6.669,0,9.208,1.27,1.27,2.937,1.904,4.604,1.904Z"/></svg>
