<?xml version="1.0" encoding="UTF-8"?>
<svg xmlns="http://www.w3.org/2000/svg" id="Layer_1" data-name="Layer 1" viewBox="0 0 24 24" width="512" height="512"><path d="M13.606,14.83a.545.545,0,0,1-.151.941C7.889,17.5,5.64,9.3,11.361,8.051a4.393,4.393,0,0,1,1.683.068.544.544,0,0,1,.243.918A3.7,3.7,0,0,0,13.606,14.83ZM24,12a1.5,1.5,0,0,1-1.5,1.5H20.865a8.957,8.957,0,0,1-1.537,3.707l1.157,1.157a1.5,1.5,0,0,1-2.121,2.121l-1.157-1.157A8.957,8.957,0,0,1,13.5,20.865V22.5a1.5,1.5,0,0,1-3,0V20.865a8.957,8.957,0,0,1-3.707-1.537L5.636,20.485a1.5,1.5,0,0,1-2.121-2.121l1.157-1.157A8.957,8.957,0,0,1,3.135,13.5H1.5a1.5,1.5,0,0,1,0-3H3.135A8.957,8.957,0,0,1,4.672,6.793L3.515,5.636A1.5,1.5,0,0,1,5.636,3.515L6.793,4.672A8.957,8.957,0,0,1,10.5,3.135V1.5a1.5,1.5,0,0,1,3,0V3.135a8.957,8.957,0,0,1,3.707,1.537l1.157-1.157a1.5,1.5,0,0,1,2.121,2.121L19.328,6.793A8.957,8.957,0,0,1,20.865,10.5H22.5A1.5,1.5,0,0,1,24,12Zm-6,0C17.748,4.071,6.251,4.072,6,12,6.252,19.929,17.749,19.928,18,12Z"/></svg>
