<?xml version="1.0" encoding="UTF-8"?>
<svg xmlns="http://www.w3.org/2000/svg" id="Layer_1" data-name="Layer 1" viewBox="0 0 24 24" width="512" height="512"><path d="M7.061,1.923a1.5,1.5,0,1,1,2.878-.846,2.982,2.982,0,0,0,.62.776A5.161,5.161,0,0,1,12,5.5a1.5,1.5,0,0,1-3,0,2.18,2.18,0,0,0-.562-1.525A5.045,5.045,0,0,1,7.061,1.923ZM3.96,5.805A1.948,1.948,0,0,1,4,6.192V6.5a1.5,1.5,0,0,0,3,0V6.192a4.839,4.839,0,0,0-.1-1A4.888,4.888,0,0,0,5.561,2.718,1.624,1.624,0,0,1,5,1.5a1.5,1.5,0,0,0-3,0A4.6,4.6,0,0,0,3.439,4.839,1.906,1.906,0,0,1,3.96,5.805ZM24,11v.652a12.572,12.572,0,0,1-3.727,8.865A11.756,11.756,0,0,1,11.967,24,11.778,11.778,0,0,1,0,12.409c0-.157,0-.313.01-.467a3.062,3.062,0,0,1,6.048-.548C6.586,13.69,7.842,14,9,14a2.866,2.866,0,0,0,3-3.012,6.053,6.053,0,0,1,4.173-5.7C16.042,4.1,15.62,3,14.5,3a1.5,1.5,0,0,1,0-3c1.03,0,4.221.4,4.67,5.116A6.009,6.009,0,0,1,24,11Zm-3,0a2.986,2.986,0,0,0-.156-.911,4.9,4.9,0,0,1-5.676.009,2.941,2.941,0,0,0-.168.914A5.9,5.9,0,0,1,9,17c-3.051,0-5.134-1.752-5.866-4.934l-.126.008C3,12.185,3,12.3,3,12.409A8.608,8.608,0,0,0,11.884,21a8.756,8.756,0,0,0,6.278-2.615A9.55,9.55,0,0,0,21,11.652Z"/></svg>
