<?xml version="1.0" encoding="UTF-8"?>
<svg xmlns="http://www.w3.org/2000/svg" id="Layer_1" data-name="Layer 1" viewBox="0 0 24 24" width="512" height="512"><path d="M21.777,2.225a7.938,7.938,0,0,0-6.6-2.171A11.365,11.365,0,0,0,8.4,3.406a11.128,11.128,0,0,0-3.391,7.9C5.005,11.371,5,14.5,5,14.5c0,1.22,0,2.372-.555,2.934l-.006.005-.009.01L.439,21.441a1.5,1.5,0,0,0,2.122,2.121l3.99-3.991.01-.009c.611-.611,2.232-.58,3.412-.561,1.422.027,2.562,0,2.561,0l.036,0c.082,0,.912-.014,1.251-.049A11.376,11.376,0,0,0,20.6,15.6C24.608,11.585,25.138,5.586,21.777,2.225Zm-6.285.813A6.27,6.27,0,0,1,16.17,3a5.253,5.253,0,0,1,2.237.473L14.541,7.34,11.718,4.517A7.979,7.979,0,0,1,15.492,3.038ZM9.584,6.625,12.42,9.461,8.471,13.41A6.857,6.857,0,0,1,9.584,6.625Zm3.924,9.341a5.473,5.473,0,0,1-2.915-.436l3.948-3.948,2.836,2.836A8.024,8.024,0,0,1,13.508,15.966Zm5.976-3.682L16.662,9.461,20.53,5.593A6.825,6.825,0,0,1,19.484,12.284Z"/></svg>
