<?xml version="1.0" encoding="UTF-8"?>
<svg xmlns="http://www.w3.org/2000/svg" id="Layer_1" data-name="Layer 1" viewBox="0 0 24 24" width="512" height="512"><path d="M20.5,18.63a1.5,1.5,0,0,1-1.064-2.556c2.809-2.6,1.562-7.521-2.214-8.21a3.417,3.417,0,0,1-2.447-1.9A5.183,5.183,0,0,0,4.984,7.285,5.317,5.317,0,0,0,5,9.173a3.417,3.417,0,0,1-1.088,3.144,2.749,2.749,0,0,0-.255,3.822,1.5,1.5,0,0,1-2.323,1.9A5.766,5.766,0,0,1,1.9,10.1a.433.433,0,0,0,.161-.353,8.289,8.289,0,0,1-.034-2.952A8.128,8.128,0,0,1,8.558.14a8.241,8.241,0,0,1,8.929,4.54.437.437,0,0,0,.322.242c6.1,1.134,8.255,9.008,3.755,13.265A1.5,1.5,0,0,1,20.5,18.63ZM9.268,23.268c1.624-1.463.078-3.935-.825-4.891a1.365,1.365,0,0,0-1.92.036A6.176,6.176,0,0,0,5,21.5,2.513,2.513,0,0,0,7.5,24,2.486,2.486,0,0,0,9.268,23.268Zm8,0c1.624-1.463.078-3.935-.825-4.891a1.365,1.365,0,0,0-1.92.036A6.176,6.176,0,0,0,13,21.5,2.513,2.513,0,0,0,15.5,24,2.486,2.486,0,0,0,17.268,23.268Zm-4-7c1.624-1.463.078-3.935-.825-4.891a1.365,1.365,0,0,0-1.92.036A6.176,6.176,0,0,0,9,14.5,2.513,2.513,0,0,0,11.5,17,2.486,2.486,0,0,0,13.268,16.268Z"/></svg>
