<?xml version="1.0" encoding="UTF-8"?>
<svg xmlns="http://www.w3.org/2000/svg" id="Layer_1" data-name="Layer 1" viewBox="0 0 24 24" width="512" height="512"><path d="M11.953,6.466c.224,1.271-.381,2.542-1.506,3.163-.447,.246-.447,.318-.447,.371,0,.553-.447,1-1,1s-1-.447-1-1c0-1.308,1.038-1.879,1.481-2.123,.289-.16,.595-.535,.502-1.065-.069-.393-.402-.726-.793-.794-.31-.058-.603,.021-.832,.216-.228,.19-.358,.47-.358,.767,0,.553-.447,1-1,1s-1-.447-1-1c0-.889,.391-1.727,1.072-2.299,.681-.572,1.578-.814,2.464-.653,1.21,.211,2.205,1.206,2.417,2.418Zm-2.953,5.534c-.552,0-1,.448-1,1s.448,1,1,1,1-.448,1-1-.448-1-1-1Zm11.983-2.216c-.317-.26-.653-.483-.996-.687-.006,1.151-.193,2.27-.552,3.335,.985,.982,1.565,2.356,1.565,3.769v4.3c0,.275-.224,.5-.5,.5h-3.86c-1.69,0-3.219-.608-4.269-1.671-1.039,.351-2.142,.559-3.28,.63,.212,.353,.444,.698,.716,1.021,1.618,1.919,4.108,3.021,6.833,3.021h3.86c1.93,0,3.5-1.57,3.5-3.5v-4.3c0-2.502-1.1-4.84-3.017-6.416Zm-8.336,7.235c-1.341,.626-2.857,.98-4.455,.98H3.994c-2.202,0-3.994-1.794-3.994-3.999v-4.723C0,4.581,3.824,.343,8.351,.022c2.61-.191,5.17,.769,7.014,2.613,1.845,1.846,2.797,4.401,2.612,7.014-.179,2.544-1.536,4.782-3.559,6.301l1.071,1.039,2.317-2.21c.396-.383,1.031-.371,1.414,.027,.383,.397,.371,1.031-.027,1.414l-2.293,2.207c-.381,.381-.888,.573-1.396,.573-.513,0-1.027-.195-1.419-.587l-1.439-1.395Zm-4.455-2.02c3.529,0,6.577-2.494,6.793-5.561,.123-1.745-.512-3.451-1.741-4.682-1.13-1.129-2.66-1.757-4.254-1.757-.143,0-.285,.005-.428,.015-2.963,.21-5.562,3.136-5.562,6.263v4.723c0,.551,.446,.999,.994,.999h4.197Z"/></svg>
