<?xml version="1.0" encoding="UTF-8"?>
<svg xmlns="http://www.w3.org/2000/svg" id="Layer_1" data-name="Layer 1" viewBox="0 0 24 24" width="512" height="512"><path d="M19.542,20a5.022,5.022,0,0,1-3.607-1.562,1.5,1.5,0,1,1,2.213-2.024c.92,1.027,2.9.632,2.893-.914a1.5,1.5,0,0,0-1.5-1.5H14.5a1.5,1.5,0,0,1,0-3h5.042C25.477,11.156,25.473,19.846,19.542,20Zm4.5-15.5c.015-4.265-5.366-5.982-8.107-2.938a1.5,1.5,0,1,0,2.213,2.024c.92-1.027,2.9-.632,2.893.914a1.5,1.5,0,0,1-1.5,1.5H16.5a1.5,1.5,0,0,0,0,3h3.042A4.505,4.505,0,0,0,24.042,4.5ZM14,19.5A4.505,4.505,0,0,0,9.5,15h-8a1.5,1.5,0,0,0,0,3h8a1.5,1.5,0,0,1,0,3,1.851,1.851,0,0,1-1.383-.649,1.5,1.5,0,1,0-2.323,1.9A4.827,4.827,0,0,0,9.5,24,4.505,4.505,0,0,0,14,19.5Zm-1-13c-.273,8.59-12.728,8.588-13,0C.273-2.09,12.728-2.088,13,6.5Zm-5,3a1.5,1.5,0,0,0-3,0A1.5,1.5,0,0,0,8,9.5Zm0-6a1.5,1.5,0,0,0-3,0v2a1.5,1.5,0,0,0,3,0Z"/></svg>
