<?xml version="1.0" encoding="UTF-8"?>
<svg xmlns="http://www.w3.org/2000/svg" id="Layer_1" data-name="Layer 1" viewBox="0 0 24 24" width="512" height="512"><g><path d="M23.253,23.407a1.5,1.5,0,0,0-1.506-2.595,1.706,1.706,0,0,1-1.806-.149,3.352,3.352,0,0,0-3.882,0,1.854,1.854,0,0,1-2.118,0,3.352,3.352,0,0,0-3.882,0,1.854,1.854,0,0,1-2.118,0,3.352,3.352,0,0,0-3.882,0,1.709,1.709,0,0,1-1.806.149A1.5,1.5,0,0,0,.747,23.407a4.759,4.759,0,0,0,5.05-.3.336.336,0,0,1,.406,0,4.914,4.914,0,0,0,5.594,0,.336.336,0,0,1,.406,0,4.914,4.914,0,0,0,5.594,0,.336.336,0,0,1,.406,0,4.87,4.87,0,0,0,2.8.9A4.491,4.491,0,0,0,23.253,23.407Z"/><path d="M3,16.5V11.167a.5.5,0,0,1,.146-.352l7.086-7.086a2.5,2.5,0,0,1,3.536,0h0l7.086,7.086a.5.5,0,0,1,.146.352v5.325a1.5,1.5,0,0,0,1.5,1.5h0a1.5,1.5,0,0,0,1.5-1.5V11.169a3.473,3.473,0,0,0-1.025-2.475L15.889,1.608a5.507,5.507,0,0,0-7.778,0L1.025,8.694A3.473,3.473,0,0,0,0,11.169V16.5A1.5,1.5,0,0,0,1.5,18h0A1.5,1.5,0,0,0,3,16.5Z"/><path d="M12.182,14h-.364A3.818,3.818,0,0,0,8,17.818V18h8v-.182A3.818,3.818,0,0,0,12.182,14Z"/></g></svg>
