<?xml version="1.0" encoding="UTF-8"?>
<svg xmlns="http://www.w3.org/2000/svg" id="Layer_1" data-name="Layer 1" viewBox="0 0 24 24" width="512" height="512"><path d="M8,2.5v-1a1.5,1.5,0,0,1,3,0v1a1.5,1.5,0,0,1-3,0ZM14.5,4A1.5,1.5,0,0,0,16,2.5v-1a1.5,1.5,0,0,0-3,0v1A1.5,1.5,0,0,0,14.5,4ZM4.5,4A1.5,1.5,0,0,0,6,2.5v-1a1.5,1.5,0,0,0-3,0v1A1.5,1.5,0,0,0,4.5,4Zm13,17H1.5a1.5,1.5,0,0,0,0,3h16a1.5,1.5,0,0,0,0-3ZM24,12.643A4.49,4.49,0,0,1,19.5,17H15.706a7.189,7.189,0,0,1-5.021,2H8.316a7.1,7.1,0,0,1-5.941-3.08A12.1,12.1,0,0,1,.017,9.693,3.34,3.34,0,0,1,.862,7.117,3.4,3.4,0,0,1,3.386,6L15.614,6A3.4,3.4,0,0,1,18.139,7.12,3.349,3.349,0,0,1,18.979,9H19.5C22.233,9,24,10.43,24,12.643ZM16,9.39a.333.333,0,0,0-.086-.261.389.389,0,0,0-.3-.126L3.386,9a.39.39,0,0,0-.3.127A.328.328,0,0,0,3,9.387,9.291,9.291,0,0,0,4.867,14.25,4.106,4.106,0,0,0,8.316,16h2.369a4.1,4.1,0,0,0,3.447-1.75A9.283,9.283,0,0,0,16,9.39Zm5,3.253c0-.56-.94-.643-1.5-.643h-.925a9.844,9.844,0,0,1-.75,2H19.5A1.491,1.491,0,0,0,21,12.643Z"/></svg>
