<?xml version="1.0" encoding="UTF-8"?>
<svg xmlns="http://www.w3.org/2000/svg" id="Layer_1" data-name="Layer 1" viewBox="0 0 24 24" width="512" height="512"><path d="M15,24a1.5,1.5,0,0,1-1.24-2.342L14.205,21h-.09a2.114,2.114,0,0,1-2.024-2.727,1.457,1.457,0,0,1,.188-.4l1.474-2.207a1.5,1.5,0,0,1,2.494,1.666L15.8,18H15.9a2.1,2.1,0,0,1,1.753,3.266l-1.408,2.076A1.5,1.5,0,0,1,15,24Zm-4.054-2.1A1.5,1.5,0,0,0,9.9,20.055c-.742-.206-.866-.574-.878-.614-.123-.458.3-.826.6-.949a2.447,2.447,0,0,0,1.446-2.782A2.913,2.913,0,0,1,11,15.026a3.079,3.079,0,0,1,.092-.685,3.016,3.016,0,0,1,2.473-2.3,3.218,3.218,0,0,1,3.446,1.882,3.052,3.052,0,0,0,2.335,1.826,2.162,2.162,0,0,1,1.592,2.615,2.042,2.042,0,0,1-1.013,1.257,1.5,1.5,0,0,0,1.156,2.768,5.027,5.027,0,0,0,2.776-3.338,5.166,5.166,0,0,0-3.744-6.2,1.956,1.956,0,0,1-.341-.1,6.229,6.229,0,0,0-6.63-3.678A6.112,6.112,0,0,0,8,14.971a5.93,5.93,0,0,0,.059.949,3.839,3.839,0,0,0-1.93,4.3A4,4,0,0,0,9.1,22.945,1.5,1.5,0,0,0,10.945,21.9ZM22.5,8a1.5,1.5,0,0,0,0,3A1.5,1.5,0,0,0,22.5,8Zm0-8a1.5,1.5,0,0,0,0,3A1.5,1.5,0,0,0,22.5,0Zm-5,4a1.5,1.5,0,0,0,0,3A1.5,1.5,0,0,0,17.5,4ZM4.615,16.108a1.5,1.5,0,0,0,.1-2.119A6.513,6.513,0,0,1,3.037,8.861,6.624,6.624,0,0,1,8.513,3.084a7.474,7.474,0,0,1,2.06-.025A11.214,11.214,0,0,0,8.616,5.851a1.5,1.5,0,1,0,2.705,1.3,8.553,8.553,0,0,1,1.866-2.462,2.6,2.6,0,0,0-1.149-4.4,10.327,10.327,0,0,0-4-.165A9.665,9.665,0,0,0,.053,8.552,9.6,9.6,0,0,0,2.5,16.011a1.5,1.5,0,0,0,2.119.1Z"/></svg>
