<?xml version="1.0" encoding="UTF-8"?>
<svg xmlns="http://www.w3.org/2000/svg" id="Layer_1" data-name="Layer 1" viewBox="0 0 24 24" width="512" height="512"><path d="M23.193,15.543l-4.929,4.859c-2.354,2.32-5.47,3.598-8.775,3.598H1.5c-1.972-.034-1.971-2.966,0-3h7.989c2.383,0,4.638-.875,6.39-2.47-.561,.3-1.201,.47-1.88,.47h-5c-1.972-.034-1.971-2.966,0-3h5c1.308-.006,1.307-1.994,0-2h-5.188c-2.27,0-4.404,.884-6.011,2.489l-.239,.24c-.584,.586-1.533,.59-2.121,.004-.587-.584-.589-1.534-.004-2.121l.241-.242c2.175-2.174,5.062-3.37,8.134-3.37h5.188c1.678,0,3.117,1.038,3.71,2.506l1.82-1.753c.527-.528,1.286-.81,2.056-.744,.771,.062,1.476,.46,1.932,1.093,.745,1.035,.604,2.515-.324,3.441ZM11,7.383v1.117c.034,1.972,2.966,1.971,3,0v-1.117c3.703-.468,5.748-2.378,6-6.266,.04-.611-.472-1.123-1.083-1.083-3.333,.216-5.5,1.461-6.417,4.074C11.583,1.495,9.416,.25,6.083,.034c-.611-.04-1.123,.472-1.083,1.083,.252,3.888,2.297,5.798,6,6.266Z"/></svg>
