<?xml version="1.0" encoding="UTF-8"?>
<svg xmlns="http://www.w3.org/2000/svg" id="Layer_1" data-name="Layer 1" viewBox="0 0 24 24" width="512" height="512"><path d="M5,6.663v10.674c1.182,.562,2,1.767,2,3.163,0,1.933-1.567,3.5-3.5,3.5s-3.5-1.567-3.5-3.5c0-1.396,.818-2.601,2-3.163V6.663C.818,6.101,0,4.896,0,3.5,0,1.567,1.567,0,3.5,0s3.5,1.567,3.5,3.5c0,1.396-.818,2.601-2,3.163Zm15.5,10.337c-1.933,0-3.5,1.567-3.5,3.5s1.567,3.5,3.5,3.5,3.5-1.567,3.5-3.5-1.567-3.5-3.5-3.5Zm-2.5-12.5c0-1.378,1.121-2.5,2.5-2.5s2.5,1.122,2.5,2.5-1.121,2.5-2.5,2.5-2.5-1.122-2.5-2.5Zm0,7c0-1.378,1.121-2.5,2.5-2.5s2.5,1.122,2.5,2.5-1.121,2.5-2.5,2.5-2.5-1.122-2.5-2.5Z"/></svg>
