<?xml version="1.0" encoding="UTF-8"?>
<svg xmlns="http://www.w3.org/2000/svg" id="Layer_1" data-name="Layer 1" viewBox="0 0 24 24" width="512" height="512"><path d="M19.9,10.687a5.184,5.184,0,0,0-.09-2.378l.84-.84A2,2,0,1,0,22,4a2,2,0,1,0-3.469,1.348l-.845.845c-1.689-.511-3.9.138-5.667,1.048A18.307,18.307,0,0,0,8.837,7,9.015,9.015,0,0,0,0,15.967v2.4a5.286,5.286,0,0,0,4.579,5.183A39.713,39.713,0,0,0,9.137,24C14.687,24,24,23.2,24,17.833,24,15.4,22.468,12.756,19.9,10.687ZM16.44,8.979a.742.742,0,0,1,.468.111c.457.518-.535,3.806-1.963,5.233a2.311,2.311,0,0,1-3.268-3.269A8.7,8.7,0,0,1,16.44,8.979ZM9.137,21a35.577,35.577,0,0,1-4.147-.426A2.273,2.273,0,0,1,3,18.363v-2.4a6,6,0,0,1,5.747-5.955,5.3,5.3,0,0,0,8.319,6.433,10.334,10.334,0,0,0,1.8-2.672A6.219,6.219,0,0,1,21,17.833C21,19.668,16.011,21,9.137,21ZM6,2.5v-1a1.5,1.5,0,0,1,3,0v1a1.5,1.5,0,0,1-3,0Zm5,0v-1a1.5,1.5,0,0,1,3,0v1a1.5,1.5,0,0,1-3,0ZM1,2.5v-1a1.5,1.5,0,0,1,3,0v1a1.5,1.5,0,0,1-3,0Z"/></svg>
