<?xml version="1.0" encoding="UTF-8"?>
<svg xmlns="http://www.w3.org/2000/svg" id="Layer_1" data-name="Layer 1" viewBox="0 0 24 24" width="512" height="512"><path d="M22,7.663v7.837c0,3.033-2.467,5.5-5.5,5.5h-1.501v2.192c0,.716-.863,1.077-1.373,.574l-3.132-3.091c-.655-.646-.655-1.703,0-2.35l3.132-3.091c.51-.503,1.373-.142,1.373,.574v2.192h1.501c1.378,0,2.5-1.122,2.5-2.5V7.663c-1.182-.562-2-1.767-2-3.163,0-1.933,1.567-3.5,3.5-3.5s3.5,1.567,3.5,3.5c0,1.396-.818,2.601-2,3.163Zm-8.475-2.008c.644-.635,.644-1.675,0-2.31L10.373,.234c-.51-.503-1.373-.142-1.373,.574V3h-1.5c-3.033,0-5.5,2.467-5.5,5.5v7.837c-1.182,.562-2,1.767-2,3.163,0,1.933,1.567,3.5,3.5,3.5s3.5-1.567,3.5-3.5c0-1.396-.818-2.601-2-3.163v-7.837c0-1.378,1.122-2.5,2.5-2.5h1.5v2.192c0,.716,.863,1.077,1.373,.574l3.152-3.111Z"/></svg>
