<?xml version="1.0" encoding="UTF-8"?>
<svg xmlns="http://www.w3.org/2000/svg" id="Layer_1" data-name="Layer 1" viewBox="0 0 24 24" width="512" height="512"><path d="M21.576,5.364,14.975.91a5.29,5.29,0,0,0-5.95,0l-6.6,4.454A5.5,5.5,0,0,0,0,9.924V18.5A5.506,5.506,0,0,0,5.5,24h1A1.5,1.5,0,0,0,8,22.5V14h8v8.5A1.5,1.5,0,0,0,17.5,24h1A5.506,5.506,0,0,0,24,18.5V9.924A5.5,5.5,0,0,0,21.576,5.364ZM21,18.5a2.5,2.5,0,0,1-2,2.45V12.5A3.5,3.5,0,0,0,15.5,9h-7A3.5,3.5,0,0,0,5,12.5v8.45A2.5,2.5,0,0,1,3,18.5V9.924A2.5,2.5,0,0,1,4.1,7.851L10.7,3.4a2.308,2.308,0,0,1,2.593,0l6.6,4.455A2.5,2.5,0,0,1,21,9.924Z"/></svg>
