<?xml version="1.0" encoding="UTF-8"?>
<svg xmlns="http://www.w3.org/2000/svg" id="Layer_1" data-name="Layer 1" viewBox="0 0 24 24" width="512" height="512"><path d="M12.5,24a1.479,1.479,0,0,1-.474-.077,1.5,1.5,0,0,1-.949-1.9l2-6a1.5,1.5,0,1,1,2.846.95l-2,6A1.5,1.5,0,0,1,12.5,24ZM7.923,22.975l2-6a1.5,1.5,0,0,0-2.846-.95l-2,6a1.5,1.5,0,0,0,.949,1.9A1.479,1.479,0,0,0,6.5,24,1.5,1.5,0,0,0,7.923,22.975Zm11.154-3.09C26.03,16.9,25.44,6.489,17.812,4.923a.44.44,0,0,1-.325-.242A8.237,8.237,0,0,0,8.558.141,8.125,8.125,0,0,0,2.025,6.793a8.289,8.289,0,0,0,.034,2.952A.428.428,0,0,1,1.9,10.1a5.824,5.824,0,0,0,.769,9.148,1.5,1.5,0,1,0,1.668-2.492,2.805,2.805,0,0,1-.418-4.437A3.416,3.416,0,0,0,5,9.173a5.317,5.317,0,0,1-.02-1.888,5.183,5.183,0,0,1,9.791-1.32,3.42,3.42,0,0,0,2.448,1.9c4.731.95,4.94,7.45.7,9.251a1.5,1.5,0,0,0,1.154,2.77Z"/></svg>
