<?xml version="1.0" encoding="UTF-8"?>
<svg xmlns="http://www.w3.org/2000/svg" id="Layer_1" data-name="Layer 1" viewBox="0 0 24 24" width="512" height="512"><path d="M19.927.269C21.162-1.126,23.071,3.414,23,4.5,22.523,9.264,14.458,6.91,19.927.269ZM24,12a12.056,12.056,0,0,0-.122-1.713,1.5,1.5,0,1,0-2.969.426,9,9,0,1,1-6.764-7.456,1.5,1.5,0,0,0,.71-2.915A12,12,0,1,0,24,12Zm-7.211,2.024A15.4,15.4,0,0,1,12,15,15.4,15.4,0,0,1,7.2,14.024a1,1,0,0,0-1.052,1.518A6.836,6.836,0,0,0,12,19a6.827,6.827,0,0,0,5.842-3.458A1,1,0,0,0,16.789,14.024ZM9.807,11.968a1.5,1.5,0,0,0,1.161-1.775c-.888-4.217-5.051-4.212-5.936,0a1.5,1.5,0,1,0,2.936.614c.01-.046.02-.091.032-.134.012.043.022.088.032.134a1.5,1.5,0,0,0,1.775,1.161Zm8,0a1.5,1.5,0,0,0,1.16-1.775c-.888-4.217-5.05-4.212-5.936,0a1.5,1.5,0,1,0,2.936.614c.01-.046.02-.09.032-.134.012.044.022.088.032.134a1.5,1.5,0,0,0,1.776,1.161Z"/></svg>
