<?xml version="1.0" encoding="UTF-8"?>
<svg xmlns="http://www.w3.org/2000/svg" id="Layer_1" data-name="Layer 1" viewBox="0 0 24 24" width="512" height="512"><path d="M20.5,17a3.432,3.432,0,0,0-.5.036V5.5A2.5,2.5,0,0,1,22.5,3a1.5,1.5,0,0,0,0-3A5.506,5.506,0,0,0,17,5.5V16.377l-.791.233a3.285,3.285,0,0,0-.144-.591l-2.032-6.58a3.505,3.505,0,0,0-4.4-2.273L2.44,9.457A3.519,3.519,0,0,0,.151,13.812l2.03,6.623c.033.092.069.182.109.269l-1.213.357a1.5,1.5,0,0,0,.846,2.878l15.235-4.481A3.5,3.5,0,1,0,20.5,17ZM5.028,19.492,3.021,12.938a.5.5,0,0,1,.329-.622l7.2-2.292a.5.5,0,0,1,.624.313l2.042,6.608a.5.5,0,0,1-.312.636l-.036.013L5.505,19.758A.479.479,0,0,1,5.028,19.492Zm5.094-6.049a1.5,1.5,0,0,1-.976,1.884l-1.6.507a1.5,1.5,0,1,1-.908-2.859l1.595-.507A1.5,1.5,0,0,1,10.122,13.443Z"/></svg>
