<?xml version="1.0" encoding="UTF-8"?>
<svg xmlns="http://www.w3.org/2000/svg" id="Layer_1" data-name="Layer 1" viewBox="0 0 24 24" width="512" height="512"><path d="M24,8.5v9.535c0,1.957-1.054,3.782-2.749,4.764-.705,.41-1.632,.176-2.05-.548-.414-.717-.169-1.635,.548-2.05,.771-.446,1.251-1.276,1.251-2.166V8.5c0-.171-.017-.338-.05-.5H3v10.035c0,.89,.479,1.72,1.251,2.166,.717,.415,.962,1.333,.548,2.05-.416,.718-1.333,.963-2.05,.548-1.695-.981-2.749-2.807-2.749-4.764V6.5C0,3.468,2.468,1,5.5,1h2.528c.54,0,1.081,.128,1.564,.369l3.156,1.578c.068,.034,.146,.053,.223,.053h5.528c3.032,0,5.5,2.468,5.5,5.5Zm-6,8.5c-.245,7.931-11.756,7.929-12,0,.245-7.931,11.756-7.929,12,0Zm-3.439,.44l-1.061-1.061v-1.879c-.034-1.972-2.967-1.971-3,0v2.293c0,.53,.211,1.039,.586,1.414l1.354,1.354c1.393,1.381,3.502-.729,2.121-2.121Z"/></svg>
