<?xml version="1.0" encoding="UTF-8"?>
<svg xmlns="http://www.w3.org/2000/svg" id="Layer_1" data-name="Layer 1" viewBox="0 0 24 24" width="512" height="512"><path d="M12,16c.828,0,1.5,.672,1.5,1.5s-.672,1.5-1.5,1.5-1.5-.672-1.5-1.5,.672-1.5,1.5-1.5Zm1.405-2.977c.005-.012,.131-.284,.567-.543,1.486-.884,2.258-2.529,1.966-4.192-.283-1.616-1.61-2.943-3.225-3.226-2.165-.373-4.198,1-4.633,3.139-.165,.812,.36,1.604,1.171,1.769,.813,.166,1.604-.359,1.769-1.171,.095-.469,.559-.891,1.175-.781,.382,.066,.721,.405,.788,.789,.114,.648-.388,1.003-.543,1.095-1.396,.828-1.802,1.934-1.87,2.146-.25,.79,.175,1.668,.965,1.918,.158,.05,.317,.073,.473,.073,.625,0,1.197-.384,1.397-1.016Zm10.595,5.477v-6.176c0-3.713-1.618-7.2-4.438-9.567C16.854,.483,13.428-.428,9.908,.188,4.614,1.119,.562,5.518,.056,10.885c-.313,3.311,.733,6.473,2.946,8.904,2.435,2.676,6.092,4.211,10.032,4.211h5.466c3.033,0,5.5-2.468,5.5-5.5Zm-6.367-13.446c2.14,1.797,3.367,4.446,3.367,7.271v6.176c0,1.379-1.122,2.5-2.5,2.5h-5.466c-3.097,0-5.945-1.177-7.813-3.229-1.637-1.8-2.411-4.145-2.179-6.604,.375-3.962,3.48-7.336,7.385-8.022,.539-.095,1.074-.142,1.603-.142,2.052,0,3.999,.705,5.603,2.052Z"/></svg>
