<?xml version="1.0" encoding="UTF-8"?>
<svg xmlns="http://www.w3.org/2000/svg" id="Layer_1" data-name="Layer 1" viewBox="0 0 24 24" width="512" height="512"><path d="M23.52,10.265a4.213,4.213,0,0,0,.42-2.671A4.372,4.372,0,0,0,20.4,4.064a4.435,4.435,0,0,0-.514-.055A6.133,6.133,0,0,0,17.291,3a1.387,1.387,0,0,1-.453-.172A5.07,5.07,0,0,0,12,0,5.051,5.051,0,0,0,7.179,2.8a1.12,1.12,0,0,1-.47.2A6.133,6.133,0,0,0,4.118,4.009a4.435,4.435,0,0,0-.514.055A4.374,4.374,0,0,0,.06,7.594a4.22,4.22,0,0,0,.42,2.671.85.85,0,0,1-.054.688A5.112,5.112,0,0,0,0,13a5.424,5.424,0,0,0,1.916,4.013A5.3,5.3,0,0,0,7.227,22a5.206,5.206,0,0,0,.574-.048,6.29,6.29,0,0,0,2.029.5l1.108,1.109a1.5,1.5,0,0,0,2.124,0l1.108-1.109a6.29,6.29,0,0,0,2.029-.5,5.206,5.206,0,0,0,.574.048,5.3,5.3,0,0,0,5.311-4.987A5.424,5.424,0,0,0,24,13a5.112,5.112,0,0,0-.426-2.047A.85.85,0,0,1,23.52,10.265Zm-5-1.329A3.364,3.364,0,0,0,17.5,11.5a5.35,5.35,0,0,0,.343,1.562c.061.189.126.37.156.51a2.09,2.09,0,0,1-.677,1.744A2.814,2.814,0,0,0,16,17.5c0,1.327-.841,2-2.5,2V9.5a1.5,1.5,0,0,0-3,0v10c-1.659,0-2.5-.673-2.5-2a2.82,2.82,0,0,0-1.327-2.188A2.089,2.089,0,0,1,6,13.572c.03-.14.095-.321.156-.51A5.35,5.35,0,0,0,6.5,11.5,3.362,3.362,0,0,0,5.479,8.936a1.551,1.551,0,0,1-.456-1.359A2.366,2.366,0,0,1,7.146,5.963,3.694,3.694,0,0,0,9.838,4.177,2.108,2.108,0,0,1,12,3a2.108,2.108,0,0,1,2.162,1.178,3.69,3.69,0,0,0,2.69,1.784,2.368,2.368,0,0,1,2.125,1.616A1.548,1.548,0,0,1,18.52,8.936Z"/></svg>
