<?xml version="1.0" encoding="UTF-8"?>
<svg xmlns="http://www.w3.org/2000/svg" id="Layer_1" data-name="Layer 1" viewBox="0 0 24 24" width="512" height="512"><path d="M22.769,1.231c-2.9-2.9-9.38-.108-11.8,2.316a6.715,6.715,0,0,0-.936,8.3L.443,21.436a1.5,1.5,0,0,0,2.121,2.121l9.586-9.586a6.706,6.706,0,0,0,8.3-.937C22.877,10.61,25.665,4.128,22.769,1.231Zm-4.436,9.682a3.709,3.709,0,0,1-5.246-5.246,11.117,11.117,0,0,1,6.34-2.676,1.717,1.717,0,0,1,1.221.361C21.754,4.459,20.121,9.125,18.333,10.913Z"/></svg>
