<?xml version="1.0" encoding="UTF-8"?>
<svg xmlns="http://www.w3.org/2000/svg" id="Layer_1" data-name="Layer 1" viewBox="0 0 24 24" width="512" height="512"><path d="M24,22a2,2,0,0,1-2,2H2a2,2,0,1,1,0-4H22A2,2,0,0,1,24,22ZM0,8.678A3.5,3.5,0,0,1,2.1,5.472L13.581.449a5.289,5.289,0,0,1,6.17,1.411l3.093,3.607h0A4.808,4.808,0,0,1,24,8.592,3.412,3.412,0,0,1,20.591,12H3.323A3.326,3.326,0,0,1,0,8.678Zm3,0A.323.323,0,0,0,3.323,9H20.591A.41.41,0,0,0,21,8.592a1.8,1.8,0,0,0-.435-1.174L17.474,3.811A2.311,2.311,0,0,0,15.719,3a2.335,2.335,0,0,0-.935.2L3.3,8.22A.5.5,0,0,0,3,8.678Zm20.407,6.633,0,0s-.539-.411-.77-.6a3.312,3.312,0,0,0-4.1,0,1.3,1.3,0,0,1-1.63,0,3.312,3.312,0,0,0-4.1,0,1.3,1.3,0,0,1-1.629,0,3.314,3.314,0,0,0-4.1,0,1.3,1.3,0,0,1-1.629,0,3.312,3.312,0,0,0-4.1,0c-.228.183-.765.592-.767.594l0,0a1.494,1.494,0,1,0,1.814,2.375l0,0s.577-.44.819-.635a.308.308,0,0,1,.358,0,4.384,4.384,0,0,0,5.37,0,.306.306,0,0,1,.357,0,4.362,4.362,0,0,0,5.371,0,.31.31,0,0,1,.356,0A4.32,4.32,0,0,0,17.728,18a4.267,4.267,0,0,0,2.684-.943.311.311,0,0,1,.356,0c.245.2.822.637.822.637l0,0a1.494,1.494,0,1,0,1.814-2.375Z"/></svg>
