<?xml version="1.0" encoding="UTF-8"?>
<svg xmlns="http://www.w3.org/2000/svg" id="Layer_1" data-name="Layer 1" viewBox="0 0 24 24" width="512" height="512"><path d="M14,16.037a2.995,2.995,0,1,1-4.5-2.584V6.5a1.5,1.5,0,0,1,3,0v6.953A2.987,2.987,0,0,1,14,16.037Zm3-5.308c4.57,4.953.739,13.406-6,13.271C4.262,24.135.429,15.681,5,10.729V6.037c.253-7.931,11.75-7.926,12,0ZM16,16a4.95,4.95,0,0,0-1.541-3.59A1.5,1.5,0,0,1,14,11.33V6.037a3,3,0,0,0-6,0V11.33a1.5,1.5,0,0,1-.459,1.08A4.994,4.994,0,1,0,16,16ZM24,2.5a2.5,2.5,0,0,1-5,0A2.5,2.5,0,0,1,24,2.5Z"/></svg>
