<?xml version="1.0" encoding="UTF-8"?>
<svg xmlns="http://www.w3.org/2000/svg" id="Layer_1" data-name="Layer 1" viewBox="0 0 24 24" width="512" height="512"><path d="M22.315,7.836l-1.315-1.284v-2.553c0-2.206-1.794-4-4-4H7C4.794,0,3,1.794,3,4v2.56l-1.305,1.266c-1.077,1.032-1.695,2.48-1.695,3.972v6.702c0,3.033,2.467,5.5,5.5,5.5h13c3.033,0,5.5-2.467,5.5-5.5v-6.702c0-1.492-.618-2.94-1.685-3.962ZM10.538,3.175c.293-1.483,2.497-1.561,2.893-.103,.983,.191,1.857,.794,2.368,1.678,.415,.717,.17,1.635-.547,2.049-.716,.414-1.635,.17-2.049-.547-.091-.157-.253-.251-.434-.251h-1.181c-.63-.018-.808,.916-.218,1.132l2.376,.95c3.124,1.162,2.879,5.867-.283,6.743-.293,1.483-2.497,1.561-2.893,.103-.983-.191-1.857-.794-2.368-1.677-.415-.717-.17-1.635,.547-2.049,.717-.415,1.635-.169,2.049,.547,.091,.157,.253,.25,.434,.25h1.181c.63,.018,.808-.916,.218-1.132l-2.376-.95c-3.124-1.162-2.879-5.867,.283-6.743Zm7.962,17.825H5.5c-1.378,0-2.5-1.122-2.5-2.5v-6.222l5.111,5.112c2.06,2.137,5.729,2.135,7.792-.014l5.098-5.228v6.352c0,1.378-1.122,2.5-2.5,2.5Z"/></svg>
