<?xml version="1.0" encoding="UTF-8"?>
<svg xmlns="http://www.w3.org/2000/svg" id="Layer_1" data-name="Layer 1" viewBox="0 0 24 24" width="512" height="512"><path d="M11.5,24A1.5,1.5,0,0,1,10,22.5v-1a1.5,1.5,0,0,1,3,0v1A1.5,1.5,0,0,1,11.5,24ZM10,16.5v-1a1.5,1.5,0,0,0-3,0v1a1.5,1.5,0,0,0,3,0Zm-2,6v-1a1.5,1.5,0,0,0-3,0v1a1.5,1.5,0,0,0,3,0Zm8-6v-1a1.5,1.5,0,0,0-3,0v1a1.5,1.5,0,0,0,3,0Zm2,6v-1a1.5,1.5,0,0,0-3,0v1a1.5,1.5,0,0,0,3,0ZM4.747,18.834a1.5,1.5,0,0,0-.413-2.081,2.806,2.806,0,0,1-.418-4.436A3.417,3.417,0,0,0,5,9.173a5.317,5.317,0,0,1-.02-1.888,5.183,5.183,0,0,1,9.792-1.32,3.418,3.418,0,0,0,2.447,1.9c4,.768,5.039,5.971,1.9,8.5a1.5,1.5,0,1,0,1.954,2.276C26.118,14.5,24.239,6.17,17.809,4.922a.437.437,0,0,1-.322-.242A8.241,8.241,0,0,0,8.558.14,8.128,8.128,0,0,0,2.025,6.793a8.289,8.289,0,0,0,.034,2.952A.433.433,0,0,1,1.9,10.1a5.823,5.823,0,0,0,.768,9.149,1.5,1.5,0,0,0,2.081-.413Z"/></svg>
