<?xml version="1.0" encoding="UTF-8"?>
<svg xmlns="http://www.w3.org/2000/svg" id="Layer_1" data-name="Layer 1" viewBox="0 0 24 24" width="512" height="512"><path d="M18.5,22H5.5c-3.032,0-5.5-2.468-5.5-5.5V7.5C0,4.467,2.468,2,5.5,2h13c3.032,0,5.5,2.467,5.5,5.5v9c0,3.032-2.468,5.5-5.5,5.5ZM5.5,5c-1.379,0-2.5,1.122-2.5,2.5v9c0,1.379,1.121,2.5,2.5,2.5h13c1.379,0,2.5-1.121,2.5-2.5V7.5c0-1.378-1.121-2.5-2.5-2.5H5.5Zm3.5,10v-6c0-1.104-.896-2-2-2s-2,.896-2,2v6c0,1.104,.896,2,2,2s2-.896,2-2ZM14.5,7h0c-.828,0-1.5,.672-1.5,1.5v7c0,.828,.672,1.5,1.5,1.5h0c.828,0,1.5-.672,1.5-1.5v-7c0-.828-.672-1.5-1.5-1.5Zm3.5,0h0c-.552,0-1,.448-1,1v8c0,.552,.448,1,1,1h0c.552,0,1-.448,1-1V8c0-.552-.448-1-1-1Zm-7,0h0c-.552,0-1,.448-1,1v8c0,.552,.448,1,1,1h0c.552,0,1-.448,1-1V8c0-.552-.448-1-1-1Z"/></svg>
