<?xml version="1.0" encoding="UTF-8"?>
<svg xmlns="http://www.w3.org/2000/svg" id="Layer_1" data-name="Layer 1" viewBox="0 0 24 24" width="512" height="512"><path d="M24,21.41a34.827,34.827,0,0,0-.587-5.615A3.427,3.427,0,0,0,20.079,13H14.026c.01-.064.023-.129.039-.192a2.162,2.162,0,0,1,1.771-1.625l2.272-.283a3.406,3.406,0,0,0,2.6-4.8C19.068,2.565,14.775,0,10.5,0A10.538,10.538,0,0,0-.025,10.525,37.411,37.411,0,0,0,.54,15.509,5.282,5.282,0,0,0,4.2,19.735c.491.155.975.3,1.451.439a23.452,23.452,0,0,1,3.805,1.359,4.372,4.372,0,0,0,5.076-.838l.3-.323L16.606,22.5a1.5,1.5,0,0,0,.5.392A13.149,13.149,0,0,0,21.54,24a2.434,2.434,0,0,0,1.668-.668A2.547,2.547,0,0,0,24,21.41Zm-11.624-2.8a1.362,1.362,0,0,1-1.576.237A25.724,25.724,0,0,0,6.5,17.3c-.46-.136-.927-.274-1.4-.423a2.3,2.3,0,0,1-1.6-1.837,36.5,36.5,0,0,1-.528-4.512A7.533,7.533,0,0,1,10.5,3c3.114,0,6.333,1.875,7.487,4.362a.4.4,0,0,1-.012.361.387.387,0,0,1-.268.205l-2.271.283a5.18,5.18,0,0,0-3.789,7.633c.018.031,1.355,2.094,1.355,2.094Zm6.317,1.705-2.583-3.1L15.321,16h4.758a.425.425,0,0,1,.388.369,31.484,31.484,0,0,1,.513,4.564A9.177,9.177,0,0,1,18.692,20.317ZM9,14.5A1.5,1.5,0,1,1,7.5,13,1.5,1.5,0,0,1,9,14.5Z"/></svg>
