<?xml version="1.0" encoding="UTF-8"?>
<svg xmlns="http://www.w3.org/2000/svg" id="Layer_1" data-name="Layer 1" viewBox="0 0 24 24" width="512" height="512"><path d="M8.572,19.824,7.97,22.8A1.5,1.5,0,0,1,6.5,24a1.461,1.461,0,0,1-.3-.03A1.5,1.5,0,0,1,5.03,22.2l.6-2.974a1.5,1.5,0,1,1,2.939.6ZM12.5,5A2.5,2.5,0,1,0,10,2.5,2.5,2.5,0,0,0,12.5,5ZM22,9.5v13a1.5,1.5,0,0,1-3,0V13H16.408a3.494,3.494,0,0,1-2.673-1.24l-1.048-1.24L11.5,15.3l1.171.929A3.481,3.481,0,0,1,14,18.967V22.5a1.5,1.5,0,0,1-3,0V18.967a.5.5,0,0,0-.189-.392L8.118,16.44a3.525,3.525,0,0,1-.679-.714A3.992,3.992,0,0,1,5.969,16,3.845,3.845,0,0,1,2,12.026C2,8.759,5.4,6,9.413,6h1.831a3.859,3.859,0,0,1,2.915,1.614l1.867,2.209a.5.5,0,0,0,.382.177H19V9.5a1.5,1.5,0,0,1,3,0ZM5.969,13a1.369,1.369,0,0,0,1.052-.637L7.8,9.236C6.207,9.708,5,10.827,5,12.026A.861.861,0,0,0,5.969,13Z"/></svg>
