<?xml version="1.0" encoding="UTF-8"?>
<svg xmlns="http://www.w3.org/2000/svg" id="Layer_1" data-name="Layer 1" viewBox="0 0 24 24" width="512" height="512"><path d="M17.842,14.542A6.827,6.827,0,0,1,12,18a6.836,6.836,0,0,1-5.848-3.458A1,1,0,0,1,7.2,13.024,15.4,15.4,0,0,0,12,14a15.4,15.4,0,0,0,4.792-.976A1,1,0,0,1,17.842,14.542ZM13,9.667C13,11,14.119,11,15.5,11S18,11,18,9.667A2.587,2.587,0,0,0,15.5,7,2.587,2.587,0,0,0,13,9.667ZM24,12A12.013,12.013,0,0,0,12,0C-3.9.6-3.893,23.4,12,24A12.013,12.013,0,0,0,24,12Zm-3,0a9.011,9.011,0,0,1-9,9C.076,20.547.081,3.451,12,3A9.011,9.011,0,0,1,21,12ZM11,9.5A1.5,1.5,0,0,0,9.5,8h-2a1.5,1.5,0,0,0,0,3h2A1.5,1.5,0,0,0,11,9.5Z"/></svg>
