<?xml version="1.0" encoding="UTF-8"?>
<svg xmlns="http://www.w3.org/2000/svg" id="Layer_1" data-name="Layer 1" viewBox="0 0 24 24" width="512" height="512"><path d="M19.308,7.06l.68-5.371c.054-.425-.076-.852-.357-1.174s-.687-.51-1.114-.515c-1.195,0-2.084,.83-2.654,1.381h0c-.14,.136-.445,.432-.612,.556-.167-.124-.473-.42-.612-.555h0c-.57-.552-1.487-1.382-2.649-1.382-1.195,0-2.056,.83-2.626,1.381-.14,.135-.445,.432-.612,.556-.167-.124-.473-.42-.612-.555h0c-.57-.552-1.459-1.382-2.654-1.382-.428,.005-.833,.192-1.114,.515s-.411,.749-.357,1.174l.68,5.371c-2.651,.392-4.692,2.683-4.692,5.441v6c0,3.032,2.468,5.5,5.5,5.5h13c3.032,0,5.5-2.468,5.5-5.5v-6c0-2.758-2.041-5.048-4.692-5.44Zm-10.541-2.06c1.184-.014,2.039-.842,2.605-1.389,.145-.14,.462-.446,.628-.564,.166,.118,.483,.425,.628,.564,.566,.547,1.422,1.375,2.605,1.389h.033c.499-.006,.939-.156,1.325-.369l-.752,5.933c-.031,.249-.244,.437-.495,.437h-1.988l-.365-3.649c-.082-.824-.816-1.438-1.642-1.343-.824,.082-1.426,.817-1.343,1.642l.335,3.351h-1.688c-.251,0-.464-.188-.495-.438l-.752-5.936c.392,.215,.843,.367,1.358,.373Zm9.733,16H5.5c-1.208,0-2.218-.86-2.45-2H20.95c-.232,1.14-1.242,2-2.45,2Zm2.5-5H3v-3.5c0-1.232,.895-2.258,2.07-2.462l.114,.901c.22,1.745,1.712,3.062,3.472,3.062h6.689c1.76,0,3.252-1.316,3.472-3.061l.114-.902c1.174,.205,2.069,1.23,2.069,2.462v3.5Z"/></svg>
