<?xml version="1.0" encoding="UTF-8"?>
<svg xmlns="http://www.w3.org/2000/svg" id="Layer_1" data-name="Layer 1" viewBox="0 0 24 24" width="512" height="512"><path d="M23,7.132c0,1.043-.382,2.047-1.074,2.826l-5.926,7.417v5.125c0,.54-.291,1.039-.761,1.306-.47,.266-1.047,.259-1.511-.02l-5-3c-.452-.271-.729-.759-.729-1.286v-2.165L2.033,10.031C.015,7.81,1.132,3.656,4.207,3.009c1.924-.448,2.637,2.392,.736,2.908-.963,.197-1.199,1.506-.627,2.168l6.346,7.766c.219,.269,.338,.604,.338,.949v1.851l2,1.2v-3.001c0-.341,.116-.671,.328-.937l6.305-7.889c.675-.697,.359-1.839-.535-2.097-1.885-.578-1.067-3.4,.834-2.881,1.807,.522,3.068,2.202,3.068,4.085Zm-12.746,.785l2.378,.951c.59,.217,.41,1.15-.219,1.132h-1.181c-.181,0-.343-.094-.434-.251-.416-.717-1.334-.962-2.05-.548-.717,.415-.962,1.333-.548,2.05,.511,.883,1.381,1.492,2.363,1.684,.399,1.442,2.587,1.375,2.896-.091,3.16-.875,3.414-5.6,.286-6.761l-2.378-.951c-.59-.217-.41-1.15,.219-1.132h1.181c.181,0,.343,.094,.434,.251,.415,.718,1.334,.963,2.05,.548,.717-.415,.962-1.333,.548-2.05-.511-.883-1.381-1.492-2.363-1.684-.399-1.442-2.587-1.375-2.896,.091-3.16,.874-3.414,5.6-.286,6.761Z"/></svg>
