<?xml version="1.0" encoding="UTF-8"?>
<svg xmlns="http://www.w3.org/2000/svg" id="Layer_1" data-name="Layer 1" viewBox="0 0 24 24" width="512" height="512"><path d="M9.5,19H8.386S9.667,17.291,9.7,17.223a2.52,2.52,0,0,0-.992-3.367l-2.06-1.211L8.82,8.683c1.21.482,2.726,1.059,3.148,1.219a1.5,1.5,0,0,0,1.064-2.8c-1.578-.6-3.978-1.532-4.37-1.728A3.491,3.491,0,0,0,3.994,6.881L2.37,9.83A3.5,3.5,0,0,0,3.884,14.5l2.869,1.683L4.807,18.764c-.019-.032-2.059-3.1-2.059-3.1a1.5,1.5,0,0,0-2.5,1.664L1.5,19.208A2.507,2.507,0,0,0,2.5,24h7A2.5,2.5,0,0,0,9.5,19ZM8,2.5a2.5,2.5,0,0,1,5,0A2.5,2.5,0,0,1,8,2.5Zm16,18A3.5,3.5,0,0,1,20.5,24h-5a1.5,1.5,0,0,1,0-3h1.073s-.967-1.944-.988-2l-.144,0H13.5a1.5,1.5,0,0,1,0-3h1.941A4.51,4.51,0,0,0,19.1,14.116l1.643-2.167a1.487,1.487,0,0,0-.331-2.026C20.385,9.9,19,8.655,19,8.655A5.592,5.592,0,0,1,13.5,14a1.5,1.5,0,0,1,0-3A2.563,2.563,0,0,0,16,8.543,6.855,6.855,0,0,0,14.8,4.9c-.009-.012-.3-.284-.3-.284a1.5,1.5,0,0,1,2-2.232l5.792,5.2a4.482,4.482,0,0,1,.867,6.143l-1.642,2.167a7.409,7.409,0,0,1-2.937,2.416L19.927,21H20.5a.5.5,0,0,0,.5-.5A1.5,1.5,0,0,1,24,20.5Z"/></svg>
