<?xml version="1.0" encoding="UTF-8"?>
<svg xmlns="http://www.w3.org/2000/svg" id="Layer_1" data-name="Layer 1" viewBox="0 0 24 24" width="512" height="512"><path d="M20,15h-7c-2.206,0-4,1.794-4,4s1.794,4,4,4h7c2.206,0,4-1.794,4-4s-1.794-4-4-4Zm-8,4c0-.552,.449-1,1-1h1v2h-1c-.551,0-1-.448-1-1Zm8,1h-3v-2h3c.552,0,1,.448,1,1s-.448,1-1,1Zm-7-10h7c2.206,0,4-1.794,4-4s-1.794-4-4-4h-7c-2.206,0-4,1.794-4,4s1.794,4,4,4Zm8-4c0,.552-.448,1-1,1h-1v-2h1c.552,0,1,.448,1,1Zm-8-1h3v2h-3c-.551,0-1-.448-1-1s.449-1,1-1ZM1,3C1,1.343,2.343,0,4,0s3,1.343,3,3-1.343,3-3,3S1,4.657,1,3Zm6.772,5.706c.289,.462,.304,1.045,.039,1.521-.264,.477-.767,.772-1.312,.772H1.5c-.545,0-1.047-.296-1.312-.772-.265-.477-.25-1.06,.039-1.521,.656-1.053,2.102-1.706,3.772-1.706s3.116,.653,3.772,1.706Zm-3.772,10.294c-1.657,0-3-1.343-3-3s1.343-3,3-3,3,1.343,3,3-1.343,3-3,3Zm3.772,2.706c.289,.462,.304,1.045,.039,1.521-.264,.477-.767,.772-1.312,.772H1.5c-.545,0-1.047-.296-1.312-.772-.265-.477-.25-1.06,.039-1.521,.656-1.053,2.102-1.706,3.772-1.706s3.116,.653,3.772,1.706Z"/></svg>
