<?xml version="1.0" encoding="UTF-8"?>
<svg xmlns="http://www.w3.org/2000/svg" id="Layer_1" data-name="Layer 1" viewBox="0 0 24 24" width="512" height="512"><path d="M9.769,24a4.153,4.153,0,0,1-.944-.129,3.728,3.728,0,0,1-.77-6.95A5.934,5.934,0,0,1,8,15.971a6.109,6.109,0,0,1,5.143-5.906,6.228,6.228,0,0,1,6.628,3.675h0a1.692,1.692,0,0,0,.338.1,5.149,5.149,0,0,1-.154,10.024A5.51,5.51,0,0,1,18.845,24Zm4.272-11a3.386,3.386,0,0,0-.479.034,3.013,3.013,0,0,0-2.473,2.306,3.067,3.067,0,0,0-.093.686,2.983,2.983,0,0,0,.067.68A2.447,2.447,0,0,1,9.62,19.491c-.3.125-.721.492-.6.95a.793.793,0,0,0,.551.526A1.159,1.159,0,0,0,9.808,21h9.009a2.413,2.413,0,0,0,.479-.062,2.15,2.15,0,0,0,.046-4.195,3.045,3.045,0,0,1-2.334-1.825v0A3.2,3.2,0,0,0,14.041,13ZM5.068,16.933a1.5,1.5,0,0,0-.015-2.122C.068,9.973,4.889,1.437,11.613,3.221A11.367,11.367,0,0,0,8.722,6.855a1.5,1.5,0,0,0,2.709,1.29,8.772,8.772,0,0,1,2.552-2.987A2.662,2.662,0,0,0,13.247.585,9.945,9.945,0,0,0,0,9.9a9.825,9.825,0,0,0,2.947,7.047,1.5,1.5,0,0,0,2.121-.014Z"/></svg>
