<?xml version="1.0" encoding="UTF-8"?>
<svg xmlns="http://www.w3.org/2000/svg" id="Layer_1" data-name="Layer 1" viewBox="0 0 24 24" width="512" height="512"><path d="M23.871,6.733c-.336-.758-1.225-1.1-1.98-.763l-.891,.395V1.5c0-.829-.672-1.5-1.5-1.5s-1.5,.671-1.5,1.5V7.697l-2,.888V1.5c0-.829-.672-1.5-1.5-1.5s-1.5,.671-1.5,1.5V9.916l-2,.888V1.5c0-.829-.671-1.5-1.5-1.5s-1.5,.671-1.5,1.5V12.134l-2,.888V1.5c0-.829-.671-1.5-1.5-1.5s-1.5,.671-1.5,1.5V14.353l-2.108,.935c-.757,.336-1.099,1.223-.763,1.979,.249,.56,.797,.892,1.372,.892,.203,0,.41-.041,.608-.129l.891-.395v4.865c0,.828,.671,1.5,1.5,1.5s1.5-.672,1.5-1.5v-6.196l2-.888v7.083c0,.828,.671,1.5,1.5,1.5s1.5-.672,1.5-1.5V14.085l2-.888v9.302c0,.828,.672,1.5,1.5,1.5s1.5-.672,1.5-1.5V11.867l2-.888v11.521c0,.828,.672,1.5,1.5,1.5s1.5-.672,1.5-1.5V9.648l2.108-.935c.758-.336,1.099-1.223,.763-1.979Z"/></svg>
