<?xml version="1.0" encoding="UTF-8"?>
<svg xmlns="http://www.w3.org/2000/svg" id="Layer_1" data-name="Layer 1" viewBox="0 0 24 24" width="512" height="512"><g><path d="M21,19a4.876,4.876,0,0,1-2.8-.9.336.336,0,0,0-.406,0,4.914,4.914,0,0,1-5.594,0,.336.336,0,0,0-.406,0,4.914,4.914,0,0,1-5.594,0,.336.336,0,0,0-.406,0,4.764,4.764,0,0,1-5.05.3,1.5,1.5,0,0,1,1.506-2.6,1.706,1.706,0,0,0,1.806-.149,3.349,3.349,0,0,1,3.883,0,1.852,1.852,0,0,0,2.117,0,3.349,3.349,0,0,1,3.883,0,1.852,1.852,0,0,0,2.117,0,3.349,3.349,0,0,1,3.883,0,1.7,1.7,0,0,0,1.8.148,1.5,1.5,0,0,1,1.506,2.6A4.5,4.5,0,0,1,21,19Z"/><path d="M23.253,23.4a1.5,1.5,0,0,0-1.506-2.6,1.708,1.708,0,0,1-1.8-.148,3.349,3.349,0,0,0-3.883,0,1.852,1.852,0,0,1-2.117,0,3.349,3.349,0,0,0-3.883,0,1.852,1.852,0,0,1-2.117,0,3.349,3.349,0,0,0-3.883,0,1.709,1.709,0,0,1-1.806.149A1.5,1.5,0,0,0,.747,23.4a4.764,4.764,0,0,0,5.05-.3.335.335,0,0,1,.406,0,4.914,4.914,0,0,0,5.594,0,.335.335,0,0,1,.406,0,4.914,4.914,0,0,0,5.594,0,.335.335,0,0,1,.406,0A4.876,4.876,0,0,0,21,24,4.5,4.5,0,0,0,23.253,23.4Z"/><path d="M15.678,7H13.5V1.526a1.5,1.5,0,1,0-3,0V7H8.322a1.007,1.007,0,0,0-.706,1.709l3.369,3.368a1.435,1.435,0,0,0,2.03,0h0l3.369-3.368A1.006,1.006,0,0,0,15.678,7Z"/></g></svg>
