<?xml version="1.0" encoding="UTF-8"?>
<svg xmlns="http://www.w3.org/2000/svg" id="Layer_1" data-name="Layer 1" viewBox="0 0 24 24" width="512" height="512"><path d="M20,20V8.462C20,5.722,18.231.427,11.541,0A2.424,2.424,0,0,0,9.05,1.687c-.621,2-1.576,3.24-2.917,3.784A3.37,3.37,0,0,0,4,8.6,2.406,2.406,0,0,0,6.4,11H9.437A4.808,4.808,0,0,1,7.16,12.794,5.285,5.285,0,0,0,4,17.573V20a2,2,0,0,0,0,4H20a2,2,0,0,0,0-4ZM7,17.573A2.253,2.253,0,0,1,8.391,15.53a7.318,7.318,0,0,0,4.625-5.783A1.5,1.5,0,0,0,11.536,8H7.81a8.333,8.333,0,0,0,3.955-4.968A5.477,5.477,0,0,1,17,8.462V20H7Z"/></svg>
