<?xml version="1.0" encoding="UTF-8"?>
<svg xmlns="http://www.w3.org/2000/svg" id="Layer_1" data-name="Layer 1" viewBox="0 0 24 24" width="512" height="512"><path d="M14.206,24.018a3.268,3.268,0,0,1-1.946-.653L9.985,21.448,7.69,23.32a3.288,3.288,0,0,1-3.928.065,3.235,3.235,0,0,1-1.2-3.675l.7-2.379L1.354,15.938A3.285,3.285,0,0,1,3.292,10H5.967l.9-2.731a3.3,3.3,0,0,1,6.253.012L14.02,10h2.688a3.286,3.286,0,0,1,1.939,5.938l-1.935,1.413.645,2.437a3.207,3.207,0,0,1-1.226,3.6A3.29,3.29,0,0,1,14.206,24.018ZM10,18a1.494,1.494,0,0,1,.967.354l3.151,2.658c.045.029.136.027.26-.062a.245.245,0,0,0,.1-.317l-.929-3.506a1.5,1.5,0,0,1,.565-1.595l2.762-2.016A.286.286,0,0,0,16.708,13H12.936a1.5,1.5,0,0,1-1.425-1.029L10.269,8.209A.279.279,0,0,0,9.722,8.2L8.476,11.971A1.5,1.5,0,0,1,7.051,13H3.292a.286.286,0,0,0-.168.516l2.761,2.016a1.5,1.5,0,0,1,.553,1.637L5.424,20.6c-.058.179-.029.265.093.354a.268.268,0,0,0,.335,0l3.2-2.612A1.492,1.492,0,0,1,10,18ZM20,7.146l1.481,1.089a.809.809,0,0,0,1.25-.9l-.572-1.771,1.506-1.1A.809.809,0,0,0,23.188,3H21.334l-.563-1.756a.813.813,0,0,0-1.542,0L18.666,3H16.813a.809.809,0,0,0-.478,1.463l1.506,1.1-.572,1.771a.788.788,0,0,0,.3.906.8.8,0,0,0,.953-.005Z"/></svg>
