<?xml version="1.0" encoding="UTF-8"?>
<svg xmlns="http://www.w3.org/2000/svg" id="Layer_1" data-name="Layer 1" viewBox="0 0 24 24" width="512" height="512"><path d="M19.562,2.756C16.854,.481,13.424-.43,9.908,.188,4.614,1.12,.562,5.518,.056,10.884c-.312,3.311,.734,6.474,2.947,8.905,2.435,2.676,6.091,4.21,10.031,4.21h5.466c3.032,0,5.5-2.467,5.5-5.5v-6.175c0-3.713-1.617-7.201-4.438-9.569Zm1.438,15.744c0,1.378-1.121,2.5-2.5,2.5h-5.466c-3.098,0-5.945-1.177-7.812-3.229-1.638-1.799-2.411-4.145-2.18-6.604,.374-3.962,3.48-7.336,7.386-8.023,.539-.095,1.074-.142,1.603-.142,2.052,0,3.998,.705,5.603,2.052,2.14,1.796,3.367,4.446,3.367,7.271v6.175Zm-4-10.5v4.474c0,.891-1.077,1.337-1.707,.707l-1.176-1.176-4.056,4.056c-.293,.293-.677,.439-1.061,.439s-.768-.146-1.061-.439c-.586-.585-.586-1.536,0-2.121l4.056-4.056-1.176-1.176c-.63-.63-.184-1.707,.707-1.707h4.474c.552,0,1,.448,1,1Z"/></svg>
