<?xml version="1.0" encoding="UTF-8"?>
<svg xmlns="http://www.w3.org/2000/svg" id="Layer_1" data-name="Layer 1" viewBox="0 0 24 24" width="512" height="512"><path d="M22.925,5.695c-.663-.332-1.443-.262-2.037,.183l-1.944,1.882c-.364-2.683-2.664-4.76-5.444-4.76H5.5C2.467,3,0,5.468,0,8.5v7c0,3.032,2.467,5.5,5.5,5.5H13.5c2.772,0,5.067-2.065,5.441-4.736l1.947,1.846c.346,.258,.753,.391,1.165,.391,.335,0,.672-.087,.98-.265,.63-.364,.967-1.088,.967-1.816V7.434c0-.741-.412-1.408-1.075-1.739Zm-6.925,9.805c0,1.379-1.121,2.5-2.5,2.5H5.5c-1.378,0-2.5-1.121-2.5-2.5v-7c0-1.379,1.122-2.5,2.5-2.5H13.5c1.379,0,2.5,1.121,2.5,2.5v7Z"/></svg>
