<?xml version="1.0" encoding="UTF-8"?>
<svg xmlns="http://www.w3.org/2000/svg" id="Layer_1" data-name="Layer 1" viewBox="0 0 24 24" width="512" height="512"><path d="M23.788,3.725A8.157,8.157,0,0,0,20.294.212a2.327,2.327,0,0,0-3.276,2.134V3.951C13.693,2.138,9.181,2.988,6.085,6.085S2.132,13.729,3.949,17.018h-1.6A2.327,2.327,0,0,0,.212,20.294a8.157,8.157,0,0,0,3.513,3.494A2.326,2.326,0,0,0,7,21.654V20.046a7.917,7.917,0,0,0,3.788.95,10.219,10.219,0,0,0,7.127-3.081c3.091-3.091,3.942-7.59,2.144-10.915h1.595A2.326,2.326,0,0,0,23.788,3.725ZM15.794,15.794c-2.249,2.25-5.465,2.867-7.648,1.471a6.072,6.072,0,0,1-1.411-1.411c-1.4-2.182-.778-5.4,1.471-7.648A7.189,7.189,0,0,1,13.184,6a5,5,0,0,1,2.716.765,6.012,6.012,0,0,1,1.365,1.381C18.661,10.328,18.043,13.545,15.794,15.794Zm-1.147-3.26a1.5,1.5,0,0,1-.181,2.113A5.446,5.446,0,0,1,11,16h-.5a1.5,1.5,0,0,1,0-3H11a2.6,2.6,0,0,0,1.537-.646A1.5,1.5,0,0,1,14.647,12.534Z"/></svg>
