<?xml version="1.0" encoding="UTF-8"?>
<svg xmlns="http://www.w3.org/2000/svg" id="Layer_1" data-name="Layer 1" viewBox="0 0 24 24" width="512" height="512"><path d="M22.315,7.836l-1.2-1.171v-2.665c0-2.206-1.794-4-4-4H7.115C4.91,0,3.115,1.794,3.115,4v2.453c-.023,.02-1.42,1.374-1.42,1.374-1.077,1.032-1.695,2.48-1.695,3.972v6.702c0,3.033,2.467,5.5,5.5,5.5h13c3.032,0,5.5-2.467,5.5-5.5v-6.702c0-1.492-.617-2.939-1.685-3.962Zm-13.7-3.836h7c1.972,.034,1.971,2.967,0,3h-7c-1.972-.033-1.971-2.967,0-3Zm0,5h5c1.972,.034,1.971,2.967,0,3h-5c-1.972-.033-1.971-2.967,0-3Zm9.885,12H5.5c-1.378,0-2.5-1.122-2.5-2.5v-6.338l5.226,5.227c2.06,2.137,5.729,2.135,7.792-.014l4.982-5.109v6.233c0,1.378-1.121,2.5-2.5,2.5Z"/></svg>
