<?xml version="1.0" encoding="UTF-8"?>
<svg xmlns="http://www.w3.org/2000/svg" id="Layer_1" data-name="Layer 1" viewBox="0 0 24 24" width="512" height="512"><path d="M18.5,0H5.5C2.468,0,0,2.467,0,5.5v1c0,2.481,2.019,4.5,4.5,4.5h15c2.481,0,4.5-2.019,4.5-4.5v-1c0-3.033-2.468-5.5-5.5-5.5Zm2.5,6.5c0,.827-.673,1.5-1.5,1.5h-.586c.055-.156,.086-.325,.086-.5,0-.829-.672-1.5-1.5-1.5H6.5c-.828,0-1.5,.671-1.5,1.5,0,.175,.03,.344,.086,.5h-.586c-.827,0-1.5-.673-1.5-1.5v-1c0-1.378,1.121-2.5,2.5-2.5h13c1.379,0,2.5,1.122,2.5,2.5v1ZM11,14.5v5c0,2.481-2.019,4.5-4.5,4.5s-4.5-2.019-4.5-4.5c0-1.425,.654-2.81,1.751-3.706,.64-.523,1.587-.429,2.11,.212,.524,.642,.43,1.586-.212,2.111-.395,.322-.649,.865-.649,1.383,0,.827,.673,1.5,1.5,1.5s1.5-.673,1.5-1.5v-5c0-.829,.672-1.5,1.5-1.5s1.5,.671,1.5,1.5Zm11,5c0,2.481-2.019,4.5-4.5,4.5s-4.5-2.019-4.5-4.5v-5c0-.829,.672-1.5,1.5-1.5s1.5,.671,1.5,1.5v5c0,.827,.673,1.5,1.5,1.5s1.5-.673,1.5-1.5c0-.518-.255-1.061-.649-1.383-.642-.524-.736-1.469-.212-2.111,.523-.642,1.47-.736,2.11-.212,1.097,.896,1.751,2.281,1.751,3.706Z"/></svg>
