<?xml version="1.0" encoding="UTF-8"?>
<svg xmlns="http://www.w3.org/2000/svg" id="Layer_1" data-name="Layer 1" viewBox="0 0 24 24" width="512" height="512"><path d="M20.017,4.059A12.015,12.015,0,0,0,.1,11.4,11.865,11.865,0,0,0,3.614,21.488,5.317,5.317,0,0,0,7.342,23h9.322a5.175,5.175,0,0,0,3.574-1.371A11.969,11.969,0,0,0,20.017,4.059ZM18.183,19.444A2.225,2.225,0,0,1,16.664,20H7.342a2.333,2.333,0,0,1-1.636-.662,8.894,8.894,0,0,1-2.631-7.564A9.008,9.008,0,0,1,10.952,4.06C19.411,3,24.471,13.614,18.183,19.444Zm-.371-3.215a1.505,1.505,0,0,1-2.041.583l-3.344-1.858a2,2,0,1,1,1.458-2.623l3.344,1.857A1.5,1.5,0,0,1,17.812,16.229Zm-.229-4.393a1.5,1.5,0,0,1-2.019-.653c-2.9-5.1-10.171-.324-6.65,4.362A1.5,1.5,0,1,1,6.6,17.455C.478,9.184,13.1.913,18.236,9.817A1.5,1.5,0,0,1,17.583,11.836Z"/></svg>
