<?xml version="1.0" encoding="UTF-8"?>
<svg xmlns="http://www.w3.org/2000/svg" id="Layer_1" data-name="Layer 1" viewBox="0 0 24 24" width="512" height="512"><path d="M18.5,17A5.506,5.506,0,0,0,24,11.5v-2A3.5,3.5,0,0,0,17.035,9H13.746A2.5,2.5,0,0,1,11.32,7.107l-.484-1.941A5.492,5.492,0,0,0,5.5,1h-1A4.505,4.505,0,0,0,0,5.5v6a5.507,5.507,0,0,0,5,5.477V20H1.5a1.5,1.5,0,0,0,0,3H20a4,4,0,0,0,4-4,1.5,1.5,0,0,0-3,0,1,1,0,0,1-1,1H17V17ZM3,11.5v-6A1.5,1.5,0,0,1,4.5,4h1A2.5,2.5,0,0,1,7.926,5.893L8.41,7.834A5.492,5.492,0,0,0,13.746,12H17.5A2.5,2.5,0,0,0,20,9.5a.5.5,0,0,1,1,0v2A2.5,2.5,0,0,1,18.5,14H5.5A2.5,2.5,0,0,1,3,11.5ZM14,20H8V17h6Z"/></svg>
