<?xml version="1.0" encoding="UTF-8"?>
<svg xmlns="http://www.w3.org/2000/svg" id="Layer_1" data-name="Layer 1" viewBox="0 0 24 24" width="512" height="512"><path d="M22.61,9.1a10.935,10.935,0,0,0-1.055-2.541,2,2,0,0,0-.363-2.333L19.778,2.808a2.055,2.055,0,0,0-2.325-.358A10.922,10.922,0,0,0,14.9,1.39,2,2,0,0,0,13,0H11A2,2,0,0,0,9.1,1.39,10.922,10.922,0,0,0,6.547,2.45a2.057,2.057,0,0,0-2.325.358L2.808,4.222a2,2,0,0,0-.363,2.333A10.935,10.935,0,0,0,1.39,9.1,2,2,0,0,0,0,11v2a2,2,0,0,0,1.39,1.9,10.953,10.953,0,0,0,1.055,2.541,2.007,2.007,0,0,0,.363,2.333l1.414,1.414a2.007,2.007,0,0,0,2.333.363A10.953,10.953,0,0,0,9.1,22.61,2,2,0,0,0,11,24h2a2,2,0,0,0,1.9-1.39,10.91,10.91,0,0,0,2.541-1.055,2.007,2.007,0,0,0,2.333-.363l1.414-1.414a2.007,2.007,0,0,0,.363-2.333A10.953,10.953,0,0,0,22.61,14.9,2,2,0,0,0,24,13V11A2,2,0,0,0,22.61,9.1ZM12,20a8.009,8.009,0,0,1-8-8C4.376,1.412,19.626,1.415,20,12A8.009,8.009,0,0,1,12,20ZM12,6.5c-7.268.232-7.267,10.769,0,11C19.268,17.268,19.267,6.73,12,6.5ZM12,8a1.5,1.5,0,0,1,0,3A1.5,1.5,0,0,1,12,8ZM8,12a1.5,1.5,0,0,1,3,0A1.5,1.5,0,0,1,8,12Zm4,4a1.5,1.5,0,0,1,0-3A1.5,1.5,0,0,1,12,16Zm2.5-2.5a1.5,1.5,0,0,1,0-3A1.5,1.5,0,0,1,14.5,13.5Z"/></svg>
