<?xml version="1.0" encoding="UTF-8"?>
<svg xmlns="http://www.w3.org/2000/svg" id="Layer_1" data-name="Layer 1" viewBox="0 0 24 24" width="512" height="512"><path d="M22.5,9h-.551c-.17-1.173-.916-2.154-1.949-2.649v-1.351c0-2.757-2.243-5-5-5h-6c-2.757,0-5,2.243-5,5v1.351c-1.033,.495-1.779,1.476-1.949,2.649h-.551c-.828,0-1.5,.672-1.5,1.5s.672,1.5,1.5,1.5h.5v6.5c0,3.032,2.468,5.5,5.5,5.5h9c3.032,0,5.5-2.468,5.5-5.5v-6.5h.5c.828,0,1.5-.672,1.5-1.5s-.672-1.5-1.5-1.5ZM9,3h6c1.103,0,2,.897,2,2v1H7v-1c0-1.103,.897-2,2-2Zm10,15.5c0,1.379-1.121,2.5-2.5,2.5H7.5c-1.379,0-2.5-1.121-2.5-2.5V9.5c0-.275,.225-.5,.5-.5h1.808c-.192,.375-.308,.797-.308,1.247,0,1.52,1.232,2.753,2.753,2.753h4.495c1.52,0,2.753-1.232,2.753-2.753,0-.451-.116-.872-.308-1.247h1.808c.275,0,.5,.225,.5,.5v9Zm-8-1c0,.828-.672,1.5-1.5,1.5s-1.5-.672-1.5-1.5,.672-1.5,1.5-1.5,1.5,.672,1.5,1.5Zm5,0c0,.828-.672,1.5-1.5,1.5s-1.5-.672-1.5-1.5,.672-1.5,1.5-1.5,1.5,.672,1.5,1.5Z"/></svg>
