<?xml version="1.0" encoding="UTF-8"?>
<svg xmlns="http://www.w3.org/2000/svg" id="Layer_1" data-name="Layer 1" viewBox="0 0 24 24" width="512" height="512"><path d="M14,17c-.052,3.948-3.948,3.948-4,0C10.052,13.052,13.948,13.052,14,17Zm5,5.5v-7a1.5,1.5,0,0,0-3,0v7a1.5,1.5,0,0,0,3,0Zm-11,0v-7a1.5,1.5,0,0,0-3,0v7a1.5,1.5,0,0,0,3,0ZM9.807,11.969a1.5,1.5,0,0,0,1.161-1.776c-.888-4.217-5.051-4.212-5.936,0a1.5,1.5,0,1,0,2.936.614c.01-.046.02-.09.032-.134.012.044.022.088.032.134A1.5,1.5,0,0,0,9.5,12,1.555,1.555,0,0,0,9.807,11.969Zm8,0a1.5,1.5,0,0,0,1.161-1.776c-.888-4.217-5.051-4.212-5.936,0a1.5,1.5,0,1,0,2.936.614c.01-.046.02-.09.032-.134.012.044.022.088.032.134A1.5,1.5,0,0,0,17.5,12,1.555,1.555,0,0,0,17.807,11.969Zm5.7,3.46A12.058,12.058,0,0,0,12,0,12.058,12.058,0,0,0,.5,15.429a1.5,1.5,0,1,0,2.875-.858,9,9,0,1,1,17.254,0,1.5,1.5,0,0,0,2.875.858ZM12.571,23.986a1.5,1.5,0,1,0-.142-3c-.284.014-.574.014-.858,0a1.5,1.5,0,0,0-.142,3c.189.009.38.014.571.014S12.382,24,12.571,23.986Z"/></svg>
