<?xml version="1.0" encoding="UTF-8"?>
<svg xmlns="http://www.w3.org/2000/svg" id="Layer_1" data-name="Layer 1" viewBox="0 0 24 24" width="512" height="512"><path d="M17.975,7.527c1.365,1.364,1.365,3.586,0,4.95l-2.083,2.083c-.293,.293-.677,.439-1.061,.439s-.768-.146-1.061-.439c-.586-.586-.586-1.535,0-2.121l2.083-2.083c.195-.195,.195-.513,0-.708l-2.088-2.088c-.586-.586-.586-1.535,0-2.121s1.535-.586,2.121,0l2.088,2.088Zm-7.74,.033c.586-.586,.586-1.535,0-2.121s-1.535-.586-2.121,0l-2.088,2.088c-1.365,1.364-1.365,3.586,0,4.95l2.083,2.083c.293,.293,.677,.439,1.061,.439s.768-.146,1.061-.439c.586-.586,.586-1.535,0-2.121l-2.083-2.083c-.195-.195-.195-.513,0-.708l2.088-2.088Zm13.766-2.061V14.5c0,3.032-2.467,5.5-5.5,5.5h-1.172l-3.708,3.065c-.448,.399-1.024,.601-1.606,.601-.595,0-1.196-.21-1.675-.636l-3.598-3.03h-1.241c-3.033,0-5.5-2.468-5.5-5.5V5.5C0,2.468,2.467,0,5.5,0h13c3.033,0,5.5,2.468,5.5,5.5Zm-3,0c0-1.379-1.122-2.5-2.5-2.5H5.5c-1.378,0-2.5,1.121-2.5,2.5V14.5c0,1.379,1.122,2.5,2.5,2.5h1.789c.354,0,.696,.125,.966,.353l3.749,3.158,3.83-3.167c.269-.222,.607-.344,.956-.344h1.711c1.378,0,2.5-1.121,2.5-2.5V5.5Z"/></svg>
