<?xml version="1.0" encoding="UTF-8"?>
<svg xmlns="http://www.w3.org/2000/svg" id="Layer_1" data-name="Layer 1" viewBox="0 0 24 24" width="512" height="512"><path d="M11.5,24h-5a1.5,1.5,0,0,1,0-3h5A1.5,1.5,0,0,1,11.5,24ZM19,22.5A1.5,1.5,0,0,0,17.5,21h-1a1.5,1.5,0,0,0,0,3h1A1.5,1.5,0,0,0,19,22.5Zm0-5A1.5,1.5,0,0,0,17.5,16h-5a1.5,1.5,0,0,0,0,3h5A1.5,1.5,0,0,0,19,17.5Zm-10,0A1.5,1.5,0,0,0,7.5,16h-1a1.5,1.5,0,0,0,0,3h1A1.5,1.5,0,0,0,9,17.5Zm-6.151.294a1.5,1.5,0,0,0,.535-2.053,2.731,2.731,0,0,1,.53-3.424A3.411,3.411,0,0,0,5,9.174a5.347,5.347,0,0,1-.021-1.889,5.184,5.184,0,0,1,9.792-1.32,3.42,3.42,0,0,0,2.448,1.9,4.723,4.723,0,0,1,3.164,6.924,1.5,1.5,0,1,0,2.64,1.424A7.741,7.741,0,0,0,17.812,4.923a.44.44,0,0,1-.325-.242A8.239,8.239,0,0,0,8.559.141,8.13,8.13,0,0,0,2.024,6.794a8.325,8.325,0,0,0,.035,2.95A.431.431,0,0,1,1.9,10.1,5.753,5.753,0,0,0,.8,17.259a1.5,1.5,0,0,0,2.053.535Z"/></svg>
