<?xml version="1.0" encoding="UTF-8"?>
<svg xmlns="http://www.w3.org/2000/svg" id="Layer_1" data-name="Layer 1" viewBox="0 0 24 24" width="512" height="512"><path d="M12,24A12.013,12.013,0,0,1,0,12C.6-3.9,23.4-3.893,24,12A12.013,12.013,0,0,1,12,24ZM12,3a9.011,9.011,0,0,0-9,9c.453,11.923,17.549,11.92,18,0A9.011,9.011,0,0,0,12,3Zm4.789,11.024A15.4,15.4,0,0,1,12,15,15.4,15.4,0,0,1,7.2,14.024a1,1,0,0,0-1.052,1.518A6.836,6.836,0,0,0,12,19a6.827,6.827,0,0,0,5.842-3.458A1,1,0,0,0,16.789,14.024ZM7.944,11.762l1.343.988a.735.735,0,0,0,1.134-.818L9.9,10.326l1.366-1A.734.734,0,0,0,10.835,8H9.154L8.643,6.407a.738.738,0,0,0-1.4,0L6.733,8H5.052a.734.734,0,0,0-.433,1.327l1.366,1-.519,1.606a.715.715,0,0,0,.27.822.728.728,0,0,0,.864,0Zm8.019,0,1.343.988a.735.735,0,0,0,1.134-.818l-.519-1.606,1.366-1A.734.734,0,0,0,18.854,8H17.173l-.511-1.593a.737.737,0,0,0-1.4,0L14.753,8H13.072a.734.734,0,0,0-.434,1.327l1.367,1-.52,1.606a.715.715,0,0,0,.27.822.728.728,0,0,0,.864,0Z"/></svg>
