<?xml version="1.0" encoding="UTF-8"?>
<svg xmlns="http://www.w3.org/2000/svg" id="Layer_1" data-name="Layer 1" viewBox="0 0 24 24" width="512" height="512"><path d="M15.5,17h-2c-.829,0-1.5-.672-1.5-1.5s.671-1.5,1.5-1.5h2c.829,0,1.5,.672,1.5,1.5s-.671,1.5-1.5,1.5Zm-7-3c-.828,0-1.5,.672-1.5,1.5s.672,1.5,1.5,1.5,1.5-.672,1.5-1.5-.672-1.5-1.5-1.5Zm8.5-3.5c0-.828-.671-1.5-1.5-1.5h-2c-.829,0-1.5,.672-1.5,1.5s.671,1.5,1.5,1.5h2c.829,0,1.5-.672,1.5-1.5Zm-8.5-1.5c-.828,0-1.5,.672-1.5,1.5s.672,1.5,1.5,1.5,1.5-.672,1.5-1.5-.672-1.5-1.5-1.5Zm13.5,9.5V7.5c0-2.979-2.379-5.411-5.337-5.498-.562-1.183-1.769-2.002-3.163-2.002h-3c-1.395,0-2.601,.819-3.163,2.002-2.958,.087-5.337,2.52-5.337,5.498v11c0,3.032,2.467,5.5,5.5,5.5h9c3.033,0,5.5-2.468,5.5-5.5ZM8.5,5c.829,0,1.5-.672,1.5-1.5,0-.275,.224-.5,.5-.5h3c.276,0,.5,.225,.5,.5,0,.828,.671,1.5,1.5,1.5h1c1.378,0,2.5,1.121,2.5,2.5v11c0,1.379-1.122,2.5-2.5,2.5H7.5c-1.378,0-2.5-1.121-2.5-2.5V7.5c0-1.379,1.122-2.5,2.5-2.5h1Z"/></svg>
