<?xml version="1.0" encoding="UTF-8"?>
<svg xmlns="http://www.w3.org/2000/svg" id="Layer_1" data-name="Layer 1" viewBox="0 0 24 24" width="512" height="512"><path d="M24,5.5A1.5,1.5,0,0,1,22.5,7H21.089l.7,1.224a1.5,1.5,0,0,1-2.6,1.492l-.688-1.2-.688,1.2a1.5,1.5,0,0,1-2.6-1.492L15.911,7H14.5a1.5,1.5,0,0,1,0-3h1.411l-.7-1.224a1.5,1.5,0,0,1,2.6-1.492l.688,1.2.688-1.2a1.5,1.5,0,0,1,2.6,1.492L21.089,4H22.5A1.5,1.5,0,0,1,24,5.5ZM15.5,15H11.105l2.174-3.747a1.5,1.5,0,0,0-2.6-1.506L8.5,13.511,6.316,9.747a1.5,1.5,0,0,0-2.595,1.506L5.9,15H1.5a1.5,1.5,0,0,0,0,3H5.9L3.721,21.747a1.5,1.5,0,0,0,2.6,1.506L8.5,19.489l2.184,3.764a1.5,1.5,0,0,0,2.6-1.506L11.105,18H15.5A1.5,1.5,0,0,0,15.5,15Z"/></svg>
