<?xml version="1.0" encoding="UTF-8"?>
<svg xmlns="http://www.w3.org/2000/svg" id="Layer_1" data-name="Layer 1" viewBox="0 0 24 24" width="512" height="512"><path d="M5,6.663v10.674c1.182,.562,2,1.767,2,3.163,0,1.933-1.567,3.5-3.5,3.5s-3.5-1.567-3.5-3.5c0-1.396,.818-2.601,2-3.163V6.663C.818,6.101,0,4.896,0,3.5,0,1.567,1.567,0,3.5,0s3.5,1.567,3.5,3.5c0,1.396-.818,2.601-2,3.163Zm16,10.751v-5.914c0-.829-.672-1.5-1.5-1.5s-1.5,.671-1.5,1.5v5.914c-1.182,.562-2,1.767-2,3.163,0,1.933,1.567,3.5,3.5,3.5s3.5-1.567,3.5-3.5c0-1.396-.818-2.601-2-3.163Zm.621-12.914l1.939-1.939c.586-.585,.586-1.536,0-2.121-.586-.586-1.535-.586-2.121,0l-1.939,1.939-1.939-1.939c-.586-.586-1.535-.586-2.121,0-.586,.585-.586,1.536,0,2.121l1.939,1.939-1.939,1.939c-.586,.585-.586,1.536,0,2.121,.293,.293,.677,.439,1.061,.439s.768-.146,1.061-.439l1.939-1.939,1.939,1.939c.293,.293,.677,.439,1.061,.439s.768-.146,1.061-.439c.586-.585,.586-1.536,0-2.121l-1.939-1.939Z"/></svg>
