<?xml version="1.0" encoding="UTF-8"?>
<svg xmlns="http://www.w3.org/2000/svg" id="Layer_1" data-name="Layer 1" viewBox="0 0 24 24" width="512" height="512"><path d="M12,16H7V8h5v8ZM5,8H0v8H5V8Zm7-3V2c0-1.105-.895-2-2-2h-1c-1.105,0-2,.895-2,2v3h5Zm-5,14v3c0,1.105,.895,2,2,2h1c1.105,0,2-.895,2-2v-3H7Zm-7,0v3c0,1.105,.895,2,2,2h1c1.105,0,2-.895,2-2v-3H0ZM5,5V2c0-1.105-.895-2-2-2h-1C.895,0,0,.895,0,2v3H5Zm14.122,2.237l-4.762,1.524,2.63,8.188,4.762-1.524-2.63-8.188Zm-.915-2.857l-.992-2.989c-.337-1.052-1.463-1.632-2.515-1.295l-.952,.305c-1.052,.337-1.632,1.463-1.295,2.515l.992,2.989,4.762-1.524Zm-.303,15.426l.839,2.803c.337,1.052,1.463,1.632,2.515,1.295l.952-.305c1.052-.337,1.632-1.463,1.295-2.515l-.839-2.803-4.762,1.524Z"/></svg>
