<?xml version="1.0" encoding="UTF-8"?>
<svg xmlns="http://www.w3.org/2000/svg" id="Layer_1" data-name="Layer 1" viewBox="0 0 24 24" width="512" height="512"><path d="M22.5,24H3.5c-1.93,0-3.5-1.57-3.5-3.5V1.5C.033-.472,2.967-.471,3,1.5V20.5c0,.275,.224,.5,.5,.5H22.5c1.972,.034,1.971,2.967,0,3ZM14,12.5c.034,1.972,2.967,1.971,3,0-.034-1.972-2.967-1.971-3,0Zm6-6c.034,1.972,2.967,1.971,3,0-.034-1.972-2.967-1.971-3,0Zm-9,11c.034,1.972,2.967,1.971,3,0-.034-1.972-2.967-1.971-3,0Zm9-1c.034,1.972,2.967,1.971,3,0-.034-1.972-2.967-1.971-3,0ZM9,4.5c.034,1.972,2.967,1.971,3,0-.034-1.972-2.967-1.971-3,0Zm-4,7c.034,1.972,2.967,1.971,3,0-.034-1.972-2.967-1.971-3,0Z"/></svg>
