<?xml version="1.0" encoding="UTF-8"?>
<svg xmlns="http://www.w3.org/2000/svg" id="Layer_1" data-name="Layer 1" viewBox="0 0 24 24" width="512" height="512"><path d="M20,7h-1v-2.5c0-2.481-2.019-4.5-4.5-4.5H7.5C5.019,0,3,2.019,3,4.5v5.757c-1.746,.619-3,2.287-3,4.243v5c0,2.481,2.019,4.5,4.5,4.5h7c2.481,0,4.5-2.019,4.5-4.5v-.5h4c2.209,0,4-1.791,4-4v-4c0-2.209-1.791-4-4-4ZM7.5,3h7c.827,0,1.5,.673,1.5,1.5v2.5h-4c-1.864,0-3.43,1.275-3.874,3h-2.126V4.5c0-.827,.673-1.5,1.5-1.5Zm3.88,10l-2.738,2.737c-.34,.34-.929,.339-1.268,0l-2.738-2.737h6.743Zm1.62,6.5c0,.827-.673,1.5-1.5,1.5H4.5c-.827,0-1.5-.673-1.5-1.5v-3.895l2.253,2.253c1.451,1.512,4.06,1.512,5.511,0l2.236-2.236v3.878Zm6.5-6.5c-1.972-.034-1.971-2.967,0-3,1.972,.034,1.971,2.967,0,3Z"/></svg>
