<?xml version="1.0" encoding="UTF-8"?>
<svg xmlns="http://www.w3.org/2000/svg" id="Layer_1" data-name="Layer 1" viewBox="0 0 24 24" width="512" height="512"><path d="M22.5,21c-.828,0-1.5-.671-1.5-1.5V4.5c0-.829,.672-1.5,1.5-1.5s1.5,.671,1.5,1.5v15c0,.829-.672,1.5-1.5,1.5Zm-5,0c-.828,0-1.5-.671-1.5-1.5V4.5c0-.829,.672-1.5,1.5-1.5s1.5,.671,1.5,1.5v15c0,.829-.672,1.5-1.5,1.5Zm-13.874-.421c-.559,0-1.12-.13-1.641-.394-1.225-.621-1.985-1.859-1.985-3.232V7.047c0-1.373,.761-2.611,1.985-3.231,1.209-.614,2.687-.494,3.781,.311l6.754,4.953c.94,.689,1.48,1.754,1.48,2.921s-.54,2.232-1.481,2.922l-6.754,4.953c-.635,.467-1.384,.705-2.139,.705Zm.003-14.161c-.096,0-.193,.024-.289,.073-.223,.113-.341,.305-.341,.556v9.906c0,.25,.118,.442,.341,.556,.224,.113,.448,.095,.649-.053l6.755-4.954c.167-.122,.254-.295,.254-.502s-.088-.38-.254-.502L3.991,6.544c-.115-.084-.236-.126-.361-.126Z"/></svg>
