<?xml version="1.0" encoding="UTF-8"?>
<svg xmlns="http://www.w3.org/2000/svg" id="Layer_1" data-name="Layer 1" viewBox="0 0 24 24" width="512" height="512"><path d="M20.5,24a1.5,1.5,0,0,1-1.44-1.921c.119-.41.253-.792.386-1.168,1.221-2.468.157-5.931-1.192-7.648A11.872,11.872,0,0,1,17.4.838,1.5,1.5,0,0,1,20.1,2.162a8.866,8.866,0,0,0,.649,9.429c1.766,2.162,3.114,7.121,1.529,10.319-.114.325-.231.655-.336,1.011A1.5,1.5,0,0,1,20.5,24Zm-7,0a1.5,1.5,0,0,1-1.44-1.921c.119-.41.253-.792.386-1.168,1.221-2.468.157-5.931-1.192-7.648A11.872,11.872,0,0,1,10.4.838,1.5,1.5,0,0,1,13.1,2.162a8.866,8.866,0,0,0,.649,9.429c1.766,2.162,3.114,7.121,1.529,10.319-.114.325-.231.655-.336,1.011A1.5,1.5,0,0,1,13.5,24Zm-7,0a1.5,1.5,0,0,1-1.44-1.921c.119-.41.253-.792.386-1.168,1.221-2.468.157-5.931-1.192-7.648A11.872,11.872,0,0,1,3.4.838,1.5,1.5,0,0,1,6.1,2.162a8.866,8.866,0,0,0,.649,9.429C8.512,13.753,9.86,18.712,8.275,21.91c-.114.325-.231.655-.336,1.011A1.5,1.5,0,0,1,6.5,24Z"/></svg>
