<?xml version="1.0" encoding="UTF-8"?>
<svg xmlns="http://www.w3.org/2000/svg" id="Layer_1" data-name="Layer 1" viewBox="0 0 24 24" width="512" height="512"><path d="M24,16.2v4.3c0,1.93-1.57,3.5-3.5,3.5h-3.86c-2.725,0-5.215-1.102-6.833-3.021-.272-.323-.504-.668-.716-1.021,1.138-.071,2.241-.279,3.28-.63,1.049,1.063,2.578,1.671,4.269,1.671h3.86c.276,0,.5-.225,.5-.5v-4.3c0-1.413-.58-2.787-1.565-3.769,.359-1.065,.546-2.184,.552-3.335,.343,.205,.679,.427,.996,.687,1.917,1.576,3.017,3.914,3.017,6.416Zm-8.032-1.603c-1.822,2.163-4.631,3.403-7.707,3.403H3.499C1.569,18.001,0,16.431,0,14.501v-5.269C0,6.415,1.237,3.781,3.396,2.007,5.475,.299,8.091-.351,10.768,.179c3.618,.716,6.47,3.635,7.095,7.265,.452,2.626-.221,5.167-1.895,7.154Zm-2.968-3.185c0-1.476-.885-2.783-2.255-3.331l-2.376-.95c-.224-.09-.369-.304-.369-.545,0-.324,.263-.587,.587-.587h1.181c.181,0,.343,.094,.434,.251,.414,.717,1.332,.962,2.049,.547,.717-.415,.962-1.333,.547-2.049-.511-.884-1.385-1.486-2.368-1.678-.185-.618-.752-1.071-1.43-1.071-.717,0-1.314,.503-1.462,1.175-1.464,.452-2.538,1.802-2.538,3.412,0,1.476,.885,2.783,2.255,3.331l2.376,.95c.224,.09,.369,.304,.369,.545,0,.324-.263,.587-.587,.587h-1.181c-.181,0-.343-.094-.434-.251-.416-.717-1.333-.961-2.05-.547-.717,.415-.962,1.333-.547,2.05,.512,.883,1.385,1.485,2.368,1.677,.185,.618,.752,1.071,1.43,1.071,.717,0,1.313-.503,1.462-1.175,1.464-.452,2.538-1.802,2.538-3.412Z"/></svg>
