<?xml version="1.0" encoding="UTF-8"?>
<svg xmlns="http://www.w3.org/2000/svg" id="Layer_1" data-name="Layer 1" viewBox="0 0 24 24" width="512" height="512"><path d="M12,16.002c-.645,0-1.289-.175-1.864-.522L.724,9.783c-.449-.271-.724-.759-.724-1.283s.274-1.012,.724-1.283L10.137,1.521c1.149-.697,2.577-.695,3.728,0l9.412,5.696c.449,.271,.724,.759,.724,1.283s-.274,1.012-.724,1.283l-9.413,5.696c-.574,.349-1.219,.522-1.863,.522Zm-7.603-7.502l7.292,4.413c.192,.114,.43,.114,.62,0l7.293-4.413-7.292-4.413c-.193-.116-.431-.115-.62,0h0l-7.292,4.413Zm19.603,11c0-.828-.671-1.5-1.5-1.5h-6c-.829,0-1.5,.672-1.5,1.5s.671,1.5,1.5,1.5h6c.829,0,1.5-.672,1.5-1.5Zm-11.214,1.771c.426-.71,.196-1.632-.514-2.058L2.366,13.271c-.71-.428-1.632-.196-2.058,.515-.426,.71-.196,1.632,.514,2.058l9.906,5.943c.242,.146,.508,.214,.771,.214,.51,0,1.006-.26,1.288-.729Z"/></svg>
