<?xml version="1.0" encoding="UTF-8"?>
<svg xmlns="http://www.w3.org/2000/svg" id="Layer_1" data-name="Layer 1" viewBox="0 0 24 24" width="512" height="512"><path d="M11,12a2,2,0,0,1-4,0A2,2,0,0,1,11,12Zm4-2a2,2,0,0,0,0,4A2,2,0,0,0,15,10Zm1.332,7.748a1.5,1.5,0,0,0-1.655-2.5A5.48,5.48,0,0,1,12,16a5.485,5.485,0,0,1-2.668-.748,1.5,1.5,0,1,0-1.664,2.5A8.336,8.336,0,0,0,12,19,8.336,8.336,0,0,0,16.332,17.748ZM24,18.177a5.75,5.75,0,0,0-1.138-3.452,5.48,5.48,0,0,0-1.871-5.454A5.01,5.01,0,0,0,16.6,4.035C15.74,1.946,13.685,0,11.5,0A1.5,1.5,0,0,0,10,1.5,3.79,3.79,0,0,1,9.264,4H8A5.007,5.007,0,0,0,3.009,9.271a5.481,5.481,0,0,0-1.871,5.454A5.856,5.856,0,0,0,5.824,24H18.176A5.83,5.83,0,0,0,24,18.177ZM9.852,7a1.5,1.5,0,0,0,.914-.311,5.549,5.549,0,0,0,1.967-3.036A4.052,4.052,0,0,1,14,5.753,1.5,1.5,0,0,0,15.473,7H16a1.985,1.985,0,0,1,1.906,2.553,1.5,1.5,0,0,0,.743,1.747A2.485,2.485,0,0,1,19.8,14.481a1.5,1.5,0,0,0,.337,1.669A2.836,2.836,0,0,1,18.176,21H5.824a2.836,2.836,0,0,1-1.959-4.85A1.5,1.5,0,0,0,4.2,14.481,2.485,2.485,0,0,1,5.351,11.3a1.5,1.5,0,0,0,.743-1.747A1.985,1.985,0,0,1,8,7Z"/></svg>
