<?xml version="1.0" encoding="UTF-8"?>
<svg xmlns="http://www.w3.org/2000/svg" id="Layer_1" data-name="Layer 1" viewBox="0 0 24 24" width="512" height="512"><path d="M16.5,0H7.5C3.364,0,0,3.364,0,7.5v11c0,3.033,2.468,5.5,5.5,5.5h13c3.032,0,5.5-2.467,5.5-5.5V7.5c0-4.136-3.364-7.5-7.5-7.5Zm4.5,7.5v1.5h-2V3.76c1.205,.808,2,2.183,2,3.74Zm-9-1.5c-1.105,0-2,.895-2,2v1h-2V3h8v6h-2v-1c0-1.105-.895-2-2-2ZM5,3.76v5.24H3v-1.5c0-1.557,.795-2.932,2-3.74Zm14,17.19v-5.45c0-.829-.672-1.5-1.5-1.5s-1.5,.671-1.5,1.5v5.5H8v-5.5c0-.829-.672-1.5-1.5-1.5s-1.5,.671-1.5,1.5v5.45c-1.14-.232-2-1.242-2-2.45v-6.5h7c0,1.105,.895,2,2,2s2-.895,2-2h7v6.5c0,1.207-.86,2.217-2,2.45Z"/></svg>
