<?xml version="1.0" encoding="UTF-8"?>
<svg xmlns="http://www.w3.org/2000/svg" id="Layer_1" data-name="Layer 1" viewBox="0 0 24 24" width="512" height="512"><path d="M22.717,16.559L7.442,1.282C6.171,.012,4.351-.351,2.691,.338,1.031,1.025,0,2.568,0,4.365v14.135c0,3.032,2.467,5.5,5.5,5.5h14.135c1.797,0,3.34-1.031,4.028-2.691s.325-3.48-.945-4.75Zm-1.827,3.603c-.082,.196-.413,.839-1.256,.839H5.5c-1.378,0-2.5-1.121-2.5-2.5V4.365c0-.843,.642-1.175,.839-1.256,.093-.039,.295-.107,.545-.107,.28,0,.622,.087,.937,.401l2.688,2.689-1.08,1.08c-.586,.586-.586,1.535,0,2.121,.293,.293,.677,.439,1.061,.439s.768-.146,1.061-.439l1.08-1.08,1.768,1.768-1.08,1.08c-.586,.586-.586,1.535,0,2.121,.293,.293,.677,.439,1.061,.439s.768-.146,1.061-.439l1.08-1.08,1.759,1.759-1.08,1.098c-.581,.591-.573,1.54,.018,2.121,.292,.287,.672,.431,1.052,.431,.388,0,.776-.149,1.069-.448l1.062-1.08,2.697,2.697c.596,.596,.376,1.284,.294,1.481Zm-10.33-4.722c.429,.429,.558,1.074,.325,1.635-.232,.561-.779,.926-1.386,.926h-2c-.829,0-1.5-.672-1.5-1.5v-2c0-.606,.365-1.153,.926-1.386,.561-.233,1.207-.104,1.635,.325l2,2Z"/></svg>
