<?xml version="1.0" encoding="UTF-8"?>
<svg xmlns="http://www.w3.org/2000/svg" id="Layer_1" data-name="Layer 1" viewBox="0 0 24 24" width="512" height="512"><path d="M21.5,6h-.139a31.079,31.079,0,0,0-1.918-2.8,4.4,4.4,0,0,0-2.255-1.538C15.449.842,8.55.842,6.812,1.666A4.409,4.409,0,0,0,4.556,3.2,30.858,30.858,0,0,0,2.639,6H2.5A2.5,2.5,0,0,0,0,8.5v7a4.494,4.494,0,0,0,3,4.224V21a2,2,0,0,0,4,0V20H17v1a2,2,0,0,0,4,0V19.724A4.493,4.493,0,0,0,24,15.5v-7A2.5,2.5,0,0,0,21.5,6ZM6.926,5.043a1.431,1.431,0,0,1,.734-.5c1.385-.673,7.3-.673,8.681,0a1.422,1.422,0,0,1,.731.5,27.6,27.6,0,0,1,2.045,3.039c.052.124.972,1.791,1.3,2.543a62.184,62.184,0,0,0-16.839,0c.329-.75,1.251-2.419,1.3-2.546A27.526,27.526,0,0,1,6.926,5.043ZM19.5,17H4.5A1.5,1.5,0,0,1,3,15.5V13.715c.068,0,1.31-.162,2-.243V14.5a1.5,1.5,0,0,0,3,0V13.177a46.665,46.665,0,0,1,8,0V14.5a1.5,1.5,0,0,0,3,0V13.472c.69.081,1.932.236,2,.236V15.5A1.5,1.5,0,0,1,19.5,17Z"/></svg>
