<?xml version="1.0" encoding="UTF-8"?>
<svg xmlns="http://www.w3.org/2000/svg" id="Layer_1" data-name="Layer 1" viewBox="0 0 24 24" width="512" height="512"><path d="M8,13a3,3,0,1,1-3,3A3,3,0,0,1,8,13Zm16-2v.947c0,1.226-.791,2.669-3.008,3.044l-5.005.846a7.608,7.608,0,0,1-.614,3.209A8.057,8.057,0,0,1,9.283,23.9a8.1,8.1,0,0,1-1.276.1,8,8,0,0,1-7.99-8.527A8.143,8.143,0,0,1,8.242,8H21A3,3,0,0,1,24,11Zm-3,0H8.242a5.139,5.139,0,0,0-5.231,4.665,4.985,4.985,0,0,0,9.6,2.216A4.741,4.741,0,0,0,13,15.9a2.975,2.975,0,0,1,2.488-3.022l5.005-.845A1.585,1.585,0,0,0,21,11.875ZM9.5,6A1.5,1.5,0,0,0,11,4.5v-3a1.5,1.5,0,0,0-3,0v3A1.5,1.5,0,0,0,9.5,6Zm3.168.748a1.5,1.5,0,0,0,2.08-.416l2-3a1.5,1.5,0,1,0-2.5-1.664l-2,3A1.5,1.5,0,0,0,12.668,6.748ZM4.255,6.337a1.5,1.5,0,0,0,2.49-1.674l-2.016-3A1.5,1.5,0,0,0,2.238,3.337Z"/></svg>
