<?xml version="1.0" encoding="UTF-8"?>
<svg xmlns="http://www.w3.org/2000/svg" id="Layer_1" data-name="Layer 1" viewBox="0 0 24 24" width="512" height="512"><path d="M17.5,0H6.5C3.462,0,1,2.462,1,5.5v14.303c.159,2.338,2.122,4.197,4.5,4.197h12c3.033,0,5.5-2.467,5.5-5.5V5.5c0-3.033-2.467-5.5-5.5-5.5ZM4,5.5c0-1.381,1.119-2.5,2.5-2.5h.5V15h-1.5c-.529,0-1.029,.108-1.5,.276V5.5Zm16,13c0,1.378-1.122,2.5-2.5,2.5H5.5c-1.972-.035-1.97-2.965,0-3h14.5v.5Zm0-3.5H10V3h3v7.348c0,.623,.791,.89,1.169,.395l1.331-1.743,1.331,1.743c.378,.495,1.169,.228,1.169-.395V3.051c1.14,.232,2,1.242,2,2.449V15Z"/></svg>
