<?xml version="1.0" encoding="UTF-8"?>
<svg xmlns="http://www.w3.org/2000/svg" id="Layer_1" data-name="Layer 1" viewBox="0 0 24 24" width="512" height="512"><path d="M20.5,24H3.5c-.829,0-1.5-.671-1.5-1.5s.671-1.5,1.5-1.5H20.5c.828,0,1.5,.671,1.5,1.5s-.672,1.5-1.5,1.5ZM2.476,19H21.502c.869,.008,1.444-.36,1.764-.675,.682-.671,.734-1.532,.734-1.779,0-3.213-2.236-5.545-5.318-5.545h-3.624c.291-1.727,.942-5.729,.942-7,0-2.206-1.794-4-4-4s-4,1.794-4,4c0,1.271,.651,5.274,.942,7h-3.624c-3.082,0-5.318,2.332-5.318,5.545,0,.248,.053,1.108,.734,1.78,.314,.31,.866,.675,1.7,.675h.042Zm6.879-5c.784,0,1.522-.343,2.027-.942,.365-.433,.578-.963,.618-1.515,.04,.552,.252,1.083,.618,1.515,.504,.599,1.244,.942,2.027,.942h4.037c1.256,0,2.095,.752,2.279,2H3.039c.186-1.247,1.023-2,2.28-2h4.037Zm3.645-10c0,.616-.333,3.185-.969,6.904-.015,.086-.025,.172-.031,.257-.006-.085-.017-.171-.031-.257-.636-3.719-.969-6.288-.969-6.904,0-.551,.449-1,1-1s1,.449,1,1Z"/></svg>
