<?xml version="1.0" encoding="UTF-8"?>
<svg xmlns="http://www.w3.org/2000/svg" id="Layer_1" data-name="Layer 1" viewBox="0 0 24 24" width="512" height="512"><path d="M23.822,7.2a1.5,1.5,0,0,1-2.032.611L13.4,3.3a3.272,3.272,0,0,0-2.84.025L2.21,7.814A1.5,1.5,0,0,1,.79,5.172L9.184.661A6.336,6.336,0,0,1,14.768.636L23.21,5.172A1.5,1.5,0,0,1,23.822,7.2Zm-2.7,5.565A9.568,9.568,0,0,1,22,16.75v1.2a4.04,4.04,0,0,1-2,3.485v.553a2,2,0,0,1-4,0H8a2,2,0,0,1-4,0v-.565a4.09,4.09,0,0,1-.806-.632,4.011,4.011,0,0,1-1.168-2.881,11.24,11.24,0,0,1,.849-5.147l1.191-2.581A5.517,5.517,0,0,1,9.059,6.993h5.882a5.517,5.517,0,0,1,4.993,3.194Zm-2.171,3.225H17v.5a1.5,1.5,0,0,1-3,0v-.5H10v.5a1.5,1.5,0,0,1-3,0v-.5H5.094a17.25,17.25,0,0,0-.068,1.92,1.055,1.055,0,0,0,.3.772,1.033,1.033,0,0,0,.738.308h11.9A1.04,1.04,0,0,0,19,17.955v-1.2A6.381,6.381,0,0,0,18.955,15.993ZM6.789,11.445l-.714,1.548h11.85l-.714-1.548a2.508,2.508,0,0,0-2.27-1.452H9.059A2.509,2.509,0,0,0,6.789,11.445Z"/></svg>
