<?xml version="1.0" encoding="UTF-8"?>
<svg xmlns="http://www.w3.org/2000/svg" id="Layer_1" data-name="Layer 1" viewBox="0 0 24 24" width="512" height="512"><path d="M22.388,2.516A4.568,4.568,0,0,0,19,.062a4.705,4.705,0,0,0-4.044,1.313L1.375,14.953A4.7,4.7,0,0,0,.063,19a4.563,4.563,0,0,0,2.454,3.391A14.777,14.777,0,0,0,22.388,2.516Zm-4.84,15.033A11.745,11.745,0,0,1,3.879,19.718a1.6,1.6,0,0,1-.854-1.188A1.671,1.671,0,0,1,3.5,17.073L6.21,14.358a6.08,6.08,0,0,0,8.149-8.149L17.073,3.5h0a1.674,1.674,0,0,1,1.456-.47,1.591,1.591,0,0,1,1.187.854A11.742,11.742,0,0,1,17.548,17.549Z"/></svg>
