<?xml version="1.0" encoding="UTF-8"?>
<svg xmlns="http://www.w3.org/2000/svg" id="Layer_1" data-name="Layer 1" viewBox="0 0 24 24" width="512" height="512"><path d="M12,24C5.383,24,0,18.617,0,12S5.383,0,12,0s12,5.383,12,12-5.383,12-12,12Zm0-21C7.038,3,3,7.038,3,12s4.038,9,9,9,9-4.038,9-9S16.962,3,12,3Zm4.293,10.795l1.56,.205c.605,0,1.095-.49,1.095-1.095l.053-1.038c0-.747-.314-1.416-.804-1.906-2.517-2.517-9.681-2.711-12.391,0-.49,.49-.805,1.159-.804,1.906l.053,1.038c0,.605,.49,1.095,1.095,1.095l1.56-.205c.605,0,1.095-.49,1.095-1.095l.148-1.578c2.131-.91,4.16-.868,6.099,0l.148,1.578c0,.605,.49,1.095,1.095,1.095Z"/></svg>
