<?xml version="1.0" encoding="UTF-8"?>
<svg xmlns="http://www.w3.org/2000/svg" id="Layer_1" data-name="Layer 1" viewBox="0 0 24 24" width="512" height="512"><path d="M23.615,10.6l-.842-2.525A4.493,4.493,0,0,0,18.5,5H16.792A5.509,5.509,0,0,0,11.5,1h-6A5.506,5.506,0,0,0,0,6.5V20.577a2.5,2.5,0,0,0,5,0V20H6v.577a2.5,2.5,0,0,0,5,0V20h6v.577a2.5,2.5,0,0,0,5,0v-.915A3.506,3.506,0,0,0,24,16.5V12.974A7.468,7.468,0,0,0,23.615,10.6ZM19.928,9.025l.841,2.526A4.493,4.493,0,0,1,21,12.974V13H17V8h1.5A1.5,1.5,0,0,1,19.928,9.025ZM3,6.5A2.5,2.5,0,0,1,5.5,4h6A2.5,2.5,0,0,1,14,6.5V17H3Z"/></svg>
