<?xml version="1.0" encoding="UTF-8"?>
<svg xmlns="http://www.w3.org/2000/svg" id="Layer_1" data-name="Layer 1" viewBox="0 0 24 24" width="512" height="512"><path d="M22.561,21.439l-2.128-2.128c.987-1.564,1.568-3.414,1.568-5.402v-3.818C21.495-3.282,2.501-3.271,2,10.091v3.818c-.121,8.476,10.196,13.261,16.469,7.681l1.97,1.97c1.393,1.381,3.502-.729,2.121-2.121Zm-10.561-.439c-3.86,0-7-3.181-7-7.091v-3.818c.297-9.374,13.707-9.367,14,0v3.818c0,1.154-.279,2.241-.764,3.205l-1.675-1.675c-1.393-1.381-3.502,.729-2.121,2.121l1.901,1.901c-1.194,.96-2.701,1.538-4.341,1.538Z"/></svg>
