<?xml version="1.0" encoding="UTF-8"?>
<svg xmlns="http://www.w3.org/2000/svg" id="Layer_1" data-name="Layer 1" viewBox="0 0 24 24" width="512" height="512"><path d="M12,0A12.013,12.013,0,0,0,0,12c.6,15.9,23.4,15.893,24,0A12.013,12.013,0,0,0,12,0Zm0,21a9.01,9.01,0,0,1-9-9C3.452.077,20.549.08,21,12A9.01,9.01,0,0,1,12,21Zm6-6.5A1.5,1.5,0,0,1,16.5,16H14.956c-.574,3.96-5.34,3.956-5.912,0H7.5a1.5,1.5,0,0,1,0-3h9A1.5,1.5,0,0,1,18,14.5ZM6,9a2,2,0,0,1,4,0A2,2,0,0,1,6,9ZM18,9a2,2,0,0,1-4,0A2,2,0,0,1,18,9Z"/></svg>
