<?xml version="1.0" encoding="UTF-8"?>
<svg xmlns="http://www.w3.org/2000/svg" id="Layer_1" data-name="Layer 1" viewBox="0 0 24 24" width="512" height="512"><path d="M12,24A12.013,12.013,0,0,1,0,12C.6-3.9,23.4-3.893,24,12A12.013,12.013,0,0,1,12,24ZM12,3a9.01,9.01,0,0,0-9,9c.452,11.923,17.549,11.92,18,0A9.01,9.01,0,0,0,12,3Zm4.789,11.024A15.4,15.4,0,0,1,12,15,15.4,15.4,0,0,1,7.2,14.024a1,1,0,0,0-1.052,1.518A6.836,6.836,0,0,0,12,19a6.827,6.827,0,0,0,5.842-3.458A1,1,0,0,0,16.789,14.024ZM17.5,7A1.581,1.581,0,0,0,16,8.65a1.5,1.5,0,1,0-3,0c0,1.3,1.692,2.818,2.535,3.494a.743.743,0,0,0,.93,0C17.308,11.468,19,9.948,19,8.65A1.581,1.581,0,0,0,17.5,7Zm-8,0A1.581,1.581,0,0,0,8,8.65a1.5,1.5,0,1,0-3,0c0,1.3,1.692,2.818,2.535,3.494a.743.743,0,0,0,.93,0C9.308,11.468,11,9.948,11,8.65A1.581,1.581,0,0,0,9.5,7Z"/></svg>
