<?xml version="1.0" encoding="UTF-8"?>
<svg xmlns="http://www.w3.org/2000/svg" id="Layer_1" data-name="Layer 1" viewBox="0 0 24 24" width="512" height="512"><path d="M20.048,12a4.8,4.8,0,0,0-1.483.221c-.517-3.585-2.239-7.33-5.353-11.6a1.554,1.554,0,0,0-2.424,0c-3.114,4.274-4.836,8.019-5.353,11.6A4.8,4.8,0,0,0,3.952,12C2.052,12,0,13.912,0,17a6.971,6.971,0,0,0,6.75,7A6.692,6.692,0,0,0,12,21.335,6.692,6.692,0,0,0,17.25,24,6.971,6.971,0,0,0,24,17C24,13.912,21.948,12,20.048,12ZM12,4.135A22.552,22.552,0,0,1,15.517,12.1a5.087,5.087,0,0,0-1.038-.1A3.6,3.6,0,0,0,12,13.126,3.6,3.6,0,0,0,9.521,12a5.087,5.087,0,0,0-1.038.1A22.552,22.552,0,0,1,12,4.135ZM6.75,21A3.982,3.982,0,0,1,3,17c0-1.439.749-1.977.952-2a1.688,1.688,0,0,1,1.143.39,3.134,3.134,0,0,0,1.33.573A1.513,1.513,0,0,0,6.75,16a1.461,1.461,0,0,0,.326-.038,3.075,3.075,0,0,0,1.33-.579A1.594,1.594,0,0,1,9.513,15c.217.022.987.558.987,2A3.982,3.982,0,0,1,6.75,21Zm10.5,0a3.982,3.982,0,0,1-3.75-4c0-1.442.77-1.978.979-2a1.6,1.6,0,0,1,1.115.383,3.075,3.075,0,0,0,1.33.579A1.461,1.461,0,0,0,17.25,16a1.513,1.513,0,0,0,.325-.037,3.128,3.128,0,0,0,1.33-.573A1.68,1.68,0,0,1,20.039,15c.212.023.961.561.961,2A3.982,3.982,0,0,1,17.25,21Z"/></svg>
