<?xml version="1.0" encoding="UTF-8"?>
<svg xmlns="http://www.w3.org/2000/svg" id="Layer_1" data-name="Layer 1" viewBox="0 0 24 24" width="512" height="512"><path d="M16,5.46V3.5A3.5,3.5,0,0,0,12.5,0h-1A3.5,3.5,0,0,0,8,3.5V5.46C5.945,6.872.325,11.3.014,17.637a5.338,5.338,0,0,0,1.377,3.952A4.57,4.57,0,0,0,4.791,23a5.242,5.242,0,0,0,3.174-1.1,4.869,4.869,0,0,0,3.119,2.021,5.105,5.105,0,0,0,.91.081,4.951,4.951,0,0,0,4.063-2.086A5.243,5.243,0,0,0,19.209,23a4.575,4.575,0,0,0,3.312-1.492,5.277,5.277,0,0,0,1.465-3.871C23.675,11.3,18.055,6.872,16,5.46ZM11.5,3h1a.5.5,0,0,1,.5.5V6.009c-.081.232-.2.606-.328,1.095A2.375,2.375,0,0,0,12,7h0a2.383,2.383,0,0,0-.672.1c-.13-.488-.248-.863-.329-1.095V3.5A.5.5,0,0,1,11.5,3ZM4.791,20a1.623,1.623,0,0,1-1.228-.479,2.355,2.355,0,0,1-.553-1.738c.2-4.126,3.547-7.4,5.624-9.053.078.367.157.78.229,1.247a1.45,1.45,0,0,0,.074.213,23.668,23.668,0,0,0-1.88,7.422A1.5,1.5,0,0,0,7,18,2.289,2.289,0,0,1,4.791,20Zm8.491.535a1.994,1.994,0,0,1-1.667.43A2.092,2.092,0,0,1,10,18.84a20.363,20.363,0,0,1,2-8.154A20.23,20.23,0,0,1,14,19,2,2,0,0,1,13.282,20.535Zm7.066-1.1A1.635,1.635,0,0,1,19.209,20,2.289,2.289,0,0,1,17,18a1.477,1.477,0,0,0-.058-.39,23.688,23.688,0,0,0-1.878-7.421,1.514,1.514,0,0,0,.073-.212c.072-.469.151-.883.23-1.252,2.077,1.643,5.419,4.912,5.623,9.058A2.3,2.3,0,0,1,20.348,19.439Z"/></svg>
