<?xml version="1.0" encoding="UTF-8"?>
<svg xmlns="http://www.w3.org/2000/svg" id="Layer_1" data-name="Layer 1" viewBox="0 0 24 24" width="512" height="512"><path d="M12.115,18c4.963,0,9-4.038,9-9-.453-11.923-17.549-11.92-18,0,0,4.962,4.037,9,9,9Zm-1.578-14.825c.293-1.483,2.497-1.561,2.893-.103,.983,.191,1.857,.794,2.368,1.678,.975,1.703-1.608,3.196-2.597,1.502-.091-.157-.253-.251-.434-.251h-1.181c-.629-.018-.809,.916-.219,1.131l2.377,.952c3.123,1.161,2.879,5.867-.283,6.742-.294,1.482-2.497,1.561-2.893,.103-.983-.191-1.857-.794-2.368-1.678-.415-.717-.17-1.635,.547-2.05,.716-.414,1.635-.169,2.049,.548,.091,.157,.253,.251,.434,.251h1.181c.629,.018,.809-.916,.219-1.131l-2.377-.952c-3.123-1.161-2.879-5.867,.283-6.742Zm13.462,16.325c0,2.481-2.019,4.5-4.5,4.5H4.5c-4.053,.077-6.065-5.214-3.001-7.854,.617-.555,1.564-.503,2.118,.116,.553,.617,.5,1.565-.116,2.118-1.026,.859-.342,2.661,.999,2.619h15c1.341,.042,2.025-1.76,.999-2.619-.617-.553-.669-1.501-.116-2.118,.553-.618,1.501-.67,2.118-.116,.953,.854,1.499,2.076,1.499,3.354Z"/></svg>
