<?xml version="1.0" encoding="UTF-8"?>
<svg xmlns="http://www.w3.org/2000/svg" id="Layer_1" data-name="Layer 1" viewBox="0 0 24 24" width="512" height="512"><path d="M22.781,12.906l-.3-.711A5.179,5.179,0,0,0,17.692,9H15.269a5.18,5.18,0,0,0-4.793,3.2l-.3.71A15.276,15.276,0,0,0,9,18.808V19a3,3,0,0,0,2,2.828V22a2,2,0,0,0,4,0h3a2,2,0,0,0,4,0v-.186A3,3,0,0,0,23.961,19v-.192A15.267,15.267,0,0,0,22.781,12.906Zm-9.535.443A2.184,2.184,0,0,1,15.269,12h2.423a2.186,2.186,0,0,1,2.024,1.349l.3.711A12.315,12.315,0,0,1,20.638,16H12.323a12.3,12.3,0,0,1,.627-1.941ZM8,11.5A1.5,1.5,0,0,1,6.5,13H5v2.5a.5.5,0,0,0,.5.5A1.5,1.5,0,0,1,7,17.5v2a1.5,1.5,0,0,1-3,0v-.838A3.5,3.5,0,0,1,2,15.5V13H1.5A1.5,1.5,0,0,1,0,11.5v-1A1.5,1.5,0,0,1,1.5,9H2V6.026A5.506,5.506,0,0,1,5.732.815C10.235-.694,17.993-.557,18.953,5.3,19.58,7.711,16.23,8.481,16,6H12v.5a1.5,1.5,0,0,1-3,0V6H5c0,.009,0,4,0,4H6.5A1.5,1.5,0,0,1,8,11.5Z"/></svg>
