<?xml version="1.0" encoding="UTF-8"?>
<svg xmlns="http://www.w3.org/2000/svg" id="Layer_1" data-name="Layer 1" viewBox="0 0 24 24" width="512" height="512"><path d="M12,2.5A2.5,2.5,0,1,1,14.5,5,2.5,2.5,0,0,1,12,2.5Zm12,17A4.505,4.505,0,0,1,19.5,24H1.5A1.5,1.5,0,0,1,.031,22.2l1.654-8a1.5,1.5,0,1,1,2.938.608L3.342,21H4.493l.848-2.069a1.5,1.5,0,1,1,2.776,1.138L7.736,21H12V19.534a.5.5,0,0,0-.211-.408l-3.248-2.3a3.47,3.47,0,0,1-1.3-4.242L8.709,9H6.492a.5.5,0,0,0-.48.361l-.161.556a1.5,1.5,0,0,1-2.882-.834l.16-.554A3.516,3.516,0,0,1,6.492,6H12.5a3.519,3.519,0,0,1,3,1.7l1.843,3.063a.5.5,0,0,0,.429.242h.984l.424-1.837a1.5,1.5,0,0,1,2.923.674L19.526,21A1.5,1.5,0,0,0,21,19.5a1.5,1.5,0,0,1,3,0Zm-9,.034V21h1.447l1.615-7h-.291a3.518,3.518,0,0,1-3-1.7l-1.164-1.933-2.024,4.935,1.939,1.371A3.5,3.5,0,0,1,15,19.534Z"/></svg>
