<?xml version="1.0" encoding="UTF-8"?>
<svg xmlns="http://www.w3.org/2000/svg" id="Layer_1" data-name="Layer 1" viewBox="0 0 24 24" width="512" height="512"><path d="M19,16.037a2.995,2.995,0,1,1-4.5-2.584V8.5a1.5,1.5,0,0,1,3,0v4.953A2.987,2.987,0,0,1,19,16.037ZM24,16a8.009,8.009,0,0,1-8,8c-6.738.135-10.571-8.319-6-13.271V6.037c.253-7.931,11.75-7.926,12,0v4.692A7.9,7.9,0,0,1,24,16Zm-3,0a4.95,4.95,0,0,0-1.541-3.59A1.5,1.5,0,0,1,19,11.33V6.037a3,3,0,0,0-6,0V11.33a1.5,1.5,0,0,1-.459,1.08A4.994,4.994,0,1,0,21,16ZM6.929,9.418a2.008,2.008,0,0,1,.115-3.865A2.511,2.511,0,0,0,9,3.118V1.5a1.5,1.5,0,0,0-3,0V2.729a5.1,5.1,0,0,0-.8.331l-.87-.87A1.5,1.5,0,0,0,2.212,4.312l.859.859A5.091,5.091,0,0,0,2.733,6H1.521a1.5,1.5,0,0,0,0,3H2.74a5.166,5.166,0,0,0,.325.792l-.853.854a1.5,1.5,0,0,0,2.121,2.121l.848-.849a4.927,4.927,0,0,0,.89.375,1.5,1.5,0,0,0,.858-2.875Z"/></svg>
