<?xml version="1.0" encoding="UTF-8"?>
<svg xmlns="http://www.w3.org/2000/svg" id="Layer_1" data-name="Layer 1" viewBox="0 0 24 24" width="512" height="512"><path d="M23.562,5.44l-1.45-1.45,1.442-1.421A1.5,1.5,0,1,0,21.448.432L19.99,1.869,18.561.44A1.5,1.5,0,0,0,16.44,2.561l1.414,1.413L16.465,5.343l-1.4-1.4A1.5,1.5,0,1,0,12.94,6.061l1.388,1.388L13.043,8.714,11.767,7.438a1.458,1.458,0,0,0-2.366.4,5.177,5.177,0,0,0,.152,4.318L8.4,13.285,7.06,11.939A1.5,1.5,0,0,0,4.939,14.06l1.33,1.33s-.556.552-.648.633c-.141.01-1.256,0-1.256,0A4.214,4.214,0,0,0,.538,18,4,4,0,0,0,3.5,23.967,3.864,3.864,0,0,0,4.017,24a3.975,3.975,0,0,0,2.82-1.172,1.5,1.5,0,0,0-2.123-2.121,1,1,0,0,1-1.591-.232.976.976,0,0,1,0-.95c.081-.137.295-.5,1.243-.5l.55,0a3.363,3.363,0,0,0,3.169-1.215l.306-.3L9.939,19.06a1.5,1.5,0,0,0,2.122-2.121l-1.534-1.533,1.1-1.083a5.173,5.173,0,0,0,4.54.275,1.457,1.457,0,0,0,.4-2.365l-1.4-1.4L16.449,9.57l1.491,1.491A1.5,1.5,0,0,0,20.062,8.94L18.586,7.464,19.975,6.1l1.466,1.465A1.5,1.5,0,1,0,23.562,5.44Z"/></svg>
