<?xml version="1.0" encoding="UTF-8"?>
<svg xmlns="http://www.w3.org/2000/svg" id="Layer_1" data-name="Layer 1" viewBox="0 0 24 24" width="512" height="512"><path d="M22.5,13H11.5c-.828,0-1.5,.672-1.5,1.5s.672,1.5,1.5,1.5h11c.828,0,1.5-.672,1.5-1.5s-.672-1.5-1.5-1.5Z"/><path d="M11.5,10h7c.828,0,1.5-.672,1.5-1.5s-.672-1.5-1.5-1.5h-7c-.828,0-1.5,.672-1.5,1.5s.672,1.5,1.5,1.5Z"/><path d="M11.5,4h3c.828,0,1.5-.672,1.5-1.5s-.672-1.5-1.5-1.5h-3c-.828,0-1.5,.672-1.5,1.5s.672,1.5,1.5,1.5Z"/><path d="M9.172,18.414h-2.172V-1.229c0-.828-.672-1.5-1.5-1.5s-1.5,.672-1.5,1.5V18.414H2c-.552,0-1,.448-1,1,0,.265,.105,.519,.293,.707l3.586,3.586c.391,.39,1.024,.39,1.414,0l3.586-3.586c.39-.391,.39-1.024,0-1.414-.187-.187-.442-.293-.707-.293Z"/></svg>
