<?xml version="1.0" encoding="UTF-8"?>
<svg xmlns="http://www.w3.org/2000/svg" id="Layer_1" data-name="Layer 1" viewBox="0 0 24 24" width="512" height="512"><path d="M16,2.5A2.5,2.5,0,1,1,18.5,5,2.5,2.5,0,0,1,16,2.5ZM19.5,19A1.5,1.5,0,0,0,18,20.5a.5.5,0,0,1-.5.5H17V19.637a3.489,3.489,0,0,0-.95-2.4l-3.024-3.214,2.949-2.965a3.5,3.5,0,0,0-.062-5.011l-.154-.127A4.815,4.815,0,0,0,12.914,5H6.5a1.5,1.5,0,0,0,0,3h5.661L9.953,10.336a3.49,3.49,0,0,0,.072,4.874L13.864,19.3a.5.5,0,0,1,.136.342V21h-.5a1.5,1.5,0,0,0,0,3h4A3.5,3.5,0,0,0,21,20.5,1.5,1.5,0,0,0,19.5,19ZM7.45,20.857a.5.5,0,0,1-.666.037l-.208-.231L8.591,18.53a1.5,1.5,0,0,0-2.182-2.06L4.555,18.434a1.5,1.5,0,0,0-2.167,2.072L4.6,22.95A3.474,3.474,0,0,0,7.065,24H7.1A3.477,3.477,0,0,0,9.55,23a1.5,1.5,0,0,0-2.1-2.143Z"/></svg>
