<?xml version="1.0" encoding="UTF-8"?>
<svg xmlns="http://www.w3.org/2000/svg" id="Layer_1" data-name="Layer 1" viewBox="0 0 24 24" width="512" height="512"><path d="M7.5,4.5c.151-5.935,8.85-5.934,9,0-.151,5.935-8.85,5.934-9,0ZM24,15.5v1.793c0,2.659-1.899,4.935-4.516,5.411l-5.763,1.139c-1.142,.207-2.285,.21-3.421,.004l-5.807-1.147c-2.595-.472-4.494-2.748-4.494-5.407v-1.793c-.083-3.331,3.222-6.087,6.483-5.411l3.36,.702c.824,.15,1.564,.527,2.16,1.062,.601-.537,1.351-.916,2.191-1.069l3.282-.688c1.653-.301,3.293,.134,4.548,1.181,1.256,1.048,1.976,2.587,1.976,4.223Zm-13.5-.289c0-.726-.518-1.346-1.231-1.476l-3.36-.702c-.707-.126-1.439,.075-2.01,.548-.571,.477-.898,1.176-.898,1.919v1.793c0,1.209,.863,2.243,2.053,2.46l5.447,1.076v-5.618Zm10.5,.289c0-.744-.327-1.443-.897-1.919-.57-.476-1.318-.674-2.05-.54l-3.282,.687c-.753,.137-1.271,.758-1.271,1.483v5.618l5.425-1.072c1.212-.221,2.075-1.255,2.075-2.464v-1.793Z"/></svg>
