<?xml version="1.0" encoding="UTF-8"?>
<svg xmlns="http://www.w3.org/2000/svg" id="Layer_1" data-name="Layer 1" viewBox="0 0 24 24" width="512" height="512"><path d="M4.5,11h15c5.935-.156,5.931-8.846,0-9H4.5c-5.935,.156-5.931,8.846,0,9ZM21,6.5c0,.827-.673,1.5-1.5,1.5h-2.5v-3h2.5c.827,0,1.5,.673,1.5,1.5ZM4.5,5H14v3H4.5c-1.972-.035-1.97-2.965,0-3Zm15,8H4.5c-5.935,.156-5.931,8.846,0,9h15c5.935-.156,5.931-8.846,0-9ZM3,17.5c0-.827,.673-1.5,1.5-1.5h3.5v3h-3.5c-.827,0-1.5-.673-1.5-1.5Zm16.5,1.5H11v-3h8.5c1.972,.035,1.97,2.965,0,3Z"/></svg>
