<?xml version="1.0" encoding="UTF-8"?>
<svg xmlns="http://www.w3.org/2000/svg" id="Layer_1" data-name="Layer 1" viewBox="0 0 24 24" width="512" height="512"><path d="M24.042,15.5a4.505,4.505,0,0,1-4.5,4.5c-1.782.076-5.266-1.659-3.513-3.681a1.5,1.5,0,0,1,2.119.094c.919,1.028,2.9.634,2.893-.913a1.5,1.5,0,0,0-1.5-1.5H14.5a1.5,1.5,0,0,1,0-3h5.042A4.505,4.505,0,0,1,24.042,15.5ZM15.5,9h4.042c5.933-.156,5.932-8.845,0-9-1.782-.076-5.265,1.66-3.512,3.681a1.5,1.5,0,0,0,2.119-.094c.919-1.028,2.9-.634,2.893.913a1.5,1.5,0,0,1-1.5,1.5H15.5A1.5,1.5,0,0,0,15.5,9Zm-6,6h-8a1.5,1.5,0,0,0,0,3h8A1.5,1.5,0,0,1,11,19.5a1.6,1.6,0,0,1-2.883.851,1.5,1.5,0,0,0-2.323,1.9C8.379,25.559,14.057,23.81,14,19.5A4.505,4.505,0,0,0,9.5,15ZM.861,9.733a1.5,1.5,0,0,0,2.047.555L5,9.089V11.5a1.5,1.5,0,0,0,3,0V9.089l2.092,1.2a1.5,1.5,0,1,0,1.492-2.6L9.515,6.5l2.069-1.187a1.5,1.5,0,1,0-1.492-2.6L8,3.911V1.5a1.5,1.5,0,0,0-3,0V3.911l-2.092-1.2a1.5,1.5,0,1,0-1.492,2.6L3.485,6.5,1.416,7.687A1.5,1.5,0,0,0,.861,9.733Z"/></svg>
