<?xml version="1.0" encoding="UTF-8"?>
<svg xmlns="http://www.w3.org/2000/svg" id="Layer_1" data-name="Layer 1" viewBox="0 0 24 24" width="512" height="512"><path d="M9.93,7.954l-3.072,9.661c-.263,.828-1.01,1.385-1.858,1.385s-1.595-.557-1.858-1.385L.07,7.954c-.251-.789,.186-1.633,.975-1.884,.788-.249,1.633,.186,1.884,.976l2.07,6.512,2.07-6.512c.251-.79,1.095-1.224,1.884-.976,.79,.251,1.226,1.095,.975,1.884Zm13.025,10.976c-.151,.048-.304,.07-.455,.07-.636,0-1.226-.407-1.429-1.045l-.622-1.955h-2.897l-.622,1.955c-.251,.789-1.096,1.224-1.884,.975-.79-.252-1.226-1.095-.975-1.885l3.071-9.652c.264-.828,1.01-1.384,1.858-1.384s1.594,.556,1.858,1.384l3.071,9.652c.251,.79-.185,1.633-.975,1.885Zm-2.523-5.43l-1.432-4.5-1.432,4.5h2.864ZM15.955,.07c-.786-.249-1.633,.186-1.884,.975L7.389,22.045c-.251,.79,.185,1.633,.975,1.885,.151,.048,.304,.07,.455,.07,.636,0,1.226-.407,1.429-1.045L16.929,1.955c.251-.79-.185-1.633-.975-1.885Z"/></svg>
