<?xml version="1.0" encoding="UTF-8"?>
<svg xmlns="http://www.w3.org/2000/svg" id="Layer_1" data-name="Layer 1" viewBox="0 0 24 24" width="512" height="512"><path d="M19.562,2.756C16.854,.481,13.424-.43,9.908,.188,4.614,1.12,.562,5.518,.056,10.884c-.313,3.311,.733,6.474,2.946,8.905,2.435,2.676,6.091,4.21,10.032,4.21h5.466c3.032,0,5.5-2.467,5.5-5.5v-6.175c0-3.713-1.617-7.201-4.438-9.569Zm1.438,15.744c0,1.378-1.121,2.5-2.5,2.5h-5.466c-3.098,0-5.945-1.177-7.813-3.229-1.637-1.799-2.411-4.145-2.179-6.604,.375-3.962,3.48-7.336,7.385-8.023,.539-.095,1.074-.142,1.603-.142,2.051,0,3.998,.705,5.602,2.052,2.14,1.796,3.367,4.446,3.367,7.271v6.175Zm-5.168-3.956l-3.163,3.163c-.391,.391-1.024,.391-1.414,0l-3.163-3.163c-.63-.63-.184-1.707,.707-1.707h1.663V7.336c0-.829,.671-1.5,1.5-1.5s1.5,.671,1.5,1.5v5.501h1.664c.891,0,1.337,1.077,.707,1.707Z"/></svg>
