<?xml version="1.0" encoding="UTF-8"?>
<svg xmlns="http://www.w3.org/2000/svg" id="Layer_1" data-name="Layer 1" viewBox="0 0 24 24" width="512" height="512"><path d="M11.371,24a2.318,2.318,0,0,1-.978-.218,2.649,2.649,0,0,1-1.335-3.191L10.115,16H7.41a3.409,3.409,0,0,1-3.263-4.4l2.893-9.2A3.385,3.385,0,0,1,10.3,0h3.674a3.026,3.026,0,0,1,2.834,4.088L15.685,7h.9a3.408,3.408,0,0,1,2.859,5.265s-5.955,10.513-5.975,10.543A2.547,2.547,0,0,1,11.371,24ZM10.3,3a.408.408,0,0,0-.392.291l-2.892,9.2a.393.393,0,0,0,.068.347A.4.4,0,0,0,7.41,13H12a1.5,1.5,0,0,1,1.461,1.837l-.743,3.223s4.185-7.388,4.208-7.421A.409.409,0,0,0,16.588,10H13.5a1.5,1.5,0,0,1-1.4-2.039L14,3.023Z"/></svg>
