<?xml version="1.0" encoding="UTF-8"?>
<svg xmlns="http://www.w3.org/2000/svg" id="Layer_1" data-name="Layer 1" viewBox="0 0 24 24" width="512" height="512"><path d="M14,10.5A1.5,1.5,0,1,1,12.5,9,1.5,1.5,0,0,1,14,10.5ZM15.5,13A1.5,1.5,0,1,0,17,14.5,1.5,1.5,0,0,0,15.5,13Zm8.039-6.954A16.6,16.6,0,0,1,24,10.11c-.032,2.339-.573,6.751-3.854,10.032S12.449,23.964,10.111,24a16.529,16.529,0,0,1-4.065-.457,1.446,1.446,0,0,0-1,.042A3.408,3.408,0,0,1,.429,18.938a1.469,1.469,0,0,0,.042-1.016A16.265,16.265,0,0,1,0,13.889c.032-2.338.573-6.75,3.854-10.031S11.551.036,13.889,0a15.845,15.845,0,0,1,4.034.468A1.472,1.472,0,0,0,18.938.429a3.408,3.408,0,0,1,4.644,4.616A1.452,1.452,0,0,0,23.539,6.046ZM20.952,3.6A.413.413,0,0,0,21,3.409a.421.421,0,0,0-.6-.359,4.328,4.328,0,0,1-3.19.335A14.546,14.546,0,0,0,13.929,3a11.55,11.55,0,0,0-7.95,2.975A11.55,11.55,0,0,0,3,13.929a13.215,13.215,0,0,0,.381,3.277A4.334,4.334,0,0,1,3.05,20.4a.4.4,0,0,0-.05.194.421.421,0,0,0,.6.36,4.327,4.327,0,0,1,3.152-.327A13.1,13.1,0,0,0,10.071,21a11.55,11.55,0,0,0,7.95-2.975A11.55,11.55,0,0,0,21,10.071a13.5,13.5,0,0,0-.372-3.315A4.32,4.32,0,0,1,20.952,3.6ZM17.5,9A1.5,1.5,0,1,0,19,10.5,1.5,1.5,0,0,0,17.5,9Z"/></svg>
