<?xml version="1.0" encoding="UTF-8"?>
<svg xmlns="http://www.w3.org/2000/svg" id="Layer_1" data-name="Layer 1" viewBox="0 0 24 24" width="512" height="512"><path d="M23.858,5.9a3.523,3.523,0,0,1-5.7-.9H5.842a3.524,3.524,0,0,1-5.7.9A.535.535,0,0,1,.535,5H1.5a1.5,1.5,0,0,0,0-3H.536a.535.535,0,0,1-.392-.9A3.494,3.494,0,0,1,5.851,2h12.3a3.494,3.494,0,0,1,5.707-.9.535.535,0,0,1-.392.9H22.5a1.5,1.5,0,0,0,0,3h.965A.535.535,0,0,1,23.858,5.9Zm-2.732,6.88A9.573,9.573,0,0,1,22,16.757v1.2a4.041,4.041,0,0,1-2,3.484V22a2,2,0,0,1-4,0H8a2,2,0,0,1-4,0v-.565a4.061,4.061,0,0,1-.806-.632,4.009,4.009,0,0,1-1.168-2.881,11.261,11.261,0,0,1,.848-5.146L4.066,10.2A5.517,5.517,0,0,1,9.059,7H14.94a5.515,5.515,0,0,1,4.994,3.2ZM6.063,19h11.9A1.04,1.04,0,0,0,19,17.962v-1.2A6.382,6.382,0,0,0,18.954,16H17v.5a1.5,1.5,0,0,1-3,0V16H10v.5a1.5,1.5,0,0,1-3,0V16H5.094a17.25,17.25,0,0,0-.068,1.92,1.048,1.048,0,0,0,.3.772A1.031,1.031,0,0,0,6.063,19Zm.726-7.547L6.075,13H17.924l-.714-1.547A2.505,2.505,0,0,0,14.94,10H9.059A2.509,2.509,0,0,0,6.789,11.453Z"/></svg>
