<?xml version="1.0" encoding="UTF-8"?>
<svg xmlns="http://www.w3.org/2000/svg" id="Layer_1" data-name="Layer 1" viewBox="0 0 24 24" width="512" height="512"><path d="M20.43,4.2,14.729.76a5.268,5.268,0,0,0-5.458,0L3.57,4.2A5.351,5.351,0,0,0,1,8.755v6.49A5.351,5.351,0,0,0,3.57,19.8h0l5.7,3.436a5.268,5.268,0,0,0,5.458,0l5.7-3.436A5.351,5.351,0,0,0,23,15.245V8.755A5.351,5.351,0,0,0,20.43,4.2Zm-.563,11.82-3.054-4.752L20,9.49v5.755A2.3,2.3,0,0,1,19.867,16.016Zm-1.061-9.3L15.294,8.676,12.276,3.017a2.3,2.3,0,0,1,.9.311ZM10.819,3.328a2.3,2.3,0,0,1,.9-.311L8.706,8.676,5.193,6.72ZM4.133,16.016A2.3,2.3,0,0,1,4,15.245V9.49l3.187,1.774Zm.987,1.219A2.27,2.27,0,0,1,4.8,17H12L8,10h8l-4,7H10.5l0,3.48ZM13.5,20.478,13.5,17h5.7a2.26,2.26,0,0,1-.321.235Z"/></svg>
