<?xml version="1.0" encoding="UTF-8"?>
<svg xmlns="http://www.w3.org/2000/svg" id="Layer_1" data-name="Layer 1" viewBox="0 0 24 24" width="512" height="512"><path d="M20.962,10.25l-3.951-5.895c-1.028-1.474-2.715-2.354-4.512-2.354h-3.335c-2.271,0-4.338,1.427-5.144,3.552l-1.952,5.167c-1.275,.82-2.069,2.241-2.069,3.781v2c0,1.378,1.122,2.5,2.5,2.5h.5v.5c0,1.381,1.119,2.5,2.5,2.5s2.5-1.119,2.5-2.5v-.5h8v.5c0,1.381,1.119,2.5,2.5,2.5s2.5-1.119,2.5-2.5v-.5h.5c1.378,0,2.5-1.122,2.5-2.5v-2c0-1.946-1.243-3.637-3.038-4.25Zm.038,5.75H3v-1.5c0-.587,.35-1.123,.891-1.366,.365-.163,.649-.465,.79-.838l2.146-5.683c.366-.965,1.305-1.613,2.337-1.613h3.335c.817,0,1.583,.4,2.035,1.047l4.25,6.341c.227,.338,.581,.57,.982,.642,.715,.128,1.233,.746,1.233,1.47v1.5Zm-6.251-5.891c.367,.684,.329,1.511-.101,2.157l-1.406,2.075c-.29,.428-.762,.658-1.243,.658-.29,0-.583-.083-.84-.258-.686-.465-.865-1.397-.4-2.083l.446-.658h-1.089c-.667,0-1.301-.32-1.699-.855-.397-.535-.519-1.235-.325-1.873,.043-.141,.106-.275,.188-.397l1.473-2.207c.46-.689,1.392-.875,2.08-.415,.689,.46,.875,1.391,.415,2.08l-.445,.667h1.093c.776,0,1.487,.425,1.854,1.109Z"/></svg>
