<?xml version="1.0" encoding="UTF-8"?>
<svg xmlns="http://www.w3.org/2000/svg" id="Layer_1" data-name="Layer 1" viewBox="0 0 24 24" width="512" height="512"><path d="M17.975,7.025c1.365,1.364,1.365,3.585,0,4.949l-2.085,2.086c-.292,.293-.677,.439-1.061,.439s-.768-.146-1.061-.439c-.586-.586-.586-1.535,0-2.121l2.085-2.086c.195-.195,.195-.512,0-.707l-2.085-2.086c-.586-.586-.586-1.535,0-2.121s1.536-.586,2.121,0l2.085,2.086Zm-7.743,.035c.586-.586,.586-1.535,0-2.121s-1.536-.586-2.121,0l-2.085,2.086c-1.365,1.364-1.365,3.585,0,4.949l2.085,2.086c.292,.293,.677,.439,1.061,.439s.768-.146,1.061-.439c.586-.586,.586-1.535,0-2.121l-2.085-2.086c-.195-.195-.195-.512,0-.707l2.085-2.086Zm13.768-1.561V13.5c0,3.032-2.467,5.5-5.5,5.5h-5v2h3c.829,0,1.5,.672,1.5,1.5s-.671,1.5-1.5,1.5H7.5c-.829,0-1.5-.672-1.5-1.5s.671-1.5,1.5-1.5h3v-2H5.5c-3.033,0-5.5-2.468-5.5-5.5V5.5C0,2.468,2.467,0,5.5,0h13c3.033,0,5.5,2.468,5.5,5.5Zm-3,0c0-1.379-1.122-2.5-2.5-2.5H5.5c-1.378,0-2.5,1.121-2.5,2.5V13.5c0,1.379,1.122,2.5,2.5,2.5h13c1.378,0,2.5-1.121,2.5-2.5V5.5Z"/></svg>
