<?xml version="1.0" encoding="UTF-8"?>
<svg xmlns="http://www.w3.org/2000/svg" id="Layer_1" data-name="Layer 1" viewBox="0 0 24 24" width="512" height="512"><path d="M9.5,12a1.5,1.5,0,0,1-1.467-1.193c-.01-.046-.02-.091-.032-.134-.012.043-.022.088-.032.134a1.5,1.5,0,1,1-2.936-.614c.888-4.217,5.051-4.212,5.936,0A1.5,1.5,0,0,1,9.5,12Zm8.308-.032a1.5,1.5,0,0,0,1.161-1.775c-.888-4.217-5.051-4.212-5.936,0a1.5,1.5,0,1,0,2.936.614c.01-.046.02-.091.032-.134.012.043.022.088.032.134a1.5,1.5,0,0,0,1.775,1.161ZM24,12A12.013,12.013,0,0,0,12,0C-3.9.6-3.893,23.4,12,24A12.013,12.013,0,0,0,24,12Zm-3,0a9.011,9.011,0,0,1-9,9C.076,20.547.081,3.451,12,3A9.011,9.011,0,0,1,21,12Zm-4.211,2.024A15.4,15.4,0,0,1,12,15,15.4,15.4,0,0,1,7.2,14.024a1,1,0,0,0-1.052,1.518A6.836,6.836,0,0,0,12,19a6.827,6.827,0,0,0,5.842-3.458A1,1,0,0,0,16.789,14.024Z"/></svg>
