<?xml version="1.0" encoding="UTF-8"?>
<svg xmlns="http://www.w3.org/2000/svg" id="Layer_1" data-name="Layer 1" viewBox="0 0 24 24" width="512" height="512"><path d="M10,12.5c0,.829-.671,1.5-1.5,1.5h-.5v.5c0,.829-.671,1.5-1.5,1.5s-1.5-.671-1.5-1.5v-.5H3v1.682c0,1.278,1.04,2.318,2.318,2.318h2.182c.829,0,1.5,.671,1.5,1.5s-.671,1.5-1.5,1.5h-.5v1c0,1.105-.895,2-2,2s-2-.895-2-2v-1.533c-1.774-.863-3-2.684-3-4.786v-2.727c0-.809,.14-1.604,.417-2.364L2.995,3.5C3.756,1.407,5.765,0,7.993,0h8.015c2.228,0,4.236,1.407,4.997,3.5l1.632,4.487c.283,.778-.118,1.639-.896,1.922s-1.64-.119-1.922-.897l-1.632-4.487c-.332-.913-1.208-1.526-2.179-1.526H7.993c-.971,0-1.847,.613-2.179,1.526l-2.354,6.474h5.04c.829,0,1.5,.671,1.5,1.5Zm14,5c0,3.59-2.91,6.5-6.5,6.5s-6.5-2.91-6.5-6.5,2.91-6.5,6.5-6.5,6.5,2.91,6.5,6.5Zm-3.252-.392c-.366-.684-1.077-1.108-1.853-1.108h-1.173l.448-.73c.43-.702,.211-1.619-.49-2.051-.708-.436-1.635-.209-2.062,.504l-1.527,2.55c-.193,.638-.07,1.337,.326,1.873,.397,.535,1.032,.854,1.698,.854h.938l-.501,.612c-.529,.647-.423,1.603,.235,2.118,.644,.504,1.573,.396,2.084-.242l1.778-2.223c.429-.647,.467-1.474,.1-2.157Z"/></svg>
