<?xml version="1.0" encoding="UTF-8"?>
<svg xmlns="http://www.w3.org/2000/svg" id="Layer_1" data-name="Layer 1" viewBox="0 0 24 24" width="512" height="512"><path d="M24,17.5a10.746,10.746,0,0,0-.551-3.4l-1.115-3.342A5.491,5.491,0,0,0,17.117,7H14a5.493,5.493,0,0,0-5.218,3.761L7.668,14.1C6.849,16.452,6.719,19.65,9,21.159V22a2,2,0,0,0,4,0h5a2,2,0,0,0,4,0v-.76A4.5,4.5,0,0,0,24,17.5ZM14,10h3.117a2.5,2.5,0,0,1,2.372,1.709L20.586,15H10.531l1.1-3.291A2.5,2.5,0,0,1,14,10Zm-7.087.046C6.9,10.074,6,12.784,6,12.784V15a2,2,0,0,1-4,0v-.76C-.383,12.769-.292,9.5.551,7.1L1.666,3.76A5.491,5.491,0,0,1,6.883,0H10a5.516,5.516,0,0,1,4.764,2.75,1.5,1.5,0,0,1-2.6,1.5A2.506,2.506,0,0,0,10,3H6.883A2.5,2.5,0,0,0,4.511,4.709L3.414,8H5.5A1.518,1.518,0,0,1,6.913,10.046Z"/></svg>
