<?xml version="1.0" encoding="UTF-8"?>
<svg xmlns="http://www.w3.org/2000/svg" id="Layer_1" data-name="Layer 1" viewBox="0 0 24 24" width="512" height="512"><path d="M24,15.5v6c0,1.381-1.119,2.5-2.5,2.5s-2.5-1.119-2.5-2.5c0-1.209,.859-2.218,2-2.45v-3.55c0-.276-.225-.5-.5-.5h-3c-.275,0-.5,.224-.5,.5v6c0,1.381-1.119,2.5-2.5,2.5s-2.5-1.119-2.5-2.5c0-1.209,.859-2.218,2-2.45v-3.55c0-1.93,1.57-3.5,3.5-3.5h3c1.93,0,3.5,1.57,3.5,3.5ZM13.5,4c-.828,0-1.5,.672-1.5,1.5s.672,1.5,1.5,1.5,1.5-.672,1.5-1.5-.672-1.5-1.5-1.5Zm-3.5,18.5c0,.829-.672,1.5-1.5,1.5h-3.5c-2.757,0-5-2.243-5-5V10.964c0-2.472,1.843-4.6,4.287-4.949,.828-.12,1.58,.453,1.698,1.272,.117,.82-.453,1.58-1.272,1.697-.977,.14-1.713,.991-1.713,1.979v.036h2.5c.828,0,1.5,.671,1.5,1.5s-.672,1.5-1.5,1.5H3v2h3.5c.828,0,1.5,.671,1.5,1.5v3.5h.5c.828,0,1.5,.671,1.5,1.5Zm-5-1.5v-2H3c0,1.103,.897,2,2,2ZM24,5.5v3c0,.849-.199,1.651-.544,2.369-.855-.548-1.868-.869-2.956-.869h-3c-2.458,0-4.545,1.622-5.247,3.852-2.433-.567-4.253-2.749-4.253-5.352v-3c0-3.033,2.468-5.5,5.5-5.5h5c3.032,0,5.5,2.467,5.5,5.5Zm-3,0c0-1.378-1.121-2.5-2.5-2.5h-5c-1.379,0-2.5,1.122-2.5,2.5v3c0,.792,.377,1.491,.954,1.95l3.699-3.176c.397-.331,.982-.305,1.347,.061l.47,.476c.391,.391,1.024,.391,1.414,0l2.115-2.115v-.196Z"/></svg>
