<?xml version="1.0" encoding="UTF-8"?>
<svg xmlns="http://www.w3.org/2000/svg" id="Layer_1" data-name="Layer 1" viewBox="0 0 24 24" width="512" height="512"><path d="M23.022,12.856A5.41,5.41,0,0,0,21.9,9.434L15.384,1.6A4.35,4.35,0,0,0,12.007,0h0A4.348,4.348,0,0,0,8.632,1.6L2.09,9.481A5.275,5.275,0,0,0,1,12.857a5.753,5.753,0,0,0,1.473,3.524L8.869,22.67A4.331,4.331,0,0,0,12.006,24h0a4.3,4.3,0,0,0,3.108-1.3L21.6,16.333A5.636,5.636,0,0,0,23.022,12.856ZM13.069,3.511l6.324,7.6L14.93,10.43,12.526,3.1A1.363,1.363,0,0,1,13.069,3.511Zm-2.126,0,.006-.008a1.348,1.348,0,0,1,.524-.394l-2.4,7.325-4.435.679ZM4.516,14.163l4.182-.64,1.809,1.354v5.2S4.55,14.205,4.516,14.163Zm8.991,5.91v-5.2l1.8-1.351,4.211.642c-.021.026-.044.051-.067.076Z"/></svg>
