<?xml version="1.0" encoding="UTF-8"?>
<svg xmlns="http://www.w3.org/2000/svg" id="Layer_1" data-name="Layer 1" viewBox="0 0 24 24" width="512" height="512"><path d="M6.5,22h-2c-2.481,0-4.5-2.019-4.5-4.5v-2c0-.829,.672-1.5,1.5-1.5s1.5,.671,1.5,1.5v2c0,.827,.673,1.5,1.5,1.5h2c.828,0,1.5,.671,1.5,1.5s-.672,1.5-1.5,1.5Zm17.5-4.5v-2c0-.829-.672-1.5-1.5-1.5s-1.5,.671-1.5,1.5v2c0,.827-.673,1.5-1.5,1.5h-2c-.828,0-1.5,.671-1.5,1.5s.672,1.5,1.5,1.5h2c2.481,0,4.5-2.019,4.5-4.5Zm0-9v-2c0-2.481-2.019-4.5-4.5-4.5h-2c-.828,0-1.5,.671-1.5,1.5s.672,1.5,1.5,1.5h2c.827,0,1.5,.673,1.5,1.5v2c0,.829,.672,1.5,1.5,1.5s1.5-.671,1.5-1.5Zm-21,0v-2c0-.827,.673-1.5,1.5-1.5h2c.828,0,1.5-.671,1.5-1.5s-.672-1.5-1.5-1.5h-2C2.019,2,0,4.019,0,6.5v2c0,.829,.672,1.5,1.5,1.5s1.5-.671,1.5-1.5Zm6,6.5v-6c0-1.104-.896-2-2-2s-2,.896-2,2v6c0,1.104,.896,2,2,2s2-.896,2-2ZM14.5,7h0c-.828,0-1.5,.672-1.5,1.5v7c0,.828,.672,1.5,1.5,1.5h0c.828,0,1.5-.672,1.5-1.5v-7c0-.828-.672-1.5-1.5-1.5Zm3.5,0h0c-.552,0-1,.448-1,1v8c0,.552,.448,1,1,1h0c.552,0,1-.448,1-1V8c0-.552-.448-1-1-1Zm-7,0h0c-.552,0-1,.448-1,1v8c0,.552,.448,1,1,1h0c.552,0,1-.448,1-1V8c0-.552-.448-1-1-1Z"/></svg>
