<?xml version="1.0" encoding="UTF-8"?>
<svg xmlns="http://www.w3.org/2000/svg" id="Layer_1" data-name="Layer 1" viewBox="0 0 24 24" width="512" height="512"><path d="M21,4a3,3,0,0,0-3-3,2.965,2.965,0,0,0-1.136.224A4.031,4.031,0,0,0,12,.545a3.962,3.962,0,0,0-4.868.678A2.959,2.959,0,0,0,6,1,3,3,0,0,0,3,4,3.682,3.682,0,0,0,4,6.467V18.5A5.506,5.506,0,0,0,9.5,24h5A5.506,5.506,0,0,0,20,18.536V6.467A3.682,3.682,0,0,0,21,4Zm-9.316-.759a1.5,1.5,0,0,1,1.9,2.287,9.077,9.077,0,0,0-1.4,1.061A16.562,16.562,0,0,0,9.506,5.01,17.2,17.2,0,0,1,11.684,3.241ZM14.5,21h-5A2.5,2.5,0,0,1,7,18.5V7.251c3.674,1.123,8.878,5.864,10,11.378A2.5,2.5,0,0,1,14.5,21ZM17,11.466a21.219,21.219,0,0,0-2.5-2.923,7.611,7.611,0,0,1,2.5-1.3ZM12,13.5A1.5,1.5,0,1,1,10.5,12,1.5,1.5,0,0,1,12,13.5Zm0,4A1.5,1.5,0,1,1,13.5,19,1.5,1.5,0,0,1,12,17.5Z"/></svg>
