<?xml version="1.0" encoding="UTF-8"?>
<svg xmlns="http://www.w3.org/2000/svg" id="Layer_1" data-name="Layer 1" viewBox="0 0 24 24" width="512" height="512"><path d="M15.443,13.388l-3.299,3.342c-.354,.359-.934,.359-1.288,0l-3.299-3.342c-.509-.515-.144-1.388,.58-1.388h1.863v-1.5c0-.828,.671-1.5,1.5-1.5s1.5,.672,1.5,1.5v1.5h1.863c.724,0,1.089,.873,.58,1.388Zm8.557,1.089c0,4.158-3.364,7.522-7.5,7.522H5.5c-3.033,0-5.5-2.467-5.5-5.5,0-1.676,.709-3.322,1.897-4.402,.115-.104,.181-.25,.161-.353-.188-.967-.199-1.959-.034-2.952,.559-3.366,3.184-6.04,6.533-6.652,3.675-.671,7.344,1.195,8.929,4.54,.06,.126,.175,.212,.325,.242,3.585,.715,6.188,3.892,6.188,7.555Zm-3,.022c0-2.259-1.588-4.199-3.777-4.636-1.087-.218-1.978-.909-2.447-1.897-.878-1.853-2.687-2.966-4.686-2.966-.327,0-.659,.029-.992,.091-2.076,.38-3.768,2.104-4.114,4.193-.106,.639-.1,1.274,.02,1.888,.219,1.13-.198,2.335-1.088,3.145-.556,.506-.916,1.362-.916,2.183,0,1.379,1.122,2.5,2.5,2.5h11c2.481,0,4.5-2.019,4.5-4.5Z"/></svg>
