<?xml version="1.0" encoding="UTF-8"?>
<svg xmlns="http://www.w3.org/2000/svg" id="Layer_1" data-name="Layer 1" viewBox="0 0 24 24" width="512" height="512"><path d="M12,0A12.013,12.013,0,0,0,0,12c.6,15.9,23.4,15.893,24,0A12.013,12.013,0,0,0,12,0Zm0,21a9.01,9.01,0,0,1-9-9C3.452.077,20.549.08,21,12A9.01,9.01,0,0,1,12,21ZM6,9a2,2,0,0,1,4,0A2,2,0,0,1,6,9Zm8,0a2,2,0,0,1,4,0A2,2,0,0,1,14,9Zm3.848,5.542A6.824,6.824,0,0,1,12.007,18a6.84,6.84,0,0,1-5.849-3.458,1,1,0,0,1,1.053-1.518A15.4,15.4,0,0,0,12,14a15.4,15.4,0,0,0,4.793-.976A1,1,0,0,1,17.848,14.542Z"/></svg>
