<?xml version="1.0" encoding="UTF-8"?>
<svg xmlns="http://www.w3.org/2000/svg" id="Layer_1" data-name="Layer 1" viewBox="0 0 24 24" width="512" height="512"><path d="M23.973,17.641a5.8,5.8,0,0,0-3.9-4.881l2.87-10.117A2.258,2.258,0,0,0,22.676.955,2.063,2.063,0,0,0,21.333.047a2.26,2.26,0,0,0-2.568,1.527c-.012.033-2.26,8.2-2.26,8.2A3.123,3.123,0,0,1,13.5,12H10.177c-.665-.17-2.215-.688-2.576-1.876,0,0-2.354-8.516-2.366-8.548A2.255,2.255,0,0,0,2.667.047,2.061,2.061,0,0,0,1.324.955a2.274,2.274,0,0,0-.25,1.74l2.734,9.719A6,6,0,0,0,6,24H9.254a10.2,10.2,0,0,0,2.687-.358A10.065,10.065,0,0,0,14.606,24h3.6a5.8,5.8,0,0,0,5.769-6.359ZM6,21a3,3,0,0,1,0-6h7.5a6.124,6.124,0,0,0,3.041-.8l-.5,1.768A7.052,7.052,0,0,1,9.254,21Zm14.274-.917A2.8,2.8,0,0,1,18.2,21H16.446a10.172,10.172,0,0,0,2.472-4.186l.327-1.152a2.818,2.818,0,0,1,1.741,2.264A2.768,2.768,0,0,1,20.274,20.083Z"/></svg>
