<?xml version="1.0" encoding="UTF-8"?>
<svg xmlns="http://www.w3.org/2000/svg" id="Layer_1" data-name="Layer 1" viewBox="0 0 24 24" width="512" height="512"><path d="M22.733,9.014c-.766-.698-1.76-1.058-2.795-1.01-1.037,.049-1.993,.498-2.692,1.266l-2.438,2.68c-.647-.59-1.507-.949-2.449-.949H4.5c-2.481,0-4.5,2.019-4.5,4.5v4c0,2.481,2.019,4.5,4.5,4.5h5.414c3.03,0,5.912-1.309,7.905-3.589l5.195-5.942c1.411-1.581,1.284-4.028-.281-5.455Zm-1.967,3.469l-5.206,5.954c-1.424,1.629-3.482,2.563-5.646,2.563H4.5c-.827,0-1.5-.673-1.5-1.5v-4c0-.827,.673-1.5,1.5-1.5h7.858c.354,0,.642,.288,.642,.643,0,.317-.237,.591-.551,.635l-5.161,.737c-.82,.117-1.39,.877-1.273,1.697,.117,.82,.878,1.383,1.697,1.273l5.16-.737c1.619-.231,2.876-1.53,3.094-3.115l3.498-3.844c.159-.175,.376-.277,.612-.288,.231-.018,.46,.07,.635,.229,.356,.325,.385,.881,.054,1.252Zm-15.766-3.482h6c1.657,0,3-1.343,3-3V3c0-1.657-1.343-3-3-3H5c-1.657,0-3,1.343-3,3v3c0,1.657,1.343,3,3,3ZM7.5,2h1c.828,0,1.5,.672,1.5,1.5s-.672,1.5-1.5,1.5h-1c-.828,0-1.5-.672-1.5-1.5s.672-1.5,1.5-1.5Z"/></svg>
