<?xml version="1.0" encoding="UTF-8"?>
<svg xmlns="http://www.w3.org/2000/svg" id="Layer_1" data-name="Layer 1" viewBox="0 0 24 24" width="512" height="512"><path d="M13.5,2.103v-.603c0-.828-.672-1.5-1.5-1.5s-1.5,.672-1.5,1.5v.603C5.142,2.837,1,7.443,1,13c0,2.513,.848,4.832,2.272,6.686-.719,.603-1.272,1.523-1.272,2.814,0,.828,.672,1.5,1.5,1.5s1.5-.672,1.5-1.5c0-.15,0-.516,.44-.675,1.833,1.366,4.103,2.175,6.56,2.175s4.724-.808,6.556-2.173c.444,.165,.444,.524,.444,.673,0,.828,.672,1.5,1.5,1.5s1.5-.672,1.5-1.5c0-1.291-.553-2.21-1.272-2.814,1.424-1.854,2.272-4.173,2.272-6.686,0-5.557-4.142-10.163-9.5-10.897ZM4,13c0-4.411,3.589-8,8-8s8,3.589,8,8-3.589,8-8,8-8-3.589-8-8ZM23.959,4.5c0,.828-.672,1.5-1.5,1.5s-1.5-.672-1.5-1.5c0-.451-.143-1.5-1.459-1.5-.828,0-1.5-.672-1.5-1.5s.672-1.5,1.5-1.5c2.584,0,4.459,1.893,4.459,4.5ZM1.541,6C.713,6,.041,5.328,.041,4.5,.041,1.893,1.916,0,4.5,0c.828,0,1.5,.672,1.5,1.5s-.672,1.5-1.5,1.5c-1.316,0-1.459,1.049-1.459,1.5,0,.828-.672,1.5-1.5,1.5Zm11.959,2.5v4c0,.828-.672,1.5-1.5,1.5s-1.5-.672-1.5-1.5v-4c0-.828,.672-1.5,1.5-1.5s1.5,.672,1.5,1.5Zm0,9c0,.828-.672,1.5-1.5,1.5s-1.5-.672-1.5-1.5,.672-1.5,1.5-1.5,1.5,.672,1.5,1.5Z"/></svg>
