<?xml version="1.0" encoding="UTF-8"?>
<svg xmlns="http://www.w3.org/2000/svg" id="Layer_1" data-name="Layer 1" viewBox="0 0 24 24" width="512" height="512"><path d="M17,2.5A2.5,2.5,0,1,1,19.5,5,2.5,2.5,0,0,1,17,2.5Zm6.853,18.946a4.5,4.5,0,0,1-6,2.111L.856,15.481a1.5,1.5,0,1,1,1.288-2.71l7.978,3.792.5-.935a.5.5,0,0,0-.148-.642S9.058,13.957,9.01,13.912a3.21,3.21,0,0,1-.4-4.261L5.342,8.068l-.329.693a1.5,1.5,0,0,1-1.356.858A1.5,1.5,0,0,1,2.3,7.475l.339-.715-.411-.2a1.5,1.5,0,0,1,1.308-2.7l.388.189.308-.65A1.5,1.5,0,0,1,6.946,4.687l-.318.67L10.643,7.3l1.024-1.16A3.469,3.469,0,0,1,14.367,5a3.4,3.4,0,0,1,2.123.837A3.959,3.959,0,0,1,18,8.938v1.753a.5.5,0,0,0,.292.454L21.16,12.55a1.5,1.5,0,0,1-1.32,2.695l-2.835-1.39a3.5,3.5,0,0,1-2-3.164V9.627l-2.629,3.036a3.513,3.513,0,0,1,.9,4.38l-.433.809,6.307,3a1.5,1.5,0,0,0,2-.7,1.5,1.5,0,0,1,2.706,1.3Z"/></svg>
