<?xml version="1.0" encoding="UTF-8"?>
<svg xmlns="http://www.w3.org/2000/svg" id="Layer_1" data-name="Layer 1" viewBox="0 0 24 24" width="512" height="512"><path d="M12,7.429v-1.429h1.5c.829,0,1.5-.671,1.5-1.5s-.671-1.5-1.5-1.5h-1.537c-.248-1.694-1.737-3-3.497-3-1.93,0-3.466,1.57-3.466,3.5v3.929C2.09,8.461,0,11.241,0,14.5v4c0,3.033,2.467,5.5,5.5,5.5h6c3.033,0,5.5-2.467,5.5-5.5v-4c0-3.259-2.09-6.039-5-7.071Zm2,11.071c0,1.378-1.122,2.5-2.5,2.5H5.5c-1.378,0-2.5-1.122-2.5-2.5v-4c0-2.481,2.019-4.5,4.5-4.5h2c2.481,0,4.5,2.019,4.5,4.5v4Zm-2-2.5c0,1.105-.895,2-2,2h-3c-1.105,0-2-.895-2-2s.895-2,2-2h3c1.105,0,2,.895,2,2ZM20,4.5c0,.828-.672,1.5-1.5,1.5s-1.5-.672-1.5-1.5,.672-1.5,1.5-1.5,1.5,.672,1.5,1.5Zm1-3c0-.828,.672-1.5,1.5-1.5s1.5,.672,1.5,1.5-.672,1.5-1.5,1.5-1.5-.672-1.5-1.5Zm3,6c0,.828-.672,1.5-1.5,1.5s-1.5-.672-1.5-1.5,.672-1.5,1.5-1.5,1.5,.672,1.5,1.5Z"/></svg>
