<?xml version="1.0" encoding="UTF-8"?>
<svg xmlns="http://www.w3.org/2000/svg" id="Layer_1" data-name="Layer 1" viewBox="0 0 24 24" width="512" height="512"><path d="M20.5,6H5.5c-.789,0-1.53-.376-2-.999,.457-.607,1.184-1.001,2-1.001H22.5c1.972-.034,1.971-2.967,0-3H5.5C2.468,1,0,3.467,0,6.5v11c0,3.033,2.468,5.5,5.5,5.5h15c1.93,0,3.5-1.57,3.5-3.5V9.5c0-1.93-1.57-3.5-3.5-3.5Zm.5,13.5c0,.276-.225,.5-.5,.5H5.5c-1.379,0-2.5-1.122-2.5-2.5V8.396c.763,.39,1.618,.604,2.5,.604h15c.275,0,.5,.224,.5,.5v10Zm-2-5c-.034,1.972-2.967,1.971-3,0,.034-1.972,2.967-1.971,3,0Z"/></svg>
