<?xml version="1.0" encoding="UTF-8"?>
<svg xmlns="http://www.w3.org/2000/svg" id="Layer_1" data-name="Layer 1" viewBox="0 0 24 24" width="512" height="512"><path d="M12.067,17.445c.582,.589,.577,1.539-.012,2.121l-3.793,3.75c-.484,.483-1.121,.726-1.759,.726s-1.282-.243-1.77-.731l-3.787-3.744c-.589-.582-.594-1.532-.012-2.121,.583-.589,1.532-.595,2.122-.012l1.945,1.923V1.5c0-.828,.671-1.5,1.5-1.5s1.5,.672,1.5,1.5V19.357l1.945-1.923c.59-.583,1.54-.577,2.122,.012ZM23,5.5c0,3.948-2.159,6.5-5.5,6.5-.829,0-1.5-.672-1.5-1.5s.671-1.5,1.5-1.5c.969,0,1.557-.445,1.927-1.043-.142,.015-.281,.043-.427,.043-2.206,0-4-1.794-4-4S16.795,0,19,0c2.102,0,3.842,1.635,4,3.697,.02,.098,0,1.803,0,1.803Zm-2.5-1.5c0-.828-.673-1.5-1.5-1.5s-1.5,.672-1.5,1.5,.673,1.5,1.5,1.5,1.5-.672,1.5-1.5Zm-.426,9.114c-.561-.233-1.207-.104-1.635,.325l-2,2c-.586,.586-.586,1.535,0,2.121,.422,.422,1.033,.539,1.561,.354v4.585c0,.828,.671,1.5,1.5,1.5s1.5-.672,1.5-1.5V14.5c0-.606-.365-1.153-.926-1.386Z"/></svg>
