<?xml version="1.0" encoding="UTF-8"?>
<svg xmlns="http://www.w3.org/2000/svg" id="Layer_1" data-name="Layer 1" viewBox="0 0 24 24" width="512" height="512"><path d="M23.599,21.555l-5.561-5.561c1.246-1.668,1.984-3.735,1.984-5.972C20.021,4.508,15.535,.021,10.021,.021S.021,4.508,.021,10.021s4.486,10,10,10c2.197,0,4.231-.713,5.883-1.919l5.573,5.573c.293,.293,.677,.439,1.061,.439s.768-.146,1.061-.439c.586-.586,.586-1.535,0-2.121ZM3.021,10.021c0-3.859,3.141-7,7-7s7,3.141,7,7-3.141,7-7,7-7-3.141-7-7Zm6.979-5.014c-1.135,0-2.271,.433-3.137,1.299-1.733,1.733-1.733,4.542,0,6.274l2.011,1.967c.626,.612,1.626,.612,2.252,0l2.011-1.967c1.733-1.733,1.733-4.542,0-6.274-.866-.866-2.002-1.299-3.137-1.299Zm0,5.979c-.825,0-1.493-.669-1.493-1.493s.669-1.493,1.493-1.493,1.493,.669,1.493,1.493-.669,1.493-1.493,1.493Z"/></svg>
