<?xml version="1.0" encoding="UTF-8"?>
<svg xmlns="http://www.w3.org/2000/svg" id="Layer_1" data-name="Layer 1" viewBox="0 0 24 24" width="512" height="512"><path d="M11,12.5a1.5,1.5,0,0,1-3,0A1.5,1.5,0,0,1,11,12.5ZM8.5,16a1.5,1.5,0,0,0,0,3A1.5,1.5,0,0,0,8.5,16Zm6-5a1.5,1.5,0,0,0,0,3A1.5,1.5,0,0,0,14.5,11Zm-1,5a1.5,1.5,0,0,0,0,3A1.5,1.5,0,0,0,13.5,16Zm-6,5a1.5,1.5,0,0,0,0,3A1.5,1.5,0,0,0,7.5,21Zm5,0a1.5,1.5,0,0,0,0,3A1.5,1.5,0,0,0,12.5,21Zm6.577-1.116C26.03,16.9,25.44,6.489,17.809,4.922a.437.437,0,0,1-.322-.242A8.24,8.24,0,0,0,8.558.14,8.128,8.128,0,0,0,2.025,6.793a8.289,8.289,0,0,0,.034,2.952A.433.433,0,0,1,1.9,10.1a5.823,5.823,0,0,0,.768,9.149,1.5,1.5,0,1,0,1.668-2.494,2.806,2.806,0,0,1-.418-4.436A3.417,3.417,0,0,0,5,9.173a5.317,5.317,0,0,1-.02-1.888,5.183,5.183,0,0,1,9.792-1.32,3.418,3.418,0,0,0,2.447,1.9c4.732.95,4.94,7.45.7,9.252a1.5,1.5,0,1,0,1.154,2.768Z"/></svg>
