<?xml version="1.0" encoding="UTF-8"?>
<svg xmlns="http://www.w3.org/2000/svg" id="Layer_1" data-name="Layer 1" viewBox="0 0 24 24" width="512" height="512"><path d="M15.5,18h-2c-1.972-.033-1.971-2.967,0-3h2c1.972,.033,1.971,2.967,0,3Zm-7-3c-1.972,.034-1.971,2.967,0,3,1.972-.034,1.971-2.967,0-3Zm7-5c-1.972,.034-1.971,2.967,0,3,1.972-.034,1.971-2.967,0-3Zm-4.818,2.382l1.862-1.805c.595-.577,.61-1.526,.033-2.121-.578-.596-1.526-.61-2.121-.033l-1.297,1.257-.463-.438c-.603-.568-1.552-.541-2.121,.061-.569,.603-.542,1.552,.061,2.121l.998,.941c.424,.425,.982,.636,1.538,.636,.55,0,1.097-.207,1.509-.619Zm11.318,6.118V7.5c0-2.978-2.379-5.411-5.337-5.498-.562-1.183-1.769-2.002-3.163-2.002h-3c-1.395,0-2.601,.819-3.163,2.002-2.958,.086-5.337,2.52-5.337,5.498v11c0,3.033,2.467,5.5,5.5,5.5h9c3.033,0,5.5-2.467,5.5-5.5ZM8.5,5c.829,0,1.5-.671,1.5-1.5,0-.276,.224-.5,.5-.5h3c.276,0,.5,.224,.5,.5,0,.829,.671,1.5,1.5,1.5h1c1.378,0,2.5,1.122,2.5,2.5v11c0,1.378-1.122,2.5-2.5,2.5H7.5c-1.378,0-2.5-1.122-2.5-2.5V7.5c0-1.378,1.122-2.5,2.5-2.5h1Z"/></svg>
