<?xml version="1.0" encoding="UTF-8"?>
<svg xmlns="http://www.w3.org/2000/svg" id="Layer_1" data-name="Layer 1" viewBox="0 0 24 24" width="512" height="512"><path d="M10,24a9.893,9.893,0,0,1-7.077-2.961C-4.04,14.063,3.4,4.954,6.542,1.569A4.571,4.571,0,0,1,10.008,0a4.617,4.617,0,0,1,3.511,1.625C16.648,5,24.016,14.088,17.077,21.039A9.893,9.893,0,0,1,10,24Zm.005-21a1.6,1.6,0,0,0-1.23.57C5.674,7.056.011,13.982,5.056,18.929a6.969,6.969,0,0,0,9.888,0c5.039-4.923-.613-11.879-3.663-15.3A1.643,1.643,0,0,0,10.006,3ZM21.5,5a2.5,2.5,0,0,1,0-5A2.5,2.5,0,0,1,21.5,5Z"/></svg>
