<?xml version="1.0" encoding="UTF-8"?>
<svg xmlns="http://www.w3.org/2000/svg" id="Layer_1" data-name="Layer 1" viewBox="0 0 24 24" width="512" height="512"><path d="M23.59,10.609l-2.585-7.413c-.502-1.381-1.566-2.503-2.919-3.077-.762-.324-1.644,.031-1.967,.794-.324,.762,.031,1.643,.794,1.967,.59,.251,1.053,.74,1.266,1.323l2.37,6.797H3.451l2.363-6.778c.219-.602,.683-1.091,1.272-1.342,.763-.324,1.118-1.205,.794-1.967C7.557,.151,6.675-.204,5.914,.12c-1.353,.574-2.417,1.696-2.926,3.096L.417,10.59c-.276,.76-.417,1.555-.417,2.364v2.727c0,2.102,1.226,3.923,3,4.786v1.533c0,1.105,.895,2,2,2s2-.895,2-2v-1h10v1c0,1.105,.895,2,2,2s2-.895,2-2v-1.533c1.774-.863,3-2.684,3-4.786v-2.727c0-.809-.14-1.604-.41-2.345Zm-4.909,7.391H5.318c-1.278,0-2.318-1.04-2.318-2.318v-1.682h2v.5c0,.829,.671,1.5,1.5,1.5s1.5-.671,1.5-1.5v-.5h8v.5c0,.829,.671,1.5,1.5,1.5s1.5-.671,1.5-1.5v-.5h2v1.682c0,1.278-1.04,2.318-2.318,2.318ZM8.917,6.145c-.397-.535-.519-1.235-.325-1.873,.043-.141,.106-.275,.188-.397l1.473-2.207c.46-.69,1.391-.875,2.08-.415,.689,.46,.875,1.391,.415,2.08l-.445,.667h1.093c.776,0,1.487,.425,1.854,1.109,.367,.684,.329,1.511-.101,2.157l-1.406,2.075c-.29,.428-.762,.658-1.243,.658-.29,0-.583-.083-.84-.258-.686-.465-.865-1.397-.4-2.083l.446-.658h-1.089c-.667,0-1.301-.32-1.699-.855Z"/></svg>
