<?xml version="1.0" encoding="UTF-8"?>
<svg xmlns="http://www.w3.org/2000/svg" id="Layer_1" data-name="Layer 1" viewBox="0 0 24 24" width="512" height="512"><path d="M19.5,10h-.5v-.5c0-2.481-2.019-4.5-4.5-4.5h-.5v-.5c0-2.481-2.019-4.5-4.5-4.5S5,2.019,5,4.5v.5h-.5C2.019,5,0,7.019,0,9.5v5c0,2.934,2.309,5.339,5.206,5.492,.652,2.31,2.779,4.008,5.294,4.008h8c3.033,0,5.5-2.468,5.5-5.5v-4c0-2.481-2.019-4.5-4.5-4.5Zm-6.5,3h3v1.5c0,.827-.673,1.5-1.5,1.5s-1.5-.673-1.5-1.5v-1.5ZM8,4.5c0-.827,.673-1.5,1.5-1.5s1.5,.673,1.5,1.5v.5h-3v-.5ZM3,14.5v-5c0-.827,.673-1.5,1.5-1.5H14.5c.827,0,1.5,.673,1.5,1.5v.5h-6.5c-2.481,0-4.5,2.019-4.5,4.5v2.45c-1.14-.232-2-1.242-2-2.45Zm18,4c0,1.379-1.122,2.5-2.5,2.5H10.5c-1.378,0-2.5-1.121-2.5-2.5v-4c0-.827,.673-1.5,1.5-1.5h.5v1.5c0,2.481,2.019,4.5,4.5,4.5s4.5-2.019,4.5-4.5v-1.5h.5c.827,0,1.5,.673,1.5,1.5v4Z"/></svg>
