<?xml version="1.0" encoding="UTF-8"?>
<svg xmlns="http://www.w3.org/2000/svg" id="Layer_1" data-name="Layer 1" viewBox="0 0 24 24" width="512" height="512"><path d="M12.049,24c-2.73,0-5.237-1.039-7.124-2.925-1.886-1.886-2.925-4.394-2.925-7.062v-3.716c0-2.807,1.164-5.541,3.192-7.5C7.151,.904,9.687-.084,12.344,.006c3.705,.129,7.032,2.274,8.685,5.599,.369,.742,.066,1.642-.676,2.011-.741,.367-1.642,.066-2.011-.676-1.162-2.337-3.5-3.845-6.103-3.936-1.821-.062-3.594,.629-4.963,1.951-1.447,1.397-2.276,3.344-2.276,5.342v3.716c-.064,7.642,10.798,9.481,13.851,3.121,.318-.655,.048-1.211-.083-1.42-.135-.215-.529-.715-1.285-.715h-3.984c-1.972-.033-1.971-2.967,0-3h3.984c1.564,0,2.995,.793,3.827,2.123,.825,1.316,.914,2.932,.239,4.322-1.714,3.531-5.178,5.556-9.501,5.555Z"/></svg>
