<?xml version="1.0" encoding="UTF-8"?>
<svg xmlns="http://www.w3.org/2000/svg" id="Layer_1" data-name="Layer 1" viewBox="0 0 24 24" width="512" height="512"><path d="M10.5,5.5v-3a1.5,1.5,0,0,1,3,0v3a1.5,1.5,0,1,1-3,0Zm7,.5A1.5,1.5,0,0,0,19,4.5v-2a1.5,1.5,0,1,0-3,0v2A1.5,1.5,0,0,0,17.5,6Zm-11-.011A1.5,1.5,0,0,0,8,4.486V2.5a1.5,1.5,0,1,0-3,0V4.486A1.5,1.5,0,0,0,6.5,5.987ZM21.858,19.976A19.323,19.323,0,0,1,12,23a19.323,19.323,0,0,1-9.855-3.021A4.824,4.824,0,0,1,.812,13.3a4.745,4.745,0,0,1,.823-.919A9.084,9.084,0,0,1,.746,11.6,2.728,2.728,0,0,1,4.69,7.824C4.833,7.965,8,10.978,12,10.979s7.168-3.014,7.311-3.155A2.728,2.728,0,0,1,23.257,11.6a9.041,9.041,0,0,1-.887.78,4.758,4.758,0,0,1-.512,7.6ZM20.7,14.958a1.816,1.816,0,0,0-1.162-.775,1.784,1.784,0,0,0-1.337.261A12.3,12.3,0,0,1,12,16.5a12.193,12.193,0,0,1-6.19-2.05,1.778,1.778,0,0,0-.986-.3,1.818,1.818,0,0,0-1.013,3.33A16.071,16.071,0,0,0,12,20a16.071,16.071,0,0,0,8.191-2.517A1.821,1.821,0,0,0,20.7,14.958Z"/></svg>
