<?xml version="1.0" encoding="UTF-8"?>
<svg xmlns="http://www.w3.org/2000/svg" id="Layer_1" data-name="Layer 1" viewBox="0 0 24 24" width="512" height="512"><path d="M16.5,6a5.324,5.324,0,0,0-2.287.619,4.7,4.7,0,0,0-.662-.315C13.894,3.106,15.977,3,16,3c.7,0,1,.379,1,.5a1.5,1.5,0,0,0,3,0A3.779,3.779,0,0,0,16,0a5.371,5.371,0,0,0-3.8,1.879A5.392,5.392,0,0,0,10.171.158,1.5,1.5,0,0,0,8.829,2.842c.888.444,1.511,1.235,1.643,3.452a4.82,4.82,0,0,0-.686.325A5.327,5.327,0,0,0,7.5,6C4.485,6,0,8.4,0,15c0,6.14,4.484,9,7.515,9a4.143,4.143,0,0,0,2.177-.67,4.31,4.31,0,0,0,4.616,0,4.143,4.143,0,0,0,2.176.67C19.516,24,24,21.14,24,15,24,8.4,19.516,6,16.5,6ZM3,15c0-4.746,2.943-6,4.474-6L7.5,9A11.874,11.874,0,0,0,6,15a11.888,11.888,0,0,0,1.5,6C6.584,20.989,3,19.909,3,15Zm6,0c0-3.434,1.584-6,3-6s3,2.566,3,6-1.584,6-3,6S9,18.434,9,15Zm7.5,6A11.888,11.888,0,0,0,18,15a11.879,11.879,0,0,0-1.5-6h0c1.556,0,4.5,1.254,4.5,6C21,19.908,17.417,20.989,16.5,21Z"/></svg>
