<?xml version="1.0" encoding="UTF-8"?>
<svg xmlns="http://www.w3.org/2000/svg" id="Layer_1" data-name="Layer 1" viewBox="0 0 24 24" width="512" height="512"><path d="M8,14a4,4,0,0,1,2.5-3.709V3a3,3,0,0,1,3-3h2a1.5,1.5,0,0,1,0,3h-2V5h2a1.5,1.5,0,0,1,0,3h-2v2.291A4,4,0,1,1,8,14Zm13.748,6.8a1.709,1.709,0,0,1-1.806-.148,3.349,3.349,0,0,0-3.882,0,1.854,1.854,0,0,1-2.118,0,3.349,3.349,0,0,0-3.882,0,1.854,1.854,0,0,1-2.118,0,3.349,3.349,0,0,0-3.882,0,1.712,1.712,0,0,1-1.808.149,1.5,1.5,0,1,0-1.5,2.6,4.762,4.762,0,0,0,5.05-.3.333.333,0,0,1,.406,0,4.907,4.907,0,0,0,5.594,0,.333.333,0,0,1,.406,0,4.907,4.907,0,0,0,5.594,0,.333.333,0,0,1,.406,0,4.686,4.686,0,0,0,5.048.3,1.5,1.5,0,0,0-1.5-2.6ZM18.2,17.068a4.678,4.678,0,0,0,5.05.3,1.5,1.5,0,1,0-1.508-2.594,1.7,1.7,0,0,1-1.806-.149A1.5,1.5,0,0,0,18.2,17.068Zm-17.458.3a4.678,4.678,0,0,0,5.05-.3A1.5,1.5,0,0,0,4.06,14.623a1.7,1.7,0,0,1-1.806.149A1.5,1.5,0,0,0,.746,17.366Z"/></svg>
