<?xml version="1.0" encoding="UTF-8"?>
<svg xmlns="http://www.w3.org/2000/svg" id="Layer_1" data-name="Layer 1" viewBox="0 0 24 24" width="512" height="512"><path d="M21.733,5.078a6.091,6.091,0,0,0,.6-.33,1.492,1.492,0,0,0,.418-2.061,1.508,1.508,0,0,0-2.068-.444,5.684,5.684,0,0,1-1.682.6V1.5a1.5,1.5,0,0,0-3,0V2.844a5.733,5.733,0,0,1-1.68-.6,1.5,1.5,0,0,0-1.652,2.5,5.885,5.885,0,0,0,.607.333A6.471,6.471,0,0,0,11.13,8.7C11.051,9.093,10.686,10,9,10H7.5C3.224,10,0,13.01,0,17s3.224,7,7.5,7C17.832,24,24,18.767,24,10A6.483,6.483,0,0,0,21.733,5.078ZM7.5,21C4.851,21,3,19.355,3,17s1.851-4,4.5-4H9c3.189,0,4.725-1.994,5.07-3.7A3.49,3.49,0,0,1,16,6.853V8a1.5,1.5,0,0,0,3,0V6.851A3.5,3.5,0,0,1,21,10C21,19.571,12.542,21,7.5,21Z"/></svg>
