<?xml version="1.0" encoding="UTF-8"?>
<svg xmlns="http://www.w3.org/2000/svg" id="Layer_1" data-name="Layer 1" viewBox="0 0 24 24" width="512" height="512"><path d="M7.561,19.439c.586,.586,.586,1.535,0,2.121-.293,.293-.677,.439-1.061,.439s-.768-.146-1.061-.439l-3-3c-.586-.586-.586-1.535,0-2.121s1.535-.586,2.121,0l3,3Zm.939-5.439c-.828,0-1.5,.672-1.5,1.5s.672,1.5,1.5,1.5,1.5-.672,1.5-1.5-.672-1.5-1.5-1.5ZM1.5,21c-.828,0-1.5,.672-1.5,1.5s.672,1.5,1.5,1.5,1.5-.672,1.5-1.5-.672-1.5-1.5-1.5Zm11.619-7.882c.276,.247,.506,.382,1.084,.382,.028,0-.028,0,0-.002,.397-.022,.769-.202,1.034-.499,.492-.551,.763-1.261,.763-1.999,0-1.654-1.346-3-3-3s-3,1.346-3,3c0,.828,.671,1.5,1.5,1.5,.598,0,1.172,.22,1.619,.618ZM23.856,4.866c-.936-2.13-2.625-3.813-4.758-4.741-.76-.332-1.644,.018-1.974,.776-.331,.76,.017,1.644,.777,1.974,1.438,.626,2.577,1.762,3.209,3.198,.247,.562,.797,.896,1.374,.896,.202,0,.406-.04,.603-.127,.759-.333,1.103-1.219,.77-1.977Zm-10.975-1.865c-4.177,.062-7.556,3.238-7.859,7.39-.06,.826,.561,1.545,1.387,1.605,.834,.065,1.545-.561,1.605-1.387,.189-2.589,2.3-4.57,4.911-4.608,1.341-.059,2.624,.491,3.584,1.438s1.49,2.212,1.49,3.561c0,1.001-.296,1.965-.856,2.791-.77,1.134-1.144,2.347-1.144,3.709,0,2.159-1.341,3.5-3.5,3.5-.829,0-1.5,.672-1.5,1.5s.671,1.5,1.5,1.5c3.827,0,6.5-2.673,6.5-6.5,0-.763,.193-1.387,.625-2.024,.899-1.324,1.375-2.872,1.375-4.476,0-2.158-.847-4.182-2.384-5.697s-3.567-2.302-5.734-2.302Z"/></svg>
