<?xml version="1.0" encoding="UTF-8"?>
<svg xmlns="http://www.w3.org/2000/svg" id="Layer_1" data-name="Layer 1" viewBox="0 0 24 24" width="512" height="512"><path d="M12,0A10.778,10.778,0,0,0,1,10.515C1,15.945,5.619,24,12,24s11-8.055,11-13.485A10.778,10.778,0,0,0,12,0Zm0,21c-4.416,0-8-6.344-8-10.485A7.778,7.778,0,0,1,12,3a7.778,7.778,0,0,1,8,7.515C20,14.656,16.416,21,12,21Zm7-10a2.292,2.292,0,0,1-2.5,2A2.292,2.292,0,0,1,14,11a2.292,2.292,0,0,1,2.5-2A2.292,2.292,0,0,1,19,11Zm-9,0a2.292,2.292,0,0,1-2.5,2A2.292,2.292,0,0,1,5,11,2.292,2.292,0,0,1,7.5,9,2.292,2.292,0,0,1,10,11Zm3.5,3.5A1.5,1.5,0,1,1,12,13,1.5,1.5,0,0,1,13.5,14.5Zm0,4A1.5,1.5,0,1,1,12,17,1.5,1.5,0,0,1,13.5,18.5Zm0-12A1.5,1.5,0,1,1,12,5,1.5,1.5,0,0,1,13.5,6.5Z"/></svg>
