<?xml version="1.0" encoding="UTF-8"?>
<svg xmlns="http://www.w3.org/2000/svg" id="Layer_1" data-name="Layer 1" viewBox="0 0 24 24" width="512" height="512"><path d="M20.5,0h-2c-1.76,0-3.221,1.306-3.464,3h-6.072c-.243-1.694-1.704-3-3.464-3H3.5C1.57,0,0,1.57,0,3.5v2c0,1.93,1.57,3.5,3.5,3.5h2c.166,0,.329-.012,.489-.034l3.367,7.997c-.228,.464-.356,.986-.356,1.537v2c0,1.93,1.57,3.5,3.5,3.5h2c1.93,0,3.5-1.57,3.5-3.5v-2c0-1.93-1.57-3.5-3.5-3.5h-2c-.235,0-.464,.023-.686,.068l-3.289-7.81c.221-.38,.373-.805,.438-1.257h6.072c.243,1.694,1.704,3,3.464,3h2c1.93,0,3.5-1.57,3.5-3.5V3.5c0-1.93-1.57-3.5-3.5-3.5ZM3,5.5V3.5c0-.276,.225-.5,.5-.5h2c.275,0,.5,.224,.5,.5v2c0,.276-.225,.5-.5,.5H3.5c-.275,0-.5-.224-.5-.5Zm12,13v2c0,.275-.225,.5-.5,.5h-2c-.275,0-.5-.225-.5-.5v-2c0-.275,.225-.5,.5-.5h2c.275,0,.5,.225,.5,.5Zm6-13c0,.276-.225,.5-.5,.5h-2c-.275,0-.5-.224-.5-.5V3.5c0-.276,.225-.5,.5-.5h2c.275,0,.5,.224,.5,.5v2Z"/></svg>
