<?xml version="1.0" encoding="UTF-8"?>
<svg xmlns="http://www.w3.org/2000/svg" id="Layer_1" data-name="Layer 1" viewBox="0 0 24 24" width="512" height="512"><g><path d="M22.5,21H19.225a7.413,7.413,0,0,0-.98-2.124l2.24-2.24a1.5,1.5,0,0,0-2.121-2.121L16.11,16.769a7.477,7.477,0,0,0-2.61-1.1V12.5a1.5,1.5,0,0,0-3,0v3.171a7.507,7.507,0,0,0-2.61,1.1L5.636,14.515a1.5,1.5,0,0,0-2.121,2.121l2.239,2.239A7.4,7.4,0,0,0,4.775,21H1.5a1.5,1.5,0,0,0,0,3H5.172a2.5,2.5,0,0,0,2.435-1.961,4.509,4.509,0,0,1,8.786,0A2.5,2.5,0,0,0,18.827,24H22.5A1.5,1.5,0,0,0,22.5,21Z"/><path d="M10.5,1.5V3.837H8.837A1.006,1.006,0,0,0,8.13,5.544l3.163,3.163a1,1,0,0,0,1.414,0L15.87,5.544a1.006,1.006,0,0,0-.707-1.707H13.5V1.5A1.5,1.5,0,0,0,10.5,1.5Z"/></g></svg>
