<?xml version="1.0" encoding="UTF-8"?>
<svg xmlns="http://www.w3.org/2000/svg" id="Layer_1" data-name="Layer 1" viewBox="0 0 24 24" width="512" height="512"><path d="M14.625,22.138A5.505,5.505,0,0,1,10.5,24h-5A5.506,5.506,0,0,1,0,18.5V8.5a1.5,1.5,0,0,1,3,0V9h.5a1.5,1.5,0,0,1,0,3H3v6.5A2.5,2.5,0,0,0,5.5,21h5a2.5,2.5,0,0,0,1.875-.847,1.5,1.5,0,0,1,2.25,1.985ZM24,18.5a3.485,3.485,0,0,1-.967,2.412l.528.527a1.5,1.5,0,0,1-2.122,2.122l-21-21A1.5,1.5,0,0,1,2.561.439L2.819.7A5.491,5.491,0,0,1,5.5,0h5A5.507,5.507,0,0,1,16,5.5v8.379l4.908,4.908A.491.491,0,0,0,21,18.5V8.95A2.5,2.5,0,0,1,19,6.5V4.121l-1.561-1.56A1.5,1.5,0,0,1,19.561.439L22.1,2.975A6.451,6.451,0,0,1,24,7.436C24,7.457,24,18.5,24,18.5ZM5.146,3.025,13,10.879V5.5A2.5,2.5,0,0,0,10.5,3h-5A2.61,2.61,0,0,0,5.146,3.025Z"/></svg>
