<?xml version="1.0" encoding="UTF-8"?>
<svg xmlns="http://www.w3.org/2000/svg" id="Layer_1" data-name="Layer 1" viewBox="0 0 24 24" width="512" height="512"><path d="M12,24C5.383,24,0,18.617,0,12S5.383,0,12,0s12,5.383,12,12-5.383,12-12,12Zm0-21C7.038,3,3,7.038,3,12s4.038,9,9,9,9-4.038,9-9S16.962,3,12,3ZM7.636,13.971l-1.302,1c-.446,.446-.446,1.17,0,1.616l.522,.6c.551,.552,1.277,.813,2,.813,3.714,0,9.143-5.143,9.143-9.143,0-.723-.261-1.449-.813-2l-.6-.522c-.446-.446-1.17-.446-1.616,0l-1,1.302c-.446,.446-.446,1.17,0,1.616l.851,1.069c-.901,2.244-2.429,3.71-4.5,4.5l-1.069-.851c-.446-.446-1.17-.446-1.616,0Z"/></svg>
