<?xml version="1.0" encoding="UTF-8"?>
<svg xmlns="http://www.w3.org/2000/svg" id="Layer_1" data-name="Layer 1" viewBox="0 0 24 24" width="512" height="512"><path d="M18.5,8h-7.192l5.338-5.338c.586-.586,.586-1.535,0-2.121s-1.535-.586-2.121,0L7.333,7.732c-.975,.975-.975,2.561,0,3.535l7.191,7.191c.293,.293,.677,.439,1.061,.439s.768-.146,1.061-.439c.586-.586,.586-1.535,0-2.121l-5.338-5.338h7.192c1.378,0,2.5,1.121,2.5,2.5v9c0,.828,.671,1.5,1.5,1.5s1.5-.672,1.5-1.5V13.5c0-3.032-2.467-5.5-5.5-5.5Z"/><path d="M3.455,10.561c-.283-.283-.439-.66-.439-1.061s.156-.777,.439-1.061L9.231,2.662c.586-.586,.586-1.535,0-2.121S7.696-.045,7.11,.541L1.333,6.318C.483,7.168,.016,8.298,.016,9.5s.468,2.332,1.318,3.182l5.777,5.777c.293,.293,.677,.439,1.061,.439s.768-.146,1.061-.439c.586-.586,.586-1.535,0-2.121L3.455,10.561Z"/></svg>
