<?xml version="1.0" encoding="UTF-8"?>
<svg xmlns="http://www.w3.org/2000/svg" id="Layer_1" data-name="Layer 1" viewBox="0 0 24 24" width="512" height="512"><path d="M12.5,24A1.5,1.5,0,0,1,11,22.5v-3a1.5,1.5,0,0,1,3,0v3A1.5,1.5,0,0,1,12.5,24ZM19,22.5v-3a1.5,1.5,0,0,0-3,0v3a1.5,1.5,0,0,0,3,0ZM22.5,8a1.5,1.5,0,0,0,0,3A1.5,1.5,0,0,0,22.5,8Zm0-8a1.5,1.5,0,0,0,0,3A1.5,1.5,0,0,0,22.5,0Zm-5,4a1.5,1.5,0,0,0,0,3A1.5,1.5,0,0,0,17.5,4ZM9.873,21.941a1.5,1.5,0,0,0-.5-2.061,1.5,1.5,0,0,1-.347-.439c-.123-.458.3-.825.6-.949a2.448,2.448,0,0,0,1.445-2.784A2.877,2.877,0,0,1,11,15.029a3.082,3.082,0,0,1,.092-.688,3.02,3.02,0,0,1,2.473-2.306,3.231,3.231,0,0,1,3.446,1.882,3.049,3.049,0,0,0,2.335,1.827,2.162,2.162,0,0,1,1.592,2.615,2.071,2.071,0,0,1-.5.924,1.5,1.5,0,0,0,2.2,2.042,5.069,5.069,0,0,0,1.225-2.279,5.168,5.168,0,0,0-3.747-6.2,1.93,1.93,0,0,1-.339-.1,6.227,6.227,0,0,0-6.629-3.678,6.006,6.006,0,0,0-4.962,4.552A6.139,6.139,0,0,0,8,14.971a5.908,5.908,0,0,0,.059.949,3.838,3.838,0,0,0-1.93,4.3,3.651,3.651,0,0,0,.528,1.133,3.84,3.84,0,0,0,1.154,1.087,1.5,1.5,0,0,0,2.062-.5ZM4.615,16.108a1.5,1.5,0,0,0,.1-2.119A6.512,6.512,0,0,1,3.037,8.861,6.623,6.623,0,0,1,8.512,3.084a7.528,7.528,0,0,1,2.062-.025A11.129,11.129,0,0,0,8.617,5.852a1.5,1.5,0,1,0,2.7,1.3,8.535,8.535,0,0,1,1.867-2.462,2.6,2.6,0,0,0-1.15-4.4,10.348,10.348,0,0,0-4-.164A9.668,9.668,0,0,0,.052,8.552,9.613,9.613,0,0,0,2.5,16.011a1.5,1.5,0,0,0,2.119.1Z"/></svg>
