<?xml version="1.0" encoding="UTF-8"?>
<svg xmlns="http://www.w3.org/2000/svg" id="Layer_1" data-name="Layer 1" viewBox="0 0 24 24" width="512" height="512"><path d="M13.5,13.5A1.5,1.5,0,1,1,12,12,1.5,1.5,0,0,1,13.5,13.5Zm4.5.922a1.989,1.989,0,0,0,.387,1.185l1.943,2.178a4,4,0,0,1-6.6,4.515L12,20.3l-1.726,2a4,4,0,0,1-6.6-4.515l1.942-2.176A1.994,1.994,0,0,0,6,14.424a1.493,1.493,0,0,0-.938-1.391l-.69-.279a3.958,3.958,0,0,1-2.3-2.185,4.022,4.022,0,0,1,.051-3.254,4.1,4.1,0,0,1,4.9-2.089C7.019,5.149,7,5.077,7,5A5,5,0,0,1,17,5c0,.079-.02.153-.023.231a4.106,4.106,0,0,1,4.9,2.085,4,4,0,0,1-2.282,5.451l-.653.264A1.494,1.494,0,0,0,18,14.422ZM10,5a2,2,0,1,0,2-2A2,2,0,0,0,10,5Zm5,9.422a4.48,4.48,0,0,1,2.815-4.172l.757-.3a.988.988,0,0,0,.593-.553,1,1,0,0,0-.016-.82,1.1,1.1,0,0,0-1.364-.47L13.63,9.726A7.221,7.221,0,0,1,12,10a7.116,7.116,0,0,1-1.59-.26L6.155,8.082a1.09,1.09,0,0,0-1.308.491,1,1,0,0,0-.016.82.988.988,0,0,0,.593.553l.762.3A4.481,4.481,0,0,1,9,14.424a4.957,4.957,0,0,1-1.16,3.2l-1.716,1.9a1,1,0,0,0,.324,1.313,1.024,1.024,0,0,0,1.387-.28l2.27-2.653a2.5,2.5,0,0,1,3.788,0l2.273,2.655a1.024,1.024,0,0,0,1.386.28,1,1,0,0,0,.325-1.313l-1.717-1.9A4.957,4.957,0,0,1,15,14.422Z"/></svg>
