<?xml version="1.0" encoding="UTF-8"?>
<svg xmlns="http://www.w3.org/2000/svg" id="Layer_1" data-name="Layer 1" viewBox="0 0 24 24" width="512" height="512"><path d="M12.3,20.022A64.16,64.16,0,0,1,10.531,9.589,1.5,1.5,0,0,0,10.825,7.8s.849-1.316.878-1.378A3.1,3.1,0,0,0,8.9,2H8.51V1.5a1.5,1.5,0,0,0-3,0V2H5.1A3.1,3.1,0,0,0,2.3,6.419c.029.062.878,1.378.878,1.378a1.5,1.5,0,0,0,.3,1.793A63.41,63.41,0,0,1,1.7,20.022,2,2,0,0,0,2,24H12a2,2,0,0,0,.3-3.978ZM7.55,10A64.939,64.939,0,0,0,9.205,20H4.8A64.007,64.007,0,0,0,6.451,10ZM5.1,5H8.9l.082.129L7.767,7H6.233L4.979,5.066ZM24,9.5v-1a1.5,1.5,0,0,0-3,0V9H20V8.5a1.5,1.5,0,0,0-3,0V9H16V8.5a1.5,1.5,0,0,0-3,0v1a2.5,2.5,0,0,0,1,2v7.057A4.006,4.006,0,0,1,15.444,20h0A3.268,3.268,0,0,1,16,22a3.959,3.959,0,0,1-.556,2H22a2,2,0,0,0,1-3.732V11.5A2.5,2.5,0,0,0,24,9.5ZM17,12h3v8H17Z"/></svg>
