<?xml version="1.0" encoding="UTF-8"?>
<svg xmlns="http://www.w3.org/2000/svg" id="Layer_1" data-name="Layer 1" viewBox="0 0 24 24" width="512" height="512"><path d="M23.286,10.349a5.352,5.352,0,0,0-3.478-2.541A38.735,38.735,0,0,0,13.5,7.032V5h1a1.5,1.5,0,0,0,0-3h-1V1.5a1.5,1.5,0,0,0-3,0V2h-1a1.5,1.5,0,0,0,0,3h1V7.032a38.764,38.764,0,0,0-6.309.776,5.32,5.32,0,0,0-3.92,6.865L2.6,21H2.5a1.5,1.5,0,0,0,0,3h19a1.5,1.5,0,0,0,0-3h-.1l2.348-6.394A5.323,5.323,0,0,0,23.286,10.349Zm-2.373,3.289L18.208,21H5.792L3.109,13.7a2.286,2.286,0,0,1,.2-1.854,2.316,2.316,0,0,1,1.523-1.113A36.505,36.505,0,0,1,12,10a36.485,36.485,0,0,1,7.164.737,2.315,2.315,0,0,1,1.524,1.113A2.256,2.256,0,0,1,20.913,13.638Z"/></svg>
