<?xml version="1.0" encoding="UTF-8"?>
<svg xmlns="http://www.w3.org/2000/svg" id="Layer_1" data-name="Layer 1" viewBox="0 0 24 24" width="512" height="512"><path d="M8.744,17h-1.744v-1.744c0-.875,.348-1.715,.967-2.333l5.278-5.278c.859-.859,2.252-.859,3.111,0h0c.859,.859,.859,2.252,0,3.111l-5.278,5.278c-.619,.619-1.458,.967-2.333,.967Zm15.256,1.682v-6.357C24,5.855,19.096,.454,12.835,.028,9.354-.202,5.96,1.066,3.509,3.521,1.057,5.977-.211,9.378,.03,12.853c.44,6.355,6.03,11.147,13.004,11.147h5.647c2.933,0,5.318-2.386,5.318-5.318ZM12.632,3.021c4.692,.319,8.368,4.405,8.368,9.303v6.357c0,1.278-1.04,2.318-2.318,2.318h-5.647c-5.466,0-9.676-3.514-10.012-8.355-.181-2.609,.77-5.163,2.609-7.004,1.693-1.696,3.991-2.64,6.383-2.64,.205,0,.411,.007,.617,.021Z"/></svg>
