<?xml version="1.0" encoding="UTF-8"?>
<svg xmlns="http://www.w3.org/2000/svg" id="Layer_1" data-name="Layer 1" viewBox="0 0 24 24" width="512" height="512"><path d="M23.561,20.439A6.148,6.148,0,0,1,22,15.917V8.5a1.5,1.5,0,0,0-3,0V11H15.654c-.06-.126-3.753-7.5-3.753-7.5A4.473,4.473,0,0,0,7.873,1H7.51a3.517,3.517,0,0,0-3.5,3.506l0,1.741A4.521,4.521,0,0,0,1,10.5s.009,5.1.015,5.152A4.529,4.529,0,0,0,4.5,23h8A4.529,4.529,0,0,0,16,15.67L16,14h3v1.917c-.214,2.427,1.849,8.729,4.561,6.644A1.5,1.5,0,0,0,23.561,20.439ZM7.156,4.147A.5.5,0,0,1,7.51,4h.363a1.493,1.493,0,0,1,1.343.832L11.291,9H7.517a.5.5,0,0,1-.5-.5l-.006-4A.493.493,0,0,1,7.156,4.147ZM4.229,9.7A3.506,3.506,0,0,0,7.517,12H12.49a.491.491,0,0,1,.5.5L13,14.027A4.772,4.772,0,0,0,12.5,14h-8a4.525,4.525,0,0,0-.5.027L4,10.5A1.493,1.493,0,0,1,4.229,9.7ZM3.5,20a1.5,1.5,0,0,1,0-3A1.5,1.5,0,0,1,3.5,20Zm5,0a1.5,1.5,0,0,1,0-3A1.5,1.5,0,0,1,8.5,20Zm5,0a1.5,1.5,0,0,1,0-3A1.5,1.5,0,0,1,13.5,20Z"/></svg>
