<?xml version="1.0" encoding="UTF-8"?>
<svg xmlns="http://www.w3.org/2000/svg" id="Layer_1" data-name="Layer 1" viewBox="0 0 24 24" width="512" height="512"><path d="M6.587,18.241c-.384,0-.768-.146-1.061-.439-.586-.586-.586-1.535,0-2.121l3.327-3.327c.195-.195,.195-.512,0-.707l-3.404-3.404c-.586-.586-.586-1.535,0-2.121s1.536-.586,2.121,0l3.404,3.404c1.365,1.364,1.365,3.585,0,4.949l-3.327,3.327c-.292,.293-.677,.439-1.061,.439Zm17.413,.259V5.5c0-3.032-2.468-5.5-5.5-5.5H5.5C2.467,0,0,2.468,0,5.5v13c0,3.032,2.467,5.5,5.5,5.5h13c3.032,0,5.5-2.468,5.5-5.5ZM18.5,3c1.379,0,2.5,1.121,2.5,2.5v13c0,1.379-1.121,2.5-2.5,2.5H5.5c-1.378,0-2.5-1.121-2.5-2.5V5.5c0-1.379,1.122-2.5,2.5-2.5h13Zm.5,13.5c0-.828-.672-1.5-1.5-1.5h-4c-.829,0-1.5,.672-1.5,1.5s.671,1.5,1.5,1.5h4c.828,0,1.5-.672,1.5-1.5Z"/></svg>
