<?xml version="1.0" encoding="UTF-8"?>
<svg xmlns="http://www.w3.org/2000/svg" id="Layer_1" data-name="Layer 1" viewBox="0 0 24 24" width="512" height="512"><path d="M11,19.988H7.923A.923.923,0,0,1,7.04,18.8l2.12-6.137a1,1,0,0,1,.945-.673H12a1,1,0,0,1,.934,1.358L12,15.988h3.093a.905.905,0,0,1,.755,1.405l-4.255,6.225a.872.872,0,0,1-1.556-.734Zm9.26-.733c5.874-3.732,4.476-12.977-2.451-14.333a.437.437,0,0,1-.322-.242A8.246,8.246,0,0,0,8.558.14,8.131,8.131,0,0,0,2.024,6.794a8.325,8.325,0,0,0,.035,2.95A.427.427,0,0,1,1.9,10.1a5.825,5.825,0,0,0,.77,9.149,1.5,1.5,0,1,0,1.668-2.494,2.8,2.8,0,0,1-.419-4.436A3.412,3.412,0,0,0,5,9.174a5.347,5.347,0,0,1-.021-1.889,5.184,5.184,0,0,1,9.792-1.322,3.417,3.417,0,0,0,2.448,1.9c4.329.872,5.029,6.569,1.394,8.881a1.5,1.5,0,1,0,1.643,2.51Z"/></svg>
