<?xml version="1.0" encoding="UTF-8"?>
<svg xmlns="http://www.w3.org/2000/svg" id="Layer_1" data-name="Layer 1" viewBox="0 0 24 24" width="512" height="512"><path d="M10,9A2,2,0,0,1,6,9,2,2,0,0,1,10,9Zm6-2a2,2,0,0,0,0,4A2,2,0,0,0,16,7Zm8,5A12.013,12.013,0,0,0,12,0C-3.9.6-3.893,23.4,12,24A12.013,12.013,0,0,0,24,12Zm-3,0a9.01,9.01,0,0,1-9,9C.076,20.547.081,3.451,12,3A9.01,9.01,0,0,1,21,12Zm-6,2.5A2.5,2.5,0,0,0,12.5,12H10.769a1,1,0,0,0,0,2H12.5a.5.5,0,0,1,0,1H12a1,1,0,0,0,0,2h.5a.5.5,0,0,1,0,1H10.769a1,1,0,0,0,0,2H12.5a2.507,2.507,0,0,0,1.987-4A2.471,2.471,0,0,0,15,14.5Z"/></svg>
