<?xml version="1.0" encoding="UTF-8"?>
<svg xmlns="http://www.w3.org/2000/svg" id="Layer_1" data-name="Layer 1" viewBox="0 0 24 24" width="512" height="512"><path d="M23.414,17.681a2,2,0,1,1-2.828,0l.8-.905a.819.819,0,0,1,1.226,0ZM24,9.5V10a1.507,1.507,0,0,1-.281.874s-5.851,8.154-5.877,8.186A5.488,5.488,0,0,1,13.649,21H8a4,4,0,0,1-4-4v-.015L2.336,16.4A3.5,3.5,0,0,1,0,13.1v-2.93A3.114,3.114,0,0,1,1.291,7.552a3.473,3.473,0,0,1,3.232-.29L6.2,8H9V6H7.5a1.5,1.5,0,0,1,0-3h6a1.5,1.5,0,0,1,0,3H12V8h1.191a4.394,4.394,0,0,1,3.623,1.922.487.487,0,0,0,.358.069L21.949,8.1A1.5,1.5,0,0,1,24,9.5ZM4,13.8v-3.5l-.6-.266A.633.633,0,0,0,3,10.016S3,13.1,3,13.1a.5.5,0,0,0,.334.471ZM18.811,12.57s-.72.282-.768.295a3.407,3.407,0,0,1-3.666-1.188A1.385,1.385,0,0,0,13.191,11H7v6a1,1,0,0,0,1,1h5.649a2.5,2.5,0,0,0,1.871-.841Z"/></svg>
