<?xml version="1.0" encoding="UTF-8"?>
<svg xmlns="http://www.w3.org/2000/svg" id="Layer_1" data-name="Layer 1" viewBox="0 0 24 24" width="512" height="512"><path d="M22.5,7l-.657,0a12.811,12.811,0,0,1-2.577-.147L21.56,4.566a1.5,1.5,0,1,0-2.12-2.123L17.163,4.717A13.021,13.021,0,0,1,17,2.014L17,1.5a1.5,1.5,0,0,0-3,0L14,2c0,.379,0,.768.008,1.16a10.313,10.313,0,0,0-1.8-.8A6.152,6.152,0,0,0,5.6,3.866C2.409,7.058-2.511,18.4,1.515,22.426A6.256,6.256,0,0,0,6.079,24a18.512,18.512,0,0,0,5.2-.891c3.543-1.079,7.091-2.972,8.83-4.712,2.278-2.279,2.494-5.217.747-8.39.128,0,.257,0,.383,0,.214,0,.425,0,.633,0l.631,0a1.5,1.5,0,0,0,0-3Zm-4.516,9.271A20.885,20.885,0,0,1,10.4,20.234c-3.234.985-5.825,1.011-6.765.071C1.631,18.3,4.634,9.076,7.721,5.987a3.083,3.083,0,0,1,2.253-1,4.251,4.251,0,0,1,1.3.226,12.107,12.107,0,0,1,4.481,3.075C18.087,10.616,20.363,13.892,17.984,16.271ZM9.117,11.883a1.308,1.308,0,0,1,0,1.85,5.4,5.4,0,0,1-1.967.752.526.526,0,0,1-.635-.635,5.4,5.4,0,0,1,.752-1.967A1.308,1.308,0,0,1,9.117,11.883Zm-1.5,4.5a1.308,1.308,0,0,1,0,1.85,5.4,5.4,0,0,1-1.967.752.526.526,0,0,1-.635-.635,5.4,5.4,0,0,1,.752-1.967A1.308,1.308,0,0,1,7.617,16.383Zm6-6a1.308,1.308,0,0,1,0,1.85,5.4,5.4,0,0,1-1.967.752.526.526,0,0,1-.635-.635,5.4,5.4,0,0,1,.752-1.967A1.308,1.308,0,0,1,13.617,10.383ZM8.015,9.35a5.4,5.4,0,0,1,.752-1.967,1.308,1.308,0,1,1,1.85,1.85,5.4,5.4,0,0,1-1.967.752A.526.526,0,0,1,8.015,9.35Zm8.6,4.033a1.308,1.308,0,0,1,0,1.85,5.4,5.4,0,0,1-1.967.752.526.526,0,0,1-.635-.635,5.4,5.4,0,0,1,.752-1.967A1.308,1.308,0,0,1,16.617,13.383Zm-4.5,1.5a1.308,1.308,0,0,1,0,1.85,5.4,5.4,0,0,1-1.967.752.526.526,0,0,1-.635-.635,5.4,5.4,0,0,1,.752-1.967A1.308,1.308,0,0,1,12.117,14.883Z"/></svg>
