<?xml version="1.0" encoding="UTF-8"?>
<svg xmlns="http://www.w3.org/2000/svg" id="Layer_1" data-name="Layer 1" viewBox="0 0 24 24" width="512" height="512"><path d="M20.5,16c1.972-.034,1.971-2.966,0-3h-6.913l3.87-1.478c.364-.139,.707-.315,1.026-.522h2.017c1.817,.008,2.021-2.699,.246-2.98,.808-2.463-.349-5.296-2.653-6.503C12.279-1.793,5.478,1.018,3.395,3.486c-.558,.608-.517,1.549,.088,2.109,.604,.562,1.553,.526,2.117-.075,1.482-1.822,6.922-3.82,11.069-1.362,1.396,.703,1.765,2.69,.731,3.842H3.5c-1.972,.034-1.971,2.966,0,3h6.914l-3.778,1.442c-.385,.147-.748,.335-1.085,.558H3.5c-1.831-.006-2.016,2.728-.221,2.984-.887,2.58,.396,5.637,2.841,6.798,5.809,2.942,13.084-.1,15.325-2.115,.643-.521,.741-1.462,.223-2.105-.521-.646-1.463-.746-2.108-.229-1.66,1.5-7.602,4.05-12.12,1.755-1.491-.683-1.912-2.874-.798-4.087h13.86Z"/></svg>
