<?xml version="1.0" encoding="UTF-8"?>
<svg xmlns="http://www.w3.org/2000/svg" id="Layer_1" data-name="Layer 1" viewBox="0 0 24 24" width="512" height="512"><path d="M19,5.025V3h.5a1.5,1.5,0,0,0,0-3h-4a1.5,1.5,0,0,0,0,3H16V5H9.908A1.483,1.483,0,0,0,10,4.5,1.5,1.5,0,0,0,8.5,3h-4A1.5,1.5,0,0,0,3,4.5a1.481,1.481,0,0,0,.342.942A5.509,5.509,0,0,0,0,10.5v6a5.5,5.5,0,0,0,3,4.893V22.5a1.5,1.5,0,0,0,3,0V22H18v.5a1.5,1.5,0,0,0,3,0V21.393A5.5,5.5,0,0,0,24,16.5v-6A5.507,5.507,0,0,0,19,5.025ZM21,16.5A2.5,2.5,0,0,1,18.5,19H5.5A2.5,2.5,0,0,1,3,16.5v-6A2.5,2.5,0,0,1,5.5,8h13A2.5,2.5,0,0,1,21,10.5Zm-1.095-3.829a3.493,3.493,0,0,1-6.221,2.884.464.464,0,0,1,.163-.688l1.935-.967a.4.4,0,0,0,0-.718l-1.98-.99a.465.465,0,0,1-.165-.683,3.491,3.491,0,0,1,6.268,1.162Zm-8.915.848a3.481,3.481,0,0,1-4.038,3.437.462.462,0,0,1-.371-.6L7.265,14.3a.4.4,0,0,0-.508-.507l-2.1.7a.465.465,0,0,1-.6-.366,3.495,3.495,0,1,1,6.933-.61Z"/></svg>
