<?xml version="1.0" encoding="UTF-8"?>
<svg xmlns="http://www.w3.org/2000/svg" id="Layer_1" data-name="Layer 1" viewBox="0 0 24 24" width="512" height="512"><path d="M22.974,4.025c-.335-.335-.727-.592-1.153-.765-.264-.927-.815-1.75-1.611-2.351-1.138-.859-2.578-1.127-3.946-.735l-2.915,.833c-.5,.143-.956,.382-1.349,.693-.393-.311-.848-.55-1.349-.693L7.736,.175c-1.372-.391-2.809-.124-3.946,.735-.796,.6-1.347,1.424-1.611,2.351-.426,.173-.818,.43-1.153,.765-.662,.661-1.026,1.54-1.026,2.475v10.263c0,2.442,1.64,4.617,3.989,5.289l5.676,1.622c1.528,.437,3.143,.437,4.67,0l5.676-1.622c2.349-.671,3.989-2.846,3.989-5.289V6.5c0-.935-.364-1.814-1.026-2.475Zm-9.474,.76c0-.412,.277-.779,.673-.893l2.915-.833c.451-.13,.936-.043,1.315,.245,.379,.286,.597,.723,.597,1.198v12.087c0,.666-.447,1.259-1.088,1.442l-4.412,1.261V4.785Zm-8.5-.283c0-.475,.217-.912,.597-1.198,.38-.287,.864-.374,1.315-.245l2.915,.833c.396,.113,.673,.48,.673,.893v14.506l-4.413-1.261c-.64-.183-1.087-.776-1.087-1.442V4.502Z"/></svg>
