<?xml version="1.0" encoding="UTF-8"?>
<svg xmlns="http://www.w3.org/2000/svg" id="Layer_1" data-name="Layer 1" viewBox="0 0 24 24" width="512" height="512"><path d="M12,24A12.013,12.013,0,0,1,0,12C.6-3.9,23.4-3.893,24,12A12.013,12.013,0,0,1,12,24ZM12,3a9.01,9.01,0,0,0-9,9c.452,11.923,17.549,11.92,18,0A9.01,9.01,0,0,0,12,3ZM9.808,10.968a1.5,1.5,0,0,0,1.16-1.776c-.888-4.217-5.05-4.211-5.936,0a1.5,1.5,0,1,0,2.936.615c.01-.046.02-.091.032-.134.012.043.022.088.032.134A1.5,1.5,0,0,0,9.5,11,1.561,1.561,0,0,0,9.808,10.968Zm8,0a1.5,1.5,0,0,0,1.16-1.776c-.888-4.217-5.05-4.211-5.936,0a1.5,1.5,0,1,0,2.936.615c.01-.046.02-.091.032-.134.012.043.022.088.032.134A1.5,1.5,0,0,0,17.5,11,1.561,1.561,0,0,0,17.808,10.968ZM15,14.5A2.5,2.5,0,0,0,12.5,12H10.769a1,1,0,0,0,0,2H12.5a.5.5,0,0,1,0,1H12a1,1,0,0,0,0,2h.5a.5.5,0,0,1,0,1H10.769a1,1,0,0,0,0,2H12.5a2.507,2.507,0,0,0,1.987-4A2.471,2.471,0,0,0,15,14.5Z"/></svg>
