<?xml version="1.0" encoding="UTF-8"?>
<svg xmlns="http://www.w3.org/2000/svg" id="Layer_1" data-name="Layer 1" viewBox="0 0 24 24" width="512" height="512"><path d="M9.5,5A4.5,4.5,0,1,0,14,9.5,4.505,4.505,0,0,0,9.5,5Zm0,6A1.5,1.5,0,1,1,11,9.5,1.5,1.5,0,0,1,9.5,11Zm9.853-5.893a1.659,1.659,0,0,1-.874-.611A10.009,10.009,0,0,0,9.636.01,10.221,10.221,0,0,0,0,10.38v.665A12.97,12.97,0,0,0,12.954,24a8.3,8.3,0,0,0,8-6.267,1.883,1.883,0,0,1,.61-1.028,6.747,6.747,0,0,0-2.216-11.6Zm.3,9.292a4.894,4.894,0,0,0-1.616,2.674A5.386,5.386,0,0,1,12.954,21,9.966,9.966,0,0,1,3,11.045V10.38A7.317,7.317,0,0,1,9.769,3.007C9.877,3,9.984,3,10.092,3a7.039,7.039,0,0,1,5.891,3.162,4.6,4.6,0,0,0,2.434,1.8h0A3.746,3.746,0,0,1,19.649,14.4ZM19,11.5A1.5,1.5,0,1,1,17.5,10,1.5,1.5,0,0,1,19,11.5Zm-3,5A1.5,1.5,0,1,1,14.5,15,1.5,1.5,0,0,1,16,16.5Z"/></svg>
