<?xml version="1.0" encoding="UTF-8"?>
<svg xmlns="http://www.w3.org/2000/svg" id="Layer_1" data-name="Layer 1" viewBox="0 0 24 24" width="512" height="512"><path d="M13,15.536a1.5,1.5,0,0,1-1.253-.675L11,13.727l-.748,1.134a1.5,1.5,0,1,1-2.5-1.65l.468-.711H7.5a1.5,1.5,0,0,1,0-3h.716l-.468-.711a1.5,1.5,0,1,1,2.5-1.65L11,8.273l.748-1.134a1.5,1.5,0,1,1,2.505,1.65l-.469.711H14.5a1.5,1.5,0,0,1,0,3h-.716l.469.711A1.5,1.5,0,0,1,13,15.536Zm.954,7.328,1-4a1.5,1.5,0,1,0-2.91-.728l-1,4a1.5,1.5,0,0,0,1.091,1.819A1.483,1.483,0,0,0,12.5,24,1.5,1.5,0,0,0,13.955,22.864Zm-5,0,1-4a1.5,1.5,0,0,0-2.91-.728l-1,4a1.5,1.5,0,0,0,1.091,1.819A1.483,1.483,0,0,0,7.5,24,1.5,1.5,0,0,0,8.955,22.864Zm10.122-2.98c6.954-2.986,6.363-13.4-1.268-14.962a.437.437,0,0,1-.322-.242A8.243,8.243,0,0,0,8.558.14,8.128,8.128,0,0,0,2.025,6.793a8.289,8.289,0,0,0,.034,2.952A.433.433,0,0,1,1.9,10.1a5.823,5.823,0,0,0,.768,9.149,1.5,1.5,0,1,0,1.668-2.494,2.806,2.806,0,0,1-.418-4.436A3.417,3.417,0,0,0,5,9.173a5.317,5.317,0,0,1-.02-1.888,5.183,5.183,0,0,1,9.791-1.322,3.417,3.417,0,0,0,2.448,1.9c4.731.95,4.94,7.45.7,9.252a1.5,1.5,0,1,0,1.154,2.768Z"/></svg>
