<?xml version="1.0" encoding="UTF-8"?>
<svg xmlns="http://www.w3.org/2000/svg" id="Layer_1" data-name="Layer 1" viewBox="0 0 24 24" width="512" height="512"><path d="M11,9.5v3.5c0,1.924-1.347,3.594-3.202,3.97-.101,.021-.201,.03-.3,.03-.699,0-1.324-.49-1.469-1.202-.165-.812,.36-1.604,1.172-1.768,.448-.091,.798-.544,.798-1.03h-.5c-.828,0-1.5-.672-1.5-1.5v-1.5c0-1.105,.895-2,2-2h1.5c.828,0,1.5,.672,1.5,1.5Zm5.5-1.5h-1.5c-1.105,0-2,.895-2,2v1.5c0,.828,.672,1.5,1.5,1.5h.5c0,.486-.351,.939-.798,1.03-.812,.164-1.337,.956-1.172,1.768,.144,.712,.77,1.202,1.468,1.202,.1,0,.199-.01,.3-.03,1.855-.376,3.202-2.046,3.202-3.97v-3.5c0-.828-.672-1.5-1.5-1.5Zm7.5,4.324v6.357c0,2.933-2.386,5.318-5.318,5.318h-5.647C6.061,24,.47,19.208,.029,12.853-.211,9.378,1.056,5.977,3.508,3.521,5.961,1.066,9.365-.219,12.835,.029c6.261,.424,11.165,5.825,11.165,12.295Zm-3,0c0-4.898-3.676-8.984-8.368-9.303-.206-.014-.412-.021-.617-.021-2.392,0-4.689,.943-6.383,2.64-1.839,1.842-2.79,4.395-2.609,7.005,.335,4.841,4.546,8.354,10.012,8.354h5.647c1.278,0,2.318-1.04,2.318-2.318v-6.357Z"/></svg>
