<?xml version="1.0" encoding="UTF-8"?>
<svg xmlns="http://www.w3.org/2000/svg" id="Layer_1" data-name="Layer 1" viewBox="0 0 24 24" width="512" height="512"><path d="M17.958,2.269C16.028,.549,13.551-.235,10.977,.06,6.924,.527,3.61,3.844,3.097,7.946c-.372,2.969,.643,5.834,2.782,7.863,.951,.901,1.14,1.871,1.14,3.653l.003,.47c0,2.243,1.805,4.068,4.022,4.068h1.956c2.218,0,4.021-1.825,4.021-4.068v-.523c0-1.669,.15-2.708,.942-3.415,1.943-1.734,3.058-4.233,3.058-6.857s-1.116-5.131-3.063-6.867Zm-3.937,17.663c0,.589-.458,1.068-1.021,1.068h-1.956c-.563,0-1.022-.479-1.022-1.068,0,0-.004-.672-.014-.932h4.019c-.002,.137-.006,.932-.006,.932Zm-.559-4.607c-.149,.672-.746,1.175-1.462,1.175-.678,0-1.245-.453-1.43-1.071-.984-.191-1.857-.794-2.369-1.677-.414-.717-.169-1.635,.548-2.049,.716-.415,1.634-.17,2.05,.547,.091,.157,.253,.25,.434,.25h1.181c.323,0,.587-.263,.587-.587,0-.242-.145-.456-.369-.545l-2.376-.95c-1.37-.548-2.255-1.855-2.255-3.331,0-1.61,1.074-2.96,2.538-3.412,.149-.672,.746-1.175,1.462-1.175,.678,0,1.245,.453,1.43,1.071,.983,.191,1.857,.794,2.369,1.678,.414,.717,.169,1.635-.548,2.049-.716,.414-1.635,.17-2.05-.547-.091-.157-.253-.251-.434-.251h-1.181c-.323,0-.587,.263-.587,.587,0,.242,.145,.456,.369,.545l2.376,.95c1.37,.548,2.255,1.855,2.255,3.331,0,1.61-1.074,2.96-2.538,3.412Z"/></svg>
