<?xml version="1.0" encoding="UTF-8"?>
<svg xmlns="http://www.w3.org/2000/svg" id="Layer_1" data-name="Layer 1" viewBox="0 0 24 24" width="512" height="512"><path d="M15,6h-6c-1.654,0-3,1.346-3,3,0,.828,.671,1.5,1.5,1.5s1.5-.672,1.5-1.5h1.5v7c-.829,0-1.5,.672-1.5,1.5s.671,1.5,1.5,1.5h3c.829,0,1.5-.672,1.5-1.5s-.671-1.5-1.5-1.5v-7h1.5c0,.828,.671,1.5,1.5,1.5s1.5-.672,1.5-1.5c0-1.654-1.346-3-3-3Z"/><path d="M12.835,.029C9.365-.219,5.961,1.066,3.508,3.521,1.056,5.977-.211,9.378,.029,12.853c.441,6.355,6.032,11.147,13.005,11.147h5.647c2.933,0,5.318-2.386,5.318-5.318v-6.357C24,5.854,19.096,.453,12.835,.029Zm8.165,18.652c0,1.278-1.04,2.318-2.318,2.318h-5.647c-5.465,0-9.676-3.514-10.012-8.354-.181-2.61,.77-5.163,2.609-7.005,1.694-1.696,3.992-2.64,6.383-2.64,.205,0,.411,.007,.617,.021,4.692,.318,8.368,4.404,8.368,9.303v6.357Z"/></svg>
