<?xml version="1.0" encoding="UTF-8"?>
<svg xmlns="http://www.w3.org/2000/svg" id="Layer_1" data-name="Layer 1" viewBox="0 0 24 24" width="512" height="512"><path d="M20.5,12h-3.5c-.828,0-1.5,.672-1.5,1.5,0,1.379-1.121,2.5-2.5,2.5h-2.5c-1.379,0-2.5-1.121-2.5-2.5,0-.828-.672-1.5-1.5-1.5H3.5c-1.93,0-3.5,1.57-3.5,3.5v3.001c0,3.032,2.468,5.5,5.5,5.5h13c3.032,0,5.5-2.468,5.5-5.5v-3.001c0-1.93-1.57-3.5-3.5-3.5Zm.5,6.501c0,1.379-1.121,2.5-2.5,2.5H5.5c-1.379,0-2.5-1.121-2.5-2.5v-3.001c0-.275,.225-.5,.5-.5h1.708c.654,2.306,2.779,4,5.292,4h2.5c2.513,0,4.638-1.694,5.292-4h2.208c.275,0,.5,.225,.5,.5v3.001Z"/><path d="M8.637,5h1.863v4.5c0,.828,.672,1.5,1.5,1.5s1.5-.672,1.5-1.5V5h1.863c.724,0,1.089-.873,.58-1.388L12.644,.269c-.354-.359-.934-.359-1.288,0l-3.299,3.342c-.509,.515-.144,1.388,.58,1.388Z"/></svg>
