<?xml version="1.0" encoding="UTF-8"?>
<svg xmlns="http://www.w3.org/2000/svg" id="Layer_1" data-name="Layer 1" viewBox="0 0 24 24" width="512" height="512"><path d="M3.278,10.437c.587-.583,1.536-.583,2.121,.006,.584,.587,.582,1.537-.006,2.121l-1.145,1.138c-1.663,1.663-1.663,4.37,0,6.033,1.673,1.672,4.379,1.687,6.03,.036l1.157-1.164c.583-.588,1.532-.589,2.121-.006,.588,.584,.59,1.534,.006,2.122l-1.16,1.167c-1.406,1.406-3.255,2.108-5.107,2.108-1.868,0-3.741-.714-5.168-2.141-2.832-2.833-2.832-7.442,.003-10.278l1.147-1.141ZM.439,2.561c-.586-.585-.586-1.536,0-2.121,.586-.586,1.535-.586,2.121,0L7.92,5.799l3.677-3.67c2.832-2.833,7.443-2.833,10.275,0,2.832,2.833,2.832,7.442,0,10.274l-3.672,3.678,5.359,5.359c.586,.585,.586,1.536,0,2.121-.293,.293-.677,.439-1.061,.439s-.768-.146-1.061-.439L.439,2.561Zm19.312,7.722c1.662-1.664,1.662-4.37,0-6.033-1.664-1.663-4.37-1.663-6.034,0l-3.676,3.669,1.958,1.958,2.44-2.439c.586-.585,1.535-.585,2.121,0s.586,1.536,0,2.122l-2.44,2.439,1.959,1.959,3.671-3.677ZM7.546,14.342c-.643,.522-.74,1.467-.218,2.11,.296,.365,.729,.554,1.165,.554,.332,0,.667-.11,.945-.336,.643-.522,.744-1.47,.222-2.113-.521-.643-1.461-.746-2.106-.221l-.008,.006Z"/></svg>
