<?xml version="1.0" encoding="UTF-8"?>
<svg xmlns="http://www.w3.org/2000/svg" id="Layer_1" data-name="Layer 1" viewBox="0 0 24 24" width="512" height="512"><path d="M20.774,14.184c.119-.067,.235-.141,.346-.224,.972-.729,1.169-2.108,.44-3.08s-2.108-1.169-3.08-.44c-1.339,1.004-1.842,2.771-1.98,3.56-.138-.789-.641-2.556-1.98-3.56-.972-.729-2.351-.532-3.08,.44s-.532,2.351,.44,3.08c.111,.083,.227,.157,.346,.224-1.863,.551-3.226,2.277-3.226,4.316v1c0,.526,.091,1.031,.257,1.5h-3.757c-.417,0-2.5-.097-2.5-2V10.5c0-1.379,1.122-2.5,2.5-2.5h6c.609,0,1.196,.222,1.653,.625,.622,.547,1.569,.488,2.117-.133,.548-.621,.489-1.569-.133-2.117-.975-.86-2.22-1.346-3.518-1.374l1.441-1.441c.586-.586,.586-1.535,0-2.121s-1.535-.586-2.121,0l-.939,.939v-.879c0-.828-.671-1.5-1.5-1.5s-1.5,.672-1.5,1.5v.879l-.939-.939c-.586-.586-1.535-.586-2.121,0s-.586,1.535,0,2.121l1.441,1.441c-2.978,.064-5.38,2.506-5.38,5.499v8.5c0,2.897,2.313,5,5.5,5h14c2.481,0,4.5-2.019,4.5-4.5v-1c0-2.039-1.363-3.765-3.226-4.316Zm-5.774,6.816h-1.5c-.827,0-1.5-.673-1.5-1.5v-1c0-.827,.673-1.5,1.5-1.5h1.5v4Zm6-1.5c0,.827-.673,1.5-1.5,1.5h-1.5v-4h1.5c.827,0,1.5,.673,1.5,1.5v1Z"/></svg>
