<?xml version="1.0" encoding="UTF-8"?>
<svg xmlns="http://www.w3.org/2000/svg" id="Layer_1" data-name="Layer 1" viewBox="0 0 24 24" width="512" height="512"><path d="M18.5,24H5.5C2.467,24,0,21.533,0,18.5V9.5C0,6.467,2.467,4,5.5,4h1.241L10.369,.943c.918-.816,2.346-.816,3.293,.026l3.667,3.031h1.171c3.032,0,5.5,2.467,5.5,5.5v9c0,3.033-2.468,5.5-5.5,5.5ZM5.5,7c-1.379,0-2.5,1.122-2.5,2.5v9c0,1.378,1.121,2.5,2.5,2.5h13c1.379,0,2.5-1.122,2.5-2.5V9.5c0-1.378-1.121-2.5-2.5-2.5h-1.711c-.349,0-.687-.122-.956-.344l-3.83-3.167-3.747,3.158c-.271,.228-.613,.353-.967,.353h-1.789Zm6.209-3.753l.021,.016-.021-.016Zm.624-.035l-.021,.017,.021-.017Z"/></svg>
