<?xml version="1.0" encoding="UTF-8"?>
<svg xmlns="http://www.w3.org/2000/svg" id="Layer_1" data-name="Layer 1" viewBox="0 0 24 24" width="512" height="512"><path d="M18.5,9H12V3A2,2,0,1,0,9,4.732V9H5.5C2.259,9,0,12.162,0,15v3.5A5.506,5.506,0,0,0,5.5,24h13A5.506,5.506,0,0,0,24,18.5V15C24,12.162,21.741,9,18.5,9ZM21,15v1H17V12h1.5C19.762,12,21,13.486,21,15ZM10,16V12h4v4ZM5.5,12H7v4H3V15C3,13.486,4.238,12,5.5,12Zm13,9H5.5a2.505,2.505,0,0,1-2.45-2h17.9A2.505,2.505,0,0,1,18.5,21ZM13,2a2,2,0,0,1,4,0A2,2,0,0,1,13,2Zm6.026.162A1.5,1.5,0,0,1,20.219.407l2-.381a1.5,1.5,0,1,1,.562,2.948l-2,.38A1.5,1.5,0,0,1,19.026,2.162Zm-19,3.619A1.5,1.5,0,0,1,1.219,4.026l3-.571A1.5,1.5,0,1,1,4.781,6.4l-3,.572A1.5,1.5,0,0,1,.026,5.781Z"/></svg>
