<?xml version="1.0" encoding="UTF-8"?>
<svg xmlns="http://www.w3.org/2000/svg" id="Layer_1" data-name="Layer 1" viewBox="0 0 24 24" width="512" height="512"><path d="M16.5,0H7.5C4.467,0,2,2.467,2,5.5v13c0,3.033,2.467,5.5,5.5,5.5h9c3.033,0,5.5-2.467,5.5-5.5V5.5c0-3.033-2.467-5.5-5.5-5.5Zm2.5,18.5c0,1.378-1.122,2.5-2.5,2.5H7.5c-1.378,0-2.5-1.122-2.5-2.5V5.5c0-1.378,1.122-2.5,2.5-2.5h9c1.378,0,2.5,1.122,2.5,2.5v13Zm-2-12c0,.829-.671,1.5-1.5,1.5h-2c-1.972-.033-1.971-2.967,0-3h2c.829,0,1.5,.671,1.5,1.5Zm0,5c0,.829-.671,1.5-1.5,1.5h-2c-1.972-.033-1.971-2.967,0-3h2c.829,0,1.5,.671,1.5,1.5Zm0,5c0,.829-.671,1.5-1.5,1.5h-2c-1.972-.033-1.971-2.967,0-3h2c.829,0,1.5,.671,1.5,1.5ZM10,6.5c-.034,1.972-2.967,1.971-3,0,.034-1.972,2.967-1.971,3,0Zm0,5c-.034,1.972-2.967,1.971-3,0,.034-1.972,2.967-1.971,3,0Zm0,5c-.034,1.972-2.967,1.971-3,0,.034-1.972,2.967-1.971,3,0Z"/></svg>
