<?xml version="1.0" encoding="UTF-8"?>
<svg xmlns="http://www.w3.org/2000/svg" id="Layer_1" data-name="Layer 1" viewBox="0 0 24 24" width="512" height="512"><path d="M23.979,10.751a4.482,4.482,0,0,0-2.351-3.242L17.3,2.073A5.473,5.473,0,0,0,13,0H12.5A3.5,3.5,0,0,0,9,3.5V7H3.949a4.012,4.012,0,0,0-3.92,3.2,1.5,1.5,0,0,0,2.941.6,1,1,0,0,1,.979-.8H19.541a1.493,1.493,0,0,1,1.479,1.249,1.5,1.5,0,0,0,2.959-.5ZM12,3.5a.5.5,0,0,1,.5-.5H13a2.485,2.485,0,0,1,1.955.942L17.386,7H12Zm-.864,11.4a1.5,1.5,0,0,0-1.811-.629,4.993,4.993,0,0,0-1.852-1.048,1.5,1.5,0,0,0-2.947,0A4.993,4.993,0,0,0,2.674,14.27a1.5,1.5,0,0,0-1.527,2.522,5.037,5.037,0,0,0,0,2.416A1.5,1.5,0,0,0,2.674,21.73a4.993,4.993,0,0,0,1.852,1.048,1.5,1.5,0,0,0,2.947,0A4.993,4.993,0,0,0,9.325,21.73a1.5,1.5,0,0,0,1.527-2.522,5.037,5.037,0,0,0,0-2.416A1.5,1.5,0,0,0,11.136,14.9ZM6,20a2,2,0,0,1,0-4A2,2,0,0,1,6,20Zm17.136-5.1a1.5,1.5,0,0,0-1.811-.629,4.993,4.993,0,0,0-1.852-1.048,1.5,1.5,0,0,0-2.947,0,4.993,4.993,0,0,0-1.852,1.048,1.5,1.5,0,0,0-1.527,2.522,5.037,5.037,0,0,0,0,2.416,1.5,1.5,0,0,0,1.527,2.522,4.993,4.993,0,0,0,1.852,1.048,1.5,1.5,0,0,0,2.947,0,4.993,4.993,0,0,0,1.852-1.048,1.5,1.5,0,0,0,1.527-2.522,5.037,5.037,0,0,0,0-2.416A1.5,1.5,0,0,0,23.136,14.9ZM18,20a2,2,0,0,1,0-4A2,2,0,0,1,18,20Z"/></svg>
