<?xml version="1.0" encoding="UTF-8"?>
<svg xmlns="http://www.w3.org/2000/svg" id="Layer_1" data-name="Layer 1" viewBox="0 0 24 24" width="512" height="512"><path d="M12,24C5.383,24,0,18.617,0,12S5.383,0,12,0s12,5.383,12,12-5.383,12-12,12Zm0-21C7.037,3,3,7.038,3,12s4.037,9,9,9,9-4.038,9-9S16.963,3,12,3Zm2.747,10.971l-1.069,.851c-2.071-.791-3.599-2.256-4.5-4.5l.851-1.069c.446-.446,.446-1.17,0-1.616l-1-1.302c-.446-.446-1.17-.446-1.616,0l-.6,.522c-.552,.551-.813,1.277-.813,2,0,4,5.429,9.143,9.143,9.143,.723,0,1.449-.261,2-.813l.522-.6c.446-.446,.446-1.17,0-1.616l-1.302-1c-.446-.446-1.17-.446-1.616,0Z"/></svg>
