<?xml version="1.0" encoding="UTF-8"?>
<svg xmlns="http://www.w3.org/2000/svg" id="Layer_1" data-name="Layer 1" viewBox="0 0 24 24" width="512" height="512"><path d="M14.771,17c-.384,0-.768-.146-1.061-.439-.586-.585-.586-1.536,0-2.121l2.219-2.219c.094-.094,.094-.259,0-.354l-2.306-2.306c-.586-.585-.586-1.536,0-2.121,.586-.586,1.535-.586,2.121,0l2.307,2.307c1.267,1.268,1.267,3.329,0,4.596l-2.219,2.219c-.293,.293-.677,.439-1.061,.439Zm9.229,1.5v-6.175c0-3.713-1.618-7.201-4.438-9.569C16.853,.482,13.426-.427,9.908,.188,4.614,1.12,.562,5.518,.056,10.884c-.313,3.311,.733,6.474,2.946,8.905,2.435,2.676,6.091,4.21,10.032,4.21h5.466c3.033,0,5.5-2.467,5.5-5.5Zm-6.367-13.446c2.14,1.796,3.367,4.446,3.367,7.271v6.175c0,1.378-1.122,2.5-2.5,2.5h-5.466c-3.098,0-5.945-1.177-7.813-3.229-1.637-1.799-2.411-4.145-2.179-6.604,.375-3.962,3.48-7.336,7.385-8.023,.539-.095,1.074-.142,1.603-.142,2.051,0,3.998,.705,5.602,2.052Zm-7.343,11.507c.586-.585,.586-1.536,0-2.121l-2.218-2.218c-.094-.095-.094-.26,0-.354l2.307-2.307c.586-.585,.586-1.536,0-2.121-.586-.586-1.535-.586-2.121,0l-2.307,2.307c-1.266,1.267-1.266,3.328,0,4.595l2.219,2.219c.293,.293,.677,.439,1.061,.439s.768-.146,1.061-.439Z"/></svg>
