<?xml version="1.0" encoding="UTF-8"?>
<svg xmlns="http://www.w3.org/2000/svg" id="Layer_1" data-name="Layer 1" viewBox="0 0 24 24" width="512" height="512"><path d="M24,3.5c0-1.933-1.567-3.5-3.5-3.5s-3.5,1.567-3.5,3.5c0,1.396,.818,2.601,2,3.163v1.837c0,1.378-1.122,2.5-2.5,2.5H7.5c-.899,0-1.75,.217-2.5,.602V6.663c1.182-.562,2-1.767,2-3.163,0-1.933-1.567-3.5-3.5-3.5S0,1.567,0,3.5c0,1.396,.818,2.601,2,3.163v10.674c-1.182,.562-2,1.767-2,3.163,0,1.933,1.567,3.5,3.5,3.5s3.5-1.567,3.5-3.5c0-1.396-.818-2.601-2-3.163v-.837c0-1.378,1.122-2.5,2.5-2.5h9c3.033,0,5.5-2.467,5.5-5.5v-1.837c1.182-.562,2-1.767,2-3.163Z"/></svg>
