<?xml version="1.0" encoding="UTF-8"?>
<svg xmlns="http://www.w3.org/2000/svg" id="Layer_1" data-name="Layer 1" viewBox="0 0 24 24" width="512" height="512"><path d="M20.535,21.425a3.505,3.505,0,0,1-4.751.258l-1.24-1.028a1.5,1.5,0,1,1,1.912-2.31L17.7,19.372a.518.518,0,0,0,.7-.057,9,9,0,1,0-12.79.015.523.523,0,0,0,.7.058l1.284-1.04a1.5,1.5,0,1,1,1.888,2.33L8.2,21.718a3.512,3.512,0,0,1-4.717-.274,12,12,0,0,1,9.9-20.366,11.992,11.992,0,0,1,7.154,20.347ZM12.126,11.043,9.561,8.478A1.5,1.5,0,0,0,7.439,10.6L10,13.163a2,2,0,1,0,2.122-2.12Z"/></svg>
