<?xml version="1.0" encoding="UTF-8"?>
<svg xmlns="http://www.w3.org/2000/svg" id="Layer_1" data-name="Layer 1" viewBox="0 0 24 24" width="512" height="512"><path d="M15.842,8.079,12.466,3H12.5a1.5,1.5,0,0,0,0-3h-2A3.5,3.5,0,0,0,7,3.5V8H3.72l-.593-.925C2.505,5.938.117,5.383,0,7.126v9.748A1.126,1.126,0,0,0,1.126,18h.016a2.4,2.4,0,0,0,2.006-1.083L3.73,16H7v4.5A3.5,3.5,0,0,0,10.5,24h2a1.5,1.5,0,0,0,0-3h-.03l3.373-5.054C26.769,15.3,26.773,8.692,15.842,8.079ZM14.9,13.01a1.5,1.5,0,0,0-1.146.664L10,19.3V14.5A1.5,1.5,0,0,0,8.5,13H4V11H8.5A1.5,1.5,0,0,0,10,9.5V4.709l3.751,5.643a1.5,1.5,0,0,0,1.153.667A22.419,22.419,0,0,1,20.42,12,22.5,22.5,0,0,1,14.9,13.01Z"/></svg>
