<?xml version="1.0" encoding="UTF-8"?>
<svg xmlns="http://www.w3.org/2000/svg" id="Layer_1" data-name="Layer 1" viewBox="0 0 24 24" width="512" height="512"><path d="M18.5,0H5.5C2.468,0,0,2.467,0,5.5v13c0,3.032,2.468,5.5,5.5,5.5h13c3.032,0,5.5-2.468,5.5-5.5V5.5c0-3.033-2.468-5.5-5.5-5.5Zm2.5,18.5c0,1.379-1.121,2.5-2.5,2.5H5.5c-1.379,0-2.5-1.121-2.5-2.5V5.5c0-1.378,1.121-2.5,2.5-2.5h13c1.379,0,2.5,1.122,2.5,2.5v13Zm-5-4.087c0,1.599-1.052,2.957-2.5,3.418v.669c-.034,1.972-2.966,1.971-3,0v-.579c-.955-.206-1.799-.807-2.299-1.67-.414-.717-.169-1.635,.548-2.05,.716-.414,1.634-.169,2.05,.548,.091,.157,.253,.251,.434,.251h1.181c.629,.018,.809-.917,.218-1.132l-2.376-.95c-3.11-1.155-2.884-5.845,.245-6.749v-.669c.034-1.972,2.967-1.971,3,0v.579c.955,.206,1.799,.807,2.299,1.67,.414,.717,.169,1.635-.548,2.049-.716,.414-1.635,.169-2.05-.547-.091-.157-.253-.251-.434-.251h-1.181c-.629-.018-.809,.917-.218,1.132l2.376,.95c1.37,.548,2.255,1.855,2.255,3.331Z"/></svg>
