<?xml version="1.0" encoding="UTF-8"?>
<svg xmlns="http://www.w3.org/2000/svg" id="Layer_1" data-name="Layer 1" viewBox="0 0 24 24" width="512" height="512"><path d="M12,0A9,9,0,0,0,8.062,17.091a4.66,4.66,0,0,0,1.37,2.56L10.5,20.719V22.5a1.5,1.5,0,0,0,3,0V20.719l1.068-1.068a4.667,4.667,0,0,0,1.37-2.56A9,9,0,0,0,12,0Zm0,15a6,6,0,1,1,6-6A6.006,6.006,0,0,1,12,15Zm2-2.5A1.5,1.5,0,1,1,12.5,11,1.5,1.5,0,0,1,14,12.5ZM15.5,8A1.5,1.5,0,1,1,14,9.5,1.5,1.5,0,0,1,15.5,8Zm-4,2A1.5,1.5,0,1,1,13,8.5,1.5,1.5,0,0,1,11.5,10Z"/></svg>
