<?xml version="1.0" encoding="UTF-8"?>
<svg xmlns="http://www.w3.org/2000/svg" id="Layer_1" data-name="Layer 1" viewBox="0 0 24 24" width="512" height="512"><path d="M18,15c-.007,1.307-1.993,1.307-2,0,.007-1.307,1.993-1.307,2,0Zm-11.312-1h1.625l-.812-2.553-.812,2.553ZM24,7v10c0,2.761-2.239,5-5,5H5c-2.761,0-5-2.239-5-5V7C0,4.239,2.239,2,5,2h14c2.761,0,5,2.239,5,5Zm-11.571,10.045l-3.5-11c-.386-1.368-2.473-1.368-2.858,0l-3.5,11c-.251,.789,.185,1.633,.975,1.884,.786,.252,1.633-.185,1.884-.975l.304-.955h3.534l.304,.955c.249,.796,1.116,1.226,1.884,.975,.79-.251,1.226-1.095,.975-1.884ZM21,6.5c-.034-1.972-2.967-1.971-3,0v4.642c-2.614-.747-5.286,1.509-4.98,4.258,.203,2.078,2.071,3.6,4.159,3.6h2.322c.828,0,1.5-.672,1.5-1.5V6.5Z"/></svg>
