<?xml version="1.0" encoding="UTF-8"?>
<svg xmlns="http://www.w3.org/2000/svg" id="Layer_1" data-name="Layer 1" viewBox="0 0 24 24" width="512" height="512"><path d="M17,12.663v-1.663h-3.5c-1.972-.034-1.971-2.966,0-3h3.5v-1.663c0-.891,1.077-1.337,1.707-.707l3.163,3.163c.391,.391,.391,1.024,0,1.414l-3.163,3.163c-.63,.63-1.707,.184-1.707-.707Zm6,3.837v2c0,3.038-2.462,5.5-5.5,5.5H5.5c-2.378,0-4.341-1.859-4.5-4.197V5.5C1,2.462,3.462,0,6.5,0h11c1.966,0,3.783,1.052,4.765,2.753,.361,.625,.277,1.455-.266,1.93-.756,.661-1.883,.422-2.327-.423-.435-.828-1.38-1.26-2.316-1.26h-7.356V15h11.5c.828,0,1.5,.672,1.5,1.5ZM4,5.5V15.276c.471-.168,.971-.276,1.5-.276h1.5V3h-.5c-1.381,0-2.5,1.119-2.5,2.5Zm16,12.5H5.5c-1.972,.035-1.97,2.965,0,3h12c1.379,0,2.5-1.122,2.5-2.5v-.5Z"/></svg>
