<?xml version="1.0" encoding="UTF-8"?>
<svg xmlns="http://www.w3.org/2000/svg" id="Layer_1" data-name="Layer 1" viewBox="0 0 24 24" width="512" height="512"><path d="M22.611,10.711,23.915,7A1.5,1.5,0,1,0,21.084,6l-1.4,4h-1.51l1.3-7.234a1.5,1.5,0,1,0-2.952-.532L15.123,10H13.5V1.5a1.5,1.5,0,0,0-3,0V10H8.877l-1.4-7.766a1.5,1.5,0,0,0-2.952.532L5.829,10H4.2L2.929,6.043a1.5,1.5,0,1,0-2.857.914L1.3,10.791a3.556,3.556,0,0,0-.485.466,3.488,3.488,0,0,0-.756,2.869l.974,5.358A5.5,5.5,0,0,0,6.443,24H17.557a5.5,5.5,0,0,0,5.411-4.516l.975-5.358a3.492,3.492,0,0,0-.757-2.869A3.53,3.53,0,0,0,22.611,10.711Zm-2.594,8.236A2.5,2.5,0,0,1,17.557,21H6.443a2.5,2.5,0,0,1-2.46-2.053L3.009,13.59A.5.5,0,0,1,3.5,13h17a.5.5,0,0,1,.492.589Z"/></svg>
