<?xml version="1.0" encoding="UTF-8"?>
<svg xmlns="http://www.w3.org/2000/svg" id="Layer_1" data-name="Layer 1" viewBox="0 0 24 24" width="512" height="512"><path d="M10,22.5c0,.829-.671,1.5-1.5,1.5h-3c-3.033,0-5.5-2.467-5.5-5.5V7.5C0,4.467,2.467,2,5.5,2h.5v-.5c0-.829,.671-1.5,1.5-1.5s1.5,.671,1.5,1.5v.5h6v-.5c0-.829,.672-1.5,1.5-1.5s1.5,.671,1.5,1.5v.5h.5c3.032,0,5.5,2.467,5.5,5.5,0,.829-.672,1.5-1.5,1.5H3v9.5c0,1.378,1.122,2.5,2.5,2.5h3c.829,0,1.5,.671,1.5,1.5Zm14-5c0,3.59-2.91,6.5-6.5,6.5s-6.5-2.91-6.5-6.5,2.91-6.5,6.5-6.5,6.5,2.91,6.5,6.5Zm-4.156,.223l-.844-.844v-1.379c0-.828-.672-1.5-1.5-1.5s-1.5,.672-1.5,1.5v1.793c0,.53,.211,1.039,.586,1.414l1.137,1.137c.586,.586,1.535,.586,2.121,0,.586-.586,.586-1.535,0-2.121Z"/></svg>
