<?xml version="1.0" encoding="UTF-8"?>
<svg xmlns="http://www.w3.org/2000/svg" id="Layer_1" data-name="Layer 1" viewBox="0 0 24 24" width="512" height="512"><path d="M24,22.5c0,.829-.671,1.5-1.5,1.5H3.5c-1.93,0-3.5-1.57-3.5-3.5V1.5C.033-.472,2.967-.471,3,1.5V20.5c0,.276,.224,.5,.5,.5H22.5c.829,0,1.5,.671,1.5,1.5Zm0-11.621v4.627c-.006,1.929-1.576,3.494-3.5,3.494H8.5c-1.93,0-3.5-1.57-3.5-3.5v-7.5c0-.935,.364-1.813,1.025-2.475l1.5-1.5c1.316-1.318,3.613-1.324,4.938-.012l3.576,3.442,.549-.489c1.236-1.291,3.636-1.279,4.887,.059l1.392,1.275c.72,.661,1.133,1.601,1.133,2.579Zm-3,0c0-.14-.059-.273-.161-.368l-1.439-1.32c-.313-.258-.461-.261-.753-.045l-1.649,1.473c-.584,.521-1.473,.505-2.038-.039l-4.586-4.414-.021-.02c-.27-.207-.436-.207-.706,0l-1.5,1.5c-.093,.093-.146,.222-.146,.354v7.5c0,.276,.224,.5,.5,.5h12c.275,0,.499-.224,.5-.499v-4.622Z"/></svg>
