<?xml version="1.0" encoding="UTF-8"?>
<svg xmlns="http://www.w3.org/2000/svg" id="Layer_1" data-name="Layer 1" viewBox="0 0 24 24" width="512" height="512"><path d="M21.846,8.964A7.839,7.839,0,0,0,18.006,8H14.36L11.454,2.812A5.5,5.5,0,0,0,6.656,0H5.5A3.5,3.5,0,0,0,2,3.5v1a1.5,1.5,0,0,0,3,0v-1A.5.5,0,0,1,5.5,3H6.656A2.5,2.5,0,0,1,8.837,4.278L10.922,8H3a3,3,0,0,0-3,3v2a3,3,0,0,0,3,3h7.922L8.837,19.722A2.5,2.5,0,0,1,6.656,21H5.5a.5.5,0,0,1-.5-.5v-1a1.5,1.5,0,0,0-3,0v1A3.5,3.5,0,0,0,5.5,24H6.656a5.5,5.5,0,0,0,4.8-2.812L14.36,16h3.646a7.839,7.839,0,0,0,3.84-.964C24.76,13.314,24.762,10.688,21.846,8.964ZM8,13V11h9.4a1.147,1.147,0,0,1,0,2ZM3,11H5v2H3Z"/></svg>
