<?xml version="1.0" encoding="UTF-8"?>
<svg xmlns="http://www.w3.org/2000/svg" id="Layer_1" data-name="Layer 1" viewBox="0 0 24 24" width="512" height="512"><path d="M17.5,14.5A1.5,1.5,0,0,1,16,16H14.977c-.48,3.97-5.476,3.966-5.954,0H8a1.5,1.5,0,0,1,0-3h8A1.5,1.5,0,0,1,17.5,14.5ZM24,12A12.013,12.013,0,0,1,12,24C-3.9,23.4-3.893.6,12,0A12.013,12.013,0,0,1,24,12Zm-3,0a9.01,9.01,0,0,0-9-9C.077,3.452.08,20.549,12,21A9.01,9.01,0,0,0,21,12ZM8.4,11.7l2-1.5a1.51,1.51,0,0,0,0-2.4l-2-1.5A1.5,1.5,0,0,0,6.6,8.7L7,9l-.4.3a1.5,1.5,0,0,0,1.8,2.4Zm9.3-5.1a1.5,1.5,0,0,0-2.1-.3l-2,1.5a1.51,1.51,0,0,0,0,2.4l2,1.5a1.5,1.5,0,1,0,1.8-2.4L17,9l.4-.3A1.5,1.5,0,0,0,17.7,6.6Z"/></svg>
