<?xml version="1.0" encoding="UTF-8"?>
<svg xmlns="http://www.w3.org/2000/svg" id="Layer_1" data-name="Layer 1" viewBox="0 0 24 24" width="512" height="512"><path d="M10,9A2,2,0,0,1,6,9,2,2,0,0,1,10,9Zm6-2a2,2,0,0,0,0,4A2,2,0,0,0,16,7Zm8,5C23.4-3.9.6-3.893,0,12a1.5,1.5,0,0,0,3,0C3.452.076,20.55.08,21,12A9.047,9.047,0,0,1,9,20.488a1.5,1.5,0,1,0-1,2.828A12.006,12.006,0,0,0,24,12ZM3,16.5a2.5,2.5,0,0,0,5,0c.072-1.083-1.837-5.626-3.072-4.231A8.359,8.359,0,0,0,3,16.5Zm14.065.556a1.5,1.5,0,0,0-.009-2.121A7.452,7.452,0,0,0,12,13a7.64,7.64,0,0,0-1.87.233,1.5,1.5,0,0,0,.74,2.909,4.589,4.589,0,0,1,4.084.933,1.5,1.5,0,0,0,2.111-.019Z"/></svg>
