<?xml version="1.0" encoding="UTF-8"?>
<svg xmlns="http://www.w3.org/2000/svg" id="Layer_1" data-name="Layer 1" viewBox="0 0 24 24" width="512" height="512"><path d="M20.8,6.19A4.576,4.576,0,0,0,16.505,3a6.657,6.657,0,0,0-5.459-3A6.284,6.284,0,0,0,4.9,5.035,5.506,5.506,0,0,0,0,10.5a6.5,6.5,0,0,0,6.165,6.483,15.651,15.651,0,0,1,.691,3.1A4.506,4.506,0,0,0,11.35,24h1.3a4.5,4.5,0,0,0,4.491-3.944,12.538,12.538,0,0,1,1.552-5.138A4.5,4.5,0,0,0,20.8,6.19ZM12.648,21h-1.3a1.5,1.5,0,0,1-1.516-1.287,18.765,18.765,0,0,0-.719-3.337,8.016,8.016,0,0,0,1.6-1.02A7.159,7.159,0,0,0,13.5,16a5.254,5.254,0,0,0,1.527-.232,19,19,0,0,0-.869,3.94A1.5,1.5,0,0,1,12.648,21ZM19.5,12A1.5,1.5,0,0,1,18,10.5a1.5,1.5,0,0,0-3,0,4.451,4.451,0,0,0,.3,1.569A2.233,2.233,0,0,1,13.5,13a4.264,4.264,0,0,1-2.008-.625A1.518,1.518,0,0,0,10.4,12a1.5,1.5,0,0,0-1.032.508A4.363,4.363,0,0,1,6.5,14,3.5,3.5,0,0,1,3,10.5,2.5,2.5,0,0,1,5.5,8,1.5,1.5,0,0,1,7,9.5a1.5,1.5,0,0,0,3,0A4.487,4.487,0,0,0,7.833,5.671,3.275,3.275,0,0,1,11.046,3a3.667,3.667,0,0,1,3.232,2.181,1.5,1.5,0,0,0,1.764.889A1.837,1.837,0,0,1,16.5,6,1.581,1.581,0,0,1,18,7.5,1.5,1.5,0,0,0,19.5,9a1.5,1.5,0,0,1,0,3Z"/></svg>
