<?xml version="1.0" encoding="UTF-8"?>
<!-- Generator: Adobe Illustrator 26.0.3, SVG Export Plug-In . SVG Version: 6.00 Build 0)  -->
<svg xmlns="http://www.w3.org/2000/svg" xmlns:xlink="http://www.w3.org/1999/xlink" version="1.1" id="Layer_1" x="0px" y="0px" viewBox="0 0 512 512" style="enable-background:new 0 0 512 512;" xml:space="preserve" width="512" height="512">
<path d="M408.237,234.667l-13.675-41.024c12.715-1.045,25.515-1.643,33.28-1.643c12.501,20.373,61.141,35.157,64,0v-64  c-2.859-35.157-51.499-20.373-64,0c-12.523,0-34.645,1.152-54.037,3.371l-7.701-23.061c-13.025-39.222-49.723-65.679-91.051-65.643  h-28.544c-17.673,0-32,14.327-32,32s14.327,32,32,32h28.544c13.77-0.002,25.997,8.805,30.357,21.867l6.976,20.928  c-10.317,5.849-19.857,12.973-28.395,21.205h-98.133c-12.705-25.697-38.687-42.157-67.349-42.667H75.842c-17.673,0-32,14.327-32,32  s14.327,32,32,32h42.667c4.067-0.111,7.813,2.202,9.536,5.888c1.982,4.054,1.289,8.908-1.749,12.245l-16.981,24.533h-1.472  C48.961,234.737,1.246,282.452,1.176,341.333c1.515,123.733,175.488,146.133,209.387,28.8c10.956-6.645,20.531-15.337,28.203-25.6  l81.237-118.4c3.852-5.132,8.323-9.768,13.312-13.803l13.547,40.661c-48.594,33.656-60.703,100.333-27.047,148.926  c19.733,28.491,52.04,45.663,86.695,46.082C546.434,443.733,547.928,241.195,408.237,234.667z M186.776,307.2  c-6.065,8.031-15.536,12.767-25.6,12.8h-32.939l50.005-72.533c2.97-4.007,5.542-8.294,7.68-12.8h50.624L186.776,307.2z M406.509,384  c-23.564,0-42.667-19.102-42.667-42.667c0-23.564,19.102-42.667,42.667-42.667s42.667,19.103,42.667,42.667  C449.176,364.898,430.073,384,406.509,384z"/>
</svg>
