<?xml version="1.0" encoding="UTF-8"?>
<svg xmlns="http://www.w3.org/2000/svg" id="Layer_1" data-name="Layer 1" viewBox="0 0 24 24" width="512" height="512"><path d="M21.666.364a4,4,0,0,0-5.293,1.952L9.82,15.452a.955.955,0,0,1-1.345.426,1.065,1.065,0,0,1-.336-1.324,4,4,0,0,0-2.786-5.46A4.07,4.07,0,0,0,.706,11.583,8.941,8.941,0,0,0,12.072,23.444a8.857,8.857,0,0,0,5-4.614L23.655,5.624A4.015,4.015,0,0,0,21.666.364Zm-7.3,17.172a5.962,5.962,0,0,1-7.889,2.931,5.994,5.994,0,0,1-3.006-7.719,1.192,1.192,0,0,1,1.008-.756,1.273,1.273,0,0,1,.868.55,1,1,0,0,1,.029.842,4.034,4.034,0,0,0,1.6,5.095,3.973,3.973,0,0,0,3.178.339,3.933,3.933,0,0,0,2.368-2.071l2.342-4.7,1.8.872Zm6.576-13.19-2.937,5.891-1.8-.871L19.085,3.6a1,1,0,0,1,.561-.53,1,1,0,0,1,1.3,1.281ZM24,21a3,3,0,1,1-3-3A3,3,0,0,1,24,21Z"/></svg>
