<?xml version="1.0" encoding="UTF-8"?>
<svg xmlns="http://www.w3.org/2000/svg" id="Layer_1" data-name="Layer 1" viewBox="0 0 24 24" width="512" height="512"><path d="M3,14v4.5c0,1.378,1.121,2.5,2.5,2.5h3c1.972,.034,1.971,2.967,0,3h-3c-3.032,0-5.5-2.467-5.5-5.5V8.5C0,5.467,2.468,3,5.5,3h.627c.445-1.723,2.013-3,3.873-3h4c1.861,0,3.428,1.277,3.873,3h.627c3.032,0,5.5,2.467,5.5,5.5-.034,1.971-2.966,1.972-3,0,0-1.378-1.121-2.5-2.5-2.5H5.5c-1.379,0-2.5,1.122-2.5,2.5v2.5h5.5c1.972,.034,1.971,2.967,0,3H3Zm21,3.5c-.265,8.592-12.736,8.59-13,0,.265-8.592,12.736-8.59,13,0Zm-4.156,.223l-.844-.844v-1.379c-.034-1.972-2.967-1.971-3,0v1.793c0,.53,.211,1.039,.586,1.414l1.137,1.137c.586,.586,1.535,.586,2.121,0,.586-.586,.586-1.535,0-2.121Z"/></svg>
