<?xml version="1.0" encoding="UTF-8"?>
<svg xmlns="http://www.w3.org/2000/svg" id="Layer_1" data-name="Layer 1" viewBox="0 0 24 24" width="512" height="512"><path d="M24,6c0-3.364-3.733-6-8.5-6C11.177,0,7.714,2.171,7.105,5.084,3.026,5.542,0,7.973,0,11v7.682C0,21.714,3.654,24,8.5,24c4.716,0,8.294-2.168,8.482-5.079C21.07,18.506,24,16.4,24,13.682ZM15.5,3C18.741,3,21,4.581,21,6c0,1.268-1.81,2.657-4.507,2.94a5.9,5.9,0,0,0-1.646-1.961c.211.012.426.021.653.021C17.563,7,19,6.473,19,6s-1.437-1-3.5-1a6.626,6.626,0,0,0-3.2.62,11,11,0,0,0-2.01-.49C10.982,4.005,12.918,3,15.5,3Zm-7,5C11.741,8,14,9.581,14,11s-2.259,3-5.5,3S3,12.419,3,11,5.259,8,8.5,8ZM14,18.682C14,19.6,11.807,21,8.5,21S3,19.6,3,18.682V15.606A10.852,10.852,0,0,0,8.5,17,10.852,10.852,0,0,0,14,15.606Zm3-2.794V11.905a10.31,10.31,0,0,0,4-1.3v3.076C21,14.455,19.446,15.55,17,15.888ZM5,11c0-.473,1.437-1,3.5-1s3.5.527,3.5,1-1.437,1-3.5,1S5,11.473,5,11Z"/></svg>
