<?xml version="1.0" encoding="UTF-8"?>
<svg xmlns="http://www.w3.org/2000/svg" id="Layer_1" data-name="Layer 1" viewBox="0 0 24 24" width="512" height="512"><path d="M20.5,11c-.829,0-1.5,.672-1.5,1.5,0,4.687-3.813,8.5-8.5,8.5-.827,0-1.5-.673-1.5-1.5v-5.403l6.013-2.186c.778-.283,1.18-1.145,.897-1.923-.283-.779-1.144-1.181-1.922-.897l-4.987,1.814v-1.807l6.013-2.186c.778-.283,1.18-1.145,.897-1.923-.283-.779-1.144-1.181-1.922-.897l-4.987,1.814V1.5c-.034-1.972-2.967-1.971-3,0V6.994l-3.013,1.096c-.778,.283-1.18,1.145-.897,1.923,.282,.787,1.164,1.177,1.922,.897l1.987-.723v1.807l-3.013,1.096c-.778,.283-1.18,1.145-.897,1.923,.282,.787,1.164,1.177,1.922,.897l1.987-.723v4.312c0,2.481,2.019,4.5,4.5,4.5,6.341,0,11.5-5.159,11.5-11.5,0-.828-.671-1.5-1.5-1.5Z"/></svg>
