<?xml version="1.0" encoding="UTF-8"?>
<svg xmlns="http://www.w3.org/2000/svg" id="Layer_1" data-name="Layer 1" viewBox="0 0 24 24" width="512" height="512"><path d="M20.017,4.059A12.014,12.014,0,0,0,.1,11.4,11.858,11.858,0,0,0,3.614,21.487,5.309,5.309,0,0,0,7.341,23h9.323a5.175,5.175,0,0,0,3.574-1.371A11.969,11.969,0,0,0,20.017,4.059ZM18.183,19.444A2.225,2.225,0,0,1,16.664,20H7.341a2.328,2.328,0,0,1-1.634-.662,8.889,8.889,0,0,1-2.632-7.565A9.008,9.008,0,0,1,10.952,4.06C19.411,3,24.471,13.614,18.183,19.444ZM19,12.786a6.97,6.97,0,0,1-1.844,4.729,1.5,1.5,0,0,1-2.209-2.03,3.917,3.917,0,0,0,.345-4.9,1.5,1.5,0,0,1,2.416-1.779A6.665,6.665,0,0,1,19,12.786Zm-9.948,2.7a1.5,1.5,0,0,1-2.208,2.032,6.929,6.929,0,0,1-.552-8.711,1.5,1.5,0,1,1,2.416,1.779A3.915,3.915,0,0,0,9.052,15.484ZM13.5,11.678a2,2,0,1,1-3,0V7.5a1.5,1.5,0,0,1,3,0Z"/></svg>
