<?xml version="1.0" encoding="UTF-8"?>
<svg xmlns="http://www.w3.org/2000/svg" id="Layer_1" data-name="Layer 1" viewBox="0 0 24 24" width="512" height="512"><g><path d="M11,16.038a2.995,2.995,0,1,1-4.5-2.584V11.5a1.5,1.5,0,0,1,3,0v1.953A2.987,2.987,0,0,1,11,16.038Zm3-5.308c4.57,4.954.738,13.406-6,13.271-6.737.135-10.571-8.318-6-13.271V6.038c.253-7.932,11.75-7.926,12,0ZM13,16a4.952,4.952,0,0,0-1.541-3.59A1.5,1.5,0,0,1,11,11.331V6.038a3,3,0,0,0-6,0v5.293a1.5,1.5,0,0,1-.459,1.08A4.994,4.994,0,1,0,13,16Z"/><path d="M18,1.5V7H16.337a1.006,1.006,0,0,0-.707,1.707l3.163,3.163a1,1,0,0,0,1.414,0L23.37,8.707A1.006,1.006,0,0,0,22.663,7H21V1.5A1.5,1.5,0,0,0,18,1.5Z"/></g></svg>
