<?xml version="1.0" encoding="UTF-8"?>
<svg xmlns="http://www.w3.org/2000/svg" id="Layer_1" data-name="Layer 1" viewBox="0 0 24 24" width="512" height="512"><path d="M23.201,9.181c-.549-.636-1.313-1.042-2.142-1.151C20.511,3.512,16.658,0,12,0S3.486,3.514,2.941,8.034c-.818,.115-1.569,.519-2.113,1.147C.193,9.915-.09,10.883,.05,11.838l1.011,6.894c.441,3.004,3.108,5.269,6.203,5.269h9.502c3.095,0,5.762-2.265,6.203-5.269l1.011-6.894c.14-.955-.144-1.924-.778-2.657ZM12,3c2.99,0,5.487,2.157,6.02,5H5.98c.534-2.843,3.03-5,6.02-5Zm9.011,8.402l-1.011,6.894c-.227,1.541-1.617,2.704-3.234,2.704H7.264c-1.617,0-3.008-1.163-3.234-2.704l-1.011-6.894c-.015-.096,.013-.183,.079-.26,.046-.054,.149-.143,.324-.143H20.608c.175,0,.277,.089,.323,.142,.046,.054,.097,.142,.079,.261Zm-5.011,3.098v3c0,.828-.672,1.5-1.5,1.5s-1.5-.672-1.5-1.5v-3c0-.828,.672-1.5,1.5-1.5s1.5,.672,1.5,1.5Zm-5,0v3c0,.828-.672,1.5-1.5,1.5s-1.5-.672-1.5-1.5v-3c0-.828,.672-1.5,1.5-1.5s1.5,.672,1.5,1.5Z"/></svg>
