<?xml version="1.0" encoding="UTF-8"?>
<svg xmlns="http://www.w3.org/2000/svg" id="Layer_1" data-name="Layer 1" viewBox="0 0 24 24" width="512" height="512"><path d="M23.848,5.066a5.691,5.691,0,0,0-4.032-3.915,5.836,5.836,0,0,0-3.748.362A5.957,5.957,0,0,0,12,0,5.956,5.956,0,0,0,7.931,1.514,5.828,5.828,0,0,0,4.287,1.13,5.21,5.21,0,0,0,.578,3.892a5.576,5.576,0,0,0,.3,5.444A5.6,5.6,0,0,0,4,11.778V19.5A4.506,4.506,0,0,0,8.5,24l7,0A4.5,4.5,0,0,0,20,19.5V11.747a5.808,5.808,0,0,0,2.781-1.976A5.576,5.576,0,0,0,23.848,5.066ZM20.406,7.938A2.6,2.6,0,0,1,18.467,9,1.5,1.5,0,0,0,17,10.5V18H7V10.5A1.5,1.5,0,0,0,5.5,9,2.519,2.519,0,0,1,3.422,7.753a2.591,2.591,0,0,1-.155-2.532,2.213,2.213,0,0,1,1.612-1.15A2.451,2.451,0,0,1,7.11,4.55a1.5,1.5,0,0,0,2.314-.21A2.941,2.941,0,0,1,12,3a2.941,2.941,0,0,1,2.576,1.34,1.5,1.5,0,0,0,2.314.21,2.516,2.516,0,0,1,2.286-.467h0A2.791,2.791,0,0,1,20.93,5.762,2.592,2.592,0,0,1,20.406,7.938Z"/></svg>
