<?xml version="1.0" encoding="UTF-8"?>
<svg xmlns="http://www.w3.org/2000/svg" id="Layer_1" data-name="Layer 1" viewBox="0 0 24 24" width="512" height="512"><path d="M19,16.5c0,.828-.672,1.5-1.5,1.5h-1c-.828,0-1.5-.672-1.5-1.5s.672-1.5,1.5-1.5h1c.828,0,1.5,.672,1.5,1.5Zm5-2v5c0,2.481-2.019,4.5-4.5,4.5H4.5c-2.481,0-4.5-2.019-4.5-4.5v-5c0-2.481,2.019-4.5,4.5-4.5h.5V4.5C5,2.019,7.019,0,9.5,0h5c2.481,0,4.5,2.019,4.5,4.5v5.5h.5c2.481,0,4.5,2.019,4.5,4.5ZM8,10h8V4.5c0-.827-.673-1.5-1.5-1.5h-5c-.827,0-1.5,.673-1.5,1.5v5.5Zm-3.5,11h6V13H4.5c-.827,0-1.5,.673-1.5,1.5v5c0,.827,.673,1.5,1.5,1.5Zm16.5-6.5c0-.827-.673-1.5-1.5-1.5h-6v8h6c.827,0,1.5-.673,1.5-1.5v-5Zm-13.5,.5h-1c-.828,0-1.5,.672-1.5,1.5s.672,1.5,1.5,1.5h1c.828,0,1.5-.672,1.5-1.5s-.672-1.5-1.5-1.5ZM14,6.5c0-.828-.672-1.5-1.5-1.5h-1c-.828,0-1.5,.672-1.5,1.5s.672,1.5,1.5,1.5h1c.828,0,1.5-.672,1.5-1.5Z"/></svg>
