<?xml version="1.0" encoding="UTF-8"?>
<svg xmlns="http://www.w3.org/2000/svg" id="Layer_1" data-name="Layer 1" viewBox="0 0 24 24" width="512" height="512"><path d="M18.5,0H5.5A5.506,5.506,0,0,0,0,5.5V13a5.506,5.506,0,0,0,5.5,5.5h.136L6,20.627V22.5a1.5,1.5,0,0,0,3,0V22h1.5v.5a1.5,1.5,0,0,0,3,0V22H15v.5a1.5,1.5,0,0,0,3,0V20.775l0-.028.374-2.247H18.5A5.506,5.506,0,0,0,24,13V5.5A5.506,5.506,0,0,0,18.5,0Zm-2.5,14.5L15.255,19H8.765L8,14.562A.5.5,0,0,1,8.5,14h7a.494.494,0,0,1,.374.168A.472.472,0,0,1,16.005,14.5ZM21,13a2.5,2.5,0,0,1-2.117,2.471l.091-.548A3.5,3.5,0,0,0,15.5,11h-7a3.5,3.5,0,0,0-3.463,4l.08.47A2.5,2.5,0,0,1,3,13V5.5A2.5,2.5,0,0,1,5.5,3h13A2.5,2.5,0,0,1,21,5.5ZM18,8.5a1.5,1.5,0,0,1-3,0,.5.5,0,0,0-.5-.5h-5a.5.5,0,0,0-.5.5,1.5,1.5,0,0,1-3,0A3.5,3.5,0,0,1,9.5,5h5A3.5,3.5,0,0,1,18,8.5Z"/></svg>
