<?xml version="1.0" encoding="UTF-8"?>
<svg xmlns="http://www.w3.org/2000/svg" id="Layer_1" data-name="Layer 1" viewBox="0 0 24 24" width="512" height="512"><path d="M22.379,8.21A6.875,6.875,0,0,0,23,5.667,2.844,2.844,0,0,0,20,3a2.456,2.456,0,0,0-2.312-2,2.4,2.4,0,0,0-1.013.3A2.724,2.724,0,0,0,14.5,0a2.707,2.707,0,0,0-2.15,1.324A2.43,2.43,0,0,0,11.337,1,2.484,2.484,0,0,0,9,3,2.844,2.844,0,0,0,6,5.667a6.725,6.725,0,0,0,.583,2.451A9.194,9.194,0,0,0,5,13.3V20a1,1,0,0,1-2,0V12.846A7.031,7.031,0,0,1,4.23,8.858,1.5,1.5,0,1,0,1.77,7.142,10.049,10.049,0,0,0,0,12.846V20a4,4,0,0,0,4,4H18.5A5.506,5.506,0,0,0,24,18.5v-5A9.535,9.535,0,0,0,22.379,8.21ZM21,18.5A2.5,2.5,0,0,1,18.5,21H7.874A4.024,4.024,0,0,0,8,20V13.3a6.254,6.254,0,0,1,6.064-6.289A6.5,6.5,0,0,1,21,13.5Zm-2-5A1.5,1.5,0,1,1,17.5,12,1.5,1.5,0,0,1,19,13.5Zm-3,4A1.5,1.5,0,1,1,14.5,16,1.5,1.5,0,0,1,16,17.5Z"/></svg>
