<?xml version="1.0" encoding="UTF-8"?>
<svg xmlns="http://www.w3.org/2000/svg" id="Layer_1" data-name="Layer 1" viewBox="0 0 24 24" width="512" height="512"><path d="M23.519,8.399l-2.396-2.218c-.665-.752-1.615-1.181-2.622-1.181h-6.5l-2-1.5V1.5c-.033-1.972-2.967-1.971-3,0v.514c-.332-.029-.674-.013-1,.042v-.556c-.033-1.972-2.967-1.971-3,0l.008,2.655-1.941,2.34c-2.871,2.962,.496,7.792,4.339,6.183l.594,2.971v4.352c.104,3.957,5.897,3.954,6,0v-1h4v1c.104,3.957,5.897,3.954,6,0V10.914c.558,.195,1.183,.054,1.601-.396,.562-.608,.526-1.557-.083-2.12Zm-18.753,1.302c-.565,.25-.791,.273-.782,.274-.229,0-.543-.042-.74-.239-.324-.324-.324-.852,0-1.176,.033-.033,2.665-3.203,2.665-3.203,.324-.391,.949-.465,1.356-.159l3.336,2.502c.26,.194,.575,.3,.9,.3h7c.205,0,.33,.114,.387,.182,.052,.063,.113,.169,.113,.318v6.5H8.93l-.701-3.504c-.149-.748-.623-1.377-1.299-1.728-.678-.351-1.466-.375-2.165-.066Zm10.234,1.799c.034-1.972,2.967-1.971,3,0-.034,1.972-2.967,1.971-3,0Zm-5,0c.034-1.972,2.967-1.971,3,0-.034,1.972-2.967,1.971-3,0Z"/></svg>
