<?xml version="1.0" encoding="UTF-8"?>
<svg xmlns="http://www.w3.org/2000/svg" id="Layer_1" data-name="Layer 1" viewBox="0 0 24 24" width="512" height="512"><path d="M2.5,24c-.828,0-1.5-.672-1.5-1.5V3.5C1,1.57,2.57,0,4.5,0h4c4.687,0,8.5,3.813,8.5,8.5v8c-.034,1.972-2.966,1.971-3,0V8.5c0-3.032-2.468-5.5-5.5-5.5H4.5c-.275,0-.5,.225-.5,.5V22.5c0,.828-.672,1.5-1.5,1.5Zm12,0h-4c-1.93,0-3.5-1.57-3.5-3.5V7.5c.034-1.972,2.966-1.971,3,0v13c0,.275,.225,.5,.5,.5h4c3.032,0,5.5-2.468,5.5-5.5V1.5c.034-1.972,2.966-1.971,3,0V15.5c0,4.687-3.813,8.5-8.5,8.5Z"/></svg>
