<?xml version="1.0" encoding="UTF-8"?>
<svg xmlns="http://www.w3.org/2000/svg" id="Layer_1" data-name="Layer 1" viewBox="0 0 24 24" width="512" height="512"><path d="M20.658,5.442A1.481,1.481,0,0,0,21,4.5,1.5,1.5,0,0,0,19.5,3h-4A1.5,1.5,0,0,0,14,4.5a1.483,1.483,0,0,0,.092.5H8V3h.5a1.5,1.5,0,0,0,0-3h-4a1.5,1.5,0,0,0,0,3H5V5.025A5.506,5.506,0,0,0,0,10.5v6a5.5,5.5,0,0,0,3,4.893V22.5a1.5,1.5,0,0,0,3,0V22H18v.5a1.5,1.5,0,0,0,3,0V21.393A5.5,5.5,0,0,0,24,16.5v-6A5.508,5.508,0,0,0,20.658,5.442ZM21,16.5A2.5,2.5,0,0,1,18.5,19H5.5A2.5,2.5,0,0,1,3,16.5v-6A2.5,2.5,0,0,1,5.5,8h13A2.5,2.5,0,0,1,21,10.5ZM8.218,13.9l1.935.968a.463.463,0,0,1,.163.687A3.469,3.469,0,0,1,7.5,17a3.5,3.5,0,1,1,2.864-5.491.464.464,0,0,1-.166.682l-1.98.99A.4.4,0,0,0,8.218,13.9Zm11.725.23a.464.464,0,0,1-.6.365l-2.1-.7a.4.4,0,0,0-.508.508l.685,2.053a.464.464,0,0,1-.372.6,3.481,3.481,0,0,1-4.038-3.437,3.5,3.5,0,1,1,6.933.61Z"/></svg>
