<?xml version="1.0" encoding="UTF-8"?>
<svg xmlns="http://www.w3.org/2000/svg" id="Layer_1" data-name="Layer 1" viewBox="0 0 24 24" width="512" height="512"><path d="M22.582,15.002l-.747-2.242c-.75-2.249-2.848-3.76-5.218-3.76H7.383c-.475,0-.939,.061-1.383,.176v-2.676c0-1.378,1.121-2.5,2.5-2.5h.75c.456,.607,1.182,1,2,1h4.25c1.381,0,2.5-1.119,2.5-2.5s-1.119-2.5-2.5-2.5h-4.25c-.818,0-1.543,.393-2,1h-.75C5.468,1,3,3.467,3,6.5v4.676c-.356,.47-.641,1.003-.835,1.585l-.747,2.242c-.79,.043-1.418,.697-1.418,1.498,0,.829,.672,1.5,1.5,1.5H10.5v3h-2c-.828,0-1.5,.671-1.5,1.5s.672,1.5,1.5,1.5h7c.828,0,1.5-.671,1.5-1.5s-.672-1.5-1.5-1.5h-2v-3h9c.828,0,1.5-.671,1.5-1.5,0-.801-.628-1.455-1.418-1.498Zm-18.001-.002l.43-1.291c.341-1.022,1.295-1.709,2.372-1.709h9.234c1.077,0,2.031,.687,2.372,1.709l.43,1.291H4.581Z"/></svg>
