<?xml version="1.0" encoding="UTF-8"?>
<svg xmlns="http://www.w3.org/2000/svg" id="Layer_1" data-name="Layer 1" viewBox="0 0 24 24" width="512" height="512"><path d="M16,13c0,.829-.671,1.5-1.5,1.5h-1v1c0,.829-.671,1.5-1.5,1.5s-1.5-.671-1.5-1.5v-1h-1c-.829,0-1.5-.671-1.5-1.5s.671-1.5,1.5-1.5h1v-1c0-.829,.671-1.5,1.5-1.5s1.5,.671,1.5,1.5v1h1c.829,0,1.5,.671,1.5,1.5Zm7,0c0,2.513-.848,4.832-2.272,6.686,.719,.603,1.272,1.522,1.272,2.814,0,.829-.671,1.5-1.5,1.5s-1.5-.671-1.5-1.5c0-.148,0-.508-.444-.672-1.832,1.364-4.101,2.172-6.556,2.172s-4.727-.809-6.56-2.175c-.44,.16-.44,.526-.44,.675,0,.829-.671,1.5-1.5,1.5s-1.5-.671-1.5-1.5c0-1.291,.553-2.211,1.272-2.814-1.424-1.854-2.272-4.173-2.272-6.686C1,7.443,5.142,2.837,10.5,2.103v-.603c0-.829,.671-1.5,1.5-1.5s1.5,.671,1.5,1.5v.603c5.358,.734,9.5,5.341,9.5,10.897Zm-11,8c4.411,0,8-3.589,8-8s-3.589-8-8-8S4,8.589,4,13s3.589,8,8,8ZM19.5,0c-.829,0-1.5,.671-1.5,1.5s.671,1.5,1.5,1.5c1.317,0,1.459,1.049,1.459,1.5,0,.829,.671,1.5,1.5,1.5s1.5-.671,1.5-1.5c0-2.607-1.875-4.5-4.459-4.5ZM3.041,4.5c0-.451,.142-1.5,1.459-1.5,.829,0,1.5-.671,1.5-1.5s-.671-1.5-1.5-1.5C1.917,0,.041,1.893,.041,4.5c0,.829,.671,1.5,1.5,1.5s1.5-.671,1.5-1.5Z"/></svg>
