<?xml version="1.0" encoding="UTF-8"?>
<svg xmlns="http://www.w3.org/2000/svg" id="Layer_1" data-name="Layer 1" viewBox="0 0 24 24" width="512" height="512"><path d="M24,10.5c0,.829-.671,1.5-1.5,1.5H1.5c-.829,0-1.5-.671-1.5-1.5s.671-1.5,1.5-1.5h.5V2.5c0-.829,.671-1.5,1.5-1.5s1.5,.671,1.5,1.5v6.5h2V3c0-1.104,.896-2,2-2s2,.896,2,2v6h1V2.5c0-.829,.671-1.5,1.5-1.5s1.5,.671,1.5,1.5v6.5h3V3c0-1.104,.896-2,2-2s2,.896,2,2v6h.5c.829,0,1.5,.671,1.5,1.5ZM3.5,14c-.829,0-1.5,.671-1.5,1.5v7c0,.829,.671,1.5,1.5,1.5s1.5-.671,1.5-1.5v-7c0-.829-.671-1.5-1.5-1.5Zm10,0c-.829,0-1.5,.671-1.5,1.5v7c0,.829,.671,1.5,1.5,1.5s1.5-.671,1.5-1.5v-7c0-.829-.671-1.5-1.5-1.5Zm-4.5,0c-1.104,0-2,.896-2,2v6c0,1.104,.896,2,2,2s2-.896,2-2v-6c0-1.104-.896-2-2-2Zm11,0c-1.104,0-2,.896-2,2v6c0,1.104,.896,2,2,2s2-.896,2-2v-6c0-1.104-.896-2-2-2Z"/></svg>
