<?xml version="1.0" encoding="UTF-8"?>
<svg xmlns="http://www.w3.org/2000/svg" id="Layer_1" data-name="Layer 1" viewBox="0 0 24 24" width="512" height="512"><path d="M23,18.083c0,2.58-1.549,4.861-3.947,5.812-.181,.072-.368,.106-.552,.106-.597,0-1.162-.359-1.395-.948-.305-.77,.072-1.642,.842-1.947,1.247-.494,2.053-1.681,2.053-3.022,0-4.618-4.336-10.083-8-10.083S4,13.465,4,18.083c0,1.342,.806,2.528,2.053,3.022,.77,.306,1.147,1.177,.842,1.947-.306,.771-1.179,1.146-1.947,.842-2.398-.951-3.947-3.232-3.947-5.812C1,12.896,5.19,6.456,10.268,5.213c-1.158-.794-2.576-2.018-3.185-3.55-.318-.799,.32-1.663,1.179-1.663h7.475c.86,0,1.497,.864,1.179,1.663-.609,1.532-2.028,2.757-3.185,3.55,5.078,1.243,9.268,7.683,9.268,12.87Zm-9.255-2l-2.376-.95c-.224-.09-.369-.304-.369-.545,0-.324,.263-.587,.587-.587h1.181c.181,0,.343,.094,.434,.251,.414,.717,1.332,.962,2.049,.547,.717-.415,.962-1.333,.547-2.049-.511-.883-1.381-1.492-2.363-1.684-.186-.616-.758-1.065-1.436-1.065-.71,0-1.304,.493-1.46,1.156-1.469,.449-2.54,1.817-2.54,3.431,0,1.476,.885,2.783,2.255,3.331l2.376,.95c.224,.09,.369,.304,.369,.545,0,.324-.263,.587-.587,.587h-1.181c-.181,0-.343-.094-.434-.25-.414-.717-1.333-.961-2.049-.547-.717,.415-.962,1.333-.547,2.049,.51,.883,1.381,1.491,2.363,1.683,.186,.616,.758,1.065,1.436,1.065,.71,0,1.304-.493,1.46-1.156,1.469-.449,2.54-1.817,2.54-3.431,0-1.476-.885-2.783-2.255-3.331Z"/></svg>
