<?xml version="1.0" encoding="UTF-8"?>
<svg xmlns="http://www.w3.org/2000/svg" id="Layer_1" data-name="Layer 1" viewBox="0 0 24 24" width="512" height="512"><path d="M18.5,5h-.559c1.197-1.176,1.427-2.655,.51-3.878-.93-1.24-2.688-1.491-3.928-.561-1.652,1.239-2.327,3.389-2.523,4.439-.195-1.05-.845-3.2-2.497-4.439-1.24-.93-2.998-.678-3.928,.561-.917,1.222-.687,2.702,.51,3.878h-.585C2.467,5,0,7.468,0,10.5v8c0,3.032,2.467,5.5,5.5,5.5h13c3.033,0,5.5-2.468,5.5-5.5V10.5c0-3.032-2.467-5.5-5.5-5.5Zm0,16H5.5c-1.207,0-2.217-.86-2.45-2H20.95c-.232,1.14-1.242,2-2.45,2Zm2.5-5H3v-5.5c0-1.379,1.122-2.5,2.5-2.5h4.828c-.619,1.659-2.716,1.975-3.001,2.01-.82,.095-1.41,.835-1.318,1.656,.085,.767,.737,1.334,1.491,1.334,1.5,0,3.208-.744,4.5-2.102,1.292,1.358,3,2.102,4.5,2.102h.002c.754,0,1.404-.567,1.489-1.334,.092-.823-.502-1.565-1.325-1.657-.11-.012-2.351-.283-2.994-2.009h4.828c1.378,0,2.5,1.121,2.5,2.5v5.5Z"/></svg>
