<?xml version="1.0" encoding="UTF-8"?>
<svg xmlns="http://www.w3.org/2000/svg" id="Layer_1" data-name="Layer 1" viewBox="0 0 24 24" width="512" height="512"><path d="M21.5,0a2.5,2.5,0,0,0,0,5A2.5,2.5,0,0,0,21.5,0ZM14,16.037a2.995,2.995,0,1,1-4.5-2.584V11.5a1.5,1.5,0,0,1,3,0v1.953A2.987,2.987,0,0,1,14,16.037Zm3-10c-.253-7.932-11.75-7.926-12,0v4.692C.43,15.683,4.262,24.135,11,24c6.737.135,10.571-8.318,6-13.271ZM11,21a5.011,5.011,0,0,1-3.459-8.59A1.5,1.5,0,0,0,8,11.33V6.037a3,3,0,0,1,6,0V11.33a1.5,1.5,0,0,0,.459,1.08A5.011,5.011,0,0,1,11,21Z"/></svg>
