<?xml version="1.0" encoding="UTF-8"?>
<svg xmlns="http://www.w3.org/2000/svg" id="Layer_1" data-name="Layer 1" viewBox="0 0 24 24" width="512" height="512"><path d="M20,6H4C1.794,6,0,7.794,0,10v3c0,2.206,1.794,4,4,4H20c2.206,0,4-1.794,4-4v-3c0-2.206-1.794-4-4-4Zm1,7c0,.552-.448,1-1,1h-1v-1.5c0-.828-.672-1.5-1.5-1.5s-1.5,.672-1.5,1.5v1.5h-2.5v-1.5c0-.828-.672-1.5-1.5-1.5s-1.5,.672-1.5,1.5v1.5h-2.488l-.012-1.513c-.007-.824-.677-1.487-1.5-1.487h-.013c-.828,.007-1.494,.684-1.487,1.513l.012,1.487h-1.012c-.552,0-1-.448-1-1v-3c0-.552,.448-1,1-1H20c.552,0,1,.448,1,1v3Z"/></svg>
