<?xml version="1.0" encoding="UTF-8"?>
<svg xmlns="http://www.w3.org/2000/svg" id="Layer_1" data-name="Layer 1" viewBox="0 0 24 24" width="512" height="512"><path d="M9,2.5v-1a1.5,1.5,0,0,1,3,0v1a1.5,1.5,0,0,1-3,0ZM15.5,4A1.5,1.5,0,0,0,17,2.5v-1a1.5,1.5,0,0,0-3,0v1A1.5,1.5,0,0,0,15.5,4ZM5.5,4A1.5,1.5,0,0,0,7,2.5v-1a1.5,1.5,0,0,0-3,0v1A1.5,1.5,0,0,0,5.5,4ZM24,14.483A5.5,5.5,0,0,1,18.538,20H16.962v0A6.421,6.421,0,0,1,11,24H9a6.42,6.42,0,0,1-5.961-4A30.241,30.241,0,0,1,.016,9.675,3.331,3.331,0,0,1,.857,7.113,3.433,3.433,0,0,1,3.4,6L16.6,6a3.433,3.433,0,0,1,2.543,1.113,3.334,3.334,0,0,1,.84,2.561c-.014.146-.039.285-.055.429C22.487,10.524,24,12.11,24,14.483Zm-7-5.1a.315.315,0,0,0-.079-.254A.419.419,0,0,0,16.6,9H11v2.832l.414.415A2,2,0,0,1,12,13.66V15.5A1.5,1.5,0,0,1,10.5,17h-2A1.5,1.5,0,0,1,7,15.5V13.661a2,2,0,0,1,.586-1.414L8,11.833V9H3.4a.419.419,0,0,0-.32.127A.315.315,0,0,0,3,9.38a27.234,27.234,0,0,0,2.725,9.288C6.764,20.758,8.092,21,9,21h2c.908,0,2.235-.242,3.274-2.333A33.051,33.051,0,0,0,17,9.381Zm4,5.1c0-.431-.018-1.2-1.569-1.427A30.506,30.506,0,0,1,18.258,17h.28A2.492,2.492,0,0,0,21,14.483Z"/></svg>
