<?xml version="1.0" encoding="UTF-8"?>
<svg xmlns="http://www.w3.org/2000/svg" id="Layer_1" data-name="Layer 1" viewBox="0 0 24 24" width="512" height="512"><path d="M18.5,16h-5c-.829,0-1.5,.671-1.5,1.5v3.5h-4v-3.5c0-.829-.671-1.5-1.5-1.5H3v-2h2.5c.829,0,1.5-.671,1.5-1.5s-.671-1.5-1.5-1.5H3v-.036c0-.989,.736-1.84,1.712-1.979,.82-.117,1.39-.877,1.272-1.697-.117-.82-.885-1.395-1.697-1.272C1.843,6.365,0,8.493,0,10.964v8.036c0,2.757,2.243,5,5,5H15c2.757,0,5-2.243,5-5v-1.5c0-.829-.671-1.5-1.5-1.5Zm-15.5,3h2v2c-1.103,0-2-.897-2-2Zm12,2v-2h2c0,1.103-.897,2-2,2ZM18.5,0h-5c-3.033,0-5.5,2.467-5.5,5.5v3c0,3.033,2.467,5.5,5.5,5.5h5c3.033,0,5.5-2.467,5.5-5.5v-3c0-3.033-2.467-5.5-5.5-5.5Zm-7.5,5.5c0-1.378,1.122-2.5,2.5-2.5h5c1.378,0,2.5,1.122,2.5,2.5v.196l-2.115,2.115c-.391,.391-1.024,.391-1.414,0l-.47-.476c-.366-.366-.95-.392-1.347-.061l-3.698,3.176c-.577-.458-.954-1.157-.954-1.949v-3Zm1,0c0-.828,.672-1.5,1.5-1.5s1.5,.672,1.5,1.5-.672,1.5-1.5,1.5-1.5-.672-1.5-1.5Z"/></svg>
