<?xml version="1.0" encoding="UTF-8"?>
<svg xmlns="http://www.w3.org/2000/svg" id="Layer_1" data-name="Layer 1" viewBox="0 0 24 24" width="512" height="512"><path d="M12.057,14.064l-9.5,9.5A1.5,1.5,0,0,1,.439,21.438l9.5-9.495a6.506,6.506,0,0,1,.932-8L14.45.43a1.5,1.5,0,0,1,2.1,2.142l-3.571,3.5a3.483,3.483,0,0,0-.8,3.631L18.439,3.44a1.5,1.5,0,1,1,2.122,2.121L14.3,11.823a3.5,3.5,0,0,0,3.641-.812l3.49-3.56a1.5,1.5,0,1,1,2.142,2.1l-3.5,3.571a6.5,6.5,0,0,1-8.014.943Zm8.072,3.448A1.5,1.5,0,0,0,19,17a19.959,19.959,0,0,1-4.813-.39l-.4-.082a1.5,1.5,0,0,0-.578,2.944l.366.074a20.963,20.963,0,0,0,4.739.45l3.055,3.491a1.5,1.5,0,0,0,2.258-1.975ZM3.78,12.659a1.5,1.5,0,0,0,2.366-1.846A15.676,15.676,0,0,1,3.039,3.571L5.751,6.516A1.5,1.5,0,0,0,7.958,4.485L4.622.861A2.709,2.709,0,0,0,1.637.192,2.584,2.584,0,0,0,0,2.652V3A17.788,17.788,0,0,0,3.78,12.659Z"/></svg>
