<?xml version="1.0" encoding="UTF-8"?>
<svg xmlns="http://www.w3.org/2000/svg" id="Layer_1" data-name="Layer 1" viewBox="0 0 24 24" width="512" height="512"><path d="M20.5,0h-3a1.5,1.5,0,0,0,0,3h1.379L16.185,5.694A12.662,12.662,0,0,0,1.549,5.023,3.4,3.4,0,0,0,.019,7.528a3.433,3.433,0,0,0,.989,2.8L6.281,15.6,4.879,17H1.5a1.5,1.5,0,0,0,0,3h.379l-.44.439a1.5,1.5,0,0,0,2.122,2.122L4,22.121V22.5a1.5,1.5,0,0,0,3,0V19.121l1.4-1.4,5.272,5.273A3.427,3.427,0,0,0,16.105,24a3.47,3.47,0,0,0,.367-.019,3.4,3.4,0,0,0,2.5-1.53,12.664,12.664,0,0,0-.671-14.636L21,5.121V6.5a1.5,1.5,0,0,0,3,0v-3A3.5,3.5,0,0,0,20.5,0ZM3.129,8.205A.445.445,0,0,1,3,7.842a.4.4,0,0,1,.181-.3,9.53,9.53,0,0,1,5.2-1.531,9.661,9.661,0,0,1,5.662,1.826L8.4,13.477ZM16.46,20.817a.4.4,0,0,1-.3.181.449.449,0,0,1-.363-.127L10.523,15.6l5.642-5.642A9.648,9.648,0,0,1,16.46,20.817Z"/></svg>
