<?xml version="1.0" encoding="UTF-8"?>
<svg xmlns="http://www.w3.org/2000/svg" id="Layer_1" data-name="Layer 1" viewBox="0 0 24 24" width="512" height="512"><path d="M8.037,12.916a1.5,1.5,0,0,1,.046,2.121.428.428,0,0,0-.112.17A1.5,1.5,0,0,1,6.918,16.94,1.477,1.477,0,0,1,6.5,17a1.5,1.5,0,0,1-1.44-1.082,3.126,3.126,0,0,1,.857-2.955A1.5,1.5,0,0,1,8.037,12.916ZM24,15.5c0,4.846-3.009,8.5-7,8.5a6.613,6.613,0,0,1-5.771-3.572,7.99,7.99,0,0,1-4.615,1.564A6.7,6.7,0,0,1,3.1,21.007,6.292,6.292,0,0,1,.161,16.9a8.8,8.8,0,0,1,1.525-6.675c2.656-3.943,7.252-5.33,10.692-3.23a6.625,6.625,0,0,1,1.255.988,6.238,6.238,0,0,1,1.927-.816,9.8,9.8,0,0,1,.922-3.06A22.308,22.308,0,0,1,10.467,5a15.008,15.008,0,0,1-6.9-1.614.974.974,0,0,1,0-1.772A15.008,15.008,0,0,1,10.467,0a20.775,20.775,0,0,1,7.889,1.581A6.067,6.067,0,0,1,22.5,0a1.5,1.5,0,0,1,0,3C19.983,3,18.9,5.665,18.594,7.21,21.764,8.042,24,11.325,24,15.5ZM11.512,10.107a3.551,3.551,0,0,0-.7-.553c-2.355-1.442-5.122.091-6.64,2.344a5.825,5.825,0,0,0-1.082,4.361,3.309,3.309,0,0,0,1.572,2.187c1.93,1.182,4.154.238,5.513-.989A11.084,11.084,0,0,1,10,15.5,9.786,9.786,0,0,1,11.512,10.107ZM21,15.5c0-2.733-1.374-5.5-4-5.5s-4,2.767-4,5.5S14.374,21,17,21,21,18.233,21,15.5ZM18,16a1.5,1.5,0,0,0-3,0,3.37,3.37,0,0,0,.818,2.53,1.758,1.758,0,0,0,1.175.47,1.627,1.627,0,0,0,1.5-1.64,1.5,1.5,0,0,0-.476-.962A3.79,3.79,0,0,1,18,16Z"/></svg>
