<?xml version="1.0" encoding="UTF-8"?>
<svg xmlns="http://www.w3.org/2000/svg" id="Layer_1" data-name="Layer 1" viewBox="0 0 24 24" width="512" height="512"><path d="M21,18c-2.058,0-5.691,1.977-7,3a6.3,6.3,0,0,1-4.534-1.8A5.227,5.227,0,0,1,8,15.314c0-.129.021-.252.033-.377A5.659,5.659,0,0,0,11.5,16a1.5,1.5,0,0,0,0-3,2.45,2.45,0,0,1-2.183-.979,6.821,6.821,0,0,1,5-2.021V9.994A7.947,7.947,0,0,0,21.886,3H22.5a1.5,1.5,0,0,0,0-3H12.863C5.771,0,.121,5.169,0,11.767a11.729,11.729,0,0,0,3.343,8.509A12.68,12.68,0,0,0,12.5,24H21a3,3,0,0,0,0-6ZM13.092,3A1.483,1.483,0,0,0,13,3.5a1.5,1.5,0,0,0,3,0,1.483,1.483,0,0,0-.092-.5h2.925A4.9,4.9,0,0,1,14,7H13a2,2,0,0,1-2-2A2.083,2.083,0,0,1,13.092,3ZM5.4,18.082a8.8,8.8,0,0,1-2.28-7.472,5.153,5.153,0,0,0,2.4,2.01,8.115,8.115,0,0,0-.514,2.605A8.562,8.562,0,0,0,5.4,18.082ZM5,6.466A9.291,9.291,0,0,1,8.1,4.059,5.029,5.029,0,0,0,8,5,4.963,4.963,0,0,0,9.271,8.3,8.79,8.79,0,0,0,7.165,9.956C5.585,9.733,5,7.974,5,6.466Z"/></svg>
