<?xml version="1.0" encoding="UTF-8"?>
<svg xmlns="http://www.w3.org/2000/svg" id="Layer_1" data-name="Layer 1" viewBox="0 0 24 24" width="512" height="512"><path d="M22.5,21H8.509a2.012,2.012,0,0,0,1.717-2.977L10.215,18l8.043-4.645a2,2,0,0,0,3.44-2.039l-.172-.307A3.817,3.817,0,0,0,21.589,6.9l-.706-1.138a9.562,9.562,0,0,0-2.706-3.047l-2.3-1.671A5.518,5.518,0,0,0,9.956.7L3.826,4.143a5.513,5.513,0,0,0-2.8,5.217l.222,3.113a9.6,9.6,0,0,0,1.215,3.958l.811,1.313A3.79,3.79,0,0,0,6.5,19.555l.234.418A2,2,0,0,0,8.5,21h-7a1.5,1.5,0,0,0,0,3h21A1.5,1.5,0,0,0,22.5,21ZM5.293,6.76l6.13-3.444a2.507,2.507,0,0,1,2.69.159l.965.7L4.116,10.511l-.1-1.373A2.507,2.507,0,0,1,5.293,6.76Zm.533,9.406L5.048,14.91a6.531,6.531,0,0,1-.512-1.176L6.328,12.7l.5.806a1.5,1.5,0,0,0,2.553-1.577L8.927,11.2l4.3-2.485.522.844A1.5,1.5,0,0,0,16.3,7.978l-.476-.769,1.731-1A6.965,6.965,0,0,1,18.3,7.286l.739,1.2a.807.807,0,0,1-.283,1.125L6.918,16.441A.806.806,0,0,1,5.826,16.166Z"/></svg>
