<?xml version="1.0" encoding="UTF-8"?>
<svg xmlns="http://www.w3.org/2000/svg" id="Layer_1" data-name="Layer 1" viewBox="0 0 24 24" width="512" height="512"><path d="M24,8.5c0-.132-.018-.264-.052-.392l-1.146-4.226c-.715-2.322-2.827-3.882-5.257-3.882H6.454C4.024,0,1.912,1.561,1.184,3.932L.052,8.108c-.201,1.159,.272,2.363,.948,3.215v8.177c0,2.481,2.019,4.5,4.5,4.5h5c2.481,0,4.5-2.019,4.5-4.5v-7.26c.176-.118,.343-.248,.5-.389,.797,.714,1.848,1.149,3,1.149h1c.169,0,.336-.01,.5-.028v9.528c.034,1.972,2.967,1.971,3,0V11.323c.624-.773,1-1.755,1-2.823Zm-12,11c0,.827-.673,1.5-1.5,1.5H5.5c-.827,0-1.5-.673-1.5-1.5v-.5H12v.5Zm0-3.5H4v-3.028c.164,.018,.331,.028,.5,.028h1c1.152,0,2.203-.435,3-1.149,.797,.714,1.848,1.149,3,1.149h.5v3Zm7.5-6h-1c-.827,0-1.5-.673-1.5-1.5s-.672-1.5-1.5-1.5-1.5,.671-1.5,1.5-.673,1.5-1.5,1.5h-1c-.827,0-1.5-.673-1.5-1.5s-.671-1.5-1.5-1.5-1.5,.671-1.5,1.5-.673,1.5-1.5,1.5h-1c-.771,0-1.408-.585-1.491-1.334l1.056-3.901c.325-1.056,1.285-1.765,2.389-1.765h.546v.5c.033,1.972,2.967,1.971,3,0v-.5h4v.5c.034,1.972,2.967,1.971,3,0v-.5h.546c1.104,0,2.064,.709,2.375,1.716l1.07,3.95c-.083,.749-.72,1.334-1.491,1.334Z"/></svg>
