<?xml version="1.0" encoding="UTF-8"?>
<svg xmlns="http://www.w3.org/2000/svg" id="Layer_1" data-name="Layer 1" viewBox="0 0 24 24" width="512" height="512"><path d="M22.011,19.89c1.265-1.293,1.989-3.036,1.989-4.89,0-1.623-.568-3.205-1.6-4.455-.527-.638-1.474-.729-2.112-.202s-.729,1.474-.202,2.112c.598,.724,.914,1.604,.914,2.545,0,1.046-.404,2.031-1.111,2.767l-3.878-3.878c1.265-1.293,1.989-3.036,1.989-4.89,0-3.859-3.141-7-7-7H7c-.844,0-1.662,.148-2.441,.438L2.561,.439C1.975-.146,1.025-.146,.439,.439S-.146,1.975,.439,2.561L21.439,23.561c.293,.293,.677,.439,1.061,.439s.768-.146,1.061-.439c.586-.586,.586-1.535,0-2.121l-1.55-1.55ZM11,5c2.206,0,4,1.794,4,4,0,1.046-.404,2.031-1.111,2.767L7.121,5h3.879ZM3.914,11.545c.527,.639,.437,1.584-.202,2.111-.279,.231-.618,.344-.954,.344-.432,0-.861-.186-1.158-.545-1.032-1.25-1.601-2.832-1.601-4.455,0-.214,.01-.424,.028-.633,.073-.826,.802-1.436,1.627-1.361,.825,.073,1.435,.802,1.361,1.627-.011,.121-.017,.243-.017,.367,0,.941,.316,1.821,.914,2.545Zm11.086,8.955c0,.828-.672,1.5-1.5,1.5h-.5c-3.86,0-7-3.141-7-7,0-.214,.01-.424,.028-.633,.073-.826,.802-1.435,1.627-1.361,.825,.073,1.435,.802,1.361,1.627-.011,.121-.017,.243-.017,.367,0,2.206,1.794,4,4,4h.5c.828,0,1.5,.672,1.5,1.5Z"/></svg>
