<?xml version="1.0" encoding="UTF-8"?>
<svg xmlns="http://www.w3.org/2000/svg" id="Layer_1" data-name="Layer 1" viewBox="0 0 24 24" width="512" height="512"><g><path d="M21,19.025a4.876,4.876,0,0,1-2.8-.9.335.335,0,0,0-.406,0,4.914,4.914,0,0,1-5.594,0,.335.335,0,0,0-.406,0,4.914,4.914,0,0,1-5.594,0,.335.335,0,0,0-.406,0,4.757,4.757,0,0,1-5.05.3,1.5,1.5,0,0,1,1.506-2.6,1.706,1.706,0,0,0,1.806-.148,3.349,3.349,0,0,1,3.883,0,1.856,1.856,0,0,0,2.117,0,3.349,3.349,0,0,1,3.883,0,1.856,1.856,0,0,0,2.117,0,3.349,3.349,0,0,1,3.883,0,1.7,1.7,0,0,0,1.8.147,1.5,1.5,0,0,1,1.506,2.6A4.5,4.5,0,0,1,21,19.025Z"/><path d="M23.253,23.421a1.5,1.5,0,0,0-1.506-2.6,1.7,1.7,0,0,1-1.8-.147,3.349,3.349,0,0,0-3.883,0,1.856,1.856,0,0,1-2.117,0,3.349,3.349,0,0,0-3.883,0,1.856,1.856,0,0,1-2.117,0,3.349,3.349,0,0,0-3.883,0,1.706,1.706,0,0,1-1.806.148,1.5,1.5,0,0,0-1.506,2.6,4.762,4.762,0,0,0,5.05-.3.335.335,0,0,1,.406,0,4.914,4.914,0,0,0,5.594,0,.335.335,0,0,1,.406,0,4.914,4.914,0,0,0,5.594,0,.335.335,0,0,1,.406,0,4.876,4.876,0,0,0,2.8.9A4.5,4.5,0,0,0,23.253,23.421Z"/><path d="M8.322,5.5H10.5v5.474a1.5,1.5,0,1,0,3,0V5.5h2.178a1.007,1.007,0,0,0,.706-1.709L13.015.421a1.435,1.435,0,0,0-2.03,0h0L7.616,3.789A1.006,1.006,0,0,0,8.322,5.5Z"/></g></svg>
