<?xml version="1.0" encoding="UTF-8"?>
<svg xmlns="http://www.w3.org/2000/svg" id="Layer_1" data-name="Layer 1" viewBox="0 0 24 24" width="512" height="512"><path d="M22.5,14h-.188c-.194,0-.388,.011-.58,.032L12.91,7.295c-.4-.305-.911-.381-1.37-.235l2.821-2.386c.741-.697,1.902-.867,2.808-.412l2.104,1.051c.898,.45,1.903,.688,2.908,.688h.319c1.972-.034,1.971-2.966,0-3h-.319c-.541,0-1.082-.128-1.565-.37l-2.104-1.051c-2.005-1.004-4.605-.599-6.146,.857l-.358,.302-.341-.311c-1.607-1.506-4.199-1.866-6.177-.85l-2.105,1.053c-.482,.241-1.023,.369-1.564,.369h-.319c-1.972,.034-1.971,2.966,0,3h.319c1.005,0,2.01-.237,2.907-.687l2.105-1.053c.843-.422,2.046-.313,2.813,.385l.051,.046s-3.758,3.177-3.788,3.208c-1.044,1.046-1.202,2.706-.369,3.864,.511,.71,1.301,1.157,2.167,1.227,.837,.069,1.669-.227,2.279-.809l2.067-1.767,6.539,4.994-5.971,4.388c-.371,.273-.871,.273-1.242,0l-6.434-4.728c-.938-.689-2.094-1.069-3.257-1.069h-.188c-1.972,.034-1.971,2.966,0,3h.188c.528,0,1.054,.173,1.479,.486l6.434,4.729c1.435,1.053,3.362,1.053,4.797,0l6.434-4.729c.426-.312,.951-.485,1.479-.485h.188c1.972-.034,1.971-2.966,0-3Z"/></svg>
