<?xml version="1.0" encoding="UTF-8"?>
<svg xmlns="http://www.w3.org/2000/svg" id="Layer_1" data-name="Layer 1" viewBox="0 0 24 24" width="512" height="512"><path d="M15.443,12.612c.509,.515,.144,1.388-.58,1.388h-1.863v1.5c0,.828-.671,1.5-1.5,1.5s-1.5-.672-1.5-1.5v-1.5h-1.863c-.724,0-1.089-.873-.58-1.388l3.299-3.342c.354-.359,.934-.359,1.288,0l3.299,3.342Zm8.557,1.866c0,4.158-3.364,7.522-7.5,7.522H5.5c-3.033,0-5.5-2.467-5.5-5.5,0-1.676,.709-3.322,1.897-4.402,.115-.104,.181-.25,.161-.353-.188-.967-.199-1.959-.034-2.952,.559-3.366,3.184-6.04,6.533-6.652,3.672-.674,7.341,1.194,8.929,4.54,.06,.127,.175,.212,.324,.242,3.585,.715,6.188,3.892,6.188,7.555Zm-3,.022c0-2.259-1.589-4.199-3.777-4.636-1.088-.219-1.979-.91-2.447-1.899-.877-1.851-2.687-2.964-4.685-2.964-.327,0-.658,.029-.992,.091-2.076,.38-3.768,2.104-4.114,4.193-.106,.639-.1,1.274,.02,1.888,.219,1.13-.198,2.335-1.088,3.145-.556,.506-.916,1.362-.916,2.183,0,1.379,1.122,2.5,2.5,2.5h11c2.481,0,4.5-2.019,4.5-4.5Z"/></svg>
