<?xml version="1.0" encoding="UTF-8"?>
<svg xmlns="http://www.w3.org/2000/svg" id="Layer_1" data-name="Layer 1" viewBox="0 0 24 24" width="512" height="512"><path d="M24,5.5v6c0,.829-.672,1.5-1.5,1.5s-1.5-.671-1.5-1.5V5.5c0-1.378-1.121-2.5-2.5-2.5H5.5c-1.378,0-2.5,1.122-2.5,2.5v13c0,1.378,1.122,2.5,2.5,2.5,.829,0,1.5,.671,1.5,1.5s-.671,1.5-1.5,1.5c-3.033,0-5.5-2.467-5.5-5.5V5.5C0,2.467,2.467,0,5.5,0h13c3.032,0,5.5,2.467,5.5,5.5Zm-.264,15.486c.349,.636,.351,1.384,.012,2.011s-.946,1.003-1.626,1.003H10.878c-.679,0-1.287-.375-1.625-1.003-.339-.628-.336-1.376,.006-2.002l5.627-10.014c.336-.611,.941-.981,1.615-.981s1.279,.37,1.619,.991l5.617,9.995Zm-5.737-.486c0-.828-.672-1.5-1.5-1.5s-1.5,.672-1.5,1.5,.672,1.5,1.5,1.5,1.5-.672,1.5-1.5Zm0-6c0-.829-.672-1.5-1.5-1.5s-1.5,.671-1.5,1.5v2c0,.829,.672,1.5,1.5,1.5s1.5-.671,1.5-1.5v-2ZM6.5,5c-.828,0-1.5,.672-1.5,1.5s.672,1.5,1.5,1.5,1.5-.672,1.5-1.5-.672-1.5-1.5-1.5Zm6.5,1.5c0-.828-.672-1.5-1.5-1.5s-1.5,.672-1.5,1.5,.672,1.5,1.5,1.5,1.5-.672,1.5-1.5Z"/></svg>
