<?xml version="1.0" encoding="UTF-8"?>
<svg xmlns="http://www.w3.org/2000/svg" id="Layer_1" data-name="Layer 1" viewBox="0 0 24 24" width="512" height="512"><path d="M5.953,22.748c-.174,.677-.784,1.126-1.452,1.126-.124,0-.25-.015-.375-.048-2.429-.625-4.126-2.815-4.126-5.326V5.5C0,2.467,2.467,0,5.5,0h13c3.033,0,5.5,2.467,5.5,5.5v7c0,.828-.671,1.5-1.5,1.5s-1.5-.672-1.5-1.5V5.5c0-1.378-1.122-2.5-2.5-2.5H5.5c-1.378,0-2.5,1.122-2.5,2.5v13c0,1.142,.771,2.138,1.874,2.422,.802,.206,1.285,1.024,1.079,1.826Zm.547-17.748c-.828,0-1.5,.672-1.5,1.5s.672,1.5,1.5,1.5,1.5-.672,1.5-1.5-.672-1.5-1.5-1.5Zm3.5,1.5c0,.828,.672,1.5,1.5,1.5s1.5-.672,1.5-1.5-.672-1.5-1.5-1.5-1.5,.672-1.5,1.5Zm13.401,11.389c-.724-1.14-1.849-1.751-3.015-1.859-.553-.051-1.007-.402-1.198-.923-.778-2.118-3.008-3.529-5.496-2.993-1.491,.321-2.749,1.407-3.324,2.82-.414,1.017-.453,1.979-.248,2.849,.136,.575-.093,1.197-.634,1.434-.493,.216-.931,.599-1.226,1.159-.381,.723-.362,1.626,.045,2.334,.495,.86,1.344,1.29,2.193,1.29,.64,0,8.477,0,9.5,0,1.307,0,2.615-.637,3.417-1.911,.796-1.265,.786-2.939-.016-4.2Z"/></svg>
