<?xml version="1.0" encoding="UTF-8"?>
<svg xmlns="http://www.w3.org/2000/svg" id="Layer_1" data-name="Layer 1" viewBox="0 0 24 24" width="512" height="512"><path d="M19.5,3h-.551c-.245-1.692-1.691-3-3.449-3H3.5C1.57,0,0,1.57,0,3.5v2c0,1.93,1.57,3.5,3.5,3.5H15.5c1.758,0,3.204-1.308,3.449-3h.551c.827,0,1.5,.673,1.5,1.5v2c0,.827-.673,1.5-1.5,1.5h-7c-2.481,0-4.5,2.019-4.5,4.5v.51c-.603,.456-1,1.174-1,1.99v3.5c0,1.381,1.119,2.5,2.5,2.5s2.5-1.119,2.5-2.5v-3.5c0-.816-.397-1.533-1.001-1.99v-.51c.001-.827,.674-1.5,1.501-1.5h7c2.481,0,4.5-2.019,4.5-4.5v-2c0-2.481-2.019-4.5-4.5-4.5Zm-3.5,2.5c0,.275-.224,.5-.5,.5H3.5c-.276,0-.5-.225-.5-.5V3.5c0-.275,.224-.5,.5-.5H15.5c.276,0,.5,.225,.5,.5v2Z"/></svg>
