<?xml version="1.0" encoding="UTF-8"?>
<svg xmlns="http://www.w3.org/2000/svg" id="Layer_1" data-name="Layer 1" viewBox="0 0 24 24" width="512" height="512"><path d="M23,13a6.084,6.084,0,0,0-5.246-5.915A5.285,5.285,0,0,0,18,5.5,5.773,5.773,0,0,0,12,0,5.773,5.773,0,0,0,6,5.5a5.258,5.258,0,0,0,.247,1.585A6.084,6.084,0,0,0,1,13a6.136,6.136,0,0,0,6.25,6,5.558,5.558,0,0,0,3.133-1c-.245,1.477-.962,3-2.883,3h-1a1.5,1.5,0,0,0,0,3h11a1.5,1.5,0,0,0,0-3h-1c-1.711,0-2.511-1.53-2.826-2.967A5.529,5.529,0,0,0,16.75,19,6.136,6.136,0,0,0,23,13ZM12,3a2.787,2.787,0,0,1,3,2.5,3.883,3.883,0,0,1-1.725,2.723A16.123,16.123,0,0,0,12,9.447a16.022,16.022,0,0,0-1.263-1.213A3.833,3.833,0,0,1,9,5.5,2.787,2.787,0,0,1,12,3ZM7.25,16A3.136,3.136,0,0,1,4,13a3.136,3.136,0,0,1,3.25-3c2,0,3.387,2.728,3.4,2.749A1.45,1.45,0,0,0,10.8,13a1.564,1.564,0,0,0-.151.245C10.637,13.273,9.246,16,7.25,16Zm6.1-2.748A1.489,1.489,0,0,0,13.2,13a1.493,1.493,0,0,0,.151-.245c.013-.028,1.4-2.755,3.4-2.755A3.136,3.136,0,0,1,20,13a3.136,3.136,0,0,1-3.25,3C14.754,16,13.363,13.273,13.353,13.252Z"/></svg>
