<?xml version="1.0" encoding="UTF-8"?>
<svg xmlns="http://www.w3.org/2000/svg" id="Layer_1" data-name="Layer 1" viewBox="0 0 24 24" width="512" height="512"><path d="M23.729,12.307a4.476,4.476,0,0,1-2.326,2.54L2.136,23.859A1.5,1.5,0,0,1,.864,21.141l4.123-1.928v-6.02A4.483,4.483,0,0,1,6.216,10.1L9.148,7H3.5a1.5,1.5,0,0,1,0-3H9.9a4.813,4.813,0,0,1,2.845.923l.154.128a3.5,3.5,0,0,1,.062,5.01l-4.975,5v2.747l12.146-5.681a1.5,1.5,0,0,0,.725-1.993,1.5,1.5,0,0,1,2.719-1.27A4.469,4.469,0,0,1,23.729,12.307ZM16.487,5a2.5,2.5,0,1,0-2.5-2.5A2.5,2.5,0,0,0,16.487,5Z"/></svg>
