<?xml version="1.0" encoding="UTF-8"?>
<svg xmlns="http://www.w3.org/2000/svg" id="Layer_1" data-name="Layer 1" viewBox="0 0 24 24" width="512" height="512"><path d="M9.229,24.007a14.749,14.749,0,0,1-6.712-1.619A4.56,4.56,0,0,1,.063,19a4.7,4.7,0,0,1,1.312-4.045L14.953,1.375A4.707,4.707,0,0,1,19,.063a4.56,4.56,0,0,1,3.39,2.454A14.788,14.788,0,0,1,9.229,24.007ZM18.257,3a1.659,1.659,0,0,0-1.184.492h0L3.5,17.073a1.673,1.673,0,0,0-.47,1.457,1.6,1.6,0,0,0,.854,1.188A11.778,11.778,0,0,0,19.717,3.879a1.6,1.6,0,0,0-1.188-.854A1.79,1.79,0,0,0,18.257,3Zm.357,4.764a5.412,5.412,0,0,0-1.966-.751.527.527,0,0,0-.635.635,5.393,5.393,0,0,0,.752,1.966,1.308,1.308,0,1,0,1.849-1.85Zm-5,8a5.4,5.4,0,0,0-1.966-.751.526.526,0,0,0-.635.634,5.391,5.391,0,0,0,.752,1.967,1.308,1.308,0,0,0,1.849-1.85Zm3-3a5.412,5.412,0,0,0-1.966-.751.526.526,0,0,0-.635.635,5.412,5.412,0,0,0,.751,1.966,1.308,1.308,0,0,0,1.85-1.85Zm-8,4a5.386,5.386,0,0,0-1.966-.752.527.527,0,0,0-.635.635,5.386,5.386,0,0,0,.752,1.966,1.307,1.307,0,1,0,1.849-1.849Z"/></svg>
