<?xml version="1.0" encoding="UTF-8"?>
<svg xmlns="http://www.w3.org/2000/svg" id="Layer_1" data-name="Layer 1" viewBox="0 0 24 24" width="512" height="512"><path d="M14.955,0A8.986,8.986,0,0,0,7.672,14.207L.439,21.44a1.5,1.5,0,0,0,2.122,2.122l7.232-7.234A8.985,8.985,0,0,0,24,9,9.066,9.066,0,0,0,14.955,0ZM15,15a6,6,0,0,1-.164-11.993C16.846,3.471,18,5.116,18,7.561A2.3,2.3,0,0,1,15.5,10c-.715,0-1.5-.607-1.5-1.159,0-.581.292-.841.5-.841a1.5,1.5,0,0,0,0-3A3.639,3.639,0,0,0,11,8.841,4.453,4.453,0,0,0,15.5,13a5.256,5.256,0,0,0,5.441-4.8A5.962,5.962,0,0,1,15,15Z"/></svg>
