<?xml version="1.0" encoding="UTF-8"?>
<svg xmlns="http://www.w3.org/2000/svg" id="Layer_1" data-name="Layer 1" viewBox="0 0 24 24" width="512" height="512"><path d="M24,7.5A1.5,1.5,0,0,1,22.5,9H14.741a4.491,4.491,0,0,1-.679,4.25.442.442,0,0,0,0,.5,4.5,4.5,0,0,1,0,5.5.442.442,0,0,0,0,.5A4.461,4.461,0,0,1,15,22.5a1.5,1.5,0,0,1-3,0,1.482,1.482,0,0,0-.312-.916,3.452,3.452,0,0,1,0-4.169,1.5,1.5,0,0,0,0-1.831,3.452,3.452,0,0,1,0-4.169,1.5,1.5,0,0,0,0-1.831A3.356,3.356,0,0,1,11.336,9h-1.6a4.491,4.491,0,0,1-.679,4.25.442.442,0,0,0,0,.5,4.5,4.5,0,0,1,0,5.5.442.442,0,0,0,0,.5A4.461,4.461,0,0,1,10,22.5a1.5,1.5,0,0,1-3,0,1.482,1.482,0,0,0-.312-.916,3.45,3.45,0,0,1,0-4.169,1.5,1.5,0,0,0,0-1.831,3.45,3.45,0,0,1,0-4.169,1.5,1.5,0,0,0,0-1.831A3.356,3.356,0,0,1,6.336,9h-1.6A4.475,4.475,0,0,1,5,10.5a4.456,4.456,0,0,1-.938,2.75.442.442,0,0,0,0,.5,4.5,4.5,0,0,1,0,5.5.442.442,0,0,0,0,.5A4.461,4.461,0,0,1,5,22.5a1.5,1.5,0,0,1-3,0,1.482,1.482,0,0,0-.312-.916,3.45,3.45,0,0,1,0-4.169,1.5,1.5,0,0,0,0-1.831,3.45,3.45,0,0,1,0-4.169,1.5,1.5,0,0,0,0-1.831,3.317,3.317,0,0,1-.359-.6A1.5,1.5,0,0,1,1.5,6h21A1.5,1.5,0,0,1,24,7.5ZM1.5,5a1.388,1.388,0,0,0,.144-.007l21-2A1.5,1.5,0,0,0,22.357.007l-21,2A1.5,1.5,0,0,0,1.5,5Z"/></svg>
