<?xml version="1.0" encoding="UTF-8"?>
<svg xmlns="http://www.w3.org/2000/svg" id="Layer_1" data-name="Layer 1" viewBox="0 0 24 24" width="512" height="512"><path d="M17.25,24a6.094,6.094,0,0,1-4.973-2.4A3.73,3.73,0,0,0,9,20c-4.878,0-9-4.538-9-9.909A10.1,10.1,0,0,1,10.091,0C19.8,0,24,11.423,24,17.25A6.758,6.758,0,0,1,17.25,24ZM10.091,3A7.1,7.1,0,0,0,3,10.091C3,14.163,6.162,17,9,17a6.681,6.681,0,0,1,5.477,2.559A3.226,3.226,0,0,0,17.25,21,3.754,3.754,0,0,0,21,17.25C21,13.057,17.861,3,10.091,3Zm-2.03,9.061,4-4A1.5,1.5,0,0,0,9.939,5.939l-4,4a1.5,1.5,0,0,0,2.122,2.122Zm3.96,3.027,4.038-4.026a1.5,1.5,0,1,0-2.118-2.124L9.9,12.963a1.5,1.5,0,1,0,2.119,2.125Zm5.04,1.973,1-1a1.5,1.5,0,0,0-2.122-2.122l-1,1a1.5,1.5,0,0,0,2.122,2.122Z"/></svg>
